<svg width="35" height="25" viewBox="0 0 35 25" fill="none" xmlns="http://www.w3.org/2000/svg">
<rect x="0.810146" y="0.810146" width="33.3797" height="23.3797" rx="5.67102" fill="#006FCF" stroke="#F3F3F3" stroke-width="1.62029"/>
<path fill-rule="evenodd" clip-rule="evenodd" d="M7.15879 18.0586V12.912H12.7851L13.3888 13.6742L14.0124 12.912H34.4347V17.7036C34.4347 17.7036 33.9006 18.0534 33.2829 18.0586H21.9747L21.2941 17.2473V18.0586H19.0638V16.6737C19.0638 16.6737 18.7592 16.867 18.1005 16.867H17.3414V18.0586H13.9647L13.3619 17.2801L12.7498 18.0586H7.15879ZM0.603271 9.03306L1.86916 6.16821H4.05838L4.77678 7.77298V6.16821H7.49818L7.92585 7.32809L8.34046 6.16821H20.5567V6.75132C20.5567 6.75132 21.1989 6.16821 22.2543 6.16821L26.2181 6.18166L26.9241 7.76543V6.16821H29.2015L29.8283 7.07796V6.16821H32.1266V11.3148H29.8283L29.2276 10.4021V11.3148H25.8816L25.5451 10.5035H24.6456L24.3145 11.3148H22.0454C21.1372 11.3148 20.5567 10.7436 20.5567 10.7436V11.3148H17.1354L16.4563 10.5035V11.3148H3.73406L3.3978 10.5035H2.50114L2.16726 11.3148H0.603271V9.03306ZM0.610103 10.6563L2.31751 6.80267H3.61193L5.31771 10.6563H4.18161L3.86821 9.88461H2.03675L1.72171 10.6563H0.610103ZM3.50756 9.04797L2.9493 7.69953L2.38942 9.04797H3.50756ZM5.43486 10.6556V6.80203L7.01452 6.80773L7.9333 9.29228L8.83008 6.80203H10.3971V10.6556H9.40466V7.81614L8.35264 10.6556H7.48226L6.42731 7.81614V10.6556H5.43486ZM11.0762 10.6556V6.80203H14.3147V7.66402H12.0791V8.32319H14.2625V9.13447H12.0791V9.81899H14.3147V10.6556H11.0762ZM14.8892 10.6563V6.80267H17.0977C17.8295 6.80267 18.4852 7.24195 18.4852 8.05288C18.4852 8.74611 17.9324 9.19263 17.3964 9.23653L18.7023 10.6563H17.4895L16.2995 9.28723H15.8817V10.6563H14.8892ZM17.0162 7.66467H15.8818V8.47595H17.0309C17.2298 8.47595 17.4863 8.32633 17.4863 8.07031C17.4863 7.87131 17.2884 7.66467 17.0162 7.66467ZM19.9038 10.6556H18.8905V6.80203H19.9038V10.6556ZM22.3066 10.6556H22.0878C21.0295 10.6556 20.387 9.84625 20.387 8.74468C20.387 7.61589 21.0223 6.80203 22.3588 6.80203H23.4557V7.71473H22.3187C21.7762 7.71473 21.3925 8.12573 21.3925 8.75418C21.3925 9.50048 21.8312 9.81392 22.4633 9.81392H22.7244L22.3066 10.6556ZM22.7589 10.6563L24.4663 6.80267H25.7607L27.4665 10.6563H26.3304L26.017 9.88461H24.1855L23.8705 10.6563H22.7589ZM25.6564 9.04797L25.0981 7.69953L24.5382 9.04797H25.6564ZM27.5821 10.6556V6.80203H28.8439L30.455 9.22321V6.80203H31.4475V10.6556H30.2265L28.5746 8.17108V10.6556H27.5821ZM7.83761 17.3994V13.5458H11.0761V14.4078H8.8405V15.067H11.0239V15.8783H8.8405V16.5628H11.0761V17.3994H7.83761ZM23.7063 17.3994V13.5458H26.9448V14.4078H24.7092V15.067H26.8821V15.8783H24.7092V16.5628H26.9448V17.3994H23.7063ZM11.202 17.3994L12.7788 15.4964L11.1644 13.5458H12.4148L13.3762 14.7516L14.3409 13.5458H15.5423L13.9492 15.4726L15.5289 17.3994H14.2787L13.3452 16.2126L12.4344 17.3994H11.202ZM15.6467 17.4001V13.5465H17.8389C18.7385 13.5465 19.264 14.1093 19.264 14.8426C19.264 15.7279 18.5939 16.1831 17.71 16.1831H16.6653V17.4001H15.6467ZM17.7655 14.418H16.6654V15.3053H17.7623C18.0521 15.3053 18.2552 15.1188 18.2552 14.8616C18.2552 14.5879 18.0511 14.418 17.7655 14.418ZM19.6948 17.3994V13.5458H21.9033C22.6351 13.5458 23.2908 13.9851 23.2908 14.796C23.2908 15.4893 22.738 15.9358 22.202 15.9797L23.5079 17.3994H22.2951L21.1051 16.0304H20.6873V17.3994H19.6948ZM21.8218 14.4078H20.6873V15.2191H21.8365C22.0354 15.2191 22.2919 15.0695 22.2919 14.8135C22.2919 14.6145 22.0939 14.4078 21.8218 14.4078ZM27.4048 17.3994V16.5628H29.391C29.6848 16.5628 29.8121 16.4086 29.8121 16.2395C29.8121 16.0775 29.6852 15.9138 29.391 15.9138H28.4934C27.7132 15.9138 27.2787 15.4523 27.2787 14.7596C27.2787 14.1417 27.6766 13.5458 28.836 13.5458H30.7686L30.3508 14.4129H28.6793C28.3598 14.4129 28.2614 14.5756 28.2614 14.7311C28.2614 14.8908 28.3829 15.067 28.627 15.067H29.5672C30.437 15.067 30.8143 15.5459 30.8143 16.173C30.8143 16.8472 30.3938 17.3994 29.5199 17.3994H27.4048ZM30.9017 17.3994V16.5628H32.8879C33.1818 16.5628 33.309 16.4086 33.309 16.2395C33.309 16.0775 33.1822 15.9138 32.8879 15.9138H31.9903C31.2102 15.9138 30.7757 15.4523 30.7757 14.7596C30.7757 14.1417 31.1736 13.5458 32.3329 13.5458H34.2656L33.8477 14.4129H32.1762C31.8567 14.4129 31.7583 14.5756 31.7583 14.7311C31.7583 14.8908 31.8799 15.067 32.124 15.067H33.0642C33.9339 15.067 34.3113 15.5459 34.3113 16.173C34.3113 16.8472 33.8907 17.3994 33.0168 17.3994H30.9017Z" fill="white"/>
</svg>
