<svg width="35" height="25" viewBox="0 0 35 25" fill="none" xmlns="http://www.w3.org/2000/svg">
<rect x="1.72966" y="1.72966" width="31.5407" height="21.5407" rx="2.27034" fill="white" stroke="#F3F3F3" stroke-width="3.45932"/>
<path fill-rule="evenodd" clip-rule="evenodd" d="M23.1657 12.5696H23.1804H23.2088H23.2372H23.2657H23.2941H23.3225H23.3509H23.3794H23.4078H23.4362H23.4646H23.4931H23.5215H23.5499H23.5783H23.6067H23.6351H23.6636H23.692H23.7204H23.7488H23.7773H23.8057H23.8341H23.8625H23.8909H23.9194H23.9478H23.9762H24.0046H24.033H24.0615H24.0899H24.1183H24.1467H24.1751H24.2036H24.232H24.2604H24.2888H24.3173H24.3457H24.3741H24.4025H24.4309H24.4593H24.4878H24.5162H24.5446H24.573H24.6015H24.6299H24.6583H24.6867H24.7151H24.7436H24.772H24.8004H24.8288H24.8572H24.8809L24.8857 12.5697C24.8944 12.5699 24.904 12.5704 24.9141 12.5709C24.9232 12.5714 24.9327 12.5721 24.9425 12.5728C24.9519 12.5735 24.9614 12.5743 24.9709 12.5752C24.9805 12.5761 24.99 12.5771 24.9994 12.5782C25.0091 12.5793 25.0187 12.5805 25.0278 12.5818C25.0379 12.5832 25.0475 12.5846 25.0562 12.5861C25.0624 12.5872 25.0682 12.5883 25.0734 12.5895L25.0846 12.5921C25.0941 12.5944 25.1036 12.5968 25.113 12.5995C25.1226 12.6022 25.132 12.6051 25.1415 12.6082C25.151 12.6113 25.1605 12.6146 25.1699 12.6181C25.1794 12.6217 25.1889 12.6254 25.1983 12.6294C25.2079 12.6334 25.2173 12.6376 25.2267 12.642C25.2363 12.6465 25.2458 12.6512 25.2551 12.6561C25.2647 12.6611 25.2742 12.6663 25.2835 12.6718C25.2931 12.6773 25.3026 12.6831 25.312 12.6891C25.3216 12.6952 25.3311 12.7016 25.3404 12.7081C25.35 12.7149 25.3595 12.7219 25.3688 12.7291C25.3784 12.7366 25.3879 12.7443 25.3972 12.7523C25.4069 12.7605 25.4164 12.7691 25.4257 12.7779C25.4354 12.787 25.4449 12.7964 25.4541 12.8061C25.4638 12.8163 25.4733 12.8268 25.4825 12.8376C25.4923 12.849 25.5018 12.8608 25.5109 12.8729C25.5208 12.8859 25.5303 12.8992 25.5394 12.9129C25.5493 12.9279 25.5588 12.9433 25.5678 12.9591C25.5779 12.9769 25.5874 12.9953 25.5962 13.0141C25.6066 13.0364 25.6162 13.0594 25.6246 13.083C25.636 13.1148 25.6455 13.1478 25.653 13.1818C25.666 13.2407 25.673 13.3028 25.673 13.3676C25.673 13.4327 25.6661 13.4951 25.653 13.5542C25.6455 13.5883 25.636 13.6214 25.6246 13.6532C25.6161 13.6769 25.6066 13.6999 25.5962 13.7223C25.5874 13.7412 25.5779 13.7595 25.5678 13.7774C25.5588 13.7932 25.5493 13.8086 25.5394 13.8236C25.5303 13.8373 25.5208 13.8506 25.5109 13.8636C25.5018 13.8757 25.4923 13.8875 25.4825 13.8989C25.4733 13.9097 25.4638 13.9202 25.4541 13.9304C25.4449 13.9401 25.4353 13.9494 25.4257 13.9586C25.4164 13.9673 25.4069 13.9758 25.3972 13.984C25.3879 13.992 25.3785 13.9997 25.3688 14.0072C25.3595 14.0143 25.35 14.0213 25.3404 14.028C25.3311 14.0346 25.3216 14.0409 25.312 14.047C25.3026 14.053 25.2931 14.0587 25.2835 14.0643C25.2742 14.0696 25.2647 14.0748 25.2551 14.0798C25.2458 14.0847 25.2363 14.0893 25.2267 14.0938C25.2173 14.0982 25.2079 14.1023 25.1983 14.1063C25.1889 14.1102 25.1794 14.114 25.1699 14.1175C25.1605 14.121 25.151 14.1242 25.1415 14.1273C25.132 14.1304 25.1226 14.1332 25.113 14.1358C25.1036 14.1385 25.0941 14.1409 25.0846 14.1432L25.0734 14.1457C25.0682 14.147 25.0624 14.1481 25.0562 14.1493C25.0475 14.1509 25.0379 14.1524 25.0278 14.1538C25.0187 14.155 25.0091 14.1562 24.9994 14.1574C24.99 14.1584 24.9805 14.1594 24.9709 14.1603C24.9614 14.1612 24.9519 14.162 24.9425 14.1626C24.9327 14.1634 24.9232 14.164 24.9141 14.1645C24.904 14.165 24.8944 14.1654 24.8857 14.1656L24.8704 14.1658H24.8572H24.8288H24.8004H24.772H24.7436H24.7151H24.6867H24.6583H24.6299H24.6015H24.573H24.5446H24.5162H24.4878H24.4593H24.4309H24.4025H24.3741H24.3457H24.3173H24.2888H24.2604H24.232H24.2036H24.1751H24.1467H24.1183H24.0899H24.0615H24.033H24.0046H23.9762H23.9478H23.9194H23.8909H23.8625H23.8341H23.8057H23.7773H23.7488H23.7204H23.692H23.6636H23.6351H23.6067H23.5783H23.5499H23.5215H23.4931H23.4646H23.4362H23.4078H23.3794H23.3509H23.3225H23.2941H23.2657H23.2372H23.2088H23.1804H23.1657V12.5696V12.5696ZM25.4542 10.763C25.4656 10.8166 25.4717 10.8733 25.4717 10.9331C25.4717 10.9928 25.4656 11.0495 25.4542 11.103C25.4468 11.1374 25.4373 11.1705 25.4258 11.2022C25.4173 11.2253 25.4078 11.2477 25.3973 11.2693C25.3886 11.2875 25.3791 11.3051 25.3689 11.3221C25.36 11.3371 25.3504 11.3517 25.3405 11.3659C25.3314 11.3788 25.3219 11.3914 25.3121 11.4036C25.3029 11.4149 25.2935 11.4259 25.2837 11.4366C25.2745 11.4466 25.265 11.4563 25.2553 11.4657C25.246 11.4746 25.2365 11.4833 25.2268 11.4917C25.2175 11.4998 25.2081 11.5075 25.1984 11.5151C25.1891 11.5223 25.1796 11.5293 25.17 11.5361C25.1607 11.5426 25.1512 11.5489 25.1416 11.555C25.1322 11.5609 25.1227 11.5666 25.1131 11.572C25.1038 11.5774 25.0943 11.5825 25.0847 11.5874C25.0754 11.5922 25.0659 11.5968 25.0563 11.6011C25.0469 11.6054 25.0374 11.6095 25.0279 11.6134C25.0185 11.6172 25.009 11.6208 24.9995 11.6242C24.9901 11.6275 24.9806 11.6307 24.9711 11.6337C24.9616 11.6366 24.9522 11.6394 24.9426 11.6419C24.9332 11.6444 24.9238 11.6467 24.9142 11.6489C24.9048 11.651 24.8953 11.6529 24.8858 11.6546L24.8789 11.6559C24.8734 11.6569 24.866 11.658 24.8574 11.6591C24.849 11.6602 24.8393 11.6614 24.8289 11.6624C24.8199 11.6634 24.8104 11.6643 24.8005 11.6651C24.7912 11.6659 24.7817 11.6666 24.7721 11.6673C24.7626 11.6679 24.753 11.6684 24.7437 11.6688C24.7338 11.6692 24.7243 11.6695 24.7153 11.6695L24.7108 11.6696H24.6869H24.6584H24.63H24.6016H24.5732H24.5447H24.5163H24.4879H24.4595H24.4311H24.4027H24.3742H24.3458H24.3174H24.289H24.2606H24.2321H24.2037H24.1753H24.1469H24.1185H24.09H24.0616H24.0332H24.0048H23.9764H23.9479H23.9195H23.8911H23.8627H23.8343H23.8058H23.7774H23.749H23.7206H23.6922H23.6637H23.6353H23.6069H23.5785H23.5501H23.5216H23.4932H23.4648H23.4364H23.408H23.3795H23.3511H23.3227H23.2943H23.2659H23.2374H23.209H23.1806H23.1657V10.1966H23.1806H23.209H23.2374H23.2659H23.2943H23.3227H23.3511H23.3795H23.408H23.4364H23.4648H23.4932H23.5216H23.5501H23.5785H23.6069H23.6353H23.6637H23.6922H23.7206H23.749H23.7774H23.8058H23.8343H23.8627H23.8911H23.9195H23.9479H23.9764H24.0048H24.0332H24.0616H24.09H24.1185H24.1469H24.1753H24.2037H24.2321H24.2606H24.289H24.3174H24.3458H24.3742H24.4027H24.4311H24.4595H24.4879H24.5163H24.5447H24.5732H24.6016H24.63H24.6584H24.6869H24.7153H24.7272L24.7437 10.1971C24.753 10.1975 24.7626 10.1981 24.7721 10.1987C24.7817 10.1994 24.7912 10.2001 24.8005 10.2009C24.8104 10.2017 24.8199 10.2026 24.8289 10.2035C24.8393 10.2045 24.849 10.2056 24.8574 10.2066C24.866 10.2076 24.8734 10.2086 24.8789 10.2094L24.8858 10.2106C24.8953 10.2124 24.9048 10.2144 24.9142 10.2165C24.9238 10.2187 24.9332 10.221 24.9426 10.2236C24.9522 10.2262 24.9616 10.2289 24.9711 10.2318C24.9806 10.2348 24.9901 10.238 24.9995 10.2414C25.009 10.2448 25.0185 10.2485 25.0279 10.2523C25.0374 10.2562 25.0469 10.2603 25.0563 10.2646C25.0659 10.269 25.0754 10.2736 25.0847 10.2784C25.0943 10.2833 25.1038 10.2884 25.1131 10.2937C25.1227 10.2992 25.1322 10.3049 25.1416 10.3108C25.1512 10.3169 25.1607 10.3232 25.17 10.3297C25.1796 10.3365 25.1891 10.3435 25.1984 10.3508C25.2081 10.3583 25.2175 10.3661 25.2268 10.3741C25.2365 10.3826 25.246 10.3913 25.2553 10.4002C25.265 10.4096 25.2745 10.4193 25.2837 10.4293C25.2935 10.44 25.3029 10.451 25.3121 10.4623C25.3219 10.4745 25.3314 10.4871 25.3405 10.5C25.3504 10.5142 25.36 10.5288 25.3689 10.5439C25.3791 10.5609 25.3886 10.5785 25.3973 10.5966C25.4078 10.6182 25.4173 10.6407 25.4258 10.6638C25.4373 10.6955 25.4468 10.7286 25.4542 10.763ZM28.9788 3.125H28.9905L28.9904 18.253C28.9904 18.3434 28.9864 18.4328 28.9788 18.5212C28.9722 18.5989 28.9626 18.6758 28.9504 18.7518C28.9421 18.8029 28.9327 18.8535 28.922 18.9036C28.9133 18.9444 28.9038 18.9849 28.8935 19.0251C28.8846 19.0597 28.8751 19.0941 28.8651 19.1283C28.856 19.1592 28.8467 19.1899 28.8367 19.2204C28.8276 19.248 28.8181 19.2754 28.8083 19.3027C28.7991 19.3281 28.7896 19.3533 28.7798 19.3783C28.7706 19.4019 28.7612 19.4253 28.7514 19.4485C28.7422 19.4706 28.7327 19.4925 28.723 19.5142C28.7137 19.5349 28.7042 19.5556 28.6946 19.576C28.6853 19.5956 28.6758 19.6152 28.6661 19.6345C28.6568 19.6531 28.6473 19.6716 28.6377 19.6899C28.6284 19.7075 28.6189 19.725 28.6093 19.7424C28.6 19.7593 28.5905 19.776 28.5809 19.7927C28.5715 19.8089 28.562 19.825 28.5524 19.8411C28.543 19.8566 28.5336 19.8722 28.524 19.8876C28.5147 19.9025 28.5051 19.9173 28.4956 19.932C28.4862 19.9464 28.4767 19.9606 28.4671 19.9748C28.4578 19.9887 28.4483 20.0025 28.4387 20.0163C28.4293 20.0297 28.4199 20.0431 28.4103 20.0563C28.4009 20.0693 28.3914 20.082 28.3819 20.0948C28.3725 20.1073 28.363 20.1199 28.3534 20.1323C28.344 20.1444 28.3346 20.1565 28.325 20.1685C28.3156 20.1803 28.3061 20.1919 28.2966 20.2035C28.2871 20.215 28.2778 20.2265 28.2682 20.2378C28.2588 20.2489 28.2493 20.2598 28.2397 20.2707C28.2303 20.2815 28.2209 20.2922 28.2113 20.3029C28.2019 20.3134 28.1925 20.3239 28.1829 20.3342C28.1735 20.3444 28.164 20.3544 28.1545 20.3644C28.145 20.3744 28.1356 20.3844 28.126 20.3942C28.1166 20.4038 28.1071 20.4133 28.0976 20.4228C28.0882 20.4322 28.0787 20.4416 28.0692 20.4509C28.0598 20.46 28.0503 20.4691 28.0408 20.4781C28.0313 20.487 28.0218 20.4959 28.0123 20.5047C28.0029 20.5133 27.9935 20.522 27.9839 20.5306C27.9745 20.539 27.965 20.5474 27.9555 20.5558C27.946 20.564 27.9366 20.5723 27.9271 20.5804C27.9177 20.5885 27.9081 20.5964 27.8986 20.6043C27.8892 20.6122 27.8798 20.62 27.8702 20.6278C27.8608 20.6355 27.8513 20.6429 27.8418 20.6505C27.8323 20.6579 27.8229 20.6654 27.8134 20.6728C27.804 20.6801 27.7944 20.6872 27.7849 20.6944C27.7755 20.7015 27.766 20.7087 27.7565 20.7157C27.7471 20.7226 27.7376 20.7293 27.7281 20.7361C27.7186 20.7429 27.7092 20.7497 27.6996 20.7564C27.6902 20.763 27.6807 20.7694 27.6712 20.7759C27.6618 20.7823 27.6523 20.7888 27.6428 20.7951C27.6334 20.8014 27.6239 20.8075 27.6144 20.8137C27.6049 20.8198 27.5955 20.8259 27.5859 20.8319C27.5765 20.8379 27.5671 20.8438 27.5575 20.8496L27.5291 20.8669C27.5196 20.8726 27.5102 20.8782 27.5007 20.8838C27.4913 20.8893 27.4817 20.8947 27.4722 20.9002C27.4628 20.9056 27.4534 20.911 27.4438 20.9163C27.4344 20.9215 27.4249 20.9266 27.4154 20.9317C27.4059 20.9368 27.3965 20.9421 27.387 20.9471C27.3776 20.9521 27.368 20.9568 27.3586 20.9617C27.3491 20.9665 27.3397 20.9714 27.3301 20.9762C27.3207 20.9808 27.3112 20.9854 27.3017 20.99L27.2733 21.0037L27.2449 21.0169C27.2354 21.0213 27.2259 21.0255 27.2164 21.0297C27.2069 21.0339 27.1975 21.0383 27.188 21.0424C27.1786 21.0465 27.1691 21.0503 27.1596 21.0543C27.1501 21.0583 27.1407 21.0624 27.1312 21.0662C27.1217 21.0701 27.1122 21.0737 27.1027 21.0775C27.0933 21.0812 27.0838 21.085 27.0743 21.0886L27.0459 21.0994C27.0364 21.1029 27.0269 21.1063 27.0174 21.1096C27.008 21.1131 26.9986 21.1166 26.989 21.1199C26.9796 21.1232 26.9701 21.1262 26.9606 21.1294L26.9322 21.1389C26.9227 21.1419 26.9132 21.1449 26.9037 21.1479L26.8753 21.1565C26.8659 21.1594 26.8564 21.1623 26.8469 21.1651C26.8375 21.1678 26.8279 21.1704 26.8185 21.173C26.809 21.1756 26.7996 21.1784 26.79 21.1809L26.7616 21.1883L26.7332 21.1954L26.7048 21.2023C26.6953 21.2046 26.6858 21.2066 26.6763 21.2087C26.6669 21.2108 26.6574 21.213 26.6479 21.2151L26.6195 21.2209L26.5911 21.2265C26.5816 21.2283 26.5721 21.2303 26.5626 21.232C26.5532 21.2337 26.5437 21.2352 26.5342 21.2368L26.5058 21.2417L26.4774 21.2461L26.4489 21.2501C26.4394 21.2515 26.43 21.253 26.4205 21.2542C26.4111 21.2555 26.4015 21.2564 26.3921 21.2576C26.3826 21.2587 26.3732 21.2599 26.3637 21.2609C26.3542 21.262 26.3447 21.263 26.3352 21.264C26.3258 21.2649 26.3163 21.2657 26.3068 21.2666C26.2973 21.2674 26.2879 21.2684 26.2784 21.2691C26.2689 21.2699 26.2594 21.2705 26.25 21.2712L26.2215 21.273C26.2121 21.2736 26.2026 21.2743 26.1931 21.2748C26.1837 21.2753 26.1741 21.2755 26.1647 21.2759L26.1363 21.277L26.1078 21.2778C26.0984 21.278 26.0889 21.278 26.0794 21.2781L26.051 21.2785L26.0451 21.2786H26.0226H25.9941H25.9657H25.9373H25.9088H25.8804H25.852H25.8236H25.7951H25.7667H25.7383H25.7099H25.6814H25.653H25.6246H25.5962H25.5677H25.5393H25.5109H25.4825H25.454H25.4256H25.3972H25.3688H25.3403H25.3119H25.2835H25.2551H25.2266H25.1982H25.1698H25.1414H25.1129H25.0845H25.0561H25.0277H24.9992H24.9708H24.9424H24.914H24.8855H24.8571H24.8287H24.8002H24.7718H24.7434H24.715H24.6866H24.6581H24.6297H24.6013H24.5729H24.5444H24.516H24.4876H24.4592H24.4307H24.4023H24.3739H24.3455H24.317H24.2886H24.2602H24.2318H24.2033H24.1749H24.1465H24.118H24.0896H24.0612H24.0328H24.0043H23.9759H23.9475H23.9191H23.8906H23.8622H23.8338H23.8054H23.7769H23.7485H23.7201H23.6917H23.6632H23.6348H23.6064H23.578H23.5495H23.5211H23.4927H23.4643H23.4358H23.4074H23.379H23.3506H23.3221H23.2937H23.2653H23.2369H23.2084H23.18H23.1516H23.1232H23.0947H23.0663H23.0379H23.0094H22.981H22.9526H22.9242H22.8957H22.8673H22.8389H22.8105H22.782H22.7536H22.7252H22.6968H22.6684H22.6399H22.6115H22.5831H22.5547H22.5262H22.4978H22.4694H22.441H22.4125H22.3841H22.3557H22.3273H22.2988H22.2704H22.242H22.2135H22.1851H22.1567H22.1283H22.0998H22.0714H22.043H22.0146H21.9861H21.9577H21.9293H21.9009H21.8724H21.844H21.8156H21.7872H21.7258V15.1104H21.7872H21.8156H21.844H21.8724H21.9009H21.9293H21.9577H21.9861H22.0146H22.043H22.0714H22.0998H22.1283H22.1567H22.1851H22.2135H22.242H22.2704H22.2988H22.3273H22.3557H22.3841H22.4125H22.441H22.4694H22.4978H22.5262H22.5547H22.5831H22.6115H22.6399H22.6684H22.6968H22.7252H22.7536H22.782H22.8105H22.8389H22.8673H22.8957H22.9242H22.9526H22.981H23.0094H23.0379H23.0663H23.0947H23.1232H23.1516H23.18H23.2084H23.2369H23.2653H23.2937H23.3221H23.3506H23.379H23.4074H23.4358H23.4643H23.4927H23.5211H23.5495H23.578H23.6064H23.6348H23.6632H23.6917H23.7201H23.7485H23.7769H23.8054H23.8338H23.8622H23.8906H23.9191H23.9475H23.9759H24.0043H24.0328H24.0612H24.0896H24.118H24.1465H24.1749H24.2033H24.2318H24.2602H24.2886H24.317H24.3455H24.3739H24.4023H24.4307H24.4592H24.4876H24.516H24.5444H24.5729H24.6013H24.6297H24.6581H24.6866H24.715H24.7434H24.7718H24.8002H24.8287H24.8571H24.8855H24.914H24.9424H24.9708H24.9992H25.0277H25.0561H25.0845H25.1129H25.1414H25.1698H25.1982H25.2266H25.2551H25.2835H25.3119H25.3403H25.3688H25.3972H25.4256H25.454H25.4825H25.5109H25.5393H25.5677H25.5962H25.6246H25.653H25.6814H25.7099H25.7383H25.7667H25.7951H25.8236H25.852H25.8804H25.9088H25.9373H25.9657H25.9941H26.0226H26.051H26.0794H26.1078H26.1363H26.1647H26.1931H26.2215H26.25H26.2784H26.2934L26.3068 15.1102L26.3352 15.11L26.3637 15.1094C26.3732 15.1092 26.3826 15.109 26.3921 15.1087C26.4016 15.1083 26.411 15.1079 26.4205 15.1074L26.4489 15.1061L26.4774 15.1043L26.5058 15.1023L26.5342 15.1L26.5626 15.0973C26.5721 15.0964 26.5816 15.0955 26.5911 15.0945C26.6006 15.0935 26.61 15.0923 26.6195 15.0912L26.6479 15.0876C26.6574 15.0864 26.6669 15.0852 26.6763 15.0838C26.6859 15.0825 26.6953 15.081 26.7048 15.0795C26.7143 15.078 26.7238 15.0766 26.7332 15.075L26.7616 15.0701L26.79 15.0648C26.7995 15.063 26.809 15.0613 26.8185 15.0593C26.828 15.0574 26.8374 15.0553 26.8469 15.0533L26.8753 15.047C26.8848 15.0448 26.8943 15.0426 26.9037 15.0403C26.9133 15.038 26.9227 15.0356 26.9322 15.0332C26.9417 15.0308 26.9512 15.0283 26.9606 15.0258C26.9701 15.0232 26.9796 15.0206 26.989 15.0179C26.9985 15.0152 27.008 15.0124 27.0174 15.0096C27.0269 15.0068 27.0364 15.0039 27.0459 15.0009L27.0743 14.9918C27.0838 14.9886 27.0933 14.9854 27.1027 14.9821C27.1122 14.9788 27.1217 14.9756 27.1312 14.9721C27.1407 14.9687 27.1502 14.9653 27.1596 14.9617C27.1691 14.9581 27.1786 14.9543 27.188 14.9506C27.1975 14.9468 27.207 14.943 27.2164 14.9391C27.2259 14.9352 27.2355 14.9312 27.2449 14.9272C27.2544 14.9231 27.2638 14.9188 27.2733 14.9146C27.2828 14.9103 27.2923 14.9059 27.3017 14.9014C27.3112 14.8969 27.3207 14.8924 27.3301 14.8878C27.3396 14.8831 27.3492 14.8784 27.3586 14.8736C27.3681 14.8686 27.3775 14.8637 27.387 14.8586C27.3965 14.8535 27.406 14.8482 27.4154 14.843C27.425 14.8376 27.4344 14.8322 27.4438 14.8267C27.4534 14.8212 27.4629 14.8155 27.4722 14.8098C27.4818 14.804 27.4913 14.7981 27.5007 14.7921C27.5102 14.786 27.5197 14.7798 27.5291 14.7735C27.5387 14.7672 27.5481 14.7607 27.5575 14.7541C27.5671 14.7475 27.5766 14.7407 27.5859 14.7338C27.5955 14.7268 27.605 14.7198 27.6144 14.7126C27.624 14.7053 27.6334 14.6979 27.6428 14.6904C27.6524 14.6827 27.6619 14.6749 27.6712 14.6671C27.6808 14.659 27.6903 14.6509 27.6996 14.6426C27.7093 14.6341 27.7187 14.6255 27.7281 14.6168C27.7377 14.6079 27.7472 14.5988 27.7565 14.5897C27.7661 14.5802 27.7756 14.5707 27.7849 14.561C27.7946 14.551 27.804 14.5408 27.8134 14.5306C27.823 14.52 27.8325 14.5092 27.8418 14.4983C27.8514 14.487 27.8609 14.4756 27.8702 14.464C27.8799 14.4519 27.8894 14.4397 27.8986 14.4273C27.9083 14.4144 27.9179 14.4013 27.9271 14.388C27.9368 14.3739 27.9462 14.3596 27.9555 14.3451C27.9653 14.3297 27.9747 14.3142 27.9839 14.2985C27.9938 14.2816 28.0032 14.2644 28.0123 14.247C28.0222 14.2281 28.0318 14.209 28.0408 14.1896C28.0508 14.1678 28.0603 14.1458 28.0692 14.1234C28.0794 14.0977 28.0889 14.0717 28.0976 14.0453C28.1083 14.0126 28.1177 13.9794 28.126 13.9455C28.1382 13.896 28.1477 13.8452 28.1545 13.7932C28.1627 13.73 28.167 13.6651 28.167 13.5984C28.167 13.5335 28.1628 13.4704 28.1545 13.4092C28.1477 13.3588 28.1381 13.3098 28.126 13.262C28.1178 13.2295 28.1083 13.1975 28.0976 13.1662C28.0889 13.1405 28.0794 13.1152 28.0692 13.0904C28.0603 13.0689 28.0508 13.0477 28.0408 13.0268C28.0317 13.008 28.0222 12.9895 28.0123 12.9713C28.0032 12.9545 27.9938 12.9379 27.9839 12.9215C27.9748 12.9063 27.9653 12.8914 27.9555 12.8766C27.9463 12.8627 27.9368 12.8488 27.9271 12.8353C27.9179 12.8224 27.9083 12.8098 27.8986 12.7973C27.8894 12.7854 27.8799 12.7736 27.8702 12.7619C27.8609 12.7507 27.8515 12.7397 27.8418 12.7287C27.8325 12.7182 27.823 12.7079 27.8134 12.6976C27.8041 12.6877 27.7946 12.678 27.7849 12.6684C27.7756 12.659 27.7661 12.6498 27.7565 12.6407C27.7472 12.6319 27.7377 12.6232 27.7281 12.6145C27.7187 12.6061 27.7093 12.5978 27.6996 12.5897C27.6903 12.5817 27.6808 12.5738 27.6712 12.566C27.6619 12.5584 27.6524 12.5509 27.6428 12.5435C27.6334 12.5362 27.6239 12.5291 27.6144 12.522C27.605 12.515 27.5955 12.5082 27.5859 12.5014C27.5766 12.4948 27.5671 12.4883 27.5575 12.4818C27.5481 12.4755 27.5387 12.4692 27.5291 12.463C27.5197 12.457 27.5102 12.451 27.5007 12.4451C27.4913 12.4393 27.4818 12.4336 27.4722 12.4279C27.4628 12.4224 27.4534 12.4169 27.4438 12.4115C27.4344 12.4062 27.425 12.401 27.4154 12.3958C27.406 12.3907 27.3965 12.3857 27.387 12.3807C27.3776 12.3758 27.3681 12.3709 27.3586 12.3662C27.3491 12.3615 27.3397 12.3568 27.3301 12.3522C27.3207 12.3477 27.3112 12.3433 27.3017 12.339C27.2923 12.3347 27.2828 12.3304 27.2733 12.3262C27.2638 12.3221 27.2544 12.318 27.2449 12.314C27.2354 12.3101 27.226 12.3061 27.2164 12.3022C27.207 12.2984 27.1975 12.2947 27.188 12.291C27.1786 12.2874 27.1691 12.2839 27.1596 12.2803C27.1501 12.2768 27.1407 12.2735 27.1312 12.2701C27.1217 12.2667 27.1123 12.2634 27.1027 12.2602C27.0933 12.257 27.0838 12.2539 27.0743 12.2508C27.0649 12.2477 27.0554 12.2448 27.0459 12.2418L27.0174 12.2333C27.008 12.2305 26.9985 12.2277 26.989 12.2251C26.9796 12.2224 26.9701 12.2199 26.9606 12.2174C26.9512 12.2148 26.9417 12.2124 26.9322 12.21C26.9227 12.2076 26.9133 12.2052 26.9037 12.203C26.8943 12.2007 26.8848 12.1985 26.8753 12.1963C26.8659 12.1942 26.8564 12.1921 26.8469 12.1901C26.8374 12.188 26.828 12.186 26.8185 12.1841L26.79 12.1785L26.7616 12.1733C26.7522 12.1716 26.7427 12.1699 26.7332 12.1683L26.7048 12.1637C26.6953 12.1623 26.6858 12.1609 26.6763 12.1595L26.6479 12.1555L26.6195 12.1519L26.5911 12.1486L26.5626 12.1455L26.5342 12.1428L26.5058 12.1403L26.4795 12.1383L26.4795 12.1033L26.5058 12.0991L26.5342 12.0943C26.5437 12.0926 26.5532 12.0909 26.5626 12.0891L26.5911 12.0835C26.6006 12.0816 26.6101 12.0796 26.6195 12.0775L26.6479 12.0712C26.6574 12.069 26.6669 12.0667 26.6763 12.0644C26.6859 12.062 26.6953 12.0596 26.7048 12.0571C26.7143 12.0546 26.7238 12.052 26.7332 12.0494C26.7427 12.0467 26.7522 12.044 26.7616 12.0412C26.7711 12.0384 26.7806 12.0356 26.79 12.0327C26.7996 12.0297 26.8091 12.0267 26.8185 12.0236C26.828 12.0204 26.8375 12.0172 26.8469 12.0139C26.8565 12.0106 26.8659 12.0072 26.8753 12.0037C26.8849 12.0002 26.8943 11.9967 26.9037 11.9931C26.9133 11.9894 26.9228 11.9857 26.9322 11.9819C26.9417 11.978 26.9512 11.9741 26.9606 11.9701C26.9701 11.966 26.9796 11.9619 26.989 11.9577C26.9986 11.9534 27.008 11.9491 27.0174 11.9446C27.027 11.9401 27.0365 11.9355 27.0459 11.9309C27.0554 11.9262 27.0649 11.9214 27.0743 11.9165C27.0838 11.9115 27.0933 11.9065 27.1027 11.9014C27.1123 11.8962 27.1218 11.8909 27.1312 11.8855C27.1407 11.8801 27.1502 11.8745 27.1596 11.8689C27.1691 11.8632 27.1786 11.8573 27.188 11.8514C27.1976 11.8454 27.207 11.8393 27.2164 11.8331C27.226 11.8268 27.2355 11.8203 27.2449 11.8138C27.2544 11.8072 27.2639 11.8004 27.2733 11.7936C27.2829 11.7865 27.2923 11.7795 27.3017 11.7723C27.3113 11.7649 27.3208 11.7574 27.3301 11.7499C27.3397 11.7421 27.3492 11.7342 27.3586 11.7262C27.3682 11.718 27.3776 11.7097 27.387 11.7012C27.3966 11.6925 27.4061 11.6837 27.4154 11.6747C27.425 11.6655 27.4345 11.6562 27.4438 11.6467C27.4535 11.6369 27.463 11.6271 27.4722 11.6171C27.4819 11.6066 27.4914 11.5961 27.5007 11.5854C27.5104 11.5742 27.5198 11.5629 27.5291 11.5515C27.5388 11.5396 27.5483 11.5275 27.5575 11.5153C27.5673 11.5024 27.5767 11.4893 27.5859 11.4761C27.5957 11.4621 27.6052 11.4479 27.6144 11.4336C27.6242 11.4183 27.6337 11.4028 27.6428 11.3872C27.6527 11.3702 27.6622 11.353 27.6712 11.3357C27.6812 11.3166 27.6907 11.2973 27.6996 11.2777C27.7098 11.2558 27.7192 11.2335 27.7281 11.2109C27.7384 11.1847 27.7479 11.1581 27.7565 11.1312C27.7673 11.0973 27.7768 11.0629 27.7849 11.028C27.7981 10.9715 27.8075 10.9138 27.8134 10.8551C27.818 10.8087 27.8204 10.7618 27.8204 10.7144C27.8204 10.6643 27.818 10.6155 27.8134 10.5678C27.8075 10.507 27.798 10.4482 27.7849 10.3915C27.7768 10.3561 27.7673 10.3214 27.7565 10.2876C27.7478 10.2606 27.7384 10.2341 27.7281 10.2081C27.7192 10.1857 27.7097 10.1637 27.6996 10.1421C27.6906 10.1229 27.6811 10.1039 27.6712 10.0853C27.6621 10.0682 27.6526 10.0514 27.6428 10.0348C27.6336 10.0195 27.6242 10.0043 27.6144 9.98942C27.6052 9.97545 27.5957 9.96171 27.5859 9.94815C27.5767 9.93532 27.5673 9.92266 27.5575 9.9102C27.5483 9.89829 27.5388 9.8865 27.5291 9.87491C27.5198 9.8639 27.5103 9.85308 27.5007 9.84235C27.4914 9.83204 27.4819 9.82188 27.4722 9.81183C27.4629 9.80215 27.4535 9.79262 27.4438 9.7832C27.4345 9.77408 27.425 9.76505 27.4154 9.75619C27.4061 9.7476 27.3966 9.7391 27.387 9.73073C27.3776 9.72259 27.3682 9.71456 27.3586 9.70664C27.3492 9.69895 27.3397 9.69132 27.3301 9.68384C27.3208 9.67653 27.3113 9.66934 27.3017 9.66225C27.2923 9.65531 27.2829 9.64848 27.2733 9.64173C27.2639 9.63514 27.2544 9.62866 27.2449 9.62224C27.2355 9.61595 27.226 9.60975 27.2164 9.60365C27.207 9.59768 27.1975 9.59179 27.188 9.58599C27.1786 9.58027 27.1691 9.57466 27.1596 9.56912C27.1502 9.56367 27.1407 9.5583 27.1312 9.55302C27.1218 9.54782 27.1123 9.54273 27.1027 9.53767C27.0933 9.53271 27.0838 9.52782 27.0743 9.52301C27.0649 9.51826 27.0554 9.51354 27.0459 9.50897C27.0365 9.50444 27.027 9.49996 27.0174 9.49561C27.008 9.4913 26.9986 9.48714 26.989 9.48295C26.9796 9.47883 26.9701 9.47479 26.9606 9.4708C26.9512 9.46688 26.9417 9.463 26.9322 9.4592C26.9227 9.45545 26.9133 9.45173 26.9037 9.44809C26.8943 9.44451 26.8849 9.441 26.8753 9.43754C26.8659 9.43413 26.8564 9.43081 26.8469 9.42752C26.8375 9.42428 26.828 9.42111 26.8185 9.41798C26.809 9.41489 26.7996 9.41184 26.79 9.40886C26.7806 9.40591 26.7712 9.40295 26.7616 9.40012C26.7522 9.39734 26.7427 9.39465 26.7332 9.39199C26.7238 9.38933 26.7143 9.38676 26.7048 9.38422L26.6763 9.37679C26.6669 9.37439 26.6574 9.37205 26.6479 9.36977C26.6385 9.36752 26.629 9.36534 26.6195 9.36321L26.5911 9.35699C26.5816 9.35498 26.5722 9.35295 26.5626 9.35106C26.5532 9.34917 26.5437 9.34743 26.5342 9.34564L26.5058 9.34051C26.4963 9.33886 26.4869 9.33719 26.4774 9.33564L26.4489 9.33121L26.4205 9.3271L26.3921 9.32323L26.3637 9.31977L26.3352 9.31662L26.3068 9.31369L26.2784 9.31112L26.25 9.30887L26.2215 9.30679L26.1931 9.30512L26.1818 9.30447L26.1647 9.30338L26.1363 9.30166L26.1078 9.30004L26.0794 9.29851L26.051 9.29711L26.0226 9.29585L25.9941 9.29479L25.9657 9.29389L25.9373 9.29324L25.9088 9.29285L25.8932 9.2928H25.8804H25.852H25.8236H25.7951H25.7667H25.7383H25.7099H25.6814H25.653H25.6246H25.5962H25.5677H25.5393H25.5109H25.4825H25.454H25.4256H25.3972H25.3688H25.3403H25.3119H25.2835H25.2551H25.2266H25.1982H25.1698H25.1414H25.1129H25.0845H25.0561H25.0277H24.9992H24.9708H24.9424H24.914H24.8855H24.8571H24.8287H24.8002H24.7718H24.7434H24.715H24.6866H24.6581H24.6297H24.6013H24.5729H24.5444H24.516H24.4876H24.4592H24.4307H24.4023H24.3739H24.3455H24.317H24.2886H24.2602H24.2318H24.2033H24.1749H24.1465H24.118H24.0896H24.0612H24.0328H24.0043H23.9759H23.9475H23.9191H23.8906H23.8622H23.8338H23.8054H23.7769H23.7485H23.7201H23.6917H23.6632H23.6348H23.6064H23.578H23.5495H23.5211H23.4927H23.4643H23.4358H23.4074H23.379H23.3506H23.3221H23.2937H23.2653H23.2369H23.2084H23.18H23.1516H23.1232H23.0947H23.0663H23.0379H23.0094H22.981H22.9526H22.9242H22.8957H22.8673H22.8389H22.8105H22.782H22.7536H22.7252H22.6968H22.6684H22.6399H22.6115H22.5831H22.5547H22.5262H22.4978H22.4694H22.441H22.4125H22.3841H22.3557H22.3273H22.2988H22.2704H22.242H22.2135H22.1851H22.1567H22.1283H22.0998H22.0714H22.043H22.0146H21.9861H21.9577H21.9293H21.9009H21.8724H21.844H21.8156H21.7872H21.7258V6.15085C21.7258 5.93947 21.747 5.73321 21.7872 5.53405C21.7958 5.49141 21.8053 5.44912 21.8156 5.40718C21.8244 5.37128 21.8339 5.33565 21.844 5.30029C21.853 5.26871 21.8625 5.23734 21.8724 5.20619C21.8815 5.17772 21.891 5.1494 21.9009 5.12133C21.91 5.09528 21.9194 5.06939 21.9293 5.04368C21.9385 5.01967 21.9479 4.99578 21.9577 4.97209C21.967 4.94972 21.9764 4.92745 21.9861 4.90535C21.9954 4.88437 22.0049 4.86353 22.0146 4.84281C22.0238 4.82304 22.0333 4.80341 22.043 4.78387C22.0523 4.76509 22.0618 4.74645 22.0714 4.72789C22.0807 4.71 22.0902 4.69224 22.0998 4.67457C22.1092 4.65743 22.1186 4.64044 22.1283 4.62352C22.1376 4.60711 22.1471 4.59077 22.1567 4.57458C22.166 4.55887 22.1755 4.54329 22.1851 4.52777C22.1944 4.51274 22.204 4.49785 22.2135 4.48302C22.2229 4.4685 22.2324 4.45402 22.242 4.43967C22.2514 4.42561 22.2607 4.41154 22.2704 4.39765C22.2797 4.38419 22.2893 4.3709 22.2988 4.35762C22.3082 4.34455 22.3177 4.33157 22.3273 4.31867C22.3367 4.30596 22.3461 4.29321 22.3557 4.28067C22.365 4.26847 22.3746 4.25647 22.3841 4.24441C22.3935 4.23253 22.403 4.22074 22.4125 4.20903C22.4219 4.19746 22.4314 4.18589 22.441 4.17446C22.4503 4.16333 22.4598 4.15239 22.4694 4.1414C22.4788 4.13051 22.4882 4.11959 22.4978 4.10885C22.5072 4.09832 22.5167 4.08789 22.5262 4.07748C22.5356 4.06722 22.5451 4.05703 22.5547 4.04688C22.5641 4.03689 22.5735 4.02689 22.5831 4.01702C22.5925 4.00731 22.602 3.99775 22.6115 3.98819C22.6209 3.97868 22.6303 3.96907 22.6399 3.9597C22.6493 3.95053 22.6589 3.94157 22.6684 3.93252C22.6778 3.92352 22.6872 3.91449 22.6968 3.90561C22.7062 3.89687 22.7157 3.8883 22.7252 3.87971C22.7346 3.87116 22.7441 3.86262 22.7536 3.8542C22.7631 3.84589 22.7725 3.83771 22.782 3.82953C22.7915 3.82142 22.8009 3.81334 22.8105 3.80535C22.8199 3.79744 22.8294 3.78962 22.8389 3.78185L22.8673 3.75888L22.8957 3.73652C22.9052 3.72918 22.9147 3.7219 22.9242 3.71468C22.9336 3.70754 22.9431 3.70043 22.9526 3.69338L22.981 3.67264C22.9905 3.66584 22.9999 3.65909 23.0094 3.65241L23.0379 3.63263L23.0663 3.61339C23.0758 3.60707 23.0852 3.60078 23.0947 3.59458L23.1232 3.57633C23.1326 3.57031 23.1421 3.56428 23.1516 3.55837C23.161 3.55252 23.1705 3.54683 23.18 3.54109C23.1895 3.53536 23.1989 3.52957 23.2084 3.52396C23.2178 3.51841 23.2274 3.51306 23.2369 3.50762C23.2463 3.50217 23.2557 3.49663 23.2653 3.4913C23.2747 3.48605 23.2842 3.48097 23.2937 3.47581C23.3032 3.47066 23.3126 3.46548 23.3221 3.46042C23.3316 3.45541 23.3411 3.45054 23.3506 3.44566C23.36 3.44079 23.3695 3.4359 23.379 3.43113L23.4074 3.41702C23.4169 3.4124 23.4264 3.4079 23.4358 3.40337C23.4453 3.39887 23.4547 3.39429 23.4643 3.38989C23.4737 3.38553 23.4832 3.38137 23.4927 3.37711C23.5022 3.37285 23.5116 3.36852 23.5211 3.36435C23.5305 3.36024 23.5401 3.35632 23.5495 3.3523C23.559 3.34831 23.5684 3.34426 23.578 3.34037L23.6064 3.32887L23.6348 3.31776C23.6443 3.31408 23.6537 3.31035 23.6632 3.3068C23.6727 3.30326 23.6822 3.29995 23.6917 3.29651C23.7012 3.29307 23.7106 3.28956 23.7201 3.28622C23.7295 3.28291 23.739 3.27979 23.7485 3.27657L23.7769 3.2671C23.7864 3.264 23.7959 3.26088 23.8054 3.25788C23.8148 3.2549 23.8243 3.2521 23.8338 3.24922C23.8433 3.24631 23.8527 3.24331 23.8622 3.24053C23.8717 3.23777 23.8812 3.2352 23.8906 3.23254C23.9001 3.22988 23.9096 3.22719 23.9191 3.22462L23.9475 3.21707C23.9569 3.21463 23.9664 3.2123 23.9759 3.20996C23.9854 3.20761 23.9948 3.20509 24.0043 3.20284C24.0138 3.20061 24.0233 3.19858 24.0328 3.19643L24.0612 3.19006L24.0896 3.18403C24.099 3.1821 24.1086 3.18028 24.118 3.17844C24.1275 3.17658 24.137 3.17459 24.1465 3.17283C24.1559 3.17106 24.1654 3.16956 24.1749 3.16791L24.2033 3.16307C24.2128 3.16152 24.2223 3.15993 24.2318 3.15847C24.2412 3.15702 24.2507 3.15574 24.2602 3.15438C24.2697 3.15303 24.2791 3.15155 24.2886 3.15029C24.2981 3.14903 24.3075 3.14792 24.317 3.14676L24.3455 3.14342C24.3549 3.14235 24.3644 3.14117 24.3739 3.1402C24.3833 3.13923 24.3928 3.13848 24.4023 3.13761L24.4307 3.13502L24.4592 3.13282C24.4686 3.13212 24.4781 3.13156 24.4876 3.13095C24.497 3.13037 24.5065 3.12962 24.516 3.12911C24.5255 3.12861 24.535 3.12832 24.5444 3.1279L24.5729 3.12682C24.5823 3.1265 24.5918 3.12609 24.6013 3.12587C24.6107 3.12565 24.6202 3.12563 24.6297 3.12548C24.6392 3.12534 24.6486 3.12517 24.6581 3.12512L24.6653 3.12502H24.6866H24.715H24.7434H24.7718H24.8002H24.8287H24.8571H24.8855H24.914H24.9424H24.9708H24.9992H25.0277H25.0561H25.0845H25.1129H25.1414H25.1698H25.1982H25.2266H25.2551H25.2835H25.3119H25.3403H25.3688H25.3972H25.4256H25.454H25.4825H25.5109H25.5393H25.5677H25.5962H25.6246H25.653H25.6814H25.7099H25.7383H25.7667H25.7951H25.8236H25.852H25.8804H25.9088H25.9373H25.9657H25.9941H26.0226H26.051H26.0794H26.1078H26.1363H26.1647H26.1931H26.2215H26.25H26.2784H26.3068H26.3352H26.3637H26.3921H26.4205H26.4489H26.4774H26.5058H26.5342H26.5626H26.5911H26.6195H26.6479H26.6763H26.7048H26.7332H26.7616H26.79H26.8185H26.8469H26.8753H26.9037H26.9322H26.9606H26.989H27.0174H27.0459H27.0743H27.1027H27.1312H27.1596H27.188H27.2164H27.2449H27.2733H27.3017H27.3301H27.3586H27.387H27.4154H27.4438H27.4722H27.5007H27.5291H27.5575H27.5859H27.6144H27.6428H27.6712H27.6996H27.7281H27.7565H27.7849H27.8134H27.8418H27.8702H27.8986H27.9271H27.9555H27.9839H28.0123H28.0408H28.0692H28.0976H28.126H28.1545H28.1829H28.2113H28.2397H28.2682H28.2966H28.325H28.3534H28.3819H28.4103H28.4387H28.4671H28.4956H28.524H28.5524H28.5809H28.6093H28.6377H28.6661H28.6946H28.723H28.7514H28.7798H28.8083H28.8367H28.8651H28.8935H28.922H28.9504H28.9788V3.125V3.125Z" fill="#54B230"/>
<path fill-rule="evenodd" clip-rule="evenodd" d="M5.43115 13.6231V6.15082C5.43115 5.94005 5.45217 5.73432 5.4921 5.5357C5.50068 5.49305 5.51019 5.45079 5.52049 5.40882C5.5293 5.37288 5.5388 5.33723 5.54886 5.30182C5.55783 5.27025 5.5673 5.23893 5.57722 5.20781C5.58632 5.17932 5.59572 5.15095 5.60561 5.12283C5.61478 5.09681 5.62415 5.07093 5.63398 5.04525C5.64314 5.02124 5.65261 4.99731 5.66237 4.97359C5.67158 4.95122 5.68102 4.929 5.69073 4.90693C5.69997 4.88594 5.70944 4.86513 5.7191 4.84441C5.72833 4.82461 5.73785 4.80496 5.74749 4.7854C5.75674 4.76662 5.76622 4.74798 5.77585 4.72944C5.78513 4.71155 5.7946 4.69379 5.80422 4.67612C5.81352 4.65901 5.82297 4.64199 5.83261 4.6251C5.84194 4.60869 5.85134 4.59232 5.86097 4.57611C5.8703 4.56042 5.87977 4.54486 5.88936 4.52937C5.89864 4.51436 5.90819 4.49945 5.91773 4.48462C5.92708 4.47009 5.9365 4.45562 5.94609 4.44127C5.95552 4.42718 5.96485 4.41312 5.97448 4.3992C5.98379 4.38577 5.99333 4.3725 6.00285 4.35921C6.01222 4.34614 6.02167 4.33317 6.03124 4.32027C6.04064 4.30759 6.05001 4.29481 6.0596 4.28227C6.06893 4.27009 6.07847 4.25811 6.08797 4.24608C6.09734 4.2342 6.10679 4.22236 6.11636 4.21063C6.12576 4.19908 6.13516 4.18756 6.14472 4.17616C6.15408 4.165 6.16359 4.15404 6.17311 4.14302C6.18251 4.13211 6.19191 4.12122 6.20148 4.11047C6.21083 4.09994 6.22035 4.08956 6.22984 4.07917C6.23924 4.06889 6.24869 4.0587 6.25823 4.04855C6.26763 4.03856 6.27706 4.02856 6.2866 4.01869C6.29597 4.00898 6.30549 3.99942 6.31499 3.98986C6.32443 3.98035 6.33379 3.97076 6.34335 3.9614C6.35271 3.95222 6.36225 3.94327 6.37172 3.93421C6.38117 3.92519 6.39054 3.91613 6.40011 3.90725C6.40948 3.89854 6.419 3.88999 6.42847 3.8814C6.43792 3.87286 6.44732 3.86429 6.45686 3.85587C6.46626 3.84756 6.47573 3.83941 6.48523 3.83123C6.49463 3.82312 6.50408 3.81501 6.51359 3.80702C6.52299 3.79913 6.53249 3.79131 6.54198 3.78352C6.55141 3.7758 6.56083 3.76815 6.57035 3.76055C6.57975 3.75302 6.58924 3.74559 6.59874 3.73819C6.60816 3.73085 6.61761 3.72354 6.6271 3.71633L6.65547 3.69508C6.66489 3.68808 6.67434 3.68114 6.68386 3.67426C6.69326 3.66746 6.70273 3.66073 6.71222 3.65405C6.72165 3.6474 6.7311 3.64079 6.74059 3.63425C6.75001 3.62779 6.75948 3.62143 6.76898 3.61506C6.7784 3.60874 6.78783 3.60238 6.79734 3.59616C6.80674 3.59001 6.81624 3.58401 6.82573 3.57795C6.83518 3.57193 6.84458 3.56583 6.8541 3.55992C6.86348 3.55409 6.87299 3.54843 6.88247 3.54269C6.89194 3.53695 6.90131 3.53112 6.91085 3.52548C6.92023 3.51994 6.92977 3.51464 6.93922 3.50919C6.94869 3.50375 6.95809 3.49823 6.96761 3.49288C6.97701 3.4876 6.9865 3.48252 6.99597 3.47736C7.00542 3.47221 7.01485 3.46703 7.02434 3.46197C7.03376 3.45696 7.04324 3.45205 7.05273 3.44713L7.0811 3.43266C7.09054 3.42789 7.09999 3.42312 7.10948 3.41847C7.11891 3.41385 7.12838 3.40937 7.13785 3.40485C7.14732 3.40032 7.1567 3.3957 7.16622 3.39129C7.17562 3.38691 7.18513 3.3828 7.19461 3.37854C7.20405 3.37428 7.21348 3.36995 7.22297 3.36578C7.23239 3.36167 7.24189 3.3577 7.25136 3.35368L7.27973 3.34177L7.30809 3.3302L7.33648 3.31912C7.34595 3.31544 7.35533 3.31164 7.36485 3.30806C7.37425 3.30452 7.38379 3.30123 7.39324 3.29779C7.40268 3.29436 7.41211 3.29087 7.4216 3.28753L7.44997 3.27778L7.47836 3.26831C7.4878 3.26521 7.49723 3.26204 7.50672 3.25904C7.51612 3.25607 7.52564 3.25323 7.53509 3.25035C7.54456 3.24745 7.55398 3.2445 7.56348 3.24169C7.5729 3.2389 7.58237 3.23631 7.59184 3.23363L7.62023 3.22571C7.62968 3.22315 7.6391 3.22053 7.6486 3.21806C7.65802 3.2156 7.66752 3.21334 7.67696 3.21097C7.68641 3.2086 7.69586 3.20613 7.70535 3.20386C7.71478 3.20161 7.72427 3.1995 7.73372 3.19735L7.76211 3.191C7.77155 3.18892 7.78098 3.18682 7.79047 3.18486C7.7999 3.18292 7.80939 3.18113 7.81884 3.17927C7.82831 3.1774 7.83773 3.17547 7.84723 3.1737C7.85667 3.17193 7.86612 3.17033 7.87559 3.16866L7.90398 3.16382C7.91343 3.16227 7.92285 3.1606 7.93235 3.15913C7.94177 3.15765 7.95127 3.15642 7.96071 3.15504C7.97016 3.15368 7.97961 3.15223 7.9891 3.15095L8.01747 3.14729L8.04586 3.14398C8.05533 3.14289 8.06473 3.14163 8.07422 3.14064C8.08365 3.13964 8.09314 3.13892 8.10259 3.13802L8.13098 3.13546C8.14043 3.13463 8.14987 3.13383 8.15934 3.13313C8.16879 3.13243 8.17826 3.13187 8.18773 3.13127C8.1972 3.13066 8.20663 3.12996 8.2161 3.12943C8.22552 3.1289 8.23499 3.12853 8.24446 3.1281L8.27285 3.12698C8.2823 3.12665 8.29172 3.12614 8.30122 3.1259C8.31064 3.12565 8.32014 3.12568 8.32958 3.12553C8.33903 3.12539 8.3485 3.12522 8.35797 3.12517L8.38634 3.125H8.41473H8.44309H8.47146H8.49985H8.52821H8.5566H8.58497H8.61334H8.64172H8.67009H8.69848H8.72684H8.75521H8.7836H8.81197H8.84035H8.86872H8.89709H8.92548H8.95384H8.98223H9.0106H9.03896H9.06735H9.09572H9.12411H9.15247H9.18084H9.20923H9.23759H9.26598H9.29435H9.32271H9.3511H9.37947H9.40783H9.43622H9.46459H9.49298H9.52134H9.54971H9.5781H9.60646H9.63485H9.66322H9.69158H9.71997H9.74834H9.77673H9.80509H9.83346H9.86185H9.89021H9.9186H9.94697H9.97533H10.0037H10.0321H10.0605H10.0888H10.1172H10.1456H10.174H10.2024H10.2307H10.2591H10.2875H10.3158H10.3442H10.3726H10.401H10.4293H10.4577H10.4861H10.5145H10.5428H10.5712H10.5996H10.628H10.6563H10.6847H10.7131H10.7415H10.7698H10.7982H10.8266H10.855H10.8833H10.9117H10.9401H10.9685H10.9969H11.0252H11.0536H11.082H11.1103H11.1387H11.1671H11.1955H11.2238H11.2522H11.2806H11.309H11.3373H11.3657H11.3941H11.4225H11.4508H11.4792H11.5076H11.536H11.5643H11.5927H11.6211H11.6495H11.6778H11.7062H11.7346H11.763H11.7913H11.8197H11.8481H11.8765H11.9048H11.9332H11.9616H11.99H12.0183H12.0467H12.0751H12.1035H12.1318H12.1602H12.1886H12.217H12.2453H12.2737H12.3021H12.3305H12.3588H12.3872H12.4156H12.444H12.4723H12.5007H12.5291H12.5575H12.5858H12.6142H12.6426H12.671H12.695V18.253C12.695 18.3846 12.6868 18.5142 12.671 18.6414C12.6633 18.7026 12.6537 18.7632 12.6426 18.8232C12.6341 18.8689 12.6247 18.9142 12.6142 18.9591C12.6054 18.9969 12.596 19.0345 12.5858 19.0718C12.5769 19.1045 12.5674 19.1369 12.5575 19.1692C12.5484 19.1983 12.5389 19.2273 12.5291 19.2561C12.52 19.2828 12.5105 19.3093 12.5007 19.3356C12.4915 19.3601 12.4821 19.3845 12.4723 19.4088C12.4631 19.4316 12.4537 19.4543 12.444 19.4769C12.4347 19.4983 12.4253 19.5195 12.4156 19.5407C12.4063 19.5608 12.3969 19.5809 12.3872 19.6008C12.3779 19.6199 12.3685 19.6389 12.3588 19.6578C12.3495 19.676 12.3401 19.694 12.3305 19.712C12.3211 19.7294 12.3118 19.7467 12.3021 19.7638C12.2928 19.7804 12.2833 19.7969 12.2737 19.8132C12.2644 19.8291 12.2549 19.8447 12.2453 19.8603C12.236 19.8756 12.2265 19.8908 12.217 19.9059C12.2076 19.9206 12.1982 19.9353 12.1886 19.9499C12.1793 19.964 12.1698 19.978 12.1602 19.9919C12.1509 20.0056 12.1414 20.0191 12.1318 20.0326C12.1225 20.0458 12.113 20.059 12.1035 20.0721C12.0941 20.0848 12.0846 20.0975 12.0751 20.1101C12.0657 20.1225 12.0562 20.1347 12.0467 20.1468C12.0373 20.1589 12.0279 20.1709 12.0183 20.1827C12.009 20.1943 11.9995 20.2058 11.99 20.2172C11.9806 20.2285 11.9711 20.2397 11.9616 20.2508C11.9522 20.2618 11.9428 20.2729 11.9332 20.2837C11.9239 20.2943 11.9143 20.3047 11.9048 20.3152C11.8954 20.3256 11.886 20.336 11.8765 20.3462C11.8671 20.3563 11.8576 20.3662 11.8481 20.3761C11.8387 20.3859 11.8293 20.3956 11.8197 20.4053C11.8103 20.4149 11.8009 20.4243 11.7913 20.4338C11.7819 20.4431 11.7725 20.4522 11.763 20.4614C11.7535 20.4704 11.7441 20.4795 11.7346 20.4885C11.7252 20.4973 11.7157 20.5059 11.7062 20.5146C11.6968 20.5232 11.6874 20.5319 11.6778 20.5404C11.6685 20.5487 11.6589 20.5568 11.6495 20.5651C11.64 20.5733 11.6306 20.5816 11.6211 20.5896C11.6117 20.5976 11.6022 20.6053 11.5927 20.6131C11.5833 20.6209 11.5739 20.6288 11.5643 20.6365C11.555 20.644 11.5454 20.6514 11.536 20.6588C11.5265 20.6662 11.5171 20.6737 11.5076 20.681C11.4982 20.6881 11.4887 20.6951 11.4792 20.7022C11.4698 20.7093 11.4604 20.7164 11.4508 20.7233C11.4415 20.7302 11.4319 20.7368 11.4225 20.7436C11.413 20.7503 11.4036 20.7571 11.3941 20.7637C11.3847 20.7702 11.3752 20.7765 11.3657 20.7829C11.3563 20.7893 11.3469 20.7958 11.3373 20.8021C11.328 20.8082 11.3184 20.8142 11.309 20.8203C11.2995 20.8263 11.2901 20.8325 11.2806 20.8385C11.2712 20.8443 11.2617 20.8501 11.2522 20.8558C11.2428 20.8616 11.2334 20.8674 11.2238 20.873C11.2144 20.8786 11.205 20.8841 11.1955 20.8896C11.186 20.8951 11.1766 20.9005 11.1671 20.9059C11.1577 20.9112 11.1482 20.9165 11.1387 20.9217L11.1103 20.9371C11.1009 20.9421 11.0915 20.9472 11.082 20.9522C11.0725 20.9571 11.0631 20.9618 11.0536 20.9667C11.0441 20.9715 11.0347 20.9764 11.0252 20.9811C11.0158 20.9857 11.0063 20.9902 10.9969 20.9947C10.9874 20.9993 10.978 21.0039 10.9685 21.0083C10.9591 21.0128 10.9495 21.017 10.9401 21.0213L10.9117 21.034L10.8833 21.0464C10.8739 21.0504 10.8644 21.0544 10.855 21.0583C10.8455 21.0622 10.8361 21.0663 10.8266 21.0701C10.8172 21.0739 10.8077 21.0775 10.7982 21.0812C10.7887 21.0849 10.7793 21.0887 10.7698 21.0923C10.7604 21.0958 10.7509 21.0993 10.7415 21.1027L10.7131 21.113L10.6847 21.123C10.6753 21.1262 10.6658 21.1293 10.6563 21.1325C10.6469 21.1356 10.6375 21.1389 10.628 21.1419C10.6186 21.145 10.609 21.1477 10.5996 21.1507L10.5712 21.1593L10.5428 21.1676C10.5334 21.1703 10.5239 21.1729 10.5145 21.1755C10.505 21.1781 10.4956 21.1809 10.4861 21.1834C10.4767 21.1859 10.4671 21.1881 10.4577 21.1905C10.4483 21.1929 10.4388 21.1953 10.4293 21.1976L10.401 21.2043L10.3726 21.2107C10.3631 21.2128 10.3537 21.215 10.3442 21.2171C10.3348 21.219 10.3253 21.2207 10.3158 21.2226C10.3064 21.2245 10.2969 21.2264 10.2875 21.2282L10.2591 21.2335C10.2497 21.2352 10.2402 21.2367 10.2307 21.2383C10.2212 21.2399 10.2118 21.2416 10.2024 21.2431C10.1929 21.2446 10.1834 21.2459 10.174 21.2473L10.1456 21.2514C10.1362 21.2527 10.1267 21.254 10.1172 21.2552C10.1078 21.2564 10.0983 21.2575 10.0888 21.2586C10.0794 21.2597 10.0699 21.2609 10.0605 21.2619C10.051 21.2629 10.0416 21.2638 10.0321 21.2647L10.0037 21.2673C9.99425 21.2681 9.98483 21.2691 9.97533 21.2699C9.96591 21.2706 9.95642 21.2711 9.94697 21.2717L9.9186 21.2735L9.89021 21.2751C9.88079 21.2756 9.87129 21.2758 9.86185 21.2762C9.85238 21.2766 9.84293 21.277 9.83346 21.2773C9.82403 21.2776 9.81454 21.2777 9.80509 21.2779L9.77673 21.2782C9.76796 21.2783 9.75922 21.2786 9.75041 21.2786H9.71997H9.69158H9.66322H9.63485H9.60646H9.5781H9.54971H9.52134H9.49298H9.46459H9.43622H9.40783H9.37947H9.3511H9.32271H9.29435H9.26598H9.23759H9.20923H9.18084H9.15247H9.12411H9.09572H9.06735H9.03896H9.0106H8.98223H8.95384H8.92548H8.89709H8.86872H8.84035H8.81197H8.7836H8.75521H8.72684H8.69848H8.67009H8.64172H8.61334H8.58497H8.5566H8.52821H8.49985H8.47146H8.44309H8.41473H8.38634H8.35797H8.32958H8.30122H8.27285H8.24446H8.2161H8.18773H8.15934H8.13098H8.10259H8.07422H8.04586H8.01747H7.9891H7.96071H7.93235H7.90398H7.87559H7.84723H7.81884H7.79047H7.76211H7.73372H7.70535H7.67696H7.6486H7.62023H7.59184H7.56348H7.53509H7.50672H7.47836H7.44997H7.4216H7.39324H7.36485H7.33648H7.30809H7.27973H7.25136H7.22297H7.19461H7.16622H7.13785H7.10948H7.0811H7.05273H7.02434H6.99597H6.96761H6.93922H6.91085H6.88247H6.8541H6.82573H6.79734H6.76898H6.74059H6.71222H6.68386H6.65547H6.6271H6.59874H6.57035H6.54198H6.51359H6.48523H6.45686H6.42847H6.40011H6.37172H6.34335H6.31499H6.2866H6.25823H6.22984H6.20148H6.17311H6.14472H6.11636H6.08797H6.0596H6.03124H6.00285H5.97448H5.94609H5.91773H5.88936H5.86097H5.83261H5.80422H5.77585H5.74749H5.7191H5.69073H5.66237H5.63398H5.60561H5.57722H5.54886H5.52049H5.4921H5.43115V14.9023C5.43115 14.9023 5.45212 14.9082 5.4921 14.9186L5.52049 14.9259L5.54886 14.933L5.57722 14.94L5.60561 14.9469L5.63398 14.9536L5.66237 14.9603L5.69073 14.9669L5.7191 14.9734L5.74749 14.9798L5.77585 14.9861L5.80422 14.9923L5.83261 14.9985L5.86097 15.0046L5.88936 15.0105L5.91773 15.0164L5.94609 15.0222L5.97448 15.028L6.00285 15.0337L6.03124 15.0393L6.0596 15.0449L6.08797 15.0503L6.11636 15.0557L6.14472 15.061L6.17311 15.0663L6.20148 15.0715L6.22984 15.0766L6.25823 15.0816L6.2866 15.0866L6.31499 15.0915L6.34335 15.0964L6.37172 15.1011L6.40011 15.1059L6.42847 15.1105L6.45686 15.1151L6.48523 15.1196L6.51359 15.1241L6.54198 15.1285L6.57035 15.1328L6.59874 15.1371L6.6271 15.1413L6.65547 15.1454L6.68386 15.1495L6.71222 15.1535L6.74059 15.1575L6.76898 15.1614L6.79734 15.1652L6.82573 15.169L6.8541 15.1726L6.88247 15.1763L6.91085 15.1799L6.93922 15.1834L6.96761 15.1868L6.99597 15.1902L7.02434 15.1935L7.05273 15.1968L7.0811 15.2L7.10948 15.2031L7.13785 15.2062L7.16622 15.2092L7.19461 15.2122L7.22297 15.215L7.25136 15.2179L7.27973 15.2206L7.30809 15.2233L7.33648 15.226L7.36485 15.2285L7.39324 15.231L7.4216 15.2335L7.44997 15.2358L7.47836 15.2382L7.50672 15.2404L7.53509 15.2426L7.56348 15.2447L7.59184 15.2468L7.62023 15.2488L7.6486 15.2507L7.67696 15.2526L7.70535 15.2544L7.73372 15.2561L7.76211 15.2578L7.79047 15.2594L7.81884 15.261L7.84723 15.2625L7.87559 15.2638L7.90398 15.2652L7.93235 15.2665L7.96071 15.2677L7.9891 15.2689L8.01747 15.2699L8.04586 15.271L8.07422 15.2719L8.10259 15.2728L8.13098 15.2737L8.15934 15.2744L8.18773 15.275L8.2161 15.2757L8.24446 15.2762L8.27285 15.2767L8.30122 15.2771L8.32958 15.2774L8.35797 15.2777L8.38634 15.2779L8.41473 15.278L8.44309 15.2781L8.47146 15.2781L8.49985 15.2779L8.52821 15.2777L8.5566 15.2775L8.58497 15.2774L8.61334 15.2768L8.64172 15.2763L8.67009 15.2758L8.69848 15.2752L8.72684 15.2745L8.75521 15.2736L8.7836 15.2727L8.81197 15.2718L8.84035 15.2708L8.86872 15.2695L8.89709 15.2683L8.92548 15.2669L8.95384 15.2657L8.98223 15.264L9.0106 15.2624L9.03896 15.2607L9.06735 15.259L9.09572 15.257L9.12411 15.2549L9.15247 15.2529L9.18084 15.2508L9.20923 15.2484L9.23759 15.2459L9.26598 15.2434L9.29435 15.2409L9.32271 15.2381L9.3511 15.2351L9.37947 15.2322L9.40783 15.2292L9.43622 15.226L9.46459 15.2226L9.49298 15.2191L9.52134 15.2157L9.54971 15.2119L9.5781 15.208L9.60646 15.2041L9.63485 15.2001C9.64442 15.1987 9.65372 15.1972 9.66322 15.1958L9.69158 15.1914L9.71997 15.187L9.74834 15.1824C9.75788 15.1808 9.76723 15.1791 9.77673 15.1774L9.80509 15.1726C9.81449 15.1709 9.82413 15.1693 9.83346 15.1676C9.84302 15.1659 9.85233 15.164 9.86185 15.1622L9.89021 15.1568L9.9186 15.1513L9.94697 15.1456C9.95651 15.1437 9.96586 15.1416 9.97533 15.1396L10.0037 15.1336L10.0321 15.1275C10.0417 15.1254 10.051 15.1231 10.0605 15.121L10.0888 15.1144C10.0982 15.1122 10.1079 15.1101 10.1172 15.1078C10.1268 15.1055 10.1361 15.1031 10.1456 15.1007L10.174 15.0935C10.1834 15.0911 10.193 15.0888 10.2024 15.0864C10.2119 15.0839 10.2213 15.0813 10.2307 15.0787L10.2591 15.0709C10.2685 15.0683 10.2781 15.0658 10.2875 15.0631C10.297 15.0604 10.3064 15.0576 10.3158 15.0548L10.3442 15.0464C10.3537 15.0436 10.3632 15.0408 10.3726 15.0379L10.401 15.029L10.4293 15.0198C10.4388 15.0168 10.4484 15.0138 10.4577 15.0107L10.4861 15.001L10.5145 14.9911C10.5239 14.9878 10.5335 14.9846 10.5428 14.9812C10.5524 14.9778 10.5617 14.9742 10.5712 14.9707L10.5996 14.96C10.609 14.9564 10.6186 14.9529 10.628 14.9492C10.6375 14.9455 10.6469 14.9416 10.6563 14.9378C10.6658 14.934 10.6754 14.9303 10.6847 14.9264L10.7131 14.9146L10.7415 14.9023C10.7509 14.8982 10.7605 14.8943 10.7698 14.8901C10.7794 14.8858 10.7887 14.8813 10.7982 14.877L10.8266 14.8639L10.855 14.8503C10.8645 14.8457 10.8739 14.841 10.8833 14.8363C10.8928 14.8316 10.9024 14.8269 10.9117 14.8222C10.9213 14.8172 10.9306 14.8122 10.9401 14.8072C10.9496 14.8022 10.9591 14.7972 10.9685 14.7922C10.9781 14.787 10.9874 14.7817 10.9969 14.7764C11.0064 14.7711 11.0158 14.7658 11.0252 14.7604C11.0348 14.755 11.0442 14.7494 11.0536 14.7439C11.0631 14.7383 11.0726 14.7325 11.082 14.7268C11.0915 14.721 11.101 14.7152 11.1103 14.7094C11.1199 14.7033 11.1293 14.6972 11.1387 14.6911C11.1482 14.685 11.1578 14.6789 11.1671 14.6727C11.1767 14.6663 11.186 14.6597 11.1955 14.6532C11.205 14.6467 11.2145 14.6402 11.2238 14.6336C11.2335 14.6267 11.2428 14.6198 11.2522 14.6129C11.2617 14.6059 11.2713 14.5989 11.2806 14.5918C11.2902 14.5845 11.2996 14.5772 11.309 14.5698C11.3185 14.5623 11.328 14.5548 11.3373 14.5472C11.3469 14.5394 11.3563 14.5316 11.3657 14.5237C11.3753 14.5156 11.3847 14.5074 11.3941 14.4993C11.4036 14.491 11.4132 14.4827 11.4225 14.4742C11.4321 14.4655 11.4414 14.4566 11.4508 14.4478C11.4604 14.4389 11.4699 14.4299 11.4792 14.4208C11.4888 14.4114 11.4982 14.4019 11.5076 14.3924C11.5172 14.3826 11.5266 14.3727 11.536 14.3628C11.5455 14.3527 11.5551 14.3426 11.5643 14.3324C11.574 14.3217 11.5833 14.3108 11.5927 14.2999C11.6024 14.2888 11.6118 14.2775 11.6211 14.2662C11.6307 14.2546 11.6402 14.2429 11.6495 14.2311C11.6591 14.2188 11.6686 14.2066 11.6778 14.1941C11.6875 14.1812 11.6969 14.168 11.7062 14.1549C11.7159 14.1412 11.7253 14.1274 11.7346 14.1135C11.7443 14.099 11.7537 14.0844 11.763 14.0697C11.7726 14.0543 11.7821 14.0388 11.7913 14.0232C11.801 14.0067 11.8105 13.9901 11.8197 13.9733C11.8295 13.9556 11.8389 13.9377 11.8481 13.9197C11.8579 13.9005 11.8673 13.8811 11.8765 13.8615C11.8863 13.8405 11.8957 13.8193 11.9048 13.798C11.9147 13.7748 11.9242 13.7515 11.9332 13.7279C11.9432 13.702 11.9527 13.6758 11.9616 13.6494C11.9717 13.6194 11.9811 13.5891 11.99 13.5586C12.0003 13.5229 12.0097 13.4869 12.0183 13.4505C12.029 13.4054 12.0385 13.3597 12.0467 13.3136C12.0589 13.2448 12.0682 13.175 12.0751 13.1043C12.0846 13.0057 12.0893 12.9053 12.0893 12.8033V9.29283H12.0467H12.0183H11.99H11.9616H11.9332H11.9048H11.8765H11.8481H11.8197H11.7913H11.763H11.7346H11.7062H11.6778H11.6495H11.6211H11.5927H11.5643H11.536H11.5076H11.4792H11.4508H11.4225H11.3941H11.3657H11.3373H11.309H11.2806H11.2522H11.2238H11.1955H11.1671H11.1387H11.1103H11.082H11.0536H11.0252H10.9969H10.9685H10.9401H10.9117H10.8833H10.855H10.8266H10.7982H10.7698H10.7415H10.7131H10.6847H10.6563H10.628H10.5996H10.5712H10.5428H10.5145H10.4861H10.4577H10.4293H10.401H10.3726H10.3442H10.3158H10.2875H10.2591H10.2307H10.2024H10.174H10.1456H10.1172H10.0888H10.0605H10.0321H10.0037H9.97533H9.94697H9.9186H9.89021H9.86185H9.83346H9.80509H9.77673H9.74834H9.71997H9.69158H9.66322H9.63485H9.60646H9.5781L9.55659 12.8033C9.55659 12.8583 9.55425 12.9123 9.54971 12.9654C9.54391 13.0329 9.53442 13.0988 9.52134 13.1628C9.51326 13.2024 9.50379 13.2412 9.49298 13.2793C9.48435 13.3096 9.47493 13.3395 9.46459 13.3689C9.45578 13.3939 9.44628 13.4185 9.43622 13.4427C9.42725 13.4643 9.4178 13.4856 9.40783 13.5067C9.39876 13.5258 9.38936 13.5447 9.37947 13.5632C9.37037 13.5803 9.36085 13.5971 9.3511 13.6137C9.34194 13.6293 9.33249 13.6447 9.32271 13.6599C9.31352 13.6741 9.30405 13.6882 9.29435 13.702C9.28511 13.7152 9.27571 13.7283 9.26598 13.7411C9.25675 13.7533 9.24725 13.7653 9.23759 13.7772C9.22833 13.7885 9.21889 13.7997 9.20923 13.8108C9.19994 13.8214 9.1905 13.8319 9.18084 13.8423C9.17153 13.8522 9.16211 13.8621 9.15247 13.8718C9.14316 13.8812 9.13372 13.8905 9.12411 13.8996C9.1148 13.9084 9.1053 13.917 9.09572 13.9256C9.08641 13.9339 9.07694 13.9421 9.06735 13.9502C9.05802 13.958 9.04853 13.9657 9.03896 13.9734C9.02963 13.9808 9.02016 13.9881 9.0106 13.9953C9.00124 14.0023 8.9918 14.0092 8.98223 14.016C8.97288 14.0227 8.96343 14.0292 8.95384 14.0357C8.94449 14.042 8.93504 14.0482 8.92548 14.0543C8.91612 14.0602 8.90665 14.0661 8.89709 14.0718C8.88773 14.0775 8.87826 14.083 8.86872 14.0885C8.85937 14.0938 8.8499 14.099 8.84035 14.1042C8.83098 14.1093 8.82153 14.1143 8.81197 14.1191C8.80259 14.1239 8.79314 14.1287 8.7836 14.1333C8.7742 14.1379 8.76478 14.1424 8.75521 14.1468C8.74581 14.1511 8.73639 14.1553 8.72684 14.1595C8.71749 14.1635 8.708 14.1675 8.69848 14.1713C8.6891 14.1752 8.67961 14.1789 8.67009 14.1826C8.66069 14.1863 8.65127 14.1898 8.64172 14.1933C8.63232 14.1967 8.62288 14.2002 8.61334 14.2034C8.60396 14.2066 8.59449 14.2098 8.58497 14.2129C8.57559 14.2159 8.5661 14.2188 8.5566 14.2217C8.5472 14.2245 8.53773 14.2273 8.52821 14.23C8.51879 14.2327 8.50937 14.2354 8.49985 14.2379C8.49045 14.2404 8.48098 14.2428 8.47146 14.2451C8.46208 14.2474 8.45261 14.2497 8.44309 14.2519C8.43369 14.254 8.42425 14.2561 8.41473 14.2582C8.4053 14.2602 8.39588 14.2621 8.38634 14.264C8.37694 14.2658 8.36747 14.2676 8.35797 14.2693C8.34855 14.271 8.3391 14.2727 8.32958 14.2742L8.30122 14.2787C8.29182 14.2801 8.28235 14.2814 8.27285 14.2827C8.26343 14.2839 8.25401 14.2852 8.24446 14.2863L8.2161 14.2896C8.2067 14.2906 8.19723 14.2914 8.18773 14.2923C8.17829 14.2932 8.16886 14.2941 8.15934 14.2949C8.14994 14.2956 8.14047 14.2963 8.13098 14.2969C8.12155 14.2975 8.11208 14.2981 8.10259 14.2986C8.09314 14.2991 8.08374 14.2996 8.07422 14.3C8.06482 14.3004 8.05533 14.3006 8.04586 14.3009L8.01747 14.3015C8.00807 14.3017 7.9986 14.3018 7.9891 14.3018L7.96071 14.3019L7.93235 14.3017L7.90398 14.3013L7.87559 14.3006L7.84723 14.2999L7.81884 14.2989L7.79047 14.2977L7.76211 14.2964L7.73372 14.2949L7.70535 14.2932L7.67696 14.2913L7.6486 14.2892L7.62023 14.2869L7.59184 14.2845L7.56348 14.2819L7.53509 14.2791L7.50672 14.2761L7.47836 14.273L7.44997 14.2696L7.4216 14.2661L7.39324 14.2624L7.36485 14.2586L7.33648 14.2545L7.30809 14.2503L7.27973 14.2459L7.25136 14.2414L7.22297 14.2366L7.19461 14.2317L7.16622 14.2267L7.13785 14.2214L7.10948 14.216L7.0811 14.2104L7.05273 14.2047L7.02434 14.1988L6.99597 14.1927L6.96761 14.1865L6.93922 14.1801L6.91085 14.1735L6.88247 14.1668L6.8541 14.1599L6.82573 14.1528L6.79734 14.1456L6.76898 14.1383L6.74059 14.1307L6.71222 14.123L6.68386 14.1151L6.65547 14.1071L6.6271 14.099L6.59874 14.0907L6.57035 14.0822L6.54198 14.0735L6.51359 14.0648L6.48523 14.0558L6.45686 14.0467L6.42847 14.0375L6.40011 14.0281L6.37172 14.0186L6.34335 14.0089L6.31499 13.9991L6.2866 13.9891L6.25823 13.979L6.22984 13.9687L6.20148 13.9583L6.17311 13.9478L6.14472 13.937L6.11636 13.9262L6.08797 13.9152L6.0596 13.9041L6.03124 13.8928L6.00285 13.8814L5.97448 13.8699L5.94609 13.8582L5.91773 13.8464L5.88936 13.8344L5.86097 13.8223L5.83261 13.8101L5.80422 13.7977L5.77585 13.7852L5.74749 13.7726L5.7191 13.7598L5.69073 13.7469L5.66237 13.7339L5.63398 13.7208L5.60561 13.7075L5.57722 13.6941L5.54886 13.6806L5.52049 13.6669L5.4921 13.6531C5.47177 13.6432 5.45146 13.6332 5.43115 13.6231Z" fill="#006CB9"/>
<path fill-rule="evenodd" clip-rule="evenodd" d="M13.6395 10.0599C13.6189 10.0771 13.5985 10.0944 13.5786 10.112V6.15087C13.5786 5.94022 13.5997 5.73461 13.6395 5.53606C13.6481 5.49344 13.6576 5.4512 13.6679 5.40926C13.6767 5.37326 13.6862 5.33756 13.6963 5.3021C13.7053 5.27052 13.7147 5.23915 13.7247 5.208C13.7338 5.17954 13.7432 5.15122 13.753 5.12314C13.7622 5.09712 13.7716 5.07122 13.7814 5.04554C13.7906 5.02153 13.8 4.99764 13.8098 4.97392C13.819 4.95156 13.8285 4.92934 13.8382 4.90724C13.8474 4.88625 13.8569 4.86542 13.8666 4.8447C13.8758 4.8249 13.8853 4.80529 13.8949 4.78574C13.9042 4.76695 13.9137 4.74832 13.9233 4.72975C13.9326 4.71186 13.9421 4.6941 13.9517 4.67643C13.961 4.65932 13.9704 4.64228 13.9801 4.62538C13.9894 4.60897 13.9988 4.59264 14.0084 4.57642C14.0177 4.56076 14.0272 4.5452 14.0368 4.52973C14.0461 4.51467 14.0556 4.49979 14.0652 4.48493C14.0745 4.47038 14.084 4.45593 14.0936 4.44158C14.103 4.42749 14.1123 4.4134 14.1219 4.39951C14.1312 4.38605 14.1408 4.37281 14.1503 4.35955C14.1597 4.34648 14.1691 4.33348 14.1787 4.32058C14.1881 4.30787 14.1975 4.29514 14.2071 4.28261C14.2164 4.27043 14.226 4.25843 14.2355 4.2464C14.2448 4.23451 14.2543 4.22268 14.2638 4.21096C14.2732 4.19939 14.2826 4.18787 14.2922 4.17647C14.3016 4.16534 14.3111 4.15435 14.3206 4.14336C14.33 4.13247 14.3394 4.12153 14.349 4.11076C14.3583 4.10023 14.3678 4.08982 14.3773 4.07944C14.3867 4.06917 14.3962 4.05898 14.4057 4.04884C14.4151 4.03885 14.4245 4.02885 14.4341 4.01897C14.4434 4.00929 14.4529 3.99973 14.4624 3.99017C14.4719 3.98066 14.4812 3.97107 14.4908 3.96168C14.5002 3.95251 14.5097 3.94355 14.5192 3.9345C14.5286 3.92547 14.538 3.91642 14.5476 3.90754C14.5569 3.89883 14.5665 3.89026 14.5759 3.88166C14.5854 3.8731 14.5948 3.86455 14.6043 3.85613C14.6137 3.84783 14.6232 3.83967 14.6327 3.83149C14.6421 3.82338 14.6516 3.81527 14.6611 3.80726C14.6705 3.79937 14.6799 3.79155 14.6894 3.78378C14.6989 3.77606 14.7083 3.76839 14.7178 3.76079C14.7272 3.75329 14.7367 3.74586 14.7462 3.73845C14.7556 3.73112 14.7651 3.72381 14.7746 3.71659C14.784 3.70943 14.7935 3.70236 14.803 3.69532C14.8124 3.68835 14.8218 3.68138 14.8313 3.6745C14.8407 3.6677 14.8502 3.661 14.8597 3.65429C14.8691 3.64764 14.8786 3.641 14.8881 3.63447C14.8975 3.62801 14.907 3.62164 14.9165 3.61527C14.9259 3.60893 14.9353 3.60259 14.9448 3.59637C14.9543 3.59022 14.9637 3.58422 14.9732 3.57817C14.9827 3.57214 14.9921 3.56604 15.0016 3.56014C15.011 3.55428 15.0205 3.54862 15.03 3.54288C15.0394 3.53714 15.0488 3.53129 15.0583 3.52567C15.0677 3.52013 15.0773 3.5148 15.0867 3.50936C15.0962 3.50391 15.1056 3.49842 15.1151 3.49309C15.1245 3.48782 15.134 3.48273 15.1435 3.47755C15.1529 3.4724 15.1623 3.46722 15.1718 3.46216L15.2002 3.44732L15.2286 3.43282C15.238 3.42808 15.2475 3.42329 15.257 3.41864C15.2664 3.41402 15.2759 3.40954 15.2854 3.40501C15.2948 3.40051 15.3042 3.39587 15.3137 3.39146C15.3231 3.38708 15.3326 3.38296 15.3421 3.3787C15.3516 3.37444 15.361 3.37011 15.3705 3.36595C15.3799 3.36183 15.3894 3.35784 15.3988 3.35382L15.4272 3.34191C15.4367 3.33802 15.4461 3.33412 15.4556 3.33032C15.465 3.32654 15.4745 3.32291 15.484 3.31924C15.4935 3.31556 15.5028 3.31176 15.5124 3.30817C15.5218 3.30464 15.5313 3.30135 15.5407 3.29791C15.5502 3.29447 15.5596 3.29099 15.5691 3.28765C15.5785 3.28431 15.588 3.28111 15.5975 3.27789L15.6259 3.26843C15.6353 3.26533 15.6448 3.26216 15.6543 3.25914C15.6637 3.25616 15.6732 3.25335 15.6826 3.25047C15.6921 3.24757 15.7015 3.24459 15.711 3.24178C15.7204 3.239 15.7299 3.23641 15.7394 3.23372L15.7677 3.22581C15.7772 3.22324 15.7866 3.22063 15.7961 3.21816C15.8056 3.21571 15.815 3.21341 15.8245 3.21104C15.8339 3.20867 15.8434 3.2062 15.8529 3.20393C15.8623 3.20168 15.8718 3.19957 15.8812 3.19742L15.9096 3.19107C15.9191 3.18902 15.9285 3.18689 15.938 3.18493C15.9474 3.18297 15.9569 3.1812 15.9664 3.17934C15.9758 3.17747 15.9853 3.17551 15.9948 3.17374L16.0231 3.16871L16.0515 3.16389C16.061 3.16232 16.0704 3.16065 16.0799 3.15917C16.0893 3.1577 16.0988 3.15646 16.1083 3.15508C16.1177 3.15373 16.1272 3.1523 16.1366 3.15102L16.165 3.14736L16.1934 3.14402C16.2029 3.14293 16.2123 3.14167 16.2218 3.14068C16.2312 3.13969 16.2407 3.13896 16.2501 3.13807L16.2785 3.1355C16.288 3.13468 16.2974 3.13388 16.3069 3.13318C16.3163 3.13248 16.3258 3.13192 16.3353 3.13131C16.3447 3.13071 16.3542 3.13001 16.3637 3.12948C16.3731 3.12894 16.3826 3.12858 16.392 3.12814L16.4204 3.12703C16.4299 3.12669 16.4393 3.12618 16.4488 3.12594C16.4582 3.1257 16.4677 3.12572 16.4772 3.12558C16.4866 3.12543 16.4961 3.12526 16.5056 3.12522L16.5181 3.12505H16.5339H16.5623H16.5907H16.619H16.6474H16.6758H16.7042H16.7325H16.7609H16.7893H16.8177H16.8461H16.8744H16.9028H16.9312H16.9596H16.9879H17.0163H17.0447H17.0731H17.1014H17.1298H17.1582H17.1866H17.215H17.2433H17.2717H17.3001H17.3285H17.3568H17.3852H17.4136H17.442H17.4703H17.4987H17.5271H17.5555H17.5838H17.6122H17.6406H17.669H17.6974H17.7257H17.7541H17.7825H17.8108H17.8392H17.8676H17.896H17.9244H17.9527H17.9811H18.0095H18.0379H18.0662H18.0946H18.123H18.1514H18.1798H18.2081H18.2365H18.2649H18.2932H18.3216H18.35H18.3784H18.4068H18.4351H18.4635H18.4919H18.5203H18.5486H18.577H18.6054H18.6338H18.6621H18.6905H18.7189H18.7473H18.7756H18.804H18.8324H18.8608H18.8892H18.9175H18.9459H18.9743H19.0027H19.031H19.0594H19.0878H19.1162H19.1445H19.1729H19.2013H19.2297H19.2581H19.2864H19.3148H19.3432H19.3716H19.3999H19.4283H19.4567H19.4851H19.5134H19.5418H19.5702H19.5986H19.6269H19.6553H19.6837H19.7121H19.7405H19.7688H19.7972H19.8256H19.8539H19.8823H19.9107H19.9391H19.9675H19.9958H20.0242H20.0526H20.081H20.1094H20.1377H20.1661H20.1945H20.2229H20.2512H20.2796H20.308H20.3363H20.3647H20.3931H20.4215H20.4499H20.4782H20.5066H20.535H20.5634H20.5917H20.6201H20.6485H20.6769H20.7052H20.7336H20.762H20.7904H20.8188H20.8428V18.253C20.8428 18.3846 20.8346 18.5141 20.8188 18.6413C20.8111 18.7025 20.8015 18.763 20.7904 18.823C20.7819 18.8687 20.7725 18.914 20.762 18.959C20.7532 18.9968 20.7438 19.0344 20.7336 19.0717C20.7247 19.1044 20.7152 19.1368 20.7052 19.1691C20.6962 19.1982 20.6867 19.2272 20.6769 19.256C20.6678 19.2826 20.6583 19.3091 20.6485 19.3355C20.6393 19.36 20.6299 19.3844 20.6201 19.4086C20.6109 19.4315 20.6015 19.4542 20.5917 19.4768C20.5825 19.4982 20.5731 19.5194 20.5634 19.5405C20.5541 19.5607 20.5447 19.5808 20.535 19.6007C20.5257 19.6198 20.5162 19.6388 20.5066 19.6577C20.4973 19.6759 20.4879 19.6939 20.4782 19.7119C20.4689 19.7293 20.4595 19.7466 20.4499 19.7638C20.4406 19.7803 20.4311 19.7967 20.4215 19.8131C20.4122 19.8289 20.4027 19.8446 20.3931 19.8602C20.3838 19.8755 20.3743 19.8907 20.3647 19.9057C20.3554 19.9205 20.346 19.9352 20.3363 19.9498C20.327 19.9639 20.3175 19.9779 20.308 19.9918C20.2987 20.0054 20.2892 20.019 20.2796 20.0324C20.2702 20.0457 20.2608 20.0589 20.2512 20.072C20.2419 20.0847 20.2324 20.0973 20.2229 20.11C20.2135 20.1223 20.204 20.1345 20.1945 20.1467C20.1851 20.1587 20.1757 20.1707 20.1661 20.1826C20.1568 20.1942 20.1472 20.2057 20.1377 20.2171C20.1283 20.2284 20.1189 20.2396 20.1094 20.2507C20.0999 20.2617 20.0905 20.2727 20.081 20.2836C20.0716 20.2942 20.0621 20.3046 20.0526 20.3151C20.0432 20.3254 20.0338 20.3359 20.0242 20.3461C20.0148 20.3562 20.0053 20.3661 19.9958 20.376C19.9864 20.3858 19.977 20.3955 19.9675 20.4052C19.9581 20.4147 19.9486 20.4242 19.9391 20.4337C19.9297 20.4429 19.9202 20.4521 19.9107 20.4612C19.9013 20.4703 19.8919 20.4795 19.8823 20.4884C19.873 20.4972 19.8634 20.5058 19.8539 20.5145C19.8445 20.5231 19.8351 20.5318 19.8256 20.5403C19.8162 20.5487 19.8067 20.5568 19.7972 20.565C19.7877 20.5732 19.7784 20.5815 19.7688 20.5896C19.7594 20.5975 19.7499 20.6052 19.7405 20.613C19.731 20.6208 19.7216 20.6287 19.7121 20.6364C19.7027 20.6439 19.6932 20.6513 19.6837 20.6587C19.6743 20.6661 19.6649 20.6736 19.6553 20.6809C19.6459 20.6881 19.6364 20.6951 19.6269 20.7022C19.6175 20.7092 19.6081 20.7163 19.5986 20.7233C19.5892 20.7301 19.5797 20.7367 19.5702 20.7435C19.5607 20.7502 19.5513 20.757 19.5418 20.7636C19.5324 20.7701 19.5229 20.7764 19.5134 20.7828C19.504 20.7892 19.4946 20.7957 19.4851 20.802C19.4757 20.8082 19.4661 20.8141 19.4567 20.8202C19.4472 20.8263 19.4378 20.8324 19.4283 20.8384C19.4189 20.8443 19.4094 20.85 19.3999 20.8557C19.3905 20.8615 19.3811 20.8673 19.3716 20.873C19.3621 20.8786 19.3527 20.8841 19.3432 20.8895L19.3148 20.9058L19.2864 20.9216L19.2581 20.937C19.2486 20.9421 19.2392 20.9472 19.2297 20.9521C19.2203 20.957 19.2108 20.9618 19.2013 20.9666C19.1919 20.9714 19.1825 20.9763 19.1729 20.981C19.1635 20.9857 19.154 20.9901 19.1445 20.9947C19.1351 20.9992 19.1257 21.0039 19.1162 21.0083C19.1068 21.0127 19.0972 21.0169 19.0878 21.0212L19.0594 21.034L19.031 21.0463L19.0027 21.0583C18.9932 21.0622 18.9838 21.0662 18.9743 21.0701C18.9649 21.0739 18.9554 21.0774 18.9459 21.0811C18.9364 21.0849 18.927 21.0886 18.9175 21.0922C18.9081 21.0958 18.8986 21.0992 18.8892 21.1027L18.8608 21.113L18.8324 21.123C18.823 21.1262 18.8135 21.1293 18.804 21.1324C18.7945 21.1356 18.7851 21.1389 18.7756 21.1419C18.7662 21.1449 18.7567 21.1477 18.7473 21.1506L18.7189 21.1593L18.6905 21.1676C18.6811 21.1703 18.6716 21.1729 18.6621 21.1755C18.6527 21.1781 18.6433 21.1809 18.6338 21.1834C18.6244 21.1859 18.6149 21.1881 18.6054 21.1905C18.5959 21.1929 18.5865 21.1953 18.577 21.1976L18.5486 21.2043L18.5203 21.2107C18.5108 21.2128 18.5014 21.215 18.4919 21.217C18.4825 21.219 18.473 21.2208 18.4635 21.2226L18.4351 21.2282L18.4068 21.2335C18.3973 21.2352 18.3879 21.2367 18.3784 21.2383C18.3689 21.2399 18.3595 21.2416 18.35 21.2431C18.3406 21.2446 18.3311 21.2459 18.3216 21.2473L18.2932 21.2514C18.2838 21.2527 18.2744 21.254 18.2649 21.2552C18.2555 21.2565 18.246 21.2575 18.2365 21.2586C18.227 21.2597 18.2176 21.2609 18.2081 21.2619C18.1987 21.2629 18.1892 21.2638 18.1798 21.2647L18.1514 21.2673C18.1419 21.2682 18.1325 21.2692 18.123 21.2699C18.1136 21.2706 18.1041 21.2711 18.0946 21.2717L18.0662 21.2736L18.0379 21.2751C18.0284 21.2756 18.0189 21.2759 18.0095 21.2762C18 21.2766 17.9906 21.2771 17.9811 21.2773C17.9717 21.2776 17.9622 21.2777 17.9527 21.2779L17.9244 21.2783C17.9155 21.2784 17.9067 21.2786 17.8979 21.2786H17.896H17.8676H17.8392H17.8108H17.7825H17.7541H17.7257H17.6974H17.669H17.6406H17.6122H17.5838H17.5555H17.5271H17.4987H17.4703H17.442H17.4136H17.3852H17.3568H17.3285H17.3001H17.2717H17.2433H17.215H17.1866H17.1582H17.1298H17.1014H17.0731H17.0447H17.0163H16.9879H16.9596H16.9312H16.9028H16.8744H16.8461H16.8177H16.7893H16.7609H16.7325H16.7042H16.6758H16.6474H16.619H16.5907H16.5623H16.5339H16.5056H16.4772H16.4488H16.4204H16.392H16.3637H16.3353H16.3069H16.2785H16.2501H16.2218H16.1934H16.165H16.1366H16.1083H16.0799H16.0515H16.0231H15.9948H15.9664H15.938H15.9096H15.8812H15.8529H15.8245H15.7961H15.7677H15.7394H15.711H15.6826H15.6543H15.6259H15.5975H15.5691H15.5407H15.5124H15.484H15.4556H15.4272H15.3988H15.3705H15.3421H15.3137H15.2854H15.257H15.2286H15.2002H15.1718H15.1435H15.1151H15.0867H15.0583H15.03H15.0016H14.9732H14.9448H14.9165H14.8881H14.8597H14.8313H14.803H14.7746H14.7462H14.7178H14.6894H14.6611H14.6327H14.6043H14.5759H14.5476H14.5192H14.4908H14.4624H14.4341H14.4057H14.3773H14.349H14.3206H14.2922H14.2638H14.2355H14.2071H14.1787H14.1503H14.1219H14.0936H14.0652H14.0368H14.0084H13.9801H13.9517H13.9233H13.8949H13.8666H13.8382H13.8098H13.7814H13.753H13.7247H13.6963H13.6679H13.6395H13.5786V14.2929C13.5985 14.3104 13.6189 14.3277 13.6395 14.3449C13.6489 14.3527 13.6584 14.3605 13.6679 14.3681C13.6773 14.3757 13.6868 14.3833 13.6963 14.3909C13.7057 14.3983 13.7151 14.4057 13.7247 14.413C13.734 14.4202 13.7436 14.4273 13.753 14.4344C13.7624 14.4414 13.7719 14.4484 13.7814 14.4554C13.7908 14.4622 13.8003 14.4691 13.8098 14.4759L13.8382 14.4959C13.8475 14.5024 13.857 14.5088 13.8666 14.5153L13.8949 14.5343C13.9043 14.5405 13.9138 14.5468 13.9233 14.5529C13.9327 14.559 13.9422 14.565 13.9517 14.571L13.9801 14.5887C13.9895 14.5945 13.9989 14.6003 14.0084 14.6061C14.0178 14.6117 14.0273 14.6173 14.0368 14.6229L14.0652 14.6395L14.0936 14.6556L14.1219 14.6714C14.1314 14.6766 14.1408 14.6818 14.1503 14.6869C14.1597 14.692 14.1692 14.697 14.1787 14.7019L14.2071 14.7168L14.2355 14.7313L14.2638 14.7453C14.2733 14.75 14.2827 14.7547 14.2922 14.7593L14.3206 14.7727L14.349 14.7861L14.3773 14.799L14.4057 14.8117L14.4341 14.8242L14.4624 14.8363L14.4908 14.8483L14.5192 14.8599L14.5476 14.8714L14.5759 14.8825C14.5854 14.8862 14.5948 14.8899 14.6043 14.8935L14.6327 14.9041C14.6421 14.9077 14.6515 14.9113 14.6611 14.9148C14.6705 14.9182 14.68 14.9215 14.6894 14.9249L14.7178 14.9351L14.7462 14.9448C14.7556 14.9481 14.765 14.9514 14.7746 14.9546C14.7839 14.9578 14.7935 14.9608 14.803 14.9639L14.8313 14.9733L14.8597 14.9822L14.8881 14.9912L14.9165 14.9998L14.9448 15.0083L14.9732 15.0166L15.0016 15.0247L15.03 15.0326L15.0583 15.0404L15.0867 15.0481L15.1151 15.0555L15.1435 15.0628L15.1718 15.0699L15.2002 15.0769L15.2286 15.0837L15.257 15.0904L15.2854 15.0968L15.3137 15.1032L15.3421 15.1095L15.3705 15.1155L15.3988 15.1215L15.4272 15.1272L15.4556 15.1329L15.484 15.1384L15.5124 15.1438L15.5407 15.1491L15.5691 15.1542L15.5975 15.1592L15.6259 15.1641L15.6543 15.1688L15.6826 15.1735L15.711 15.1779L15.7394 15.1824L15.7677 15.1867L15.7961 15.1908L15.8245 15.1949L15.8529 15.1988L15.8812 15.2026L15.9096 15.2063L15.938 15.2099L15.9664 15.2135L15.9948 15.2168L16.0231 15.2201L16.0515 15.2234L16.0799 15.2264L16.1083 15.2294L16.1366 15.2323L16.165 15.235L16.1934 15.2377L16.2218 15.2403L16.2501 15.2428L16.2785 15.2452L16.3069 15.2475L16.3353 15.2497L16.3637 15.2519L16.392 15.2539L16.4204 15.2558L16.4488 15.2578L16.4772 15.2595L16.5056 15.2612L16.5339 15.2628L16.5623 15.2643L16.5907 15.2657L16.619 15.2671L16.6474 15.2683L16.6758 15.2695L16.7042 15.2707L16.7325 15.2717L16.7609 15.2726L16.7893 15.2736L16.8177 15.2743L16.8461 15.275L16.8744 15.2758L16.9028 15.2763L16.9312 15.2767L16.9596 15.2773L16.9879 15.2775L17.0163 15.2778L17.0447 15.2781L17.0731 15.2782L17.1014 15.2782L17.1298 15.2783L17.1582 15.2782L17.1866 15.2781L17.215 15.2779L17.2433 15.2776L17.2717 15.2773L17.3001 15.2769L17.3285 15.2765L17.3568 15.2759L17.3852 15.2753L17.4136 15.2747L17.442 15.2739L17.4703 15.2731L17.4987 15.2723L17.5271 15.2714L17.5555 15.2704L17.5838 15.2694L17.6122 15.2684L17.6406 15.2672L17.669 15.266L17.6974 15.2648L17.7112 15.2642L17.7257 15.2635L17.7541 15.2621L17.7825 15.2605L17.8108 15.2589L17.8392 15.2571L17.8676 15.2554L17.896 15.2534L17.9244 15.2514L17.9527 15.2493L17.9811 15.2471L18.0095 15.2447L18.0379 15.2424L18.0662 15.2399L18.0946 15.2373L18.123 15.2347L18.1514 15.2319L18.1798 15.2291L18.2081 15.2262L18.2365 15.2233L18.2649 15.2202L18.2932 15.2171L18.3216 15.2138L18.35 15.2105L18.3784 15.2072L18.4068 15.2037L18.4351 15.2002L18.4635 15.1967L18.4919 15.193L18.5203 15.1893L18.5486 15.1855L18.577 15.1816L18.6054 15.1777L18.6338 15.1737L18.6621 15.1696L18.6905 15.1655L18.7189 15.1613L18.7473 15.1571L18.7756 15.1527L18.804 15.1483L18.8324 15.1439L18.8608 15.1394L18.8892 15.1348L18.9175 15.1302L18.9459 15.1255L18.9743 15.1208L19.0027 15.1159L19.031 15.111L19.0594 15.1061L19.0878 15.1011L19.1162 15.0961L19.1445 15.091L19.1729 15.0858L19.2013 15.0805L19.2297 15.0753L19.2581 15.0699L19.2864 15.0645L19.3148 15.0591L19.3432 15.0536L19.3716 15.048L19.3999 15.0424L19.4283 15.0367L19.4567 15.031L19.4851 15.0252L19.5134 15.0193L19.5418 15.0134L19.5702 15.0074L19.5986 15.0014L19.6269 14.9953L19.6553 14.9892L19.6837 14.9829L19.7121 14.9767L19.7405 14.9703L19.7688 14.964L19.7972 14.9575L19.8256 14.951L19.8539 14.9444L19.8823 14.9377L19.9107 14.9309L19.9391 14.9241L19.9675 14.9172L19.9958 14.9102L20.0241 14.903V13.6231L19.9958 13.6376L19.9675 13.652L19.9391 13.6662L19.9107 13.6803L19.8823 13.6944L19.8539 13.7083L19.8256 13.7219L19.7972 13.7356L19.7688 13.749L19.7405 13.7623L19.7121 13.7754L19.6837 13.7885L19.6553 13.8013L19.6269 13.814L19.5986 13.8265L19.5702 13.8389L19.5418 13.8512L19.5134 13.8633L19.4851 13.8752L19.4567 13.8869L19.4283 13.8986L19.3999 13.91L19.3716 13.9213L19.3432 13.9324L19.3148 13.9434L19.2864 13.9542L19.2581 13.9648L19.2297 13.9753L19.2013 13.9856L19.1729 13.9957L19.1445 14.0057L19.1162 14.0155L19.0878 14.0251L19.0594 14.0346L19.031 14.0439L19.0027 14.0531L18.9743 14.062L18.9459 14.0708L18.9175 14.0795L18.8892 14.088L18.8608 14.0963L18.8324 14.1044L18.804 14.1124L18.7756 14.1202L18.7473 14.1279L18.7189 14.1353L18.6905 14.1426L18.6621 14.1498L18.6338 14.1568L18.6054 14.1636L18.577 14.1703L18.5486 14.1768L18.5203 14.1831L18.4919 14.1893L18.4635 14.1953L18.4351 14.2011L18.4068 14.2068L18.3784 14.2123L18.35 14.2177L18.3216 14.2229L18.2932 14.2279L18.2649 14.2328L18.2365 14.2375L18.2081 14.2421L18.1798 14.2465L18.1514 14.2507L18.123 14.2548L18.0946 14.2587L18.0662 14.2625L18.0379 14.2661L18.0095 14.2696L17.9811 14.2729L17.9527 14.2761L17.9244 14.2791L17.896 14.2819L17.8676 14.2846L17.8392 14.2872L17.8108 14.2895L17.7936 14.2909L17.7825 14.2917L17.7541 14.2937L17.7257 14.2956L17.6974 14.2972L17.669 14.2987L17.6406 14.3L17.6122 14.301L17.5838 14.3019L17.5555 14.3025L17.5271 14.303L17.4987 14.3033C17.4892 14.3034 17.4798 14.3033 17.4703 14.3032L17.442 14.3031L17.4136 14.3027L17.3852 14.3021L17.3568 14.3013C17.3473 14.301 17.3379 14.3005 17.3285 14.3001C17.319 14.2997 17.3095 14.2994 17.3001 14.299L17.2717 14.2973L17.2433 14.2956L17.215 14.2936L17.1866 14.2913C17.1771 14.2905 17.1676 14.2898 17.1582 14.2889C17.1487 14.288 17.1393 14.2869 17.1298 14.286L17.1014 14.283L17.0731 14.2796L17.0447 14.2761L17.0163 14.2723L16.9879 14.2681C16.9785 14.2667 16.969 14.2653 16.9596 14.2638C16.95 14.2623 16.9406 14.2606 16.9312 14.259C16.9217 14.2573 16.9122 14.2558 16.9028 14.2541C16.8933 14.2524 16.8839 14.2505 16.8744 14.2487C16.865 14.2468 16.8554 14.2451 16.8461 14.2432C16.8365 14.2413 16.8272 14.2391 16.8177 14.2371C16.8082 14.2351 16.7987 14.2331 16.7893 14.231C16.7798 14.2288 16.7704 14.2265 16.7609 14.2243L16.7325 14.2174C16.723 14.2151 16.7136 14.2125 16.7042 14.2101C16.6947 14.2076 16.6852 14.2051 16.6758 14.2025C16.6663 14.1999 16.6568 14.1972 16.6474 14.1945C16.6379 14.1917 16.6284 14.189 16.619 14.1861C16.6095 14.1833 16.6001 14.1803 16.5907 14.1773C16.5812 14.1743 16.5717 14.1713 16.5623 14.1682C16.5528 14.1651 16.5433 14.1618 16.5339 14.1586C16.5244 14.1553 16.5149 14.152 16.5056 14.1487C16.496 14.1453 16.4866 14.1417 16.4772 14.1382C16.4677 14.1346 16.4582 14.1311 16.4488 14.1274C16.4393 14.1237 16.4299 14.1198 16.4204 14.116C16.4109 14.1121 16.4014 14.1083 16.392 14.1044C16.3825 14.1004 16.3731 14.0961 16.3637 14.092C16.3542 14.0878 16.3446 14.0836 16.3353 14.0793C16.3257 14.0749 16.3163 14.0704 16.3069 14.0659C16.2974 14.0613 16.2879 14.0568 16.2785 14.0521C16.269 14.0474 16.2595 14.0426 16.2501 14.0377C16.2406 14.0328 16.2312 14.0278 16.2218 14.0227C16.2123 14.0176 16.2027 14.0125 16.1934 14.0073C16.1838 14.0019 16.1744 13.9964 16.165 13.9909C16.1555 13.9854 16.146 13.9799 16.1366 13.9742C16.1271 13.9684 16.1177 13.9625 16.1083 13.9566C16.0987 13.9506 16.0893 13.9444 16.0799 13.9383C16.0704 13.9321 16.0608 13.9259 16.0515 13.9195C16.0419 13.913 16.0326 13.9062 16.0231 13.8995C16.0136 13.8927 16.0041 13.8859 15.9948 13.8789C15.9852 13.8719 15.9757 13.8648 15.9664 13.8576C15.9568 13.8502 15.9474 13.8426 15.938 13.8351C15.9285 13.8274 15.919 13.8196 15.9096 13.8117C15.9001 13.8037 15.8906 13.7958 15.8812 13.7876C15.8717 13.7791 15.8623 13.7706 15.8529 13.7619C15.8433 13.7531 15.8339 13.7442 15.8245 13.7352C15.815 13.7261 15.8055 13.7168 15.7961 13.7075C15.7866 13.6979 15.777 13.6883 15.7677 13.6785C15.7581 13.6684 15.7487 13.658 15.7394 13.6477C15.7298 13.637 15.7203 13.6263 15.711 13.6154C15.7014 13.6042 15.6919 13.5929 15.6826 13.5815C15.673 13.5697 15.6636 13.5578 15.6543 13.5458C15.6446 13.5334 15.6351 13.5208 15.6259 13.5081C15.6163 13.4949 15.6068 13.4816 15.5975 13.4681C15.5879 13.4541 15.5784 13.4399 15.5691 13.4256C15.5594 13.4106 15.55 13.3955 15.5407 13.3801C15.531 13.3641 15.5216 13.3478 15.5124 13.3313C15.5026 13.314 15.4932 13.2965 15.484 13.2787C15.4742 13.2599 15.4648 13.2408 15.4556 13.2216C15.4458 13.2011 15.4364 13.1802 15.4272 13.1592C15.4174 13.1366 15.4079 13.1137 15.3988 13.0905C15.3889 13.0648 15.3795 13.0386 15.3705 13.0122C15.3605 12.9829 15.351 12.9532 15.3421 12.923C15.3319 12.888 15.3224 12.8524 15.3137 12.8162C15.303 12.7711 15.2936 12.7251 15.2854 12.6782C15.2731 12.6088 15.2636 12.5374 15.257 12.464C15.2493 12.3794 15.2454 12.2921 15.2454 12.2023C15.2454 12.1125 15.2493 12.0252 15.257 11.9404C15.2636 11.8671 15.2731 11.7956 15.2854 11.7261C15.2936 11.6793 15.303 11.6332 15.3137 11.5881C15.3224 11.5519 15.3319 11.5163 15.3421 11.4813C15.351 11.4511 15.3605 11.4213 15.3705 11.392C15.3795 11.3656 15.3889 11.3394 15.3988 11.3137C15.4079 11.2904 15.4174 11.2676 15.4272 11.2449C15.4364 11.2238 15.4458 11.2031 15.4556 11.1825C15.4648 11.1632 15.4742 11.1441 15.484 11.1253C15.4932 11.1076 15.5026 11.09 15.5124 11.0727C15.5216 11.0562 15.531 11.0399 15.5407 11.0239C15.55 11.0085 15.5594 10.9934 15.5691 10.9784C15.5784 10.964 15.5879 10.9499 15.5975 10.9358C15.6068 10.9224 15.6163 10.9091 15.6259 10.8959C15.6351 10.8832 15.6446 10.8706 15.6543 10.8581C15.6636 10.8461 15.673 10.8342 15.6826 10.8224C15.6919 10.811 15.7014 10.7997 15.711 10.7885C15.7203 10.7776 15.7298 10.7668 15.7394 10.7562C15.7487 10.7459 15.7581 10.7355 15.7677 10.7254C15.777 10.7156 15.7866 10.706 15.7961 10.6964C15.8055 10.687 15.815 10.6778 15.8245 10.6686C15.8339 10.6596 15.8433 10.6507 15.8529 10.6419C15.8623 10.6333 15.8717 10.6247 15.8812 10.6163C15.8906 10.6081 15.9001 10.6001 15.9096 10.5921C15.919 10.5842 15.9285 10.5764 15.938 10.5687C15.9474 10.5611 15.9568 10.5536 15.9664 10.5462C15.9757 10.5389 15.9852 10.5319 15.9948 10.5249C16.0041 10.5179 16.0136 10.5111 16.0231 10.5043C16.0326 10.4976 16.0419 10.4908 16.0515 10.4843C16.0608 10.4779 16.0704 10.4717 16.0799 10.4655C16.0893 10.4593 16.0987 10.4532 16.1083 10.4472C16.1177 10.4412 16.1271 10.4354 16.1366 10.4296C16.146 10.4239 16.1555 10.4184 16.165 10.4128C16.1744 10.4073 16.1838 10.4018 16.1934 10.3965C16.2027 10.3912 16.2123 10.3861 16.2218 10.381C16.2312 10.376 16.2406 10.3709 16.2501 10.366C16.2595 10.3611 16.269 10.3563 16.2785 10.3516C16.2879 10.3469 16.2974 10.3424 16.3069 10.3378C16.3163 10.3333 16.3257 10.3288 16.3353 10.3244C16.3446 10.3201 16.3542 10.3159 16.3637 10.3117C16.3731 10.3076 16.3825 10.3033 16.392 10.2993C16.4014 10.2953 16.4109 10.2915 16.4204 10.2877C16.4299 10.2838 16.4393 10.28 16.4488 10.2762C16.4582 10.2726 16.4677 10.2691 16.4772 10.2655C16.4866 10.262 16.496 10.2584 16.5056 10.255C16.5149 10.2516 16.5244 10.2484 16.5339 10.2451C16.5433 10.2418 16.5528 10.2386 16.5623 10.2355C16.5717 10.2324 16.5812 10.2294 16.5907 10.2263C16.6001 10.2234 16.6095 10.2204 16.619 10.2175L16.6474 10.2092C16.6568 10.2065 16.6663 10.2037 16.6758 10.2011C16.6852 10.1985 16.6947 10.1961 16.7042 10.1936C16.7136 10.1911 16.723 10.1886 16.7325 10.1862L16.7609 10.1794C16.7704 10.1771 16.7798 10.1748 16.7893 10.1727C16.7987 10.1705 16.8082 10.1686 16.8177 10.1665C16.8272 10.1645 16.8365 10.1624 16.8461 10.1604C16.8554 10.1585 16.865 10.1568 16.8744 10.155C16.8839 10.1532 16.8933 10.1512 16.9028 10.1495C16.9122 10.1478 16.9217 10.1463 16.9312 10.1447C16.9406 10.143 16.95 10.1414 16.9596 10.1398L16.9879 10.1355L17.0163 10.1313L17.0447 10.1275L17.0731 10.124L17.1014 10.1206L17.1298 10.1176C17.1393 10.1167 17.1487 10.1156 17.1582 10.1147C17.1676 10.1138 17.1771 10.1131 17.1866 10.1123L17.215 10.11L17.2433 10.108L17.2717 10.1063L17.3001 10.1047C17.3095 10.1042 17.319 10.1039 17.3285 10.1035C17.3379 10.1031 17.3473 10.1026 17.3568 10.1023L17.3852 10.1015L17.4136 10.1009L17.442 10.1005L17.4703 10.1004C17.4798 10.1003 17.4892 10.1002 17.4987 10.1003L17.5271 10.1006L17.5555 10.1011L17.5838 10.1017L17.6122 10.1026L17.6406 10.1036L17.669 10.1049L17.6974 10.1064L17.7257 10.108L17.7541 10.1099L17.7825 10.1119L17.7936 10.1127L17.8108 10.1141L17.8392 10.1164L17.8676 10.1189L17.896 10.1216L17.9244 10.1244L17.9527 10.1273L17.9811 10.1305L18.0095 10.1337L18.0379 10.1371L18.0662 10.1407L18.0946 10.1444L18.123 10.1483L18.1514 10.1523L18.1798 10.1565L18.2081 10.1608L18.2365 10.1654L18.2649 10.17L18.2932 10.1748L18.3216 10.1798L18.35 10.185L18.3784 10.1903L18.4068 10.1957L18.4351 10.2014L18.4635 10.2072L18.4919 10.2131L18.5203 10.2192L18.5486 10.2255L18.577 10.232L18.6054 10.2386L18.6338 10.2453L18.6621 10.2523L18.6905 10.2594L18.7189 10.2667L18.7473 10.2742L18.7756 10.2818L18.804 10.2895L18.8324 10.2975L18.8608 10.3056L18.8892 10.3139L18.9175 10.3224L18.9459 10.331L18.9743 10.3398L19.0027 10.3488L19.031 10.3579L19.0594 10.3672L19.0878 10.3767L19.1162 10.3864L19.1445 10.3962L19.1729 10.4062L19.2013 10.4163L19.2297 10.4267L19.2581 10.4372L19.2864 10.4478L19.3148 10.4587L19.3432 10.4697L19.3716 10.4809L19.3999 10.4922L19.4283 10.5037L19.4567 10.5154L19.4851 10.5272L19.5134 10.5392L19.5418 10.5514L19.5702 10.5637L19.5986 10.5762L19.6269 10.5888L19.6553 10.6016L19.6837 10.6146L19.7121 10.6277L19.7405 10.6409L19.7688 10.6544L19.7972 10.6679L19.8256 10.6816L19.8539 10.6955L19.8823 10.7095L19.9107 10.7236L19.9391 10.7379L19.9675 10.7523L19.9958 10.7668L20.0241 10.7814V9.50061L19.9958 9.49345L19.9675 9.48643L19.9391 9.47951L19.9107 9.47266L19.8823 9.46591L19.8539 9.45925L19.8256 9.45264L19.7972 9.44611L19.7688 9.43967L19.7405 9.43326L19.7121 9.42694L19.6837 9.42069L19.6553 9.41445L19.6269 9.40832L19.5986 9.40225L19.5702 9.39622L19.5418 9.39024L19.5134 9.38434L19.4851 9.37848L19.4567 9.3727L19.4283 9.36698L19.3999 9.36127L19.3716 9.35566L19.3432 9.35009L19.3148 9.3446L19.2864 9.33915L19.2581 9.33375L19.2297 9.32843L19.2013 9.32315L19.1729 9.31792L19.1445 9.31277L19.1162 9.30766L19.0878 9.3026L19.0594 9.29764L19.031 9.2927L19.0027 9.28784L18.9743 9.28302L18.9459 9.27828L18.9175 9.27361L18.8892 9.26896L18.8608 9.26441L18.8324 9.25988L18.804 9.25545L18.7756 9.25107L18.7473 9.24674L18.7189 9.2425L18.6905 9.23832L18.6621 9.2342L18.6338 9.23016L18.6054 9.22617L18.577 9.22224L18.5486 9.21837L18.5203 9.21462L18.4919 9.21089L18.4635 9.20724L18.4351 9.20366L18.4068 9.20017L18.3784 9.19676L18.35 9.19339L18.3216 9.19013L18.2932 9.18691L18.2649 9.18381L18.2365 9.18073L18.2081 9.17781L18.1798 9.1749L18.1514 9.17209L18.123 9.16936L18.0946 9.16674L18.0662 9.16418L18.0379 9.16171L18.0095 9.15934L17.9811 9.15704L17.9527 9.15488L17.9244 9.15273L17.896 9.15077L17.8676 9.14881L17.8392 9.14704L17.8108 9.1453L17.7825 9.1437L17.7541 9.14218L17.7257 9.14077L17.7112 9.14007L17.6974 9.13947L17.669 9.13826L17.6406 9.13705L17.6122 9.13584L17.5838 9.13482L17.5555 9.13383L17.5271 9.13281L17.4987 9.13194L17.4703 9.13112L17.442 9.13032L17.4136 9.12957L17.3852 9.12896L17.3568 9.12838L17.3285 9.12778L17.3001 9.12739L17.2717 9.127L17.2433 9.12661L17.215 9.12637L17.1866 9.12623L17.1582 9.12606L17.1298 9.12598L17.1014 9.12603L17.0731 9.12608L17.0447 9.12618L17.0163 9.12644L16.9879 9.12673L16.9596 9.12703L16.9312 9.12753L16.9028 9.12802L16.8744 9.12853L16.8461 9.12925L16.8177 9.12998L16.7893 9.1307L16.7609 9.13165L16.7325 9.13262L16.7042 9.13358L16.6758 9.13477L16.6474 9.13598L16.619 9.13717L16.5907 9.13859L16.5623 9.14005L16.5339 9.14147L16.5056 9.14314L16.4772 9.14484L16.4488 9.14653L16.4204 9.14847L16.392 9.15043L16.3637 9.15239L16.3353 9.15462L16.3069 9.15682L16.2785 9.1591L16.2501 9.16156L16.2218 9.16401L16.1934 9.1666L16.165 9.16933L16.1366 9.17207L16.1083 9.17497L16.0799 9.178L16.0515 9.181L16.0231 9.18427L15.9948 9.18754L15.9664 9.19088L15.938 9.19446L15.9096 9.19802L15.8812 9.20177L15.8529 9.20562L15.8245 9.20946L15.7961 9.21358L15.7677 9.21772L15.7394 9.22198L15.711 9.22643L15.6826 9.23086L15.6543 9.23556L15.6259 9.24032L15.5975 9.24519L15.5691 9.25022L15.5407 9.25528L15.5124 9.26061L15.484 9.26601L15.4556 9.27152L15.4272 9.27721L15.3988 9.28292L15.3705 9.28895L15.3421 9.29498L15.3137 9.30122L15.2854 9.30759L15.257 9.31407L15.2286 9.32078L15.2002 9.32751L15.1718 9.33458L15.1435 9.34164L15.1151 9.34898L15.0867 9.35641L15.0583 9.36406L15.03 9.37185L15.0016 9.37979L14.9732 9.38795L14.9448 9.39622L14.9165 9.40477L14.8881 9.41336L14.8597 9.42229L14.8313 9.43127L14.803 9.44061C14.7935 9.44374 14.7839 9.44678 14.7746 9.44996L14.7462 9.45971C14.7368 9.46295 14.7272 9.46615 14.7178 9.46946L14.6894 9.47963L14.6611 9.4898C14.6515 9.49328 14.6421 9.49689 14.6327 9.50042C14.6232 9.50395 14.6137 9.50744 14.6043 9.51105L14.5759 9.52211C14.5665 9.52581 14.5569 9.52944 14.5476 9.53319L14.5192 9.54472L14.4908 9.55633L14.4624 9.56831L14.4341 9.58046L14.4057 9.5929L14.3773 9.60564L14.349 9.61856L14.3206 9.6319L14.2922 9.64536C14.2827 9.64995 14.2733 9.65465 14.2638 9.6593L14.2355 9.67341L14.2071 9.68791L14.1787 9.70272C14.1692 9.70773 14.1597 9.71269 14.1503 9.71775C14.1408 9.72288 14.1314 9.72811 14.1219 9.73331L14.0936 9.74909L14.0652 9.76524C14.0556 9.77073 14.0462 9.77628 14.0368 9.78184C14.0273 9.78743 14.0178 9.793 14.0084 9.79866C13.9989 9.8044 13.9895 9.81021 13.9801 9.81602C13.9705 9.8219 13.9611 9.82783 13.9517 9.83378C13.9422 9.83979 13.9327 9.84579 13.9233 9.85184C13.9138 9.85801 13.9043 9.86426 13.8949 9.87048L13.8666 9.88953C13.857 9.89599 13.8475 9.9024 13.8382 9.90894L13.8098 9.92893C13.8003 9.93573 13.7908 9.94258 13.7814 9.94943C13.7719 9.95638 13.7624 9.96337 13.753 9.97042C13.7436 9.97753 13.734 9.98462 13.7247 9.99181C13.7151 9.99917 13.7057 10.0066 13.6963 10.014C13.6868 10.0215 13.6773 10.0291 13.6679 10.0367C13.6584 10.0444 13.6489 10.0522 13.6395 10.0599V10.0599V10.0599Z" fill="#E10238"/>
</svg>
