<svg width="35" height="25" viewBox="0 0 35 25" fill="none" xmlns="http://www.w3.org/2000/svg">
<rect x="1.72966" y="1.72966" width="31.5407" height="21.5407" rx="2.27034" fill="white" stroke="#F3F3F3" stroke-width="3.45932"/>
<path d="M15.5399 17.1458H13.2097L14.6672 8.39536H16.9973L15.5399 17.1458Z" fill="#15195A"/>
<path d="M23.987 8.60927C23.5274 8.43221 22.7984 8.23672 21.897 8.23672C19.5959 8.23672 17.9754 9.42821 17.9655 11.1317C17.9464 12.3885 19.1257 13.0866 20.0077 13.5056C20.9092 13.9338 21.2157 14.2133 21.2157 14.595C21.2065 15.1813 20.4872 15.4515 19.8163 15.4515C18.886 15.4515 18.3875 15.3122 17.63 14.986L17.3231 14.8462L16.9971 16.8105C17.5436 17.0522 18.5505 17.2668 19.5959 17.2762C22.0409 17.2762 23.6327 16.1031 23.6515 14.2878C23.6608 13.2917 23.0381 12.5284 21.6956 11.9047C20.8806 11.5043 20.3815 11.2344 20.3815 10.8247C20.391 10.4523 20.8036 10.0708 21.7236 10.0708C22.4812 10.0522 23.0377 10.229 23.4594 10.4059L23.6701 10.4988L23.987 8.60927V8.60927V8.60927Z" fill="#15195A"/>
<path fill-rule="evenodd" clip-rule="evenodd" d="M28.1579 8.39536H29.9603L31.8402 17.1457H29.6827C29.6827 17.1457 29.4715 16.1403 29.4046 15.8331H26.4128C26.3263 16.0657 25.9238 17.1457 25.9238 17.1457H23.4788L26.94 9.12138C27.1798 8.55348 27.6021 8.39536 28.1579 8.39536ZM28.0143 11.5975C28.0143 11.5975 27.2759 13.5431 27.084 14.0458H29.0208C28.925 13.6083 28.4837 11.5138 28.4837 11.5138L28.3209 10.7598C28.2523 10.9539 28.1531 11.2209 28.0862 11.4009C28.0409 11.523 28.0104 11.6051 28.0143 11.5975Z" fill="#15195A"/>
<path fill-rule="evenodd" clip-rule="evenodd" d="M8.98119 14.3623L11.2632 8.39534H13.7272L10.0645 17.1365H7.60042L5.52351 9.53315C4.80692 9.12636 3.98909 8.7992 3.07471 8.57216L3.11306 8.39536H6.86214C7.3703 8.41379 7.78265 8.57204 7.91683 9.13091L8.73162 13.1515C8.73169 13.1517 8.73175 13.1519 8.73182 13.1521L8.98119 14.3623Z" fill="#15195A"/>
</svg>
