<svg width="129" height="32" viewBox="0 0 129 32" fill="none" xmlns="http://www.w3.org/2000/svg">
<path d="M14.6641 1.5625V0.5625H13.6641V1.5625H14.6641ZM21.5 1.5625H22.5V0.5625H21.5V1.5625ZM20.2305 25.918L19.3716 25.4058L19.3681 25.4116L20.2305 25.918ZM16.7148 29.2187L16.2554 28.3305L16.2523 28.3322L16.7148 29.2187ZM1.89062 21.4062V20.4062H0.890625V21.4062H1.89062ZM8.76562 21.4062H9.76562V20.4062H8.76562V21.4062ZM9.42969 24.2383L8.63174 24.8412L8.64034 24.8522L9.42969 24.2383ZM13.8828 24.0625L13.0741 23.4743L13.0721 23.477L13.8828 24.0625ZM14.6641 2.5625H21.5V0.5625L14.6641 0.5625V2.5625ZM20.5 1.5625V21.0742H22.5V1.5625H20.5ZM20.5 21.0742C20.5 22.7215 20.1169 24.1559 19.3716 25.4058L21.0893 26.4301C22.0367 24.8415 22.5 23.0467 22.5 21.0742H20.5ZM19.3681 25.4116C18.6337 26.6625 17.604 27.633 16.2554 28.3305L17.1743 30.107C18.8465 29.242 20.1606 28.0119 21.0928 26.4243L19.3681 25.4116ZM16.2523 28.3322C14.9109 29.032 13.3988 29.3906 11.6953 29.3906V31.3906C13.6898 31.3906 15.524 30.968 17.1774 30.1053L16.2523 28.3322ZM11.6953 29.3906C8.76048 29.3906 6.62183 28.6528 5.14143 27.3069L3.79607 28.7868C5.75317 30.566 8.43223 31.3906 11.6953 31.3906V29.3906ZM5.14143 27.3069C3.67834 25.9769 2.89062 24.0599 2.89062 21.4062L0.890625 21.4062C0.890625 24.4818 1.82166 26.9919 3.79607 28.7868L5.14143 27.3069ZM1.89062 22.4062L8.76562 22.4062V20.4062L1.89062 20.4062V22.4062ZM7.76562 21.4062C7.76562 22.7768 7.99002 23.9917 8.63182 24.8411L10.2276 23.6354C9.98394 23.313 9.76562 22.6398 9.76562 21.4062H7.76562ZM8.64034 24.8522C9.35602 25.7724 10.4687 26.1172 11.6953 26.1172V24.1172C10.8126 24.1172 10.4148 23.876 10.219 23.6243L8.64034 24.8522ZM11.6953 26.1172C12.9311 26.1172 13.9776 25.6392 14.6935 24.648L13.0721 23.477C12.7724 23.8921 12.3606 24.1172 11.6953 24.1172V26.1172ZM14.6916 24.6507C15.3807 23.7031 15.6641 22.472 15.6641 21.0742H13.6641C13.6641 22.2286 13.4266 22.9896 13.0741 23.4743L14.6916 24.6507ZM15.6641 21.0742V1.5625H13.6641V21.0742H15.6641ZM43.4727 17.9492V18.9492H44.4727V17.9492H43.4727ZM32.6914 17.9492V16.9492H31.6914V17.9492H32.6914ZM32.6914 24.7266H31.6914V25.7266H32.6914V24.7266ZM45.4258 24.7266H46.4258V23.7266H45.4258V24.7266ZM45.4258 30V31H46.4258V30H45.4258ZM25.8359 30H24.8359V31H25.8359V30ZM25.8359 1.5625V0.5625H24.8359V1.5625H25.8359ZM45.4648 1.5625H46.4648V0.5625H45.4648V1.5625ZM45.4648 6.85547V7.85547H46.4648V6.85547H45.4648ZM32.6914 6.85547V5.85547H31.6914V6.85547H32.6914ZM32.6914 12.8516H31.6914V13.8516H32.6914V12.8516ZM43.4727 12.8516H44.4727V11.8516H43.4727V12.8516ZM43.4727 16.9492H32.6914V18.9492H43.4727V16.9492ZM31.6914 17.9492V24.7266H33.6914V17.9492H31.6914ZM32.6914 25.7266H45.4258V23.7266H32.6914V25.7266ZM44.4258 24.7266V30H46.4258V24.7266H44.4258ZM45.4258 29H25.8359V31H45.4258V29ZM26.8359 30V1.5625H24.8359V30H26.8359ZM25.8359 2.5625L45.4648 2.5625V0.5625L25.8359 0.5625V2.5625ZM44.4648 1.5625V6.85547H46.4648V1.5625H44.4648ZM45.4648 5.85547L32.6914 5.85547V7.85547L45.4648 7.85547V5.85547ZM31.6914 6.85547V12.8516H33.6914V6.85547H31.6914ZM32.6914 13.8516H43.4727V11.8516H32.6914V13.8516ZM42.4727 12.8516V17.9492H44.4727V12.8516H42.4727ZM71.9688 30V31H72.9688V30H71.9688ZM65.1523 30L64.2834 30.4949L64.5711 31H65.1523V30ZM55.0742 12.3047L55.9432 11.8098L54.0742 8.52826V12.3047H55.0742ZM55.0742 30V31H56.0742V30H55.0742ZM48.2188 30H47.2188V31H48.2188V30ZM48.2188 1.5625V0.5625H47.2188V1.5625H48.2188ZM55.0742 1.5625L55.9436 1.06833L55.6561 0.5625H55.0742V1.5625ZM65.1328 19.2578L64.2634 19.752L66.1328 23.0406V19.2578H65.1328ZM65.1328 1.5625V0.5625H64.1328V1.5625H65.1328ZM71.9688 1.5625H72.9688V0.5625H71.9688V1.5625ZM71.9688 29H65.1523V31H71.9688V29ZM66.0213 29.5051L55.9432 11.8098L54.2053 12.7996L64.2834 30.4949L66.0213 29.5051ZM54.0742 12.3047V30H56.0742V12.3047H54.0742ZM55.0742 29H48.2188V31H55.0742V29ZM49.2188 30V1.5625L47.2188 1.5625V30H49.2188ZM48.2188 2.5625L55.0742 2.5625V0.5625L48.2188 0.5625V2.5625ZM54.2048 2.05667L64.2634 19.752L66.0022 18.7636L55.9436 1.06833L54.2048 2.05667ZM66.1328 19.2578V1.5625H64.1328V19.2578H66.1328ZM65.1328 2.5625L71.9688 2.5625V0.5625L65.1328 0.5625V2.5625ZM70.9688 1.5625V30H72.9688V1.5625H70.9688ZM100.055 30V31H101.055V30H100.055ZM93.2383 30L92.3693 30.4949L92.657 31H93.2383V30ZM83.1602 12.3047L84.0291 11.8098L82.1602 8.52826V12.3047H83.1602ZM83.1602 30V31H84.1602V30H83.1602ZM76.3047 30H75.3047V31H76.3047V30ZM76.3047 1.5625V0.5625H75.3047V1.5625H76.3047ZM83.1602 1.5625L84.0295 1.06833L83.742 0.5625H83.1602V1.5625ZM93.2188 19.2578L92.3494 19.752L94.2188 23.0406V19.2578H93.2188ZM93.2188 1.5625V0.5625L92.2188 0.5625V1.5625L93.2188 1.5625ZM100.055 1.5625H101.055V0.5625H100.055V1.5625ZM100.055 29H93.2383V31H100.055V29ZM94.1072 29.5051L84.0291 11.8098L82.2912 12.7996L92.3693 30.4949L94.1072 29.5051ZM82.1602 12.3047V30H84.1602V12.3047H82.1602ZM83.1602 29H76.3047V31H83.1602V29ZM77.3047 30V1.5625H75.3047V30H77.3047ZM76.3047 2.5625L83.1602 2.5625V0.5625L76.3047 0.5625V2.5625ZM82.2908 2.05667L92.3494 19.752L94.0881 18.7636L84.0295 1.06833L82.2908 2.05667ZM94.2188 19.2578V1.5625L92.2188 1.5625V19.2578H94.2188ZM93.2188 2.5625L100.055 2.5625V0.5625L93.2188 0.5625V2.5625ZM99.0547 1.5625V30H101.055V1.5625L99.0547 1.5625ZM114.254 13.9062L113.334 14.2979L114.256 16.4637L115.175 14.2966L114.254 13.9062ZM119.488 1.5625V0.5625H118.826L118.568 1.1721L119.488 1.5625ZM126.891 1.5625L127.784 2.01163L128.513 0.5625H126.891V1.5625ZM117.73 19.7852L116.837 19.336L116.73 19.548V19.7852H117.73ZM117.73 30V31L118.73 31V30L117.73 30ZM110.777 30H109.777V31H110.777V30ZM110.777 19.7852H111.777V19.5484L111.671 19.3368L110.777 19.7852ZM101.637 1.5625V0.5625H100.016L100.743 2.01086L101.637 1.5625ZM109 1.5625L109.92 1.17087L109.661 0.5625H109V1.5625ZM115.175 14.2966L120.409 1.9529L118.568 1.1721L113.333 13.5159L115.175 14.2966ZM119.488 2.5625L126.891 2.5625V0.5625L119.488 0.5625V2.5625ZM125.997 1.11337L116.837 19.336L118.624 20.2343L127.784 2.01163L125.997 1.11337ZM116.73 19.7852V30L118.73 30V19.7852H116.73ZM117.73 29H110.777V31H117.73V29ZM111.777 30V19.7852H109.777V30H111.777ZM111.671 19.3368L102.531 1.11414L100.743 2.01086L109.883 20.2335L111.671 19.3368ZM101.637 2.5625H109V0.5625L101.637 0.5625V2.5625ZM108.08 1.95413L113.334 14.2979L115.174 13.5146L109.92 1.17087L108.08 1.95413Z" fill="white"/>
</svg>
