<svg width="171" height="40" viewBox="0 0 171 40" fill="none" xmlns="http://www.w3.org/2000/svg">
<path d="M12.3066 2.45312L13.2588 2.14763L13.036 1.45312H12.3066V2.45312ZM20.2412 27.1846L19.289 27.4901L20.2427 30.4626L21.1937 27.4892L20.2412 27.1846ZM28.1514 2.45312V1.45312H27.4213L27.1989 2.14849L28.1514 2.45312ZM39.4307 2.45312H40.4307V1.45312H39.4307V2.45312ZM39.4307 38V39H40.4307V38H39.4307ZM30.8369 38H29.8369V39H30.8369V38ZM30.8369 29.6992L29.8381 29.6504L29.8369 29.6748V29.6992H30.8369ZM31.667 12.707L32.6658 12.7558L30.7202 12.3853L31.667 12.707ZM23.0732 38V39H23.7896L24.0201 38.3217L23.0732 38ZM17.4092 38L16.4625 38.3222L16.6932 39H17.4092V38ZM8.79102 12.6826L9.73767 12.3604L7.7922 12.7313L8.79102 12.6826ZM9.62109 29.6992H10.6211V29.6748L10.6199 29.6505L9.62109 29.6992ZM9.62109 38V39H10.6211V38H9.62109ZM1.05176 38H0.0517578V39H1.05176V38ZM1.05176 2.45312V1.45312H0.0517578V2.45312H1.05176ZM11.3544 2.75862L19.289 27.4901L21.1934 26.8791L13.2588 2.14763L11.3544 2.75862ZM21.1937 27.4892L29.1038 2.75776L27.1989 2.14849L19.2887 26.8799L21.1937 27.4892ZM28.1514 3.45312H39.4307V1.45312H28.1514V3.45312ZM38.4307 2.45312V38H40.4307V2.45312H38.4307ZM39.4307 37H30.8369V39H39.4307V37ZM31.8369 38V29.6992H29.8369V38H31.8369ZM31.8357 29.748L32.6658 12.7558L30.6682 12.6582L29.8381 29.6504L31.8357 29.748ZM30.7202 12.3853L22.1264 37.6783L24.0201 38.3217L32.6138 13.0287L30.7202 12.3853ZM23.0732 37H17.4092V39H23.0732V37ZM18.3558 37.6778L9.73767 12.3604L7.84436 13.0049L16.4625 38.3222L18.3558 37.6778ZM7.7922 12.7313L8.62228 29.7479L10.6199 29.6505L9.78983 12.6339L7.7922 12.7313ZM8.62109 29.6992V38H10.6211V29.6992H8.62109ZM9.62109 37H1.05176V39H9.62109V37ZM2.05176 38V2.45312H0.0517578V38H2.05176ZM1.05176 3.45312H12.3066V1.45312H1.05176V3.45312ZM65.5293 31.3594L66.4838 31.0611L66.2645 30.3594H65.5293V31.3594ZM53.7861 31.3594V30.3594H53.0484L52.8307 31.0643L53.7861 31.3594ZM51.7354 38V39H52.4731L52.6908 38.2951L51.7354 38ZM42.5801 38L41.6412 37.6557L41.1482 39H42.5801V38ZM55.6172 2.45312V1.45312H54.9188L54.6783 2.10879L55.6172 2.45312ZM63.6738 2.45312L64.6118 2.10652L64.3704 1.45312H63.6738V2.45312ZM76.8086 38V39H78.2442L77.7466 37.6534L76.8086 38ZM67.6045 38L66.65 38.2983L66.8693 39H67.6045V38ZM55.8369 24.7432L54.8815 24.448L54.4814 25.7432H55.8369V24.7432ZM63.4785 24.7432V25.7432H64.8366L64.4334 24.4463L63.4785 24.7432ZM59.6455 12.4141L60.6004 12.1172L59.6425 9.03583L58.6901 12.1189L59.6455 12.4141ZM65.5293 30.3594H53.7861V32.3594H65.5293V30.3594ZM52.8307 31.0643L50.7799 37.7049L52.6908 38.2951L54.7416 31.6544L52.8307 31.0643ZM51.7354 37H42.5801V39H51.7354V37ZM43.5189 38.3443L56.556 2.79746L54.6783 2.10879L41.6412 37.6557L43.5189 38.3443ZM55.6172 3.45312H63.6738V1.45312H55.6172V3.45312ZM62.7358 2.79973L75.8706 38.3466L77.7466 37.6534L64.6118 2.10652L62.7358 2.79973ZM76.8086 37H67.6045V39H76.8086V37ZM68.559 37.7017L66.4838 31.0611L64.5748 31.6576L66.65 38.2983L68.559 37.7017ZM55.8369 25.7432H63.4785V23.7432H55.8369V25.7432ZM64.4334 24.4463L60.6004 12.1172L58.6906 12.7109L62.5236 25.04L64.4334 24.4463ZM58.6901 12.1189L54.8815 24.448L56.7924 25.0383L60.601 12.7092L58.6901 12.1189ZM104.396 9.06934V10.0693H105.396V9.06934H104.396ZM93.7275 9.06934V8.06934H92.7275V9.06934H93.7275ZM93.7275 38V39H94.7275V38H93.7275ZM85.1582 38H84.1582V39H85.1582V38ZM85.1582 9.06934H86.1582V8.06934H85.1582V9.06934ZM74.6846 9.06934H73.6846V10.0693H74.6846V9.06934ZM74.6846 2.45312V1.45312H73.6846V2.45312H74.6846ZM104.396 2.45312H105.396V1.45312H104.396V2.45312ZM104.396 8.06934H93.7275V10.0693H104.396V8.06934ZM92.7275 9.06934V38H94.7275V9.06934H92.7275ZM93.7275 37H85.1582V39H93.7275V37ZM86.1582 38V9.06934H84.1582V38H86.1582ZM85.1582 8.06934H74.6846V10.0693H85.1582V8.06934ZM75.6846 9.06934V2.45312H73.6846V9.06934H75.6846ZM74.6846 3.45312H104.396V1.45312H74.6846V3.45312ZM103.396 2.45312V9.06934H105.396V2.45312H103.396ZM136.11 25.9639L137.109 26.0099L137.157 24.9639H136.11V25.9639ZM134.108 32.5312L134.948 33.0742L134.95 33.0709L134.108 32.5312ZM128.957 36.9258L128.531 36.021L128.529 36.0222L128.957 36.9258ZM108.156 10.1436L107.25 9.72128L107.249 9.72378L108.156 10.1436ZM113.405 4.08887L113.933 4.93824L113.937 4.9355L113.405 4.08887ZM131.716 5.3584L131.06 6.11301L131.062 6.11533L131.716 5.3584ZM136.184 14.7334V15.7334H137.277L137.18 14.644L136.184 14.7334ZM127.639 14.7334L126.639 14.7635L126.668 15.7334H127.639V14.7334ZM115.065 18.6885L114.065 18.6745V18.6885H115.065ZM116.481 29.333L115.616 29.8347L115.62 29.8412L116.481 29.333ZM127.59 25.9639V24.9639H126.622L126.59 25.9316L127.59 25.9639ZM135.111 25.9179C135.005 28.2335 134.384 30.249 133.267 31.9916L134.95 33.0709C136.275 31.0049 136.988 28.6422 137.109 26.0099L135.111 25.9179ZM133.269 31.9883C132.158 33.7056 130.591 35.0516 128.531 36.021L129.383 37.8306C131.75 36.7166 133.617 35.1329 134.948 33.0742L133.269 31.9883ZM128.529 36.0222C126.486 36.9907 124.121 37.4883 121.413 37.4883V39.4883C124.369 39.4883 127.034 38.9442 129.385 37.8294L128.529 36.0222ZM121.413 37.4883C116.981 37.4883 113.594 36.0562 111.128 33.2612L109.628 34.5845C112.533 37.8767 116.503 39.4883 121.413 39.4883V37.4883ZM111.128 33.2612C108.654 30.4581 107.35 26.4287 107.35 21.0322H105.35C105.35 26.736 106.73 31.3004 109.628 34.5845L111.128 33.2612ZM107.35 21.0322V19.2744H105.35V21.0322H107.35ZM107.35 19.2744C107.35 15.9059 107.932 13.0109 109.064 10.5633L107.249 9.72378C105.972 12.4846 105.35 15.6768 105.35 19.2744H107.35ZM109.063 10.5658C110.208 8.10723 111.832 6.24368 113.933 4.93823L112.877 3.23951C110.421 4.76609 108.546 6.93899 107.25 9.72129L109.063 10.5658ZM113.937 4.9355C116.039 3.61447 118.487 2.94043 121.315 2.94043V0.94043C118.154 0.94043 115.329 1.69869 112.873 3.24223L113.937 4.9355ZM121.315 2.94043C125.448 2.94043 128.662 4.02825 131.06 6.113L132.372 4.60379C129.529 2.13125 125.809 0.94043 121.315 0.94043V2.94043ZM131.062 6.11533C133.456 8.18149 134.849 11.0501 135.188 14.8228L137.18 14.644C136.802 10.4414 135.217 7.06005 132.369 4.60147L131.062 6.11533ZM136.184 13.7334H127.639V15.7334H136.184V13.7334ZM128.638 14.7033C128.569 12.4153 127.99 10.5403 126.68 9.33461L125.326 10.806C126.067 11.4883 126.578 12.7221 126.639 14.7635L128.638 14.7033ZM126.68 9.33461C125.396 8.15213 123.542 7.6543 121.315 7.6543V9.6543C123.288 9.6543 124.559 10.1005 125.326 10.806L126.68 9.33461ZM121.315 7.6543C118.893 7.6543 116.982 8.58614 115.779 10.5184L117.477 11.5753C118.26 10.3175 119.474 9.6543 121.315 9.6543V7.6543ZM115.779 10.5184C114.638 12.3515 114.115 15.1262 114.066 18.6745L116.065 18.7024C116.113 15.2521 116.632 12.9324 117.477 11.5753L115.779 10.5184ZM114.065 18.6885V21.2031H116.065V18.6885H114.065ZM114.065 21.2031C114.065 25.0261 114.532 27.965 115.616 29.8347L117.346 28.8313C116.543 27.4458 116.065 24.9647 116.065 21.2031H114.065ZM115.62 29.8412C116.804 31.8477 118.827 32.7744 121.413 32.7744V30.7744C119.344 30.7744 118.079 30.0735 117.343 28.8249L115.62 29.8412ZM121.413 32.7744C123.527 32.7744 125.307 32.2767 126.595 31.1296L125.265 29.636C124.469 30.3444 123.238 30.7744 121.413 30.7744V32.7744ZM126.595 31.1296C127.918 29.9509 128.519 28.1644 128.589 25.9961L126.59 25.9316C126.53 27.7998 126.025 28.9592 125.265 29.636L126.595 31.1296ZM127.59 26.9639H136.11V24.9639H127.59V26.9639ZM169.875 38V39H170.875V38H169.875ZM161.354 38H160.354V39H161.354V38ZM161.354 23.1562H162.354V22.1562H161.354V23.1562ZM148.732 23.1562V22.1562H147.732V23.1562H148.732ZM148.732 38V39H149.732V38H148.732ZM140.163 38H139.163V39H140.163V38ZM140.163 2.45312V1.45312H139.163V2.45312H140.163ZM148.732 2.45312H149.732V1.45312H148.732V2.45312ZM148.732 16.5645H147.732V17.5645H148.732V16.5645ZM161.354 16.5645V17.5645H162.354V16.5645H161.354ZM161.354 2.45312V1.45312H160.354V2.45312H161.354ZM169.875 2.45312H170.875V1.45312H169.875V2.45312ZM169.875 37H161.354V39H169.875V37ZM162.354 38V23.1562H160.354V38H162.354ZM161.354 22.1562H148.732V24.1562H161.354V22.1562ZM147.732 23.1562V38H149.732V23.1562H147.732ZM148.732 37H140.163V39H148.732V37ZM141.163 38V2.45312H139.163V38H141.163ZM140.163 3.45312H148.732V1.45312H140.163V3.45312ZM147.732 2.45312V16.5645H149.732V2.45312H147.732ZM148.732 17.5645H161.354V15.5645H148.732V17.5645ZM162.354 16.5645V2.45312H160.354V16.5645H162.354ZM161.354 3.45312H169.875V1.45312H161.354V3.45312ZM168.875 2.45312V38H170.875V2.45312H168.875Z" fill="white"/>
</svg>
