<svg width="145" height="34" viewBox="0 0 145 34" fill="none" xmlns="http://www.w3.org/2000/svg">
<path d="M17.3164 21.0977L16.0705 22.6622L16.0775 22.6678L16.0846 22.6733L17.3164 21.0977ZM9.21094 17.6211L10.0971 15.8281L10.0927 15.8259L9.21094 17.6211ZM5.05078 6L3.46109 4.78637L3.45912 4.78896L5.05078 6ZM8.95703 3.1875L9.69237 5.04746L9.70477 5.04246L8.95703 3.1875ZM20.1094 3.26562L19.2862 5.08837L19.2917 5.09083L20.1094 3.26562ZM23.8984 6.39062L22.2319 7.49634L22.2368 7.50375L23.8984 6.39062ZM25.2461 11V13H27.2461V11H25.2461ZM18.4102 11L16.4102 11V13L18.4102 13V11ZM17.3359 8.30469L15.992 9.78581L15.9987 9.79194L16.0055 9.79801L17.3359 8.30469ZM11.5547 8.16797L12.7641 9.76087L12.7685 9.7575L11.5547 8.16797ZM11.6719 12.2109L10.455 13.7982L10.4634 13.8046L10.4719 13.8109L11.6719 12.2109ZM15.793 14.0469L15.1756 15.9493L15.1871 15.9529L15.793 14.0469ZM20.6367 16.0781L19.6368 17.8102L19.6381 17.811L20.6367 16.0781ZM8.44922 30.1602L7.63221 31.9857L7.63988 31.9891L7.64758 31.9925L8.44922 30.1602ZM4.23047 26.7617L2.55254 27.8501L2.55825 27.8589L2.56404 27.8676L4.23047 26.7617ZM2.82422 21.7812V19.7812H0.824219V21.7812H2.82422ZM9.69922 21.7812L11.6992 21.7812V19.7812H9.69922V21.7812ZM10.8711 25.1602L9.50645 26.6223L9.51904 26.634L9.53182 26.6455L10.8711 25.1602ZM17.3945 25.5117L18.5842 27.1194L18.5895 27.1155L17.3945 25.5117ZM20.3906 23.4414C20.3906 21.8959 19.8036 20.5035 18.5482 19.522L16.0846 22.6733C16.2615 22.8116 16.3906 22.9817 16.3906 23.4414H20.3906ZM18.5623 19.5331C17.5686 18.7418 16.0396 18.0735 14.2225 17.4634L12.9493 21.2554C14.6999 21.8432 15.658 22.3337 16.0705 22.6622L18.5623 19.5331ZM14.2225 17.4634C12.4871 16.8807 11.1204 16.3339 10.0971 15.8281L8.32476 19.4141C9.56707 20.0281 11.1171 20.6401 12.9493 21.2554L14.2225 17.4634ZM10.0927 15.8259C6.85091 14.2337 5.68359 12.3253 5.68359 10.1602L1.68359 10.1602C1.68359 14.3232 4.20117 17.3887 8.32922 19.4162L10.0927 15.8259ZM5.68359 10.1602C5.68359 9.00022 6.00884 8.04377 6.64244 7.21104L3.45912 4.78896C2.26981 6.35206 1.68359 8.16905 1.68359 10.1602L5.68359 10.1602ZM6.64046 7.21363C7.30628 6.34151 8.28761 5.60278 9.69235 5.04742L8.22171 1.32758C6.26707 2.10034 4.64424 3.23662 3.4611 4.78637L6.64046 7.21363ZM9.70477 5.04246C11.1124 4.47504 12.7411 4.17187 14.6211 4.17187V0.171875C12.3084 0.171875 10.161 0.545797 8.2093 1.33254L9.70477 5.04246ZM14.6211 4.17187C16.425 4.17187 17.9672 4.49269 19.2862 5.08837L20.9325 1.44288C19.0224 0.580227 16.9058 0.171875 14.6211 0.171875V4.17187ZM19.2917 5.09083C20.6088 5.68092 21.5628 6.48787 22.2319 7.49632L25.565 5.28493C24.4372 3.58505 22.8651 2.30866 20.9271 1.44042L19.2917 5.09083ZM22.2368 7.50375C22.8984 8.4913 23.2461 9.63433 23.2461 11H27.2461C27.2461 8.90213 26.6954 6.97225 25.5601 5.2775L22.2368 7.50375ZM25.2461 9L18.4102 9V13H25.2461V9ZM20.4102 11C20.4102 9.39993 19.8963 7.90714 18.6664 6.81137L16.0055 9.79801C16.2079 9.97828 16.4102 10.2824 16.4102 11L20.4102 11ZM18.6799 6.82357C17.516 5.7674 16.0312 5.34766 14.4648 5.34766V9.34766C15.3204 9.34766 15.7496 9.56594 15.992 9.78581L18.6799 6.82357ZM14.4648 5.34766C12.9576 5.34766 11.5117 5.68431 10.3409 6.57843L12.7685 9.7575C13.0299 9.55788 13.5241 9.34766 14.4648 9.34766V5.34766ZM10.3453 6.57508C9.1785 7.46096 8.5 8.71806 8.5 10.2187H12.5C12.5 10.0528 12.5246 9.94269 12.7641 9.76086L10.3453 6.57508ZM8.5 10.2187C8.5 11.7717 9.36593 12.9632 10.455 13.7982L12.8887 10.6237C12.6481 10.4392 12.5509 10.3075 12.5168 10.2496C12.501 10.2227 12.4983 10.2112 12.499 10.2135C12.4998 10.2165 12.5 10.22 12.5 10.2187H8.5ZM10.4719 13.8109C11.535 14.6083 13.1803 15.3017 15.1757 15.9492L16.4103 12.1445C14.4733 11.516 13.3712 10.9854 12.8719 10.6109L10.4719 13.8109ZM15.1871 15.9529C17.0676 16.5507 18.5379 17.1758 19.6368 17.8102L21.6367 14.3461C20.2095 13.5221 18.4506 12.7931 16.3989 12.1409L15.1871 15.9529ZM19.6381 17.811C22.1953 19.2846 23.2461 21.1178 23.2461 23.4023H27.2461C27.2461 19.4629 25.2239 16.4133 21.6353 14.3453L19.6381 17.811ZM23.2461 23.4023C23.2461 25.3049 22.5695 26.6505 21.2265 27.667L23.6407 30.8564C26.0477 29.0344 27.2461 26.4737 27.2461 23.4023H23.2461ZM21.2265 27.667C19.8116 28.738 17.7176 29.3906 14.7188 29.3906V33.3906C18.2564 33.3906 21.3055 32.6239 23.6407 30.8564L21.2265 27.667ZM14.7188 29.3906C12.6552 29.3906 10.843 29.0244 9.25085 28.3278L7.64758 31.9925C9.80541 32.9365 12.1729 33.3906 14.7188 33.3906V29.3906ZM9.26623 28.3346C7.68443 27.6267 6.60174 26.7179 5.8969 25.6558L2.56404 27.8676C3.76024 29.6701 5.49004 31.0269 7.63221 31.9857L9.26623 28.3346ZM5.90839 25.6733C5.19965 24.5807 4.82422 23.3055 4.82422 21.7812H0.824219C0.824219 24.007 1.38628 26.0521 2.55254 27.8501L5.90839 25.6733ZM2.82422 23.7812H9.69922V19.7812H2.82422V23.7812ZM7.69922 21.7812C7.69922 23.6187 8.1725 25.3772 9.50645 26.6223L12.2357 23.698C12.0072 23.4847 11.6992 22.9907 11.6992 21.7812L7.69922 21.7812ZM9.53182 26.6455C10.8692 27.8514 12.7563 28.2344 14.7188 28.2344V24.2344C13.1395 24.2344 12.4615 23.9012 12.2104 23.6748L9.53182 26.6455ZM14.7188 28.2344C16.1135 28.2344 17.4756 27.9398 18.5842 27.1194L16.2048 23.904C16.0114 24.0472 15.5897 24.2344 14.7188 24.2344V28.2344ZM18.5895 27.1155C19.7996 26.2138 20.3906 24.9076 20.3906 23.4414H16.3906C16.3906 23.746 16.3176 23.82 16.1996 23.908L18.5895 27.1155ZM52.5312 31V33H54.5312V31H52.5312ZM45.7148 31H43.7148V33H45.7148V31ZM45.7148 19.125H47.7148V17.125H45.7148V19.125ZM35.6172 19.125V17.125H33.6172V19.125H35.6172ZM35.6172 31V33H37.6172V31H35.6172ZM28.7617 31H26.7617V33H28.7617V31ZM28.7617 2.5625V0.5625H26.7617V2.5625H28.7617ZM35.6172 2.5625L37.6172 2.5625V0.5625H35.6172V2.5625ZM35.6172 13.8516H33.6172V15.8516H35.6172V13.8516ZM45.7148 13.8516V15.8516H47.7148V13.8516H45.7148ZM45.7148 2.5625V0.5625H43.7148V2.5625H45.7148ZM52.5312 2.5625H54.5312V0.5625H52.5312V2.5625ZM52.5312 29H45.7148V33H52.5312V29ZM47.7148 31V19.125H43.7148V31H47.7148ZM45.7148 17.125H35.6172V21.125H45.7148V17.125ZM33.6172 19.125V31H37.6172V19.125H33.6172ZM35.6172 29H28.7617V33H35.6172V29ZM30.7617 31V2.5625L26.7617 2.5625V31H30.7617ZM28.7617 4.5625L35.6172 4.5625V0.5625L28.7617 0.5625V4.5625ZM33.6172 2.5625V13.8516H37.6172V2.5625L33.6172 2.5625ZM35.6172 15.8516H45.7148V11.8516H35.6172V15.8516ZM47.7148 13.8516V2.5625H43.7148V13.8516H47.7148ZM45.7148 4.5625L52.5312 4.5625V0.5625L45.7148 0.5625V4.5625ZM50.5312 2.5625V31H54.5312V2.5625L50.5312 2.5625ZM73.3906 25.6875L75.2996 25.091L74.861 23.6875H73.3906V25.6875ZM63.9961 25.6875V23.6875H62.5205L62.0851 25.0974L63.9961 25.6875ZM62.3555 31V33H63.831L64.2664 31.5901L62.3555 31ZM55.0312 31L53.1535 30.3113L52.1675 33H55.0312V31ZM65.4609 2.5625V0.5625H64.0642L63.5832 1.87384L65.4609 2.5625ZM71.9062 2.5625L73.7823 1.8693L73.2994 0.5625H71.9062V2.5625ZM82.4141 31V33H85.2852L84.2901 30.3068L82.4141 31ZM75.0508 31L73.1418 31.5965L73.5804 33H75.0508V31ZM65.6367 20.3945L63.7258 19.8042L62.9256 22.3945H65.6367V20.3945ZM71.75 20.3945V22.3945H74.4662L73.6598 19.8008L71.75 20.3945ZM68.6836 10.5312L70.5934 9.9375L68.6775 3.77478L66.7727 9.94095L68.6836 10.5312ZM73.3906 23.6875L63.9961 23.6875V27.6875L73.3906 27.6875V23.6875ZM62.0851 25.0974L60.4445 30.4099L64.2664 31.5901L65.907 26.2776L62.0851 25.0974ZM62.3555 29H55.0312V33H62.3555V29ZM56.909 31.6887L67.3386 3.25116L63.5832 1.87384L53.1535 30.3113L56.909 31.6887ZM65.4609 4.5625H71.9062V0.5625H65.4609V4.5625ZM70.0302 3.2557L80.538 31.6932L84.2901 30.3068L73.7823 1.8693L70.0302 3.2557ZM82.4141 29H75.0508V33H82.4141V29ZM76.9597 30.4035L75.2996 25.091L71.4817 26.284L73.1418 31.5965L76.9597 30.4035ZM65.6367 22.3945L71.75 22.3945V18.3945H65.6367V22.3945ZM73.6598 19.8008L70.5934 9.9375L66.7738 11.125L69.8402 20.9883L73.6598 19.8008ZM66.7727 9.94095L63.7258 19.8042L67.5476 20.9848L70.5945 11.1215L66.7727 9.94095ZM105.754 20.3945L103.802 20.8286L107.721 20.7544L105.754 20.3945ZM109.016 2.5625V0.5625H107.348L107.048 2.20264L109.016 2.5625ZM115.812 2.5625L117.769 2.9777L118.281 0.5625H115.812V2.5625ZM109.777 31V33H111.397L111.734 31.4152L109.777 31ZM102.668 31L100.721 31.4574L101.083 33H102.668V31ZM98.8594 14.7891L100.806 14.3316L96.9103 14.3405L98.8594 14.7891ZM95.1289 31V33H96.7209L97.078 31.4485L95.1289 31ZM88.0391 31L86.0829 31.4165L86.4201 33H88.0391V31ZM81.9844 2.5625V0.5625H79.5137L80.0282 2.97899L81.9844 2.5625ZM88.8008 2.5625L90.7681 2.20264L90.4681 0.5625H88.8008V2.5625ZM92.0625 20.3945L90.0951 20.7544L94.0162 20.8225L92.0625 20.3945ZM95.9688 2.5625V0.5625H94.3594L94.0151 2.13453L95.9688 2.5625ZM101.789 2.5625L103.741 2.12841L103.393 0.5625H101.789V2.5625ZM107.721 20.7544L110.983 2.92236L107.048 2.20264L103.787 20.0347L107.721 20.7544ZM109.016 4.5625H115.812V0.5625H109.016V4.5625ZM113.856 2.1473L107.821 30.5848L111.734 31.4152L117.769 2.9777L113.856 2.1473ZM109.777 29H102.668V33H109.777V29ZM104.615 30.5426L100.806 14.3316L96.9124 15.2465L100.721 31.4574L104.615 30.5426ZM96.9103 14.3405L93.1798 30.5515L97.078 31.4485L100.808 15.2376L96.9103 14.3405ZM95.1289 29H88.0391V33H95.1289V29ZM89.9952 30.5835L83.9405 2.14601L80.0282 2.97899L86.0829 31.4165L89.9952 30.5835ZM81.9844 4.5625H88.8008V0.5625H81.9844V4.5625ZM86.8334 2.92236L90.0951 20.7544L94.0299 20.0347L90.7681 2.20264L86.8334 2.92236ZM94.0162 20.8225L97.9224 2.99047L94.0151 2.13453L90.1088 19.9666L94.0162 20.8225ZM95.9688 4.5625H101.789V0.5625H95.9688V4.5625ZM99.8367 2.99659L103.802 20.8286L107.706 19.9604L103.741 2.12841L99.8367 2.99659ZM142.238 31V33H144.238V31H142.238ZM135.422 31L133.684 31.9898L134.259 33H135.422V31ZM125.344 13.3047L127.082 12.3149L123.344 5.75183V13.3047H125.344ZM125.344 31V33H127.344V31L125.344 31ZM118.488 31H116.488V33H118.488V31ZM118.488 2.5625V0.5625H116.488V2.5625H118.488ZM125.344 2.5625L127.082 1.57415L126.507 0.5625H125.344V2.5625ZM135.402 20.2578L133.664 21.2462L137.402 27.8234V20.2578H135.402ZM135.402 2.5625V0.5625L133.402 0.5625V2.5625H135.402ZM142.238 2.5625H144.238V0.5625H142.238V2.5625ZM142.238 29H135.422V33H142.238V29ZM137.16 30.0102L127.082 12.3149L123.606 14.2945L133.684 31.9898L137.16 30.0102ZM123.344 13.3047V31L127.344 31V13.3047H123.344ZM125.344 29H118.488V33H125.344V29ZM120.488 31V2.5625H116.488V31H120.488ZM118.488 4.5625L125.344 4.5625V0.5625L118.488 0.5625V4.5625ZM123.605 3.55085L133.664 21.2462L137.141 19.2695L127.082 1.57415L123.605 3.55085ZM137.402 20.2578V2.5625H133.402V20.2578H137.402ZM135.402 4.5625H142.238V0.5625H135.402V4.5625ZM140.238 2.5625V31H144.238V2.5625H140.238Z" fill="white"/>
</svg>
