<svg width="143" height="32" viewBox="0 0 143 32" fill="none" xmlns="http://www.w3.org/2000/svg">
<path d="M16.3164 20.0977L15.6935 20.88L15.7005 20.8855L16.3164 20.0977ZM8.21094 16.6211L8.65402 15.7246L8.65179 15.7235L8.21094 16.6211ZM4.05078 5L3.25594 4.39318L3.25495 4.39448L4.05078 5ZM7.95703 2.1875L8.3247 3.11748L8.3309 3.11498L7.95703 2.1875ZM19.1094 2.26562L18.6978 3.177L18.7005 3.17823L19.1094 2.26562ZM22.8984 5.39062L22.0651 5.94348L22.0676 5.94719L22.8984 5.39062ZM24.2461 10V11H25.2461V10H24.2461ZM17.4102 10L16.4102 10V11L17.4102 11V10ZM16.3359 7.30469L15.6639 8.04528L15.6707 8.05135L16.3359 7.30469ZM10.5547 7.16797L11.1594 7.96442L11.1616 7.96274L10.5547 7.16797ZM10.6719 11.2109L10.0634 12.0046L10.0719 12.0109L10.6719 11.2109ZM14.793 13.0469L14.4843 13.9981L14.49 13.9999L14.793 13.0469ZM19.6367 15.0781L19.1367 15.9442L19.1374 15.9446L19.6367 15.0781ZM7.44922 29.1602L7.0407 30.0729L7.0484 30.0763L7.44922 29.1602ZM3.23047 25.7617L2.39146 26.3059L2.39725 26.3147L3.23047 25.7617ZM1.82422 20.7812V19.7812H0.824219V20.7812H1.82422ZM8.69922 20.7812H9.69922V19.7812H8.69922V20.7812ZM9.87109 24.1602L9.18877 24.8912L9.19507 24.8971L9.20145 24.9028L9.87109 24.1602ZM16.3945 24.5117L16.9894 25.3156L16.992 25.3136L16.3945 24.5117ZM18.3906 22.4414C18.3906 21.1673 17.9181 20.0805 16.9323 19.3098L15.7005 20.8855C16.147 21.2346 16.3906 21.7103 16.3906 22.4414H18.3906ZM16.9393 19.3154C16.0909 18.6398 14.7047 18.0159 12.9042 17.4114L12.2676 19.3074C14.0349 19.9007 15.1356 20.4357 15.6935 20.8799L16.9393 19.3154ZM12.9042 17.4114C11.1446 16.8206 9.73209 16.2575 8.65402 15.7246L7.76785 17.5176C8.95541 18.1045 10.4596 18.7003 12.2676 19.3074L12.9042 17.4114ZM8.65179 15.7235C5.18848 14.0225 3.68359 11.8247 3.68359 9.16016L1.68359 9.16016C1.68359 12.8237 3.86361 15.5999 7.77008 17.5187L8.65179 15.7235ZM3.68359 9.16016C3.68359 7.79243 4.07408 6.62085 4.84661 5.60552L3.25495 4.39448C2.20457 5.77499 1.68359 7.37684 1.68359 9.16016L3.68359 9.16016ZM4.84563 5.60682C5.64077 4.56529 6.78248 3.72717 8.32469 3.11746L7.58937 1.25754C5.77221 1.97595 4.30975 3.01284 3.25594 4.39318L4.84563 5.60682ZM8.3309 3.11498C9.87457 2.49273 11.6329 2.17187 13.6211 2.17187V0.171875C11.4166 0.171875 9.39886 0.528107 7.58316 1.26002L8.3309 3.11498ZM13.6211 2.17187C15.5452 2.17187 17.231 2.51457 18.6978 3.177L19.521 1.35425C17.7586 0.558343 15.7856 0.171875 13.6211 0.171875V2.17187ZM18.7005 3.17823C20.1729 3.83786 21.2814 4.76216 22.0652 5.94347L23.7317 4.83778C22.7186 3.31075 21.301 2.15173 19.5182 1.35302L18.7005 3.17823ZM22.0676 5.94719C22.8476 7.11153 23.2461 8.45128 23.2461 10H25.2461C25.2461 8.08518 24.7461 6.35201 23.7292 4.83406L22.0676 5.94719ZM24.2461 9H17.4102V11H24.2461V9ZM18.4102 10C18.4102 8.62054 17.9742 7.42492 17.0011 6.55803L15.6707 8.05135C16.13 8.46049 16.4102 9.06175 16.4102 10L18.4102 10ZM17.0079 6.56413C16.0744 5.71703 14.8535 5.34766 13.4648 5.34766V7.34766C14.4981 7.34766 15.1912 7.6163 15.6639 8.04525L17.0079 6.56413ZM13.4648 5.34766C12.0993 5.34766 10.8913 5.6527 9.94778 6.3732L11.1616 7.96274C11.6504 7.58949 12.3825 7.34766 13.4648 7.34766V5.34766ZM9.94998 6.37152C9.01503 7.08139 8.5 8.05174 8.5 9.21875H10.5C10.5 8.7191 10.6881 8.32226 11.1594 7.96442L9.94998 6.37152ZM8.5 9.21875C8.5 10.3598 9.12828 11.2876 10.0634 12.0045L11.2803 10.4173C10.653 9.93638 10.5 9.536 10.5 9.21875H8.5ZM10.0719 12.0109C10.9941 12.7026 12.5036 13.3553 14.4843 13.998L15.1016 12.0957C13.1501 11.4624 11.9122 10.8912 11.2719 10.4109L10.0719 12.0109ZM14.49 13.9999C16.4134 14.6113 17.9558 15.2624 19.1367 15.9442L20.1367 14.2121C18.7916 13.4355 17.1049 12.7325 15.0959 12.0939L14.49 13.9999ZM19.1374 15.9446C21.9525 17.5668 23.2461 19.7041 23.2461 22.4023H25.2461C25.2461 18.8767 23.4668 16.1311 20.136 14.2117L19.1374 15.9446ZM23.2461 22.4023C23.2461 24.5971 22.439 26.2465 20.8301 27.4644L22.0371 29.0591C24.1781 27.4384 25.2461 25.1815 25.2461 22.4023H23.2461ZM20.8301 27.4644C19.1851 28.7095 16.8523 29.3906 13.7188 29.3906V31.3906C17.1217 31.3906 19.9321 30.6525 22.0371 29.0591L20.8301 27.4644ZM13.7188 29.3906C11.5346 29.3906 9.58362 29.0024 7.85004 28.244L7.0484 30.0763C9.06482 30.9585 11.2935 31.3906 13.7188 31.3906V29.3906ZM7.85773 28.2474C6.13583 27.4768 4.89137 26.456 4.06368 25.2088L2.39725 26.3147C3.47061 27.9321 5.03864 29.1769 7.04071 30.0729L7.85773 28.2474ZM4.06943 25.2175C3.24632 23.9486 2.82422 22.4809 2.82422 20.7812H0.824219C0.824219 22.8316 1.33962 24.6843 2.39151 26.3059L4.06943 25.2175ZM1.82422 21.7812H8.69922V19.7812H1.82422V21.7812ZM7.69922 20.7812C7.69922 22.4617 8.13117 23.9041 9.18877 24.8912L10.5534 23.4291C10.0485 22.9579 9.69922 22.1477 9.69922 20.7812H7.69922ZM9.20145 24.9028C10.2673 25.8639 11.8521 26.2344 13.7188 26.2344V24.2344C12.0437 24.2344 11.0634 23.8888 10.5407 23.4175L9.20145 24.9028ZM13.7188 26.2344C14.9825 26.2344 16.1095 25.9666 16.9894 25.3156L15.7997 23.7079C15.3774 24.0203 14.7206 24.2344 13.7188 24.2344V26.2344ZM16.992 25.3136C17.9291 24.6154 18.3906 23.6172 18.3906 22.4414H16.3906C16.3906 23.0364 16.1881 23.4185 15.7971 23.7098L16.992 25.3136ZM51.5312 30V31H52.5312V30H51.5312ZM44.7148 30H43.7148V31H44.7148V30ZM44.7148 18.125H45.7148V17.125H44.7148V18.125ZM34.6172 18.125V17.125H33.6172V18.125H34.6172ZM34.6172 30V31H35.6172V30H34.6172ZM27.7617 30H26.7617V31H27.7617V30ZM27.7617 1.5625V0.5625H26.7617V1.5625H27.7617ZM34.6172 1.5625L35.6172 1.5625V0.5625L34.6172 0.5625V1.5625ZM34.6172 12.8516H33.6172V13.8516H34.6172V12.8516ZM44.7148 12.8516V13.8516H45.7148V12.8516H44.7148ZM44.7148 1.5625V0.5625H43.7148V1.5625H44.7148ZM51.5312 1.5625H52.5312V0.5625H51.5312V1.5625ZM51.5312 29H44.7148V31H51.5312V29ZM45.7148 30V18.125H43.7148V30H45.7148ZM44.7148 17.125H34.6172V19.125H44.7148V17.125ZM33.6172 18.125V30H35.6172V18.125H33.6172ZM34.6172 29H27.7617V31H34.6172V29ZM28.7617 30V1.5625L26.7617 1.5625V30H28.7617ZM27.7617 2.5625L34.6172 2.5625V0.5625L27.7617 0.5625V2.5625ZM33.6172 1.5625V12.8516H35.6172V1.5625L33.6172 1.5625ZM34.6172 13.8516H44.7148V11.8516H34.6172V13.8516ZM45.7148 12.8516V1.5625H43.7148V12.8516H45.7148ZM44.7148 2.5625L51.5312 2.5625V0.5625L44.7148 0.5625V2.5625ZM50.5312 1.5625V30H52.5312V1.5625H50.5312ZM72.3906 24.6875L73.3451 24.3892L73.1258 23.6875H72.3906V24.6875ZM62.9961 24.6875V23.6875H62.2583L62.0406 24.3924L62.9961 24.6875ZM61.3555 30V31H62.0932L62.3109 30.2951L61.3555 30ZM54.0312 30L53.0924 29.6557L52.5993 31H54.0312V30ZM64.4609 1.5625V0.5625L63.7626 0.5625L63.5221 1.21817L64.4609 1.5625ZM70.9062 1.5625L71.8443 1.2159L71.6028 0.5625H70.9062V1.5625ZM81.4141 30V31H82.8497L82.3521 29.6534L81.4141 30ZM74.0508 30L73.0963 30.2983L73.3156 31H74.0508V30ZM64.6367 19.3945L63.6813 19.0994L63.2812 20.3945H64.6367V19.3945ZM70.75 19.3945V20.3945H72.1081L71.7049 19.0977L70.75 19.3945ZM67.6836 9.53125L68.6385 9.23437L67.6805 6.15301L66.7281 9.2361L67.6836 9.53125ZM72.3906 23.6875L62.9961 23.6875V25.6875L72.3906 25.6875V23.6875ZM62.0406 24.3924L60.4 29.7049L62.3109 30.2951L63.9516 24.9826L62.0406 24.3924ZM61.3555 29H54.0312V31H61.3555V29ZM54.9701 30.3443L65.3998 1.90683L63.5221 1.21817L53.0924 29.6557L54.9701 30.3443ZM64.4609 2.5625H70.9062V0.5625H64.4609V2.5625ZM69.9682 1.9091L80.476 30.3466L82.3521 29.6534L71.8443 1.2159L69.9682 1.9091ZM81.4141 29H74.0508V31H81.4141V29ZM75.0053 29.7017L73.3451 24.3892L71.4361 24.9858L73.0963 30.2983L75.0053 29.7017ZM64.6367 20.3945L70.75 20.3945V18.3945H64.6367V20.3945ZM71.7049 19.0977L68.6385 9.23437L66.7287 9.82812L69.7951 19.6914L71.7049 19.0977ZM66.7281 9.2361L63.6813 19.0994L65.5922 19.6897L68.639 9.8264L66.7281 9.2361ZM104.754 19.3945L103.778 19.6116L105.738 19.5745L104.754 19.3945ZM108.016 1.5625V0.5625L107.182 0.5625L107.032 1.38257L108.016 1.5625ZM114.812 1.5625L115.791 1.7701L116.047 0.5625L114.812 0.5625V1.5625ZM108.777 30V31H109.587L109.756 30.2076L108.777 30ZM101.668 30L100.694 30.2287L100.876 31H101.668V30ZM97.8594 13.7891L98.8329 13.5604L96.8848 13.5648L97.8594 13.7891ZM94.1289 30V31H94.9249L95.1034 30.2243L94.1289 30ZM87.0391 30L86.061 30.2082L86.2296 31H87.0391V30ZM80.9844 1.5625V0.5625H79.7491L80.0063 1.77074L80.9844 1.5625ZM87.8008 1.5625L88.7845 1.38257L88.6345 0.5625H87.8008V1.5625ZM91.0625 19.3945L90.0788 19.5745L92.0393 19.6085L91.0625 19.3945ZM94.9688 1.5625V0.5625H94.1641L93.9919 1.34852L94.9688 1.5625ZM100.789 1.5625L101.765 1.34546L101.591 0.5625H100.789V1.5625ZM105.738 19.5745L108.999 1.74243L107.032 1.38257L103.77 19.2146L105.738 19.5745ZM108.016 2.5625H114.812V0.5625H108.016V2.5625ZM113.834 1.3549L107.799 29.7924L109.756 30.2076L115.791 1.7701L113.834 1.3549ZM108.777 29H101.668V31H108.777V29ZM102.641 29.7713L98.8329 13.5604L96.8859 14.0178L100.694 30.2287L102.641 29.7713ZM96.8848 13.5648L93.1544 29.7757L95.1034 30.2243L98.8339 14.0133L96.8848 13.5648ZM94.1289 29H87.0391V31H94.1289V29ZM88.0171 29.7918L81.9624 1.35426L80.0063 1.77074L86.061 30.2082L88.0171 29.7918ZM80.9844 2.5625H87.8008V0.5625L80.9844 0.5625V2.5625ZM86.8171 1.74243L90.0788 19.5745L92.0462 19.2146L88.7845 1.38257L86.8171 1.74243ZM92.0393 19.6085L95.9456 1.77648L93.9919 1.34852L90.0857 19.1805L92.0393 19.6085ZM94.9688 2.5625H100.789V0.5625L94.9688 0.5625V2.5625ZM99.8129 1.77954L103.778 19.6116L105.73 19.1775L101.765 1.34546L99.8129 1.77954ZM141.238 30V31H142.238V30H141.238ZM134.422 30L133.553 30.4949L133.841 31H134.422V30ZM124.344 12.3047L125.213 11.8098L123.344 8.52826V12.3047H124.344ZM124.344 30V31H125.344V30H124.344ZM117.488 30H116.488V31H117.488V30ZM117.488 1.5625V0.5625H116.488V1.5625H117.488ZM124.344 1.5625L125.213 1.06833L124.926 0.5625H124.344V1.5625ZM134.402 19.2578L133.533 19.752L135.402 23.0406V19.2578H134.402ZM134.402 1.5625V0.5625H133.402V1.5625H134.402ZM141.238 1.5625H142.238V0.5625H141.238V1.5625ZM141.238 29H134.422V31H141.238V29ZM135.291 29.5051L125.213 11.8098L123.475 12.7996L133.553 30.4949L135.291 29.5051ZM123.344 12.3047V30H125.344V12.3047H123.344ZM124.344 29H117.488V31H124.344V29ZM118.488 30V1.5625H116.488V30H118.488ZM117.488 2.5625L124.344 2.5625V0.5625L117.488 0.5625V2.5625ZM123.474 2.05667L133.533 19.752L135.272 18.7636L125.213 1.06833L123.474 2.05667ZM135.402 19.2578V1.5625H133.402V19.2578H135.402ZM134.402 2.5625L141.238 2.5625V0.5625L134.402 0.5625V2.5625ZM140.238 1.5625V30H142.238V1.5625H140.238Z" fill="white"/>
</svg>
