<svg width="32" height="242" viewBox="0 0 32 242" fill="none" xmlns="http://www.w3.org/2000/svg">
<path d="M20.0977 226.258L20.88 226.881L20.8855 226.874L20.0977 226.258ZM16.6211 234.363L15.7246 233.92L15.7235 233.922L16.6211 234.363ZM5 238.523L4.39318 239.318L4.39448 239.319L5 238.523ZM2.1875 234.617L3.11748 234.25L3.11498 234.243L2.1875 234.617ZM2.26563 223.465L3.177 223.876L3.17823 223.874L2.26563 223.465ZM5.39063 219.676L5.94348 220.509L5.94719 220.507L5.39063 219.676ZM10 218.328L11 218.328L11 217.328L10 217.328L10 218.328ZM10 225.164L10 226.164L11 226.164L11 225.164L10 225.164ZM7.30469 226.238L8.04528 226.91L8.05135 226.903L7.30469 226.238ZM7.16797 232.02L7.96442 231.415L7.96274 231.413L7.16797 232.02ZM11.2109 231.902L12.0046 232.511L12.0109 232.502L11.2109 231.902ZM13.0469 227.781L13.9981 228.09L13.9999 228.084L13.0469 227.781ZM15.0781 222.938L15.9442 223.437L15.9446 223.437L15.0781 222.938ZM29.1602 235.125L30.0729 235.534L30.0763 235.526L29.1602 235.125ZM25.7617 239.344L26.3059 240.183L26.3147 240.177L25.7617 239.344ZM20.7813 240.75L19.7813 240.75L19.7813 241.75L20.7813 241.75L20.7813 240.75ZM20.7813 233.875L20.7813 232.875L19.7813 232.875L19.7813 233.875L20.7813 233.875ZM24.1602 232.703L24.8912 233.385L24.8971 233.379L24.9028 233.373L24.1602 232.703ZM24.5117 226.18L25.3156 225.585L25.3136 225.582L24.5117 226.18ZM22.4414 224.184C21.1673 224.184 20.0805 224.656 19.3098 225.642L20.8855 226.874C21.2346 226.427 21.7103 226.184 22.4414 226.184L22.4414 224.184ZM19.3154 225.635C18.6398 226.483 18.0159 227.87 17.4114 229.67L19.3074 230.307C19.9007 228.539 20.4357 227.439 20.8799 226.881L19.3154 225.635ZM17.4114 229.67C16.8206 231.43 16.2575 232.842 15.7246 233.92L17.5176 234.806C18.1045 233.619 18.7003 232.115 19.3074 230.307L17.4114 229.67ZM15.7235 233.922C14.0225 237.386 11.8247 238.891 9.16016 238.891L9.16016 240.891C12.8237 240.891 15.5999 238.711 17.5187 234.804L15.7235 233.922ZM9.16016 238.891C7.79243 238.891 6.62085 238.5 5.60552 237.728L4.39448 239.319C5.77499 240.37 7.37684 240.891 9.16016 240.891L9.16016 238.891ZM5.60682 237.729C4.56529 236.933 3.72717 235.792 3.11746 234.25L1.25754 234.985C1.97595 236.802 3.01284 238.264 4.39318 239.318L5.60682 237.729ZM3.11498 234.243C2.49273 232.7 2.17188 230.941 2.17188 228.953L0.171875 228.953C0.171875 231.158 0.528107 233.175 1.26002 234.991L3.11498 234.243ZM2.17188 228.953C2.17188 227.029 2.51457 225.343 3.177 223.876L1.35425 223.053C0.558343 224.816 0.171875 226.789 0.171875 228.953L2.17188 228.953ZM3.17823 223.874C3.83786 222.401 4.76217 221.293 5.94348 220.509L4.83778 218.843C3.31075 219.856 2.15173 221.273 1.35302 223.056L3.17823 223.874ZM5.94719 220.507C7.11153 219.727 8.45128 219.328 10 219.328L10 217.328C8.08518 217.328 6.35201 217.828 4.83407 218.845L5.94719 220.507ZM9 218.328L9 225.164L11 225.164L11 218.328L9 218.328ZM10 224.164C8.62054 224.164 7.42492 224.6 6.55803 225.573L8.05135 226.903C8.46049 226.444 9.06175 226.164 10 226.164L10 224.164ZM6.56413 225.566C5.71703 226.5 5.34766 227.721 5.34766 229.109L7.34766 229.109C7.34766 228.076 7.6163 227.383 8.04525 226.91L6.56413 225.566ZM5.34766 229.109C5.34766 230.475 5.6527 231.683 6.3732 232.626L7.96274 231.413C7.58949 230.924 7.34766 230.192 7.34766 229.109L5.34766 229.109ZM6.37152 232.624C7.08139 233.559 8.05174 234.074 9.21875 234.074L9.21875 232.074C8.7191 232.074 8.32226 231.886 7.96442 231.415L6.37152 232.624ZM9.21875 234.074C10.3598 234.074 11.2876 233.446 12.0045 232.511L10.4173 231.294C9.93638 231.921 9.536 232.074 9.21875 232.074L9.21875 234.074ZM12.0109 232.502C12.7026 231.58 13.3553 230.071 13.998 228.09L12.0957 227.473C11.4624 229.424 10.8912 230.662 10.4109 231.302L12.0109 232.502ZM13.9999 228.084C14.6113 226.161 15.2624 224.618 15.9442 223.437L14.2121 222.438C13.4355 223.783 12.7325 225.469 12.0939 227.478L13.9999 228.084ZM15.9446 223.437C17.5668 220.622 19.7041 219.328 22.4023 219.328L22.4023 217.328C18.8767 217.328 16.1311 219.107 14.2117 222.438L15.9446 223.437ZM22.4023 219.328C24.5971 219.328 26.2465 220.135 27.4644 221.744L29.0591 220.537C27.4384 218.396 25.1815 217.328 22.4023 217.328L22.4023 219.328ZM27.4644 221.744C28.7095 223.389 29.3906 225.722 29.3906 228.855L31.3906 228.855C31.3906 225.453 30.6525 222.642 29.0591 220.537L27.4644 221.744ZM29.3906 228.855C29.3906 231.04 29.0024 232.991 28.244 234.724L30.0763 235.526C30.9585 233.509 31.3906 231.281 31.3906 228.855L29.3906 228.855ZM28.2474 234.716C27.4768 236.438 26.456 237.683 25.2088 238.511L26.3147 240.177C27.9321 239.104 29.1769 237.536 30.0729 235.534L28.2474 234.716ZM25.2175 238.505C23.9486 239.328 22.4809 239.75 20.7813 239.75L20.7813 241.75C22.8316 241.75 24.6843 241.235 26.3059 240.183L25.2175 238.505ZM21.7813 240.75L21.7813 233.875L19.7813 233.875L19.7813 240.75L21.7813 240.75ZM20.7813 234.875C22.4617 234.875 23.9041 234.443 24.8912 233.385L23.4291 232.021C22.9579 232.526 22.1477 232.875 20.7813 232.875L20.7813 234.875ZM24.9028 233.373C25.8639 232.307 26.2344 230.722 26.2344 228.855L24.2344 228.855C24.2344 230.531 23.8888 231.511 23.4175 232.033L24.9028 233.373ZM26.2344 228.855C26.2344 227.592 25.9666 226.465 25.3156 225.585L23.7079 226.775C24.0203 227.197 24.2344 227.854 24.2344 228.855L26.2344 228.855ZM25.3136 225.582C24.6154 224.645 23.6172 224.184 22.4414 224.184L22.4414 226.184C23.0364 226.184 23.4185 226.386 23.7098 226.777L25.3136 225.582ZM6.85547 192.488L7.85547 192.488L7.85547 191.488L6.85547 191.488L6.85547 192.488ZM6.85547 201.023L5.85547 201.023L5.85547 202.023L6.85547 202.023L6.85547 201.023ZM30 201.023L31 201.023L31 200.023L30 200.023L30 201.023ZM30 207.879L30 208.879L31 208.879L31 207.879L30 207.879ZM6.85547 207.879L6.85547 206.879L5.85547 206.879L5.85547 207.879L6.85547 207.879ZM6.85547 216.258L6.85547 217.258L7.85547 217.258L7.85547 216.258L6.85547 216.258ZM1.5625 216.258L0.5625 216.258L0.5625 217.258L1.5625 217.258L1.5625 216.258ZM1.5625 192.488L1.5625 191.488L0.562501 191.488L0.562501 192.488L1.5625 192.488ZM5.85547 192.488L5.85547 201.023L7.85547 201.023L7.85547 192.488L5.85547 192.488ZM6.85547 202.023L30 202.023L30 200.023L6.85547 200.023L6.85547 202.023ZM29 201.023L29 207.879L31 207.879L31 201.023L29 201.023ZM30 206.879L6.85547 206.879L6.85547 208.879L30 208.879L30 206.879ZM5.85547 207.879L5.85547 216.258L7.85547 216.258L7.85547 207.879L5.85547 207.879ZM6.85547 215.258L1.5625 215.258L1.5625 217.258L6.85547 217.258L6.85547 215.258ZM2.5625 216.258L2.5625 192.488L0.562501 192.488L0.5625 216.258L2.5625 216.258ZM1.5625 193.488L6.85547 193.488L6.85547 191.488L1.5625 191.488L1.5625 193.488ZM17.9492 171.941L18.9492 171.941L18.9492 170.941L17.9492 170.941L17.9492 171.941ZM17.9492 182.723L16.9492 182.723L16.9492 183.723L17.9492 183.723L17.9492 182.723ZM24.7266 182.723L24.7266 183.723L25.7266 183.723L25.7266 182.723L24.7266 182.723ZM24.7266 169.988L24.7266 168.988L23.7266 168.988L23.7266 169.988L24.7266 169.988ZM30 169.988L31 169.988L31 168.988L30 168.988L30 169.988ZM30 189.578L30 190.578L31 190.578L31 189.578L30 189.578ZM1.5625 189.578L0.562501 189.578L0.562501 190.578L1.5625 190.578L1.5625 189.578ZM1.5625 169.949L1.5625 168.949L0.562501 168.949L0.562501 169.949L1.5625 169.949ZM6.85547 169.949L7.85547 169.949L7.85547 168.949L6.85547 168.949L6.85547 169.949ZM6.85547 182.723L5.85547 182.723L5.85547 183.723L6.85547 183.723L6.85547 182.723ZM12.8516 182.723L12.8516 183.723L13.8516 183.723L13.8516 182.723L12.8516 182.723ZM12.8516 171.941L12.8516 170.941L11.8516 170.941L11.8516 171.941L12.8516 171.941ZM16.9492 171.941L16.9492 182.723L18.9492 182.723L18.9492 171.941L16.9492 171.941ZM17.9492 183.723L24.7266 183.723L24.7266 181.723L17.9492 181.723L17.9492 183.723ZM25.7266 182.723L25.7266 169.988L23.7266 169.988L23.7266 182.723L25.7266 182.723ZM24.7266 170.988L30 170.988L30 168.988L24.7266 168.988L24.7266 170.988ZM29 169.988L29 189.578L31 189.578L31 169.988L29 169.988ZM30 188.578L1.5625 188.578L1.5625 190.578L30 190.578L30 188.578ZM2.5625 189.578L2.5625 169.949L0.562501 169.949L0.562501 189.578L2.5625 189.578ZM1.5625 170.949L6.85547 170.949L6.85547 168.949L1.5625 168.949L1.5625 170.949ZM5.85547 169.949L5.85547 182.723L7.85547 182.723L7.85547 169.949L5.85547 169.949ZM6.85547 183.723L12.8516 183.723L12.8516 181.723L6.85547 181.723L6.85547 183.723ZM13.8516 182.723L13.8516 171.941L11.8516 171.941L11.8516 182.723L13.8516 182.723ZM12.8516 172.941L17.9492 172.941L17.9492 170.941L12.8516 170.941L12.8516 172.941ZM20.3516 160.34L19.3516 160.34L19.3516 161.34L20.3516 161.34L20.3516 160.34ZM30 160.34L31 160.34L31 159.34L30 159.34L30 160.34ZM30 167.195L30 168.195L31 168.195L31 167.195L30 167.195ZM1.5625 167.195L0.562501 167.195L0.562501 168.195L1.5625 168.195L1.5625 167.195ZM2.77344 150.086L3.67346 150.522L3.67746 150.513L2.77344 150.086ZM6.19141 146.199L6.7147 147.051L6.72343 147.046L6.19141 146.199ZM17.8711 147.801L18.6385 147.16L18.6381 147.159L17.8711 147.801ZM15.0586 160.34L15.0586 161.34L16.0586 161.34L16.0586 160.34L15.0586 160.34ZM14.0625 152.82L13.3355 153.507L13.3419 153.514L14.0625 152.82ZM6.85547 155.77L5.85547 155.759L5.85547 155.77L6.85547 155.77ZM6.85547 160.34L5.85547 160.34L5.85547 161.34L6.85547 161.34L6.85547 160.34ZM20.3516 161.34L30 161.34L30 159.34L20.3516 159.34L20.3516 161.34ZM29 160.34L29 167.195L31 167.195L31 160.34L29 160.34ZM30 166.195L1.5625 166.195L1.5625 168.195L30 168.195L30 166.195ZM2.5625 167.195L2.5625 155.848L0.562501 155.848L0.562501 167.195L2.5625 167.195ZM2.5625 155.848C2.5625 153.798 2.94247 152.031 3.67342 150.522L1.87346 149.65C0.98982 151.474 0.562501 153.548 0.562501 155.848L2.5625 155.848ZM3.67746 150.513C4.39453 148.997 5.40695 147.854 6.71467 147.051L5.66814 145.347C4.00712 146.367 2.74089 147.816 1.86942 149.658L3.67746 150.513ZM6.72343 147.046C8.02278 146.23 9.50869 145.813 11.2109 145.813L11.2109 143.813C9.16319 143.813 7.30274 144.32 5.65939 145.352L6.72343 147.046ZM11.2109 145.813C13.7112 145.813 15.6417 146.694 17.1041 148.442L18.6381 147.159C16.7672 144.923 14.2576 143.813 11.2109 143.813L11.2109 145.813ZM17.1037 148.442C18.5624 150.188 19.3516 152.655 19.3516 155.965L21.3516 155.965C21.3516 152.348 20.4871 149.372 18.6385 147.16L17.1037 148.442ZM19.3516 155.965L19.3516 160.34L21.3516 160.34L21.3516 155.965L19.3516 155.965ZM16.0586 160.34L16.0586 155.848L14.0586 155.848L14.0586 160.34L16.0586 160.34ZM16.0586 155.848C16.0586 154.362 15.6861 153.065 14.7831 152.127L13.3419 153.514C13.767 153.955 14.0586 154.677 14.0586 155.848L16.0586 155.848ZM14.7895 152.134C13.8912 151.183 12.6622 150.766 11.25 150.766L11.25 152.766C12.2597 152.766 12.9057 153.052 13.3355 153.507L14.7895 152.134ZM11.25 150.766C9.73688 150.766 8.41632 151.178 7.39677 152.097L8.73604 153.583C9.30504 153.07 10.1069 152.766 11.25 152.766L11.25 150.766ZM7.39677 152.097C6.36173 153.03 5.87098 154.291 5.85553 155.759L7.85541 155.78C7.866 154.775 8.18255 154.082 8.73604 153.583L7.39677 152.097ZM5.85547 155.77L5.85547 160.34L7.85547 160.34L7.85547 155.77L5.85547 155.77ZM6.85547 161.34L15.0586 161.34L15.0586 159.34L6.85547 159.34L6.85547 161.34ZM30 117L31 117L31 116L30 116L30 117ZM30 123.602L30 124.602L31 124.602L31 123.602L30 123.602ZM8.98438 123.602L8.98438 122.602L7.6504 122.602L8.02451 123.882L8.98438 123.602ZM10.8789 130.086L10.8789 131.086L12.2129 131.086L11.8388 129.805L10.8789 130.086ZM5.87891 130.086L4.93383 130.413L5.16664 131.086L5.87891 131.086L5.87891 130.086ZM1.5625 117.605L0.562501 117.605L0.562501 117.774L0.617428 117.932L1.5625 117.605ZM1.5625 117L1.5625 116L0.562502 116L0.562501 117L1.5625 117ZM29 117L29 123.602L31 123.602L31 117L29 117ZM30 122.602L8.98438 122.602L8.98438 124.602L30 124.602L30 122.602ZM8.02451 123.882L9.91904 130.366L11.8388 129.805L9.94425 123.321L8.02451 123.882ZM10.8789 129.086L5.87891 129.086L5.87891 131.086L10.8789 131.086L10.8789 129.086ZM6.82398 129.759L2.50758 117.279L0.617428 117.932L4.93383 130.413L6.82398 129.759ZM2.5625 117.605L2.5625 117L0.562501 117L0.562501 117.605L2.5625 117.605ZM1.5625 118L30 118L30 116L1.5625 116L1.5625 118ZM24.5508 101.629L25.292 102.3L25.299 102.292L24.5508 101.629ZM29.2969 101.629L30.0451 100.965L30.0381 100.958L29.2969 101.629ZM29.2773 106.844L30.0122 107.522L30.0186 107.515L29.2773 106.844ZM24.5508 106.844L23.8095 107.515L23.816 107.522L24.5508 106.844ZM8.96485 101.629L9.70609 102.3L9.71303 102.292L8.96485 101.629ZM13.7109 101.629L14.4592 100.965L14.4521 100.958L13.7109 101.629ZM13.6914 106.844L14.4262 107.522L14.4326 107.515L13.6914 106.844ZM8.96485 106.844L8.22361 107.515L8.23004 107.522L8.96485 106.844ZM24.6133 104.227C24.6133 103.401 24.8537 102.784 25.292 102.3L23.8096 100.958C22.9979 101.854 22.6133 102.969 22.6133 104.227L24.6133 104.227ZM25.299 102.292C25.7117 101.827 26.2221 101.594 26.9141 101.594L26.9141 99.5938C25.679 99.5938 24.6138 100.051 23.8026 100.965L25.299 102.292ZM26.9141 101.594C27.6064 101.594 28.1276 101.828 28.5557 102.3L30.0381 100.958C29.2161 100.05 28.1488 99.5938 26.9141 99.5938L26.9141 101.594ZM28.5487 102.292C28.9773 102.776 29.2148 103.396 29.2148 104.227L31.2148 104.227C31.2148 102.974 30.8404 101.862 30.0451 100.965L28.5487 102.292ZM29.2148 104.227C29.2148 105.068 28.9723 105.691 28.5361 106.172L30.0186 107.515C30.8324 106.616 31.2148 105.494 31.2148 104.227L29.2148 104.227ZM28.5425 106.165C28.1135 106.63 27.5955 106.859 26.9141 106.859L26.9141 108.859C28.1337 108.859 29.1912 108.411 30.0121 107.522L28.5425 106.165ZM26.9141 106.859C26.2327 106.859 25.7146 106.63 25.2856 106.165L23.816 107.522C24.6369 108.411 25.6944 108.859 26.9141 108.859L26.9141 106.859ZM25.292 106.172C24.8558 105.691 24.6133 105.068 24.6133 104.227L22.6133 104.227C22.6133 105.494 22.9957 106.616 23.8096 107.515L25.292 106.172ZM9.02735 104.227C9.02735 103.401 9.26775 102.784 9.70605 102.3L8.22364 100.958C7.41194 101.854 7.02735 102.969 7.02735 104.227L9.02735 104.227ZM9.71303 102.292C10.1258 101.827 10.6361 101.594 11.3281 101.594L11.3281 99.5938C10.0931 99.5938 9.02785 100.051 8.21666 100.965L9.71303 102.292ZM11.3281 101.594C12.0205 101.594 12.5417 101.828 12.9697 102.3L14.4521 100.958C13.6302 100.05 12.5629 99.5938 11.3281 99.5938L11.3281 101.594ZM12.9628 102.292C13.3914 102.776 13.6289 103.396 13.6289 104.227L15.6289 104.227C15.6289 102.974 15.2545 101.862 14.4591 100.965L12.9628 102.292ZM13.6289 104.227C13.6289 105.068 13.3863 105.691 12.9502 106.172L14.4326 107.515C15.2465 106.616 15.6289 105.494 15.6289 104.227L13.6289 104.227ZM12.9566 106.165C12.5276 106.63 12.0095 106.859 11.3281 106.859L11.3281 108.859C12.5478 108.859 13.6052 108.411 14.4262 107.522L12.9566 106.165ZM11.3281 106.859C10.6467 106.859 10.1287 106.63 9.69965 106.165L8.23004 107.522C9.05101 108.411 10.1085 108.859 11.3281 108.859L11.3281 106.859ZM9.70605 106.172C9.26991 105.691 9.02735 105.068 9.02735 104.227L7.02735 104.227C7.02735 105.494 7.40978 106.616 8.22364 107.515L9.70605 106.172ZM18.6719 68.1133L19.6719 68.1133L19.6719 67.1133L18.6719 67.1133L18.6719 68.1133ZM18.6719 79.168L17.6719 79.168L17.6719 80.168L18.6719 80.168L18.6719 79.168ZM30 79.168L31 79.168L31 78.168L30 78.168L30 79.168ZM30 86.0234L30 87.0234L31 87.0234L31 86.0234L30 86.0234ZM1.5625 86.0234L0.562502 86.0234L0.562502 87.0234L1.5625 87.0234L1.5625 86.0234ZM1.5625 67L1.5625 66L0.562502 66L0.562502 67L1.5625 67ZM6.85547 67L7.85547 67L7.85547 66L6.85547 66L6.85547 67ZM6.85547 79.168L5.85547 79.168L5.85547 80.168L6.85547 80.168L6.85547 79.168ZM13.3984 79.168L13.3984 80.168L14.3984 80.168L14.3984 79.168L13.3984 79.168ZM13.3984 68.1133L13.3984 67.1133L12.3984 67.1133L12.3984 68.1133L13.3984 68.1133ZM17.6719 68.1133L17.6719 79.168L19.6719 79.168L19.6719 68.1133L17.6719 68.1133ZM18.6719 80.168L30 80.168L30 78.168L18.6719 78.168L18.6719 80.168ZM29 79.168L29 86.0234L31 86.0234L31 79.168L29 79.168ZM30 85.0234L1.5625 85.0234L1.5625 87.0234L30 87.0234L30 85.0234ZM2.5625 86.0234L2.5625 67L0.562502 67L0.562502 86.0234L2.5625 86.0234ZM1.5625 68L6.85547 68L6.85547 66L1.5625 66L1.5625 68ZM5.85547 67L5.85547 79.168L7.85547 79.168L7.85547 67L5.85547 67ZM6.85547 80.168L13.3984 80.168L13.3984 78.168L6.85547 78.168L6.85547 80.168ZM14.3984 79.168L14.3984 68.1133L12.3984 68.1133L12.3984 79.168L14.3984 79.168ZM13.3984 69.1133L18.6719 69.1133L18.6719 67.1133L13.3984 67.1133L13.3984 69.1133ZM30 56.8438L31 56.8438L31 55.8438L30 55.8438L30 56.8438ZM30 63.6797L30 64.6797L31 64.6797L31 63.6797L30 63.6797ZM1.5625 63.6797L0.562502 63.6797L0.562502 64.6797L1.5625 64.6797L1.5625 63.6797ZM1.5625 56.8437L1.5625 55.8437L0.562502 55.8437L0.562502 56.8437L1.5625 56.8437ZM29 56.8438L29 63.6797L31 63.6797L31 56.8438L29 56.8438ZM30 62.6797L1.5625 62.6797L1.5625 64.6797L30 64.6797L30 62.6797ZM2.5625 63.6797L2.5625 56.8437L0.562502 56.8437L0.562502 63.6797L2.5625 63.6797ZM1.5625 57.8437L30 57.8438L30 55.8438L1.5625 55.8437L1.5625 57.8437ZM30 28.3281L31 28.3281L31 27.3281L30 27.3281L30 28.3281ZM30 35.1445L30.4949 36.0135L31 35.7258L31 35.1445L30 35.1445ZM12.3047 45.2227L11.8098 44.3537L8.52826 46.2227L12.3047 46.2227L12.3047 45.2227ZM30 45.2227L31 45.2227L31 44.2227L30 44.2227L30 45.2227ZM30 52.0781L30 53.0781L31 53.0781L31 52.0781L30 52.0781ZM1.5625 52.0781L0.562502 52.0781L0.562502 53.0781L1.5625 53.0781L1.5625 52.0781ZM1.5625 45.2227L1.06833 44.3533L0.562502 44.6408L0.562502 45.2227L1.5625 45.2227ZM19.2578 35.1641L19.752 36.0334L23.0406 34.1641L19.2578 34.1641L19.2578 35.1641ZM1.5625 35.1641L0.562502 35.1641L0.562502 36.1641L1.5625 36.1641L1.5625 35.1641ZM1.5625 28.3281L1.5625 27.3281L0.562503 27.3281L0.562503 28.3281L1.5625 28.3281ZM29 28.3281L29 35.1445L31 35.1445L31 28.3281L29 28.3281ZM29.5051 34.2756L11.8098 44.3537L12.7996 46.0916L30.4949 36.0135L29.5051 34.2756ZM12.3047 46.2227L30 46.2227L30 44.2227L12.3047 44.2227L12.3047 46.2227ZM29 45.2227L29 52.0781L31 52.0781L31 45.2227L29 45.2227ZM30 51.0781L1.5625 51.0781L1.5625 53.0781L30 53.0781L30 51.0781ZM2.5625 52.0781L2.5625 45.2227L0.562502 45.2227L0.562502 52.0781L2.5625 52.0781ZM2.05668 46.092L19.752 36.0334L18.7636 34.2947L1.06833 44.3533L2.05668 46.092ZM19.2578 34.1641L1.5625 34.1641L1.5625 36.1641L19.2578 36.1641L19.2578 34.1641ZM2.5625 35.1641L2.5625 28.3281L0.562503 28.3281L0.562502 35.1641L2.5625 35.1641ZM1.5625 29.3281L30 29.3281L30 27.3281L1.5625 27.3281L1.5625 29.3281ZM30 23.9922L30 24.9922L31 24.9922L31 23.9922L30 23.9922ZM1.5625 23.9922L0.562503 23.9922L0.562503 24.9922L1.5625 24.9922L1.5625 23.9922ZM3.28125 8.05469L4.14951 8.55083L4.15192 8.54655L3.28125 8.05469ZM8.10547 3.36719L8.57893 4.24803L8.58548 4.24445L8.10547 3.36719ZM15.0781 1.64844L15.0781 0.648422L15.0731 0.648453L15.0781 1.64844ZM23.3984 3.30859L22.927 4.19049L22.929 4.19156L23.3984 3.30859ZM28.2422 7.95703L29.1066 7.45421L29.1056 7.45247L28.2422 7.95703ZM30 14.6367L31 14.6367L31 14.6314L30 14.6367ZM6.85547 17.1367L5.85547 17.1367L5.85547 18.1367L6.85547 18.1367L6.85547 17.1367ZM24.7266 17.1367L24.7266 18.1367L25.7266 18.1367L25.7266 17.1367L24.7266 17.1367ZM22.6367 10.2227L23.2403 9.42534L23.2367 9.42265L22.6367 10.2227ZM8.94532 10.2227L8.34174 9.42535L8.94532 10.2227ZM30 22.9922L1.5625 22.9922L1.5625 24.9922L30 24.9922L30 22.9922ZM2.5625 23.9922L2.5625 14.832L0.562503 14.832L0.562503 23.9922L2.5625 23.9922ZM2.5625 14.832C2.5625 12.4772 3.09751 10.3918 4.1495 8.55083L2.41301 7.55855C1.17333 9.728 0.562503 12.1608 0.562503 14.832L2.5625 14.832ZM4.15192 8.54655C5.18914 6.71057 6.65735 5.28085 8.57891 4.24802L7.63203 2.48636C5.38693 3.6931 3.63899 5.3884 2.41058 7.56282L4.15192 8.54655ZM8.58548 4.24445C10.4969 3.19856 12.6554 2.66069 15.0832 2.64842L15.0731 0.648453C12.3446 0.662232 9.85464 1.27019 7.62546 2.48993L8.58548 4.24445ZM15.0781 2.64844L16.3867 2.64844L16.3867 0.648438L15.0781 0.648438L15.0781 2.64844ZM16.3867 2.64844C18.8447 2.64844 21.017 3.16945 22.927 4.19049L23.8699 2.4267C21.6392 1.23419 19.1371 0.648438 16.3867 0.648438L16.3867 2.64844ZM22.929 4.19156C24.823 5.19849 26.3009 6.61719 27.3788 8.46159L29.1056 7.45247C27.8397 5.28647 26.0885 3.6062 23.8679 2.42563L22.929 4.19156ZM27.3778 8.45985C28.4428 10.2906 28.9879 12.3436 29 14.642L31 14.6314C30.9861 12.0079 30.3593 9.6078 29.1066 7.45421L27.3778 8.45985ZM29 14.6367L29 23.9922L31 23.9922L31 14.6367L29 14.6367ZM6.85547 18.1367L24.7266 18.1367L24.7266 16.1367L6.85547 16.1367L6.85547 18.1367ZM25.7266 17.1367L25.7266 14.7539L23.7266 14.7539L23.7266 17.1367L25.7266 17.1367ZM25.7266 14.7539C25.7266 12.5195 24.917 10.6946 23.2403 9.42535L22.0332 11.02C23.1429 11.8601 23.7266 13.0561 23.7266 14.7539L25.7266 14.7539ZM23.2367 9.42265C21.5836 8.18283 19.2483 7.64063 16.3867 7.64063L16.3867 9.64063C19.0459 9.64063 20.8773 10.1531 22.0367 11.0227L23.2367 9.42265ZM16.3867 7.64063L15.1563 7.64063L15.1563 9.64063L16.3867 9.64063L16.3867 7.64063ZM15.1563 7.64063C12.3074 7.64063 9.98298 8.18292 8.34174 9.42535L9.54889 11.02C10.6941 10.153 12.5103 9.64063 15.1563 9.64063L15.1563 7.64063ZM8.34174 9.42535C6.65791 10.7 5.85547 12.5557 5.85547 14.832L7.85547 14.832C7.85547 13.0719 8.44626 11.8547 9.54889 11.02L8.34174 9.42535ZM5.85547 14.832L5.85547 17.1367L7.85547 17.1367L7.85547 14.832L5.85547 14.832Z" fill="white"/>
</svg>
