<svg width="147" height="38" viewBox="0 0 147 38" fill="none" xmlns="http://www.w3.org/2000/svg">
<path d="M30.8721 8.06934V9.06934H31.8721V8.06934H30.8721ZM20.2031 8.06934V7.06934H19.2031V8.06934H20.2031ZM20.2031 37V38H21.2031V37H20.2031ZM11.6338 37H10.6338V38H11.6338V37ZM11.6338 8.06934H12.6338V7.06934H11.6338V8.06934ZM1.16016 8.06934H0.160156V9.06934H1.16016V8.06934ZM1.16016 1.45312V0.453125H0.160156V1.45312H1.16016ZM30.8721 1.45312H31.8721V0.453125H30.8721V1.45312ZM30.8721 7.06934H20.2031V9.06934H30.8721V7.06934ZM19.2031 8.06934V37H21.2031V8.06934H19.2031ZM20.2031 36H11.6338V38H20.2031V36ZM12.6338 37V8.06934H10.6338V37H12.6338ZM11.6338 7.06934H1.16016V9.06934H11.6338V7.06934ZM2.16016 8.06934V1.45312H0.160156V8.06934H2.16016ZM1.16016 2.45312H30.8721V0.453125H1.16016V2.45312ZM29.8721 1.45312V8.06934H31.8721V1.45312H29.8721ZM47.7178 24.4512L48.6122 24.004L48.3358 23.4512H47.7178V24.4512ZM43.0791 24.4512V23.4512H42.0791V24.4512H43.0791ZM43.0791 37V38H44.0791V37H43.0791ZM34.5098 37H33.5098V38H34.5098V37ZM34.5098 1.45312V0.453125H33.5098V1.45312H34.5098ZM60.4375 18.3477L59.5876 17.8207L59.5838 17.8269L60.4375 18.3477ZM55.75 22.3027L55.3222 21.3989L54.3854 21.8422L54.862 22.7626L55.75 22.3027ZM63.1719 36.6338H64.1719V36.3902L64.0599 36.1739L63.1719 36.6338ZM63.1719 37V38H64.1719V37H63.1719ZM53.9922 37L53.0978 37.4472L53.3742 38H53.9922V37ZM43.0791 17.835H42.0791V18.835H43.0791V17.835ZM52.1611 16.5654L51.4406 15.872L51.4403 15.8723L52.1611 16.5654ZM52.1611 9.3877L51.4341 10.0743L51.4406 10.0811L52.1611 9.3877ZM43.0791 8.06934V7.06934H42.0791V8.06934H43.0791ZM47.7178 23.4512H43.0791V25.4512H47.7178V23.4512ZM42.0791 24.4512V37H44.0791V24.4512H42.0791ZM43.0791 36H34.5098V38H43.0791V36ZM35.5098 37V1.45312H33.5098V37H35.5098ZM34.5098 2.45312H48.499V0.453125H34.5098V2.45312ZM48.499 2.45312C52.5769 2.45312 55.6259 3.35906 57.7679 5.04631L59.0055 3.47517C56.395 1.41893 52.8521 0.453125 48.499 0.453125V2.45312ZM57.7679 5.04631C59.8701 6.70213 60.9512 9.03859 60.9512 12.1953H62.9512C62.9512 8.5161 61.6559 5.56284 59.0055 3.47517L57.7679 5.04631ZM60.9512 12.1953C60.9512 14.5365 60.4738 16.3914 59.5876 17.8207L61.2874 18.8746C62.4194 17.0488 62.9512 14.802 62.9512 12.1953H60.9512ZM59.5838 17.8269C58.7143 19.2523 57.3201 20.4533 55.3222 21.3989L56.1778 23.2066C58.4443 22.1339 60.175 20.6982 61.2912 18.8684L59.5838 17.8269ZM54.862 22.7626L62.2839 37.0937L64.0599 36.1739L56.638 21.8429L54.862 22.7626ZM62.1719 36.6338V37H64.1719V36.6338H62.1719ZM63.1719 36H53.9922V38H63.1719V36ZM54.8866 36.5528L48.6122 24.004L46.8233 24.8984L53.0978 37.4472L54.8866 36.5528ZM43.0791 18.835H48.499V16.835H43.0791V18.835ZM48.499 18.835C50.291 18.835 51.8162 18.367 52.882 17.2585L51.4403 15.8723C50.8785 16.4566 49.9623 16.835 48.499 16.835V18.835ZM52.8817 17.2588C53.937 16.1621 54.4062 14.6902 54.4062 12.9766H52.4062C52.4062 14.3229 52.0454 15.2435 51.4406 15.872L52.8817 17.2588ZM54.4062 12.9766C54.4062 11.263 53.937 9.79103 52.8817 8.69431L51.4406 10.0811C52.0454 10.7096 52.4062 11.6303 52.4062 12.9766H54.4062ZM52.8881 8.70107C51.8123 7.56196 50.29 7.06934 48.499 7.06934V9.06934C49.9307 9.06934 50.8498 9.45561 51.4341 10.0743L52.8881 8.70107ZM48.499 7.06934H43.0791V9.06934H48.499V7.06934ZM42.0791 8.06934V17.835H44.0791V8.06934H42.0791ZM87.3174 30.3594L88.2719 30.0611L88.0526 29.3594H87.3174V30.3594ZM75.5742 30.3594V29.3594H74.8364L74.6187 30.0643L75.5742 30.3594ZM73.5234 37V38H74.2612L74.4789 37.2951L73.5234 37ZM64.3682 37L63.4293 36.6557L62.9363 38H64.3682V37ZM77.4053 1.45312V0.453125H76.7069L76.4664 1.10879L77.4053 1.45312ZM85.4619 1.45312L86.3999 1.10652L86.1585 0.453125H85.4619V1.45312ZM98.5967 37V38H100.032L99.5347 36.6534L98.5967 37ZM89.3926 37L88.4381 37.2983L88.6574 38H89.3926V37ZM77.625 23.7432L76.6695 23.448L76.2695 24.7432H77.625V23.7432ZM85.2666 23.7432V24.7432H86.6247L86.2215 23.4463L85.2666 23.7432ZM81.4336 11.4141L82.3885 11.1172L81.4305 8.03583L80.4781 11.1189L81.4336 11.4141ZM87.3174 29.3594H75.5742V31.3594H87.3174V29.3594ZM74.6187 30.0643L72.568 36.7049L74.4789 37.2951L76.5297 30.6544L74.6187 30.0643ZM73.5234 36H64.3682V38H73.5234V36ZM65.307 37.3443L78.3441 1.79746L76.4664 1.10879L63.4293 36.6557L65.307 37.3443ZM77.4053 2.45312H85.4619V0.453125H77.4053V2.45312ZM84.5239 1.79973L97.6587 37.3466L99.5347 36.6534L86.3999 1.10652L84.5239 1.79973ZM98.5967 36H89.3926V38H98.5967V36ZM90.3471 36.7017L88.2719 30.0611L86.3629 30.6576L88.4381 37.2983L90.3471 36.7017ZM77.625 24.7432H85.2666V22.7432H77.625V24.7432ZM86.2215 23.4463L82.3885 11.1172L80.4787 11.7109L84.3117 24.04L86.2215 23.4463ZM80.4781 11.1189L76.6695 23.448L78.5805 24.0383L82.389 11.7092L80.4781 11.1189ZM110.34 37V38H111.34V37H110.34ZM101.795 37H100.795V38H101.795V37ZM101.795 1.45312V0.453125H100.795V1.45312H101.795ZM110.34 1.45312H111.34V0.453125H110.34V1.45312ZM110.34 36H101.795V38H110.34V36ZM102.795 37V1.45312H100.795V37H102.795ZM101.795 2.45312H110.34V0.453125H101.795V2.45312ZM109.34 1.45312V37H111.34V1.45312H109.34ZM145.984 37V38H146.984V37H145.984ZM137.464 37L136.595 37.4949L136.883 38H137.464V37ZM124.866 14.8809L125.735 14.386L123.866 11.1044V14.8809H124.866ZM124.866 37V38H125.866V37H124.866ZM116.297 37H115.297V38H116.297V37ZM116.297 1.45312V0.453125H115.297V1.45312H116.297ZM124.866 1.45312L125.736 0.958951L125.448 0.453125H124.866V1.45312ZM137.439 23.5723L136.57 24.0664L138.439 27.3551V23.5723H137.439ZM137.439 1.45312V0.453125H136.439V1.45312H137.439ZM145.984 1.45312H146.984V0.453125H145.984V1.45312ZM145.984 36H137.464V38H145.984V36ZM138.333 36.5051L125.735 14.386L123.997 15.3758L136.595 37.4949L138.333 36.5051ZM123.866 14.8809V37H125.866V14.8809H123.866ZM124.866 36H116.297V38H124.866V36ZM117.297 37V1.45312H115.297V37H117.297ZM116.297 2.45312H124.866V0.453125H116.297V2.45312ZM123.997 1.9473L136.57 24.0664L138.309 23.0781L125.736 0.958951L123.997 1.9473ZM138.439 23.5723V1.45312H136.439V23.5723H138.439ZM137.439 2.45312H145.984V0.453125H137.439V2.45312ZM144.984 1.45312V37H146.984V1.45312H144.984Z" fill="white"/>
</svg>
