<svg width="138" height="49" viewBox="0 0 138 49" fill="none" xmlns="http://www.w3.org/2000/svg">
<path d="M38.3887 30.0918L36.4363 30.5259L40.356 30.4517L38.3887 30.0918ZM43.2812 3.34375V1.34375H41.6139L41.3139 2.98389L43.2812 3.34375ZM53.4766 3.34375L55.433 3.75895L55.9456 1.34375H53.4766V3.34375ZM44.4238 46V48H46.0439L46.3803 46.4152L44.4238 46ZM33.7598 46L31.8128 46.4574L32.1752 48H33.7598V46ZM28.0469 21.6836L29.9939 21.2262L26.0978 21.2351L28.0469 21.6836ZM22.4512 46V48H24.0432L24.4002 46.4485L22.4512 46ZM11.8164 46L9.86025 46.4165L10.1974 48H11.8164V46ZM2.73438 3.34375V1.34375H0.263722L0.778221 3.76024L2.73438 3.34375ZM12.959 3.34375L14.9263 2.98389L14.6263 1.34375H12.959V3.34375ZM17.8516 30.0918L15.8842 30.4517L19.8052 30.5198L17.8516 30.0918ZM23.7109 3.34375V1.34375H22.1016L21.7573 2.91578L23.7109 3.34375ZM32.4414 3.34375L34.3937 2.90966L34.0456 1.34375H32.4414V3.34375ZM40.356 30.4517L45.2486 3.70361L41.3139 2.98389L36.4213 29.7319L40.356 30.4517ZM43.2812 5.34375H53.4766V1.34375H43.2812V5.34375ZM51.5201 2.92855L42.4674 45.5848L46.3803 46.4152L55.433 3.75895L51.5201 2.92855ZM44.4238 44H33.7598V48H44.4238V44ZM35.7068 45.5426L29.9939 21.2262L26.0999 22.141L31.8128 46.4574L35.7068 45.5426ZM26.0978 21.2351L20.5021 45.5515L24.4002 46.4485L29.9959 22.1321L26.0978 21.2351ZM22.4512 44H11.8164V48H22.4512V44ZM13.7726 45.5835L4.69053 2.92726L0.778221 3.76024L9.86025 46.4165L13.7726 45.5835ZM2.73438 5.34375H12.959V1.34375H2.73438V5.34375ZM10.9916 3.70361L15.8842 30.4517L19.8189 29.7319L14.9263 2.98389L10.9916 3.70361ZM19.8052 30.5198L25.6646 3.77172L21.7573 2.91578L15.8979 29.6638L19.8052 30.5198ZM23.7109 5.34375H32.4414V1.34375H23.7109V5.34375ZM30.4891 3.77784L36.4363 30.5259L40.341 29.6577L34.3937 2.90966L30.4891 3.77784ZM93.1445 46V48H95.1445V46H93.1445ZM82.9199 46H80.9199V48H82.9199V46ZM82.9199 28.1875H84.9199V26.1875H82.9199V28.1875ZM67.7734 28.1875V26.1875H65.7734V28.1875H67.7734ZM67.7734 46V48H69.7734V46H67.7734ZM57.4902 46H55.4902V48H57.4902V46ZM57.4902 3.34375V1.34375H55.4902V3.34375H57.4902ZM67.7734 3.34375H69.7734V1.34375H67.7734V3.34375ZM67.7734 20.2773H65.7734V22.2773H67.7734V20.2773ZM82.9199 20.2773V22.2773H84.9199V20.2773H82.9199ZM82.9199 3.34375V1.34375H80.9199V3.34375H82.9199ZM93.1445 3.34375H95.1445V1.34375H93.1445V3.34375ZM93.1445 44H82.9199V48H93.1445V44ZM84.9199 46V28.1875H80.9199V46H84.9199ZM82.9199 26.1875H67.7734V30.1875H82.9199V26.1875ZM65.7734 28.1875V46H69.7734V28.1875H65.7734ZM67.7734 44H57.4902V48H67.7734V44ZM59.4902 46V3.34375H55.4902V46H59.4902ZM57.4902 5.34375H67.7734V1.34375H57.4902V5.34375ZM65.7734 3.34375V20.2773H69.7734V3.34375H65.7734ZM67.7734 22.2773H82.9199V18.2773H67.7734V22.2773ZM84.9199 20.2773V3.34375H80.9199V20.2773H84.9199ZM82.9199 5.34375H93.1445V1.34375H82.9199V5.34375ZM91.1445 3.34375V46H95.1445V3.34375H91.1445ZM126.895 44.0078L127.932 45.7176L127.936 45.7155L126.895 44.0078ZM107.529 44.0957L106.504 45.8128L106.513 45.818L107.529 44.0957ZM100.938 36.918L99.1509 37.8169L99.1554 37.8258L100.938 36.918ZM98.4766 26.2246H96.4766V26.244L96.4769 26.2634L98.4766 26.2246ZM100.762 12.7773L98.9599 11.9094L98.9576 11.914L100.762 12.7773ZM107.354 5.36523L106.318 3.65436L106.313 3.65752L107.354 5.36523ZM133.398 12.6895L131.603 13.5706L131.606 13.5773L131.61 13.5839L133.398 12.6895ZM135.801 23.5879H137.801L137.801 23.5784L135.801 23.5879ZM123.203 14.125L121.516 15.1997L121.522 15.2084L121.528 15.2171L123.203 14.125ZM108.965 22.416L106.966 22.3403L106.965 22.3688L106.965 22.3973L108.965 22.416ZM108.936 25.5508L106.936 25.5321L106.936 25.5414V25.5508H108.936ZM111.016 35.1895L109.314 36.2401L111.016 35.1895ZM125.342 25.7266L127.342 25.736V25.7266H125.342ZM133.801 25.5508C133.801 29.4613 133.077 32.8377 131.684 35.7277L135.288 37.4637C136.982 33.9474 137.801 29.9606 137.801 25.5508H133.801ZM131.684 35.7277C130.298 38.607 128.354 40.7757 125.854 42.3001L127.936 45.7155C131.138 43.7634 133.589 40.9907 135.288 37.4637L131.684 35.7277ZM125.857 42.298C123.367 43.8089 120.501 44.5859 117.197 44.5859V48.5859C121.159 48.5859 124.758 47.6443 127.932 45.7176L125.857 42.298ZM117.197 44.5859C113.881 44.5859 111.017 43.8319 108.546 42.3734L106.513 45.818C109.667 47.6798 113.248 48.5859 117.197 48.5859V44.5859ZM108.555 42.3786C106.087 40.9046 104.142 38.8024 102.72 36.0101L99.1554 37.8258C100.897 41.2445 103.347 43.9275 106.504 45.8128L108.555 42.3786ZM102.724 36.0191C101.316 33.2198 100.549 29.9572 100.476 26.1858L96.4769 26.2634C96.56 30.5389 97.4343 34.4052 99.1509 37.8169L102.724 36.0191ZM100.477 26.2246V23.8223H96.4766V26.2246H100.477ZM100.477 23.8223C100.477 19.8868 101.193 16.5095 102.566 13.6406L98.9576 11.914C97.2836 15.4124 96.4766 19.3983 96.4766 23.8223H100.477ZM102.564 13.6453C103.951 10.7661 105.894 8.59735 108.395 7.07295L106.313 3.65752C103.11 5.60968 100.659 8.38236 98.9599 11.9094L102.564 13.6453ZM108.389 7.0761C110.921 5.54351 113.818 4.75781 117.139 4.75781V0.757812C113.154 0.757812 109.529 1.7104 106.318 3.65437L108.389 7.0761ZM117.139 4.75781C120.42 4.75781 123.278 5.53385 125.769 7.0457L127.844 3.62618C124.671 1.70052 121.084 0.757812 117.139 0.757812V4.75781ZM125.769 7.0457C128.251 8.55217 130.196 10.7047 131.603 13.5706L135.194 11.8083C133.475 8.30705 131.026 5.55721 127.844 3.62618L125.769 7.0457ZM131.61 13.5839C133.034 16.4324 133.783 19.7542 133.801 23.5974L137.801 23.5784C137.78 19.2185 136.927 15.2746 135.187 11.795L131.61 13.5839ZM133.801 23.5879V25.5508H137.801V23.5879H133.801ZM127.342 23.7637C127.342 19.3567 126.61 15.6899 124.879 13.0329L121.528 15.2171C122.647 16.9351 123.342 19.6941 123.342 23.7637H127.342ZM124.89 13.0503C123.113 10.2616 120.452 8.81445 117.139 8.81445V12.8145C119.098 12.8145 120.481 13.5743 121.516 15.1997L124.89 13.0503ZM117.139 8.81445C113.979 8.81445 111.368 10.0439 109.593 12.5629C107.908 14.9551 107.119 18.3088 106.966 22.3403L110.963 22.4917C111.104 18.7889 111.824 16.3417 112.863 14.8668C113.813 13.5186 115.143 12.8145 117.139 12.8145V8.81445ZM106.965 22.3973L106.936 25.5321L110.935 25.5695L110.965 22.4347L106.965 22.3973ZM106.936 25.5508C106.936 29.9043 107.65 33.5444 109.314 36.2401L112.717 34.1388C111.608 32.3423 110.936 29.5567 110.936 25.5508H106.936ZM109.314 36.2401C111.08 39.1016 113.8 40.5586 117.197 40.5586V36.5586C115.126 36.5586 113.724 35.7695 112.717 34.1388L109.314 36.2401ZM117.197 40.5586C120.484 40.5586 123.12 39.1009 124.89 36.3228L121.516 34.1733C120.474 35.8092 119.105 36.5586 117.197 36.5586V40.5586ZM124.89 36.3228C126.585 33.6623 127.321 30.0534 127.342 25.736L123.342 25.7171C123.323 29.681 122.634 32.4198 121.516 34.1733L124.89 36.3228ZM127.342 25.7266V23.7637H123.342V25.7266H127.342Z" fill="white"/>
</svg>
