<svg id="Layer_1" data-name="Layer 1" xmlns="http://www.w3.org/2000/svg" viewBox="0 0 598 286"><title>logo-short</title><path id="Shape_1_copy_2" data-name="Shape 1 copy 2" d="M444,167.85c-14.26,38.72-78.35,65.88-78.35,65.88a237.39,237.39,0,0,1-50.73-19.41,276.39,276.39,0,0,1-25.81,13.09S207.24,208,182.45,164.72c-18.65-32.55-9.95-72.58,19.46-89.41,24.25-13.89,55-7.63,75.51,13.28,16.73-24,46-35.36,72.25-25.72a57.59,57.59,0,0,1,31.4,28.33,57.14,57.14,0,0,0-25.69,20.61c-17-17.3-42.42-22.48-62.49-11-18,10.32-26.65,31.19-23.61,52.28-.42-18.57,8.18-36.06,24.19-45.23,20.08-11.49,45.55-6.31,62.51,11C369.82,99,394.06,89.6,415.76,97.58,442.07,107.24,454.69,138.7,444,167.85Z" style="fill:#e0009f"/><circle cx="230.36" cy="126.1" r="52.06" style="fill:#fff"/><path d="M185.86,115.4c-2.41-1.24-9.33,1.53-10.72,4.24A109.87,109.87,0,0,1,11.92,158.48a148.6,148.6,0,0,0,262.25-3.73C278.55,146.24,217.5,131.68,185.86,115.4Z" style="fill:#fff"/><path d="M185.86,115.4A148.18,148.18,0,0,1,109.24,17,51.11,51.11,0,0,0,91.29,36.54a51.79,51.79,0,0,0,22.34,69.74h0c24.59,12.66,68.12,35.4,82.82,13.91C192.9,118.7,189.35,117.19,185.86,115.4Z" style="fill:#fff"/><path d="M93.75,85.68a51.25,51.25,0,0,1-18.9-17c-.13.24-.31.43-.43.66a51.79,51.79,0,0,0,22.33,69.74h0c25.43,13.09,70.53,13,83.62-12.46C189.38,109.14,118.94,98.65,93.75,85.68Z" style="fill:#fff"/><path d="M104.86,134.65a50.9,50.9,0,0,1-38.17-12,51.62,51.62,0,0,0,27,55.67,68.44,68.44,0,0,0,81.85-26.19C186.76,130.23,121.82,133,104.86,134.65Z" style="fill:#fff"/><path d="M264.61,105.37c-15.3-7.88-28.82,9.47-9,19.66a51.62,51.62,0,0,0,59.59-9A97.55,97.55,0,0,1,264.61,105.37Z" style="fill:#fff"/><path d="M271.83,126a97.82,97.82,0,0,1-30.46-24.36c-24.52-29.39-70.31,12.75-22.09,37.57a98.08,98.08,0,0,0,94.25-2.47A97.58,97.58,0,0,1,271.83,126Z" style="fill:#fff"/><circle cx="398.31" cy="143.15" r="44.42" style="fill:#fff"/><path d="M355.46,155.73a126.78,126.78,0,0,0,213.26,67.78A93.73,93.73,0,0,1,445,151.5c-.47-2.56-5.44-6.53-7.71-6.11C407.44,150.88,354,147.7,355.46,155.73Z" style="fill:#fff"/><path d="M427.46,146.69c6.69,21.17,47.86,13.35,71.07,9.08a43.88,43.88,0,0,0,25.63-71.83,126.4,126.4,0,0,1-86.86,61.45C434,146,430.73,146.35,427.46,146.69Z" style="fill:#fff"/><path d="M439,155.9c4.42,24,41.22,35.23,65.22,30.81a44.18,44.18,0,0,0,35.47-51.44h0a3.19,3.19,0,0,0-.19-.65,43.58,43.58,0,0,1-19.64,9.23C496.08,148.22,436,139.41,439,155.9Z" style="fill:#fff"/><path d="M436.7,178a58.39,58.39,0,0,0,60.38,41.58,44,44,0,0,0,35.75-38.81,43.41,43.41,0,0,1-34.13.37C485.24,175.59,432.9,157.28,436.7,178Z" style="fill:#fff"/><path d="M331.53,114A44,44,0,0,0,378,136.05c18.68-3.44,11.92-20.94-2.52-18.29A83.29,83.29,0,0,1,331.53,114Z" style="fill:#fff"/><path d="M327.76,131.32a83.65,83.65,0,0,0,76.36,25.27c45.51-8.36,18.52-54.08-8.76-36.13a83.48,83.48,0,0,1-67.6,10.86Z" style="fill:#fff"/></svg>