<svg width="726" height="76" viewBox="0 0 726 76" fill="none" xmlns="http://www.w3.org/2000/svg">
<path d="M1.50391 74H0.503906V75H1.50391V74ZM1.50391 2.90625V1.90625H0.503906V2.90625H1.50391ZM47.8906 7.93555L47.3142 8.75267L47.3168 8.75452L47.8906 7.93555ZM45.0586 37.7207L44.7065 36.7848L41.7704 37.8894L44.8041 38.6878L45.0586 37.7207ZM53.6035 43.1895L54.4059 42.5926L53.6035 43.1895ZM49.9414 68.6777L50.5626 69.4614L50.5633 69.4608L49.9414 68.6777ZM30.3613 74V75L30.3688 75L30.3613 74ZM18.6426 43.7754V42.7754H17.6426V43.7754H18.6426ZM18.6426 60.8164H17.6426V61.8164H18.6426V60.8164ZM37.002 58.7168L37.6466 59.4814L37.6552 59.474L37.002 58.7168ZM30.6543 43.7754L30.6598 42.7754H30.6543V43.7754ZM18.6426 32.5449H17.6426V33.5449H18.6426V32.5449ZM27.5781 32.5449V33.545L27.5868 33.5449L27.5781 32.5449ZM35.3906 18.1406L34.7787 18.9316L34.7882 18.9388L35.3906 18.1406ZM18.6426 16.1387V15.1387H17.6426V16.1387H18.6426ZM2.50391 74V2.90625H0.503906V74H2.50391ZM1.50391 3.90625H27.041V1.90625H1.50391V3.90625ZM27.041 3.90625C36.0912 3.90625 42.8018 5.56929 47.3142 8.75267L48.4671 7.11842C43.4742 3.59608 36.2851 1.90625 27.041 1.90625V3.90625ZM47.3168 8.75452C51.8073 11.9009 54.0684 16.446 54.0684 22.5352H56.0684C56.0684 15.8639 53.5443 10.6759 48.4645 7.11658L47.3168 8.75452ZM54.0684 22.5352C54.0684 26.0563 53.26 29 51.6909 31.414L53.3677 32.504C55.184 29.7097 56.0684 26.3708 56.0684 22.5352H54.0684ZM51.6909 31.414C50.1294 33.8163 47.8219 35.6126 44.7065 36.7848L45.4107 38.6567C48.8708 37.3548 51.5438 35.31 53.3677 32.504L51.6909 31.414ZM44.8041 38.6878C48.331 39.6159 50.9711 41.3263 52.8012 43.7863L54.4059 42.5926C52.2645 39.7141 49.208 37.7786 45.3131 36.7536L44.8041 38.6878ZM52.8012 43.7863C54.6393 46.2573 55.582 49.2944 55.582 52.9551H57.582C57.582 48.9335 56.5391 45.4602 54.4059 42.5926L52.8012 43.7863ZM55.582 52.9551C55.582 59.6943 53.4526 64.6125 49.3195 67.8946L50.5633 69.4608C55.2844 65.7117 57.582 60.1481 57.582 52.9551H55.582ZM49.3203 67.894C45.1729 71.1812 38.9043 72.9357 30.3538 73L30.3688 75C39.1361 74.9341 45.9209 73.1404 50.5626 69.4614L49.3203 67.894ZM30.3613 73H1.50391V75H30.3613V73ZM17.6426 43.7754V60.8164H19.6426V43.7754H17.6426ZM18.6426 61.8164H29.873V59.8164H18.6426V61.8164ZM29.873 61.8164C33.103 61.8164 35.7429 61.0864 37.6465 59.4813L36.3574 57.9523C34.9407 59.1467 32.828 59.8164 29.873 59.8164V61.8164ZM37.6552 59.474C39.5743 57.8182 40.4922 55.5178 40.4922 52.7109H38.4922C38.4922 55.0473 37.7499 56.7508 36.3487 57.9596L37.6552 59.474ZM40.4922 52.7109C40.4922 49.5955 39.717 47.0729 37.9937 45.3305C36.2694 43.5871 33.7618 42.7925 30.6598 42.7754L30.6488 44.7754C33.4387 44.7908 35.3501 45.5018 36.5717 46.7369C37.7944 47.973 38.4922 49.9019 38.4922 52.7109H40.4922ZM30.6543 42.7754H18.6426V44.7754H30.6543V42.7754ZM18.6426 33.5449H27.5781V31.5449H18.6426V33.5449ZM27.5868 33.5449C31.3972 33.5117 34.3601 32.8237 36.2277 31.2611L34.9442 29.7272C33.6217 30.8338 31.2461 31.513 27.5694 31.545L27.5868 33.5449ZM36.2277 31.2611C38.1054 29.6899 38.9785 27.405 38.9785 24.5859H36.9785C36.9785 26.9752 36.2565 28.6291 34.9442 29.7272L36.2277 31.2611ZM38.9785 24.5859C38.9785 21.4066 38.0564 18.8997 35.993 17.3424L34.7882 18.9388C36.1754 19.9857 36.9785 21.7757 36.9785 24.5859H38.9785ZM36.0025 17.3497C34.0119 15.8098 30.9534 15.1387 27.041 15.1387V17.1387C30.8109 17.1387 33.3188 17.8022 34.7788 18.9316L36.0025 17.3497ZM27.041 15.1387H18.6426V17.1387H27.041V15.1387ZM17.6426 16.1387V32.5449H19.6426V16.1387H17.6426ZM110.146 43.873V44.873H111.146V43.873H110.146ZM83.1934 43.873V42.873H82.1934V43.873H83.1934ZM83.1934 60.8164H82.1934V61.8164H83.1934V60.8164ZM115.029 60.8164H116.029V59.8164H115.029V60.8164ZM115.029 74V75H116.029V74H115.029ZM66.0547 74H65.0547V75H66.0547V74ZM66.0547 2.90625V1.90625H65.0547V2.90625H66.0547ZM115.127 2.90625H116.127V1.90625H115.127V2.90625ZM115.127 16.1387V17.1387H116.127V16.1387H115.127ZM83.1934 16.1387V15.1387H82.1934V16.1387H83.1934ZM83.1934 31.1289H82.1934V32.1289H83.1934V31.1289ZM110.146 31.1289H111.146V30.1289H110.146V31.1289ZM110.146 42.873H83.1934V44.873H110.146V42.873ZM82.1934 43.873V60.8164H84.1934V43.873H82.1934ZM83.1934 61.8164H115.029V59.8164H83.1934V61.8164ZM114.029 60.8164V74H116.029V60.8164H114.029ZM115.029 73H66.0547V75H115.029V73ZM67.0547 74V2.90625H65.0547V74H67.0547ZM66.0547 3.90625H115.127V1.90625H66.0547V3.90625ZM114.127 2.90625V16.1387H116.127V2.90625H114.127ZM115.127 15.1387H83.1934V17.1387H115.127V15.1387ZM82.1934 16.1387V31.1289H84.1934V16.1387H82.1934ZM83.1934 32.1289H110.146V30.1289H83.1934V32.1289ZM109.146 31.1289V43.873H111.146V31.1289H109.146ZM187.295 60.7188L188.249 60.4205L188.03 59.7188H187.295V60.7188ZM163.809 60.7188V59.7188H163.071L162.853 60.4237L163.809 60.7188ZM159.707 74V75H160.445L160.663 74.2951L159.707 74ZM141.396 74L140.458 73.6557L139.965 75H141.396V74ZM167.471 2.90625V1.90625H166.772L166.532 2.56192L167.471 2.90625ZM183.584 2.90625L184.522 2.55965L184.281 1.90625H183.584V2.90625ZM209.854 74V75H211.289L210.792 73.6534L209.854 74ZM191.445 74L190.491 74.2983L190.71 75H191.445V74ZM167.91 47.4863L166.955 47.1912L166.555 48.4863H167.91V47.4863ZM183.193 47.4863V48.4863H184.551L184.148 47.1895L183.193 47.4863ZM175.527 22.8281L176.482 22.5312L175.524 19.4499L174.572 22.533L175.527 22.8281ZM187.295 59.7188H163.809V61.7188H187.295V59.7188ZM162.853 60.4237L158.752 73.7049L160.663 74.2951L164.764 61.0138L162.853 60.4237ZM159.707 73H141.396V75H159.707V73ZM142.335 74.3443L168.41 3.25058L166.532 2.56192L140.458 73.6557L142.335 74.3443ZM167.471 3.90625H183.584V1.90625H167.471V3.90625ZM182.646 3.25285L208.915 74.3466L210.792 73.6534L184.522 2.55965L182.646 3.25285ZM209.854 73H191.445V75H209.854V73ZM192.4 73.7017L188.249 60.4205L186.34 61.017L190.491 74.2983L192.4 73.7017ZM167.91 48.4863H183.193V46.4863H167.91V48.4863ZM184.148 47.1895L176.482 22.5312L174.572 23.125L182.238 47.7832L184.148 47.1895ZM174.572 22.533L166.955 47.1912L168.866 47.7815L176.483 23.1233L174.572 22.533ZM257.119 49.8789V48.8789H256.119V49.8789H257.119ZM257.119 74V75H258.119V74H257.119ZM239.98 74H238.98V75H239.98V74ZM239.98 2.90625V1.90625H238.98V2.90625H239.98ZM282.754 5.93359L282.318 6.83361L282.326 6.83762L282.754 5.93359ZM292.471 14.4785L291.618 15.0018L291.624 15.0105L292.471 14.4785ZM288.467 43.6777L289.108 44.4451L289.108 44.4447L288.467 43.6777ZM257.119 36.6465H256.119V37.6465H257.119V36.6465ZM275.918 34.1562L275.231 33.4292L275.225 33.4357L275.918 34.1562ZM268.545 16.1387L268.555 15.1387H268.545V16.1387ZM257.119 16.1387V15.1387H256.119V16.1387H257.119ZM256.119 49.8789V74H258.119V49.8789H256.119ZM257.119 73H239.98V75H257.119V73ZM240.98 74V2.90625H238.98V74H240.98ZM239.98 3.90625H268.35V1.90625H239.98V3.90625ZM268.35 3.90625C273.661 3.90625 278.309 4.89169 282.318 6.83358L283.19 5.03361C278.866 2.93904 273.911 1.90625 268.35 1.90625V3.90625ZM282.326 6.83762C286.362 8.74609 289.448 11.4675 291.619 15.0018L293.323 13.9553C290.936 10.0677 287.544 7.09245 283.181 5.02957L282.326 6.83762ZM291.624 15.0105C293.827 18.5169 294.938 22.5126 294.938 27.0273H296.938C296.938 22.1671 295.737 17.7969 293.317 13.9465L291.624 15.0105ZM294.938 27.0273C294.938 33.6877 292.561 38.9483 287.825 42.9107L289.108 44.4447C294.333 40.0738 296.938 34.2341 296.938 27.0273H294.938ZM287.826 42.9103C283.111 46.8495 276.562 48.8789 268.057 48.8789V50.8789C276.869 50.8789 283.927 48.7742 289.108 44.4451L287.826 42.9103ZM268.057 48.8789H257.119V50.8789H268.057V48.8789ZM257.119 37.6465H268.35V35.6465H257.119V37.6465ZM268.35 37.6465C271.827 37.6465 274.638 36.776 276.611 34.8768L275.225 33.4357C273.748 34.8569 271.513 35.6465 268.35 35.6465V37.6465ZM276.605 34.8833C278.61 32.9888 279.555 30.3536 279.555 27.125H277.555C277.555 29.9511 276.741 32.0033 275.231 33.4292L276.605 34.8833ZM279.555 27.125C279.555 23.6197 278.605 20.7073 276.612 18.4964L275.126 19.8357C276.714 21.5961 277.555 23.9897 277.555 27.125H279.555ZM276.612 18.4964C274.604 16.2699 271.879 15.1737 268.555 15.1387L268.534 17.1386C271.395 17.1687 273.553 18.0907 275.126 19.8357L276.612 18.4964ZM268.545 15.1387H257.119V17.1387H268.545V15.1387ZM256.119 16.1387V36.6465H258.119V16.1387H256.119ZM336.807 60.7188L337.761 60.4205L337.542 59.7188H336.807V60.7188ZM313.32 60.7188V59.7188H312.583L312.365 60.4237L313.32 60.7188ZM309.219 74V75H309.957L310.174 74.2951L309.219 74ZM290.908 74L289.969 73.6557L289.476 75H290.908V74ZM316.982 2.90625V1.90625H316.284L316.044 2.56192L316.982 2.90625ZM333.096 2.90625L334.034 2.55965L333.792 1.90625H333.096V2.90625ZM359.365 74V75H360.801L360.303 73.6534L359.365 74ZM340.957 74L340.003 74.2983L340.222 75H340.957V74ZM317.422 47.4863L316.466 47.1912L316.066 48.4863H317.422V47.4863ZM332.705 47.4863V48.4863H334.063L333.66 47.1895L332.705 47.4863ZM325.039 22.8281L325.994 22.5312L325.036 19.4499L324.084 22.533L325.039 22.8281ZM336.807 59.7188H313.32V61.7188H336.807V59.7188ZM312.365 60.4237L308.263 73.7049L310.174 74.2951L314.276 61.0138L312.365 60.4237ZM309.219 73H290.908V75H309.219V73ZM291.847 74.3443L317.921 3.25058L316.044 2.56192L289.969 73.6557L291.847 74.3443ZM316.982 3.90625H333.096V1.90625H316.982V3.90625ZM332.158 3.25285L358.427 74.3466L360.303 73.6534L334.034 2.55965L332.158 3.25285ZM359.365 73H340.957V75H359.365V73ZM341.911 73.7017L337.761 60.4205L335.852 61.017L340.003 74.2983L341.911 73.7017ZM317.422 48.4863H332.705V46.4863H317.422V48.4863ZM333.66 47.1895L325.994 22.5312L324.084 23.125L331.75 47.7832L333.66 47.1895ZM324.084 22.533L316.466 47.1912L318.377 47.7815L325.995 23.1233L324.084 22.533ZM391.006 48.9023L391.9 48.4551L391.624 47.9023H391.006V48.9023ZM381.729 48.9023V47.9023H380.729V48.9023H381.729ZM381.729 74V75H382.729V74H381.729ZM364.59 74H363.59V75H364.59V74ZM364.59 2.90625V1.90625H363.59V2.90625H364.59ZM416.445 36.6953L415.595 36.1684L415.592 36.1746L416.445 36.6953ZM407.07 44.6055L406.643 43.7016L405.706 44.145L406.182 45.0653L407.07 44.6055ZM421.914 73.2676H422.914V73.024L422.802 72.8077L421.914 73.2676ZM421.914 74V75H422.914V74H421.914ZM403.555 74L402.66 74.4472L402.937 75H403.555V74ZM381.729 35.6699H380.729V36.6699H381.729V35.6699ZM399.893 33.1309L399.172 32.4375L399.172 32.4378L399.893 33.1309ZM399.893 18.7754L399.166 19.462L399.172 19.4688L399.893 18.7754ZM381.729 16.1387V15.1387H380.729V16.1387H381.729ZM391.006 47.9023H381.729V49.9023H391.006V47.9023ZM380.729 48.9023V74H382.729V48.9023H380.729ZM381.729 73H364.59V75H381.729V73ZM365.59 74V2.90625H363.59V74H365.59ZM364.59 3.90625H392.568V1.90625H364.59V3.90625ZM392.568 3.90625C400.862 3.90625 407.207 5.74806 411.725 9.30706L412.963 7.73591C407.976 3.80793 401.137 1.90625 392.568 1.90625V3.90625ZM411.725 9.30706C416.203 12.8346 418.473 17.8159 418.473 24.3906H420.473C420.473 17.2934 417.989 11.6953 412.963 7.73591L411.725 9.30706ZM418.473 24.3906C418.473 29.2058 417.491 33.1114 415.595 36.1684L417.295 37.2223C419.436 33.7688 420.473 29.4713 420.473 24.3906H418.473ZM415.592 36.1746C413.729 39.2276 410.773 41.7469 406.643 43.7016L407.498 45.5093C411.897 43.4275 415.19 40.6734 417.299 37.2161L415.592 36.1746ZM406.182 45.0653L421.026 73.7275L422.802 72.8077L407.958 44.1456L406.182 45.0653ZM420.914 73.2676V74H422.914V73.2676H420.914ZM421.914 73H403.555V75H421.914V73ZM404.449 73.5528L391.9 48.4551L390.111 49.3496L402.66 74.4472L404.449 73.5528ZM381.729 36.6699H392.568V34.6699H381.729V36.6699ZM392.568 36.6699C395.988 36.6699 398.734 35.7788 400.613 33.824L399.172 32.4378C397.796 33.8684 395.659 34.6699 392.568 34.6699V36.6699ZM400.613 33.8242C402.499 31.8649 403.383 29.1967 403.383 25.9531H401.383C401.383 28.8294 400.607 30.9463 399.172 32.4375L400.613 33.8242ZM403.383 25.9531C403.383 22.7096 402.499 20.0414 400.613 18.082L399.172 19.4688C400.607 20.9599 401.383 23.0769 401.383 25.9531H403.383ZM400.62 18.0888C398.714 16.0708 395.971 15.1387 392.568 15.1387V17.1387C395.611 17.1387 397.751 17.9644 399.166 19.462L400.62 18.0888ZM392.568 15.1387H381.729V17.1387H392.568V15.1387ZM380.729 16.1387V35.6699H382.729V16.1387H380.729ZM483.193 16.1387V17.1387H484.193V16.1387H483.193ZM461.855 16.1387V15.1387H460.855V16.1387H461.855ZM461.855 74V75H462.855V74H461.855ZM444.717 74H443.717V75H444.717V74ZM444.717 16.1387H445.717V15.1387H444.717V16.1387ZM423.77 16.1387H422.77V17.1387H423.77V16.1387ZM423.77 2.90625V1.90625H422.77V2.90625H423.77ZM483.193 2.90625H484.193V1.90625H483.193V2.90625ZM483.193 15.1387H461.855V17.1387H483.193V15.1387ZM460.855 16.1387V74H462.855V16.1387H460.855ZM461.855 73H444.717V75H461.855V73ZM445.717 74V16.1387H443.717V74H445.717ZM444.717 15.1387H423.77V17.1387H444.717V15.1387ZM424.77 16.1387V2.90625H422.77V16.1387H424.77ZM423.77 3.90625H483.193V1.90625H423.77V3.90625ZM482.193 2.90625V16.1387H484.193V2.90625H482.193ZM568.789 58.3262L567.888 57.8922L568.789 58.3262ZM557.803 70.6797L558.322 71.5346L558.323 71.5335L557.803 70.6797ZM525.527 70.8262L525.015 71.6847L525.019 71.6873L525.527 70.8262ZM514.541 58.8633L513.648 59.3127L513.65 59.3172L514.541 58.8633ZM510.439 41.041H509.439V41.0507L509.44 41.0604L510.439 41.041ZM514.248 18.6289L513.347 18.1949L513.346 18.1973L514.248 18.6289ZM525.234 6.27539L524.716 5.41995L524.714 5.42153L525.234 6.27539ZM557.656 6.22656L557.137 7.08144L557.656 6.22656ZM568.643 18.4824L567.745 18.923L567.748 18.9296L568.643 18.4824ZM572.646 36.6465H573.646V36.6417L572.646 36.6465ZM551.65 20.875L550.807 21.4124L550.813 21.421L551.65 20.875ZM527.92 34.6934L526.921 34.6555L526.92 34.6698L526.92 34.684L527.92 34.6934ZM527.871 39.918L526.871 39.9086V39.918H527.871ZM531.338 55.9824L530.487 56.5078L531.338 55.9824ZM551.65 56.0801L550.807 55.5427L551.65 56.0801ZM555.215 40.2109L556.215 40.2157V40.2109H555.215ZM571.646 39.918C571.646 46.7267 570.384 52.7102 567.888 57.8922L569.69 58.7602C572.337 53.265 573.646 46.9764 573.646 39.918H571.646ZM567.888 57.8922C565.395 63.0688 561.859 67.0356 557.282 69.8258L558.323 71.5335C563.251 68.5295 567.04 64.2606 569.69 58.7602L567.888 57.8922ZM557.284 69.8248C552.735 72.5854 547.531 73.9766 541.641 73.9766V75.9766C547.86 75.9766 553.43 74.5031 558.322 71.5346L557.284 69.8248ZM541.641 73.9766C535.744 73.9766 530.552 72.6311 526.036 69.965L525.019 71.6873C529.877 74.5551 535.428 75.9766 541.641 75.9766V73.9766ZM526.04 69.9676C521.525 67.271 517.989 63.4285 515.432 58.4094L513.65 59.3172C516.366 64.6496 520.155 68.7824 525.015 71.6847L526.04 69.9676ZM515.434 58.4138C512.907 53.3911 511.567 47.6013 511.439 41.0216L509.44 41.0604C509.572 47.8922 510.966 53.9839 513.648 59.3127L515.434 58.4138ZM511.439 41.041V37.0371H509.439V41.041H511.439ZM511.439 37.0371C511.439 30.1931 512.686 24.2092 515.15 19.0606L513.346 18.1973C510.732 23.6606 509.439 29.9488 509.439 37.0371H511.439ZM515.149 19.0629C517.643 13.8863 521.178 9.91944 525.755 7.12925L524.714 5.42153C519.786 8.42561 515.997 12.6944 513.347 18.1949L515.149 19.0629ZM525.752 7.13082C530.368 4.33653 535.622 2.92969 541.543 2.92969V0.929688C535.29 0.929688 529.672 2.41998 524.716 5.41996L525.752 7.13082ZM541.543 2.92969C547.399 2.92969 552.588 4.32031 557.137 7.08144L558.175 5.37168C553.285 2.40365 547.731 0.929688 541.543 0.929688V2.92969ZM557.137 7.08144C561.683 9.83989 565.219 13.7758 567.745 18.923L569.54 18.0418C566.858 12.577 563.07 8.3424 558.175 5.37168L557.137 7.08144ZM567.748 18.9296C570.306 24.0453 571.615 29.9445 571.646 36.6512L573.646 36.6417C573.613 29.6766 572.253 23.4664 569.537 18.0352L567.748 18.9296ZM571.646 36.6465V39.918H573.646V36.6465H571.646ZM556.215 36.9395C556.215 29.7913 555.017 24.2095 552.488 20.329L550.813 21.421C553.036 24.8321 554.215 29.96 554.215 36.9395H556.215ZM552.494 20.3376C549.965 16.3684 546.276 14.3574 541.543 14.3574V16.3574C545.599 16.3574 548.649 18.0248 550.807 21.4124L552.494 20.3376ZM541.543 14.3574C536.955 14.3574 533.351 16.1001 530.874 19.6155C528.442 23.0674 527.168 28.128 526.921 34.6555L528.919 34.7312C529.16 28.3681 530.4 23.7607 532.509 20.7674C534.574 17.8374 537.537 16.3574 541.543 16.3574V14.3574ZM526.92 34.684L526.871 39.9086L528.871 39.9273L528.92 34.7027L526.92 34.684ZM526.871 39.918C526.871 46.971 528.037 52.5395 530.487 56.5078L532.189 55.4571C530.016 51.9384 528.871 46.7972 528.871 39.918H526.871ZM530.487 56.5078C532.988 60.5589 536.752 62.5977 541.641 62.5977V60.5977C537.415 60.5977 534.31 58.8929 532.189 55.4571L530.487 56.5078ZM541.641 62.5977C546.315 62.5977 549.968 60.5814 552.494 56.6174L550.807 55.5427C548.645 58.9355 545.625 60.5977 541.641 60.5977V62.5977ZM552.494 56.6174C554.982 52.7123 556.182 47.2051 556.215 40.2157L554.215 40.2062C554.183 47.0189 553.006 52.0911 550.807 55.5427L552.494 56.6174ZM556.215 40.2109V36.9395H554.215V40.2109H556.215ZM626.26 45.6797V46.6797H627.26V45.6797H626.26ZM598.623 45.6797V44.6797H597.623V45.6797H598.623ZM598.623 74V75H599.623V74H598.623ZM581.484 74H580.484V75H581.484V74ZM581.484 2.90625V1.90625H580.484V2.90625H581.484ZM629.043 2.90625H630.043V1.90625H629.043V2.90625ZM629.043 16.1387V17.1387H630.043V16.1387H629.043ZM598.623 16.1387V15.1387H597.623V16.1387H598.623ZM598.623 32.4961H597.623V33.4961H598.623V32.4961ZM626.26 32.4961H627.26V31.4961H626.26V32.4961ZM626.26 44.6797H598.623V46.6797H626.26V44.6797ZM597.623 45.6797V74H599.623V45.6797H597.623ZM598.623 73H581.484V75H598.623V73ZM582.484 74V2.90625H580.484V74H582.484ZM581.484 3.90625H629.043V1.90625H581.484V3.90625ZM628.043 2.90625V16.1387H630.043V2.90625H628.043ZM629.043 15.1387H598.623V17.1387H629.043V15.1387ZM597.623 16.1387V32.4961H599.623V16.1387H597.623ZM598.623 33.4961H626.26V31.4961H598.623V33.4961ZM625.26 32.4961V45.6797H627.26V32.4961H625.26ZM701.455 60.7188L702.41 60.4205L702.19 59.7188H701.455V60.7188ZM677.969 60.7188V59.7188H677.231L677.013 60.4237L677.969 60.7188ZM673.867 74V75H674.605L674.823 74.2951L673.867 74ZM655.557 74L654.618 73.6557L654.125 75H655.557V74ZM681.631 2.90625V1.90625H680.932L680.692 2.56192L681.631 2.90625ZM697.744 2.90625L698.682 2.55965L698.441 1.90625H697.744V2.90625ZM724.014 74V75H725.449L724.952 73.6534L724.014 74ZM705.605 74L704.651 74.2983L704.87 75H705.605V74ZM682.07 47.4863L681.115 47.1912L680.715 48.4863H682.07V47.4863ZM697.354 47.4863V48.4863H698.712L698.308 47.1895L697.354 47.4863ZM689.688 22.8281L690.642 22.5312L689.684 19.4499L688.732 22.533L689.688 22.8281ZM701.455 59.7188H677.969V61.7188H701.455V59.7188ZM677.013 60.4237L672.912 73.7049L674.823 74.2951L678.924 61.0138L677.013 60.4237ZM673.867 73H655.557V75H673.867V73ZM656.495 74.3443L682.57 3.25058L680.692 2.56192L654.618 73.6557L656.495 74.3443ZM681.631 3.90625H697.744V1.90625H681.631V3.90625ZM696.806 3.25285L723.076 74.3466L724.952 73.6534L698.682 2.55965L696.806 3.25285ZM724.014 73H705.605V75H724.014V73ZM706.56 73.7017L702.41 60.4205L700.501 61.017L704.651 74.2983L706.56 73.7017ZM682.07 48.4863H697.354V46.4863H682.07V48.4863ZM698.308 47.1895L690.642 22.5312L688.733 23.125L696.399 47.7832L698.308 47.1895ZM688.732 22.533L681.115 47.1912L683.026 47.7815L690.643 23.1233L688.732 22.533Z" fill="white"/>
</svg>
