<svg width="229" height="40" viewBox="0 0 229 40" fill="none" xmlns="http://www.w3.org/2000/svg">
<path d="M30.8701 25.9639L31.8691 26.0099L31.9172 24.9639H30.8701V25.9639ZM28.8682 32.5312L29.7079 33.0742L29.71 33.0709L28.8682 32.5312ZM23.7168 36.9258L23.291 36.021L23.2884 36.0222L23.7168 36.9258ZM2.91602 10.1436L2.00954 9.72128L2.00839 9.72378L2.91602 10.1436ZM8.16504 4.08887L8.69286 4.93824L8.69721 4.9355L8.16504 4.08887ZM26.4756 5.3584L25.8194 6.11301L25.8221 6.11533L26.4756 5.3584ZM30.9434 14.7334V15.7334H32.0372L31.9394 14.644L30.9434 14.7334ZM22.3984 14.7334L21.3989 14.7635L21.4281 15.7334H22.3984V14.7334ZM9.8252 18.6885L8.8252 18.6745V18.6885H9.8252ZM11.2412 29.333L10.3762 29.8347L10.3799 29.8412L11.2412 29.333ZM22.3496 25.9639V24.9639H21.3813L21.3501 25.9316L22.3496 25.9639ZM29.8712 25.9179C29.7645 28.2335 29.1433 30.249 28.0263 31.9916L29.71 33.0709C31.0344 31.0049 31.7478 28.6422 31.8691 26.0099L29.8712 25.9179ZM28.0284 31.9883C26.9181 33.7056 25.3509 35.0516 23.291 36.021L24.1426 37.8306C26.5098 36.7166 28.3769 35.1329 29.7079 33.0742L28.0284 31.9883ZM23.2884 36.0222C21.2454 36.9907 18.881 37.4883 16.1729 37.4883V39.4883C19.1288 39.4883 21.7937 38.9442 24.1452 37.8294L23.2884 36.0222ZM16.1729 37.4883C11.7407 37.4883 8.35371 36.0562 5.88753 33.2612L4.38786 34.5845C7.29277 37.8767 11.2626 39.4883 16.1729 39.4883V37.4883ZM5.88753 33.2612C3.41415 30.4581 2.10938 26.4287 2.10938 21.0322H0.109375C0.109375 26.736 1.49015 31.3004 4.38786 34.5845L5.88753 33.2612ZM2.10938 21.0322V19.2744H0.109375V21.0322H2.10938ZM2.10938 19.2744C2.10938 15.9059 2.69167 13.0109 3.82364 10.5633L2.00839 9.72378C0.731512 12.4846 0.109375 15.6768 0.109375 19.2744H2.10938ZM3.82249 10.5658C4.96779 8.10723 6.59213 6.24368 8.69285 4.93823L7.63722 3.23951C5.18066 4.76609 3.30564 6.93899 2.00955 9.72129L3.82249 10.5658ZM8.69721 4.9355C10.7989 3.61447 13.2468 2.94043 16.0752 2.94043V0.94043C12.914 0.94043 10.0885 1.69869 7.63287 3.24223L8.69721 4.9355ZM16.0752 2.94043C20.2077 2.94043 23.4219 4.02825 25.8194 6.113L27.1318 4.60379C24.2883 2.13125 20.569 0.94043 16.0752 0.94043V2.94043ZM25.8221 6.11533C28.2153 8.18149 29.6086 11.0501 29.9474 14.8228L31.9394 14.644C31.562 10.4414 29.9768 7.06005 27.1291 4.60147L25.8221 6.11533ZM30.9434 13.7334H22.3984V15.7334H30.9434V13.7334ZM23.398 14.7033C23.3292 12.4153 22.7496 10.5403 21.44 9.33461L20.0854 10.806C20.8265 11.4883 21.3375 12.7221 21.3989 14.7635L23.398 14.7033ZM21.44 9.33461C20.1556 8.15213 18.3019 7.6543 16.0752 7.6543V9.6543C18.0477 9.6543 19.319 10.1005 20.0854 10.806L21.44 9.33461ZM16.0752 7.6543C13.6528 7.6543 11.7415 8.58614 10.5387 10.5184L12.2367 11.5753C13.0196 10.3175 14.2333 9.6543 16.0752 9.6543V7.6543ZM10.5387 10.5184C9.39776 12.3515 8.8748 15.1262 8.82529 18.6745L10.8251 18.7024C10.8732 15.2521 11.392 12.9324 12.2367 11.5753L10.5387 10.5184ZM8.8252 18.6885V21.2031H10.8252V18.6885H8.8252ZM8.8252 21.2031C8.8252 25.0261 9.29176 27.965 10.3762 29.8347L12.1062 28.8313C11.3026 27.4458 10.8252 24.9647 10.8252 21.2031H8.8252ZM10.3799 29.8412C11.5638 31.8477 13.587 32.7744 16.1729 32.7744V30.7744C14.1037 30.7744 12.8392 30.0735 12.1025 28.8249L10.3799 29.8412ZM16.1729 32.7744C18.287 32.7744 20.0665 32.2767 21.3545 31.1296L20.0244 29.636C19.2291 30.3444 17.9975 30.7744 16.1729 30.7744V32.7744ZM21.3545 31.1296C22.6779 29.9509 23.2791 28.1644 23.3491 25.9961L21.3501 25.9316C21.2899 27.7998 20.7843 28.9592 20.0244 29.636L21.3545 31.1296ZM22.3496 26.9639H30.8701V24.9639H22.3496V26.9639ZM63.0967 30.1631L62.1958 29.7291L63.0967 30.1631ZM57.6035 36.3398L58.1223 37.1947L58.124 37.1937L57.6035 36.3398ZM41.4658 36.4131L40.9531 37.2716L40.9575 37.2743L41.4658 36.4131ZM35.9727 30.4316L35.0793 30.8811L35.0816 30.8856L35.9727 30.4316ZM33.9219 21.5205H32.9219V21.5302L32.9221 21.5399L33.9219 21.5205ZM35.8262 10.3145L34.9252 9.88047L34.9241 9.8828L35.8262 10.3145ZM41.3193 4.1377L40.8014 3.28226L40.7988 3.28384L41.3193 4.1377ZM57.5303 4.11328L57.0114 4.96816L57.5303 4.11328ZM63.0234 10.2412L62.1257 10.6818L62.129 10.6884L63.0234 10.2412ZM65.0254 19.3232H66.0254L66.0254 19.3185L65.0254 19.3232ZM54.5273 11.4375L53.6839 11.9749L53.6896 11.9835L54.5273 11.4375ZM42.6621 18.3467L41.6628 18.3088L41.6623 18.3231L41.6622 18.3373L42.6621 18.3467ZM42.6377 20.959L41.6377 20.9496V20.959H42.6377ZM44.3711 28.9912L43.5202 29.5165L44.3711 28.9912ZM54.5273 29.04L53.684 28.5027L54.5273 29.04ZM56.3096 21.1055L57.3096 21.1102V21.1055H56.3096ZM64.0254 20.959C64.0254 24.3009 63.4062 27.2164 62.1958 29.7291L63.9976 30.5971C65.3588 27.7712 66.0254 24.5506 66.0254 20.959H64.0254ZM62.1958 29.7291C60.988 32.2364 59.2839 34.1444 57.083 35.486L58.124 37.1937C60.6758 35.6382 62.6338 33.4283 63.9976 30.5971L62.1958 29.7291ZM57.0847 35.485C54.896 36.8133 52.3851 37.4883 49.5225 37.4883V39.4883C52.7145 39.4883 55.591 38.731 58.1223 37.1947L57.0847 35.485ZM49.5225 37.4883C46.6533 37.4883 44.1471 36.8346 41.9741 35.5519L40.9575 37.2743C43.4721 38.7585 46.3369 39.4883 49.5225 39.4883V37.4883ZM41.9786 35.5545C39.807 34.2576 38.1023 32.409 36.8637 29.9777L35.0816 30.8856C36.4798 33.6301 38.4372 35.7691 40.9531 37.2716L41.9786 35.5545ZM36.866 29.9822C35.6409 27.5474 34.9843 24.728 34.9217 21.5011L32.9221 21.5399C32.9896 25.0188 33.7002 28.1401 35.0794 30.8811L36.866 29.9822ZM34.9219 21.5205V19.5186H32.9219V21.5205H34.9219ZM34.9219 19.5186C34.9219 16.1576 35.534 13.2417 36.7282 10.7461L34.9241 9.8828C33.5793 12.6932 32.9219 15.9134 32.9219 19.5186H34.9219ZM36.7271 10.7484C37.9349 8.24111 39.639 6.33318 41.8398 4.99155L40.7988 3.28384C38.2471 4.83935 36.2891 7.04925 34.9253 9.88047L36.7271 10.7484ZM41.8372 4.99313C44.06 3.6474 46.5959 2.96484 49.4736 2.96484V0.964844C46.2641 0.964844 43.3639 1.73085 40.8014 3.28226L41.8372 4.99313ZM49.4736 2.96484C52.3189 2.96484 54.8219 3.63932 57.0114 4.96816L58.0491 3.2584C55.5186 1.72266 52.6505 0.964844 49.4736 0.964844V2.96484ZM57.0114 4.96816C59.1966 6.29431 60.9016 8.18762 62.1257 10.6818L63.9211 9.80062C62.5411 6.98881 60.584 4.79683 58.0491 3.2584L57.0114 4.96816ZM62.129 10.6884C63.3685 13.1674 64.0097 16.0392 64.0254 19.328L66.0254 19.3185C66.0085 15.7714 65.3151 12.5885 63.9179 9.794L62.129 10.6884ZM64.0254 19.3232V20.959H66.0254V19.3232H64.0254ZM57.3096 19.4697C57.3096 15.8535 56.7063 12.9491 55.3651 10.8915L53.6896 11.9835C54.7247 13.5717 55.3096 16.0222 55.3096 19.4697H57.3096ZM55.3707 10.9001C54.0135 8.77014 52.0095 7.67871 49.4736 7.67871V9.67871C51.3323 9.67871 52.6974 10.4265 53.684 11.9749L55.3707 10.9001ZM49.4736 7.67871C47.0342 7.67871 45.0721 8.61572 43.7306 10.5197C42.4338 12.3604 41.788 15.004 41.6628 18.3088L43.6614 18.3845C43.7803 15.244 44.3919 13.0537 45.3656 11.6717C46.2946 10.353 47.6162 9.67871 49.4736 9.67871V7.67871ZM41.6622 18.3373L41.6377 20.9496L43.6377 20.9683L43.6621 18.356L41.6622 18.3373ZM41.6377 20.959C41.6377 24.529 42.2258 27.42 43.5202 29.5165L45.222 28.4659C44.2052 26.8189 43.6377 24.3552 43.6377 20.959H41.6377ZM43.5202 29.5165C44.8658 31.696 46.9122 32.7988 49.5225 32.7988V30.7988C47.5754 30.7988 46.1876 30.0299 45.222 28.4659L43.5202 29.5165ZM49.5225 32.7988C52.032 32.7988 54.0169 31.7022 55.3707 29.5774L53.684 28.5027C52.6941 30.0563 51.3424 30.7988 49.5225 30.7988V32.7988ZM55.3707 29.5774C56.687 27.5115 57.2929 24.6491 57.3096 21.1102L55.3096 21.1008C55.2937 24.4629 54.7114 26.8902 53.684 28.5027L55.3707 29.5774ZM57.3096 21.1055V19.4697H55.3096V21.1055H57.3096ZM99.1318 38V39H100.132V38H99.1318ZM90.6113 38L89.7424 38.4949L90.0301 39H90.6113V38ZM78.0137 15.8809L78.8826 15.386L77.0137 12.1044V15.8809H78.0137ZM78.0137 38V39H79.0137V38H78.0137ZM69.4443 38H68.4443V39H69.4443V38ZM69.4443 2.45312V1.45312H68.4443V2.45312H69.4443ZM78.0137 2.45312L78.883 1.95895L78.5955 1.45312H78.0137V2.45312ZM90.5869 24.5723L89.7176 25.0664L91.5869 28.3551V24.5723H90.5869ZM90.5869 2.45312V1.45312H89.5869V2.45312H90.5869ZM99.1318 2.45312H100.132V1.45312H99.1318V2.45312ZM99.1318 37H90.6113V39H99.1318V37ZM91.4803 37.5051L78.8826 15.386L77.1447 16.3758L89.7424 38.4949L91.4803 37.5051ZM77.0137 15.8809V38H79.0137V15.8809H77.0137ZM78.0137 37H69.4443V39H78.0137V37ZM70.4443 38V2.45312H68.4443V38H70.4443ZM69.4443 3.45312H78.0137V1.45312H69.4443V3.45312ZM77.1443 2.9473L89.7176 25.0664L91.4563 24.0781L78.883 1.95895L77.1443 2.9473ZM91.5869 24.5723V2.45312H89.5869V24.5723H91.5869ZM90.5869 3.45312H99.1318V1.45312H90.5869V3.45312ZM98.1318 2.45312V38H100.132V2.45312H98.1318ZM134.239 38V39H135.239V38H134.239ZM125.719 38L124.85 38.4949L125.137 39H125.719V38ZM113.121 15.8809L113.99 15.386L112.121 12.1044V15.8809H113.121ZM113.121 38V39H114.121V38H113.121ZM104.552 38H103.552V39H104.552V38ZM104.552 2.45312V1.45312H103.552V2.45312H104.552ZM113.121 2.45312L113.99 1.95895L113.703 1.45312H113.121V2.45312ZM125.694 24.5723L124.825 25.0664L126.694 28.3551V24.5723H125.694ZM125.694 2.45312V1.45312H124.694V2.45312H125.694ZM134.239 2.45312H135.239V1.45312H134.239V2.45312ZM134.239 37H125.719V39H134.239V37ZM126.588 37.5051L113.99 15.386L112.252 16.3758L124.85 38.4949L126.588 37.5051ZM112.121 15.8809V38H114.121V15.8809H112.121ZM113.121 37H104.552V39H113.121V37ZM105.552 38V2.45312H103.552V38H105.552ZM104.552 3.45312H113.121V1.45312H104.552V3.45312ZM112.252 2.9473L124.825 25.0664L126.564 24.0781L113.99 1.95895L112.252 2.9473ZM126.694 24.5723V2.45312H124.694V24.5723H126.694ZM125.694 3.45312H134.239V1.45312H125.694V3.45312ZM133.239 2.45312V38H135.239V2.45312H133.239ZM161.705 22.9365V23.9365H162.705V22.9365H161.705ZM148.229 22.9365V21.9365H147.229V22.9365H148.229ZM148.229 31.4082H147.229V32.4082H148.229V31.4082ZM164.146 31.4082H165.146V30.4082H164.146V31.4082ZM164.146 38V39H165.146V38H164.146ZM139.659 38H138.659V39H139.659V38ZM139.659 2.45312V1.45312H138.659V2.45312H139.659ZM164.195 2.45312H165.195V1.45312H164.195V2.45312ZM164.195 9.06934V10.0693H165.195V9.06934H164.195ZM148.229 9.06934V8.06934H147.229V9.06934H148.229ZM148.229 16.5645H147.229V17.5645H148.229V16.5645ZM161.705 16.5645H162.705V15.5645H161.705V16.5645ZM161.705 21.9365H148.229V23.9365H161.705V21.9365ZM147.229 22.9365V31.4082H149.229V22.9365H147.229ZM148.229 32.4082H164.146V30.4082H148.229V32.4082ZM163.146 31.4082V38H165.146V31.4082H163.146ZM164.146 37H139.659V39H164.146V37ZM140.659 38V2.45312H138.659V38H140.659ZM139.659 3.45312H164.195V1.45312H139.659V3.45312ZM163.195 2.45312V9.06934H165.195V2.45312H163.195ZM164.195 8.06934H148.229V10.0693H164.195V8.06934ZM147.229 9.06934V16.5645H149.229V9.06934H147.229ZM148.229 17.5645H161.705V15.5645H148.229V17.5645ZM160.705 16.5645V22.9365H162.705V16.5645H160.705ZM196.397 25.9639L197.396 26.0099L197.445 24.9639H196.397V25.9639ZM194.396 32.5312L195.235 33.0742L195.237 33.0709L194.396 32.5312ZM189.244 36.9258L188.818 36.021L188.816 36.0222L189.244 36.9258ZM168.443 10.1436L167.537 9.72128L167.536 9.72378L168.443 10.1436ZM173.692 4.08887L174.22 4.93824L174.225 4.9355L173.692 4.08887ZM192.003 5.3584L191.347 6.11301L191.349 6.11533L192.003 5.3584ZM196.471 14.7334V15.7334H197.565L197.467 14.644L196.471 14.7334ZM187.926 14.7334L186.926 14.7635L186.955 15.7334H187.926V14.7334ZM175.353 18.6885L174.353 18.6745V18.6885H175.353ZM176.769 29.333L175.904 29.8347L175.907 29.8412L176.769 29.333ZM187.877 25.9639V24.9639H186.909L186.877 25.9316L187.877 25.9639ZM195.399 25.9179C195.292 28.2335 194.671 30.249 193.554 31.9916L195.237 33.0709C196.562 31.0049 197.275 28.6422 197.396 26.0099L195.399 25.9179ZM193.556 31.9883C192.445 33.7056 190.878 35.0516 188.818 36.021L189.67 37.8306C192.037 36.7166 193.904 35.1329 195.235 33.0742L193.556 31.9883ZM188.816 36.0222C186.773 36.9907 184.408 37.4883 181.7 37.4883V39.4883C184.656 39.4883 187.321 38.9442 189.673 37.8294L188.816 36.0222ZM181.7 37.4883C177.268 37.4883 173.881 36.0562 171.415 33.2612L169.915 34.5845C172.82 37.8767 176.79 39.4883 181.7 39.4883V37.4883ZM171.415 33.2612C168.941 30.4581 167.637 26.4287 167.637 21.0322H165.637C165.637 26.736 167.017 31.3004 169.915 34.5845L171.415 33.2612ZM167.637 21.0322V19.2744H165.637V21.0322H167.637ZM167.637 19.2744C167.637 15.9059 168.219 13.0109 169.351 10.5633L167.536 9.72378C166.259 12.4846 165.637 15.6768 165.637 19.2744H167.637ZM169.35 10.5658C170.495 8.10723 172.119 6.24368 174.22 4.93823L173.165 3.23951C170.708 4.76609 168.833 6.93899 167.537 9.72129L169.35 10.5658ZM174.225 4.9355C176.326 3.61447 178.774 2.94043 181.603 2.94043V0.94043C178.441 0.94043 175.616 1.69869 173.16 3.24223L174.225 4.9355ZM181.603 2.94043C185.735 2.94043 188.949 4.02825 191.347 6.113L192.659 4.60379C189.816 2.13125 186.096 0.94043 181.603 0.94043V2.94043ZM191.349 6.11533C193.743 8.18149 195.136 11.0501 195.475 14.8228L197.467 14.644C197.089 10.4414 195.504 7.06005 192.656 4.60147L191.349 6.11533ZM196.471 13.7334H187.926V15.7334H196.471V13.7334ZM188.925 14.7033C188.857 12.4153 188.277 10.5403 186.967 9.33461L185.613 10.806C186.354 11.4883 186.865 12.7221 186.926 14.7635L188.925 14.7033ZM186.967 9.33461C185.683 8.15213 183.829 7.6543 181.603 7.6543V9.6543C183.575 9.6543 184.846 10.1005 185.613 10.806L186.967 9.33461ZM181.603 7.6543C179.18 7.6543 177.269 8.58614 176.066 10.5184L177.764 11.5753C178.547 10.3175 179.761 9.6543 181.603 9.6543V7.6543ZM176.066 10.5184C174.925 12.3515 174.402 15.1262 174.353 18.6745L176.352 18.7024C176.401 15.2521 176.919 12.9324 177.764 11.5753L176.066 10.5184ZM174.353 18.6885V21.2031H176.353V18.6885H174.353ZM174.353 21.2031C174.353 25.0261 174.819 27.965 175.904 29.8347L177.634 28.8313C176.83 27.4458 176.353 24.9647 176.353 21.2031H174.353ZM175.907 29.8412C177.091 31.8477 179.114 32.7744 181.7 32.7744V30.7744C179.631 30.7744 178.367 30.0735 177.63 28.8249L175.907 29.8412ZM181.7 32.7744C183.814 32.7744 185.594 32.2767 186.882 31.1296L185.552 29.636C184.756 30.3444 183.525 30.7744 181.7 30.7744V32.7744ZM186.882 31.1296C188.205 29.9509 188.806 28.1644 188.876 25.9961L186.877 25.9316C186.817 27.7998 186.312 28.9592 185.552 29.636L186.882 31.1296ZM187.877 26.9639H196.397V24.9639H187.877V26.9639ZM227.623 9.06934V10.0693H228.623V9.06934H227.623ZM216.954 9.06934V8.06934H215.954V9.06934H216.954ZM216.954 38V39H217.954V38H216.954ZM208.385 38H207.385V39H208.385V38ZM208.385 9.06934H209.385V8.06934H208.385V9.06934ZM197.911 9.06934H196.911V10.0693H197.911V9.06934ZM197.911 2.45312V1.45312H196.911V2.45312H197.911ZM227.623 2.45312H228.623V1.45312H227.623V2.45312ZM227.623 8.06934H216.954V10.0693H227.623V8.06934ZM215.954 9.06934V38H217.954V9.06934H215.954ZM216.954 37H208.385V39H216.954V37ZM209.385 38V9.06934H207.385V38H209.385ZM208.385 8.06934H197.911V10.0693H208.385V8.06934ZM198.911 9.06934V2.45312H196.911V9.06934H198.911ZM197.911 3.45312H227.623V1.45312H197.911V3.45312ZM226.623 2.45312V9.06934H228.623V2.45312H226.623Z" fill="white"/>
</svg>
