<svg width="206" height="49" viewBox="0 0 206 49" fill="none" xmlns="http://www.w3.org/2000/svg">
<path d="M37.9863 46V48H39.9863V46H37.9863ZM27.7617 46H25.7617V48H27.7617V46ZM27.7617 28.1875H29.7617V26.1875H27.7617V28.1875ZM12.6152 28.1875V26.1875H10.6152V28.1875H12.6152ZM12.6152 46V48H14.6152V46H12.6152ZM2.33203 46H0.332031V48H2.33203V46ZM2.33203 3.34375V1.34375H0.332031V3.34375H2.33203ZM12.6152 3.34375H14.6152V1.34375H12.6152V3.34375ZM12.6152 20.2773H10.6152V22.2773H12.6152V20.2773ZM27.7617 20.2773V22.2773H29.7617V20.2773H27.7617ZM27.7617 3.34375V1.34375H25.7617V3.34375H27.7617ZM37.9863 3.34375H39.9863V1.34375H37.9863V3.34375ZM37.9863 44H27.7617V48H37.9863V44ZM29.7617 46V28.1875H25.7617V46H29.7617ZM27.7617 26.1875H12.6152V30.1875H27.7617V26.1875ZM10.6152 28.1875V46H14.6152V28.1875H10.6152ZM12.6152 44H2.33203V48H12.6152V44ZM4.33203 46V3.34375H0.332031V46H4.33203ZM2.33203 5.34375H12.6152V1.34375H2.33203V5.34375ZM10.6152 3.34375V20.2773H14.6152V3.34375H10.6152ZM12.6152 22.2773H27.7617V18.2773H12.6152V22.2773ZM29.7617 20.2773V3.34375H25.7617V20.2773H29.7617ZM27.7617 5.34375H37.9863V1.34375H27.7617V5.34375ZM35.9863 3.34375V46H39.9863V3.34375H35.9863ZM71.7363 44.0078L72.774 45.7176L72.7773 45.7155L71.7363 44.0078ZM52.3711 44.0957L51.3456 45.8128L51.3544 45.818L52.3711 44.0957ZM45.7793 36.918L43.9927 37.8169L43.9972 37.8258L45.7793 36.918ZM43.3184 26.2246H41.3184V26.244L41.3187 26.2634L43.3184 26.2246ZM45.6035 12.7773L43.8017 11.9094L43.7994 11.914L45.6035 12.7773ZM52.1953 5.36523L51.1595 3.65436L51.1543 3.65752L52.1953 5.36523ZM78.2402 12.6895L76.4448 13.5706L76.4481 13.5773L76.4514 13.5839L78.2402 12.6895ZM80.6426 23.5879H82.6426L82.6426 23.5784L80.6426 23.5879ZM68.0449 14.125L66.3582 15.1997L66.3638 15.2084L66.3694 15.2171L68.0449 14.125ZM53.8066 22.416L51.8081 22.3403L51.807 22.3688L51.8067 22.3973L53.8066 22.416ZM53.7773 25.5508L51.7774 25.5321L51.7773 25.5414V25.5508H53.7773ZM55.8574 35.1895L54.1556 36.2401L55.8574 35.1895ZM70.1836 25.7266L72.1836 25.736V25.7266H70.1836ZM78.6426 25.5508C78.6426 29.4613 77.9184 32.8377 76.5263 35.7277L80.13 37.4637C81.8238 33.9474 82.6426 29.9606 82.6426 25.5508H78.6426ZM76.5263 35.7277C75.1393 38.607 73.196 40.7757 70.6953 42.3001L72.7773 45.7155C75.9798 43.7634 78.431 40.9907 80.13 37.4637L76.5263 35.7277ZM70.6987 42.298C68.2093 43.8089 65.3425 44.5859 62.0391 44.5859V48.5859C66.0013 48.5859 69.5993 47.6443 72.774 45.7176L70.6987 42.298ZM62.0391 44.5859C58.7226 44.5859 55.8586 43.8319 53.3877 42.3734L51.3544 45.818C54.5086 47.6798 58.0899 48.5859 62.0391 48.5859V44.5859ZM53.3966 42.3786C50.9284 40.9046 48.9839 38.8024 47.5614 36.0101L43.9972 37.8258C45.7388 41.2445 48.1888 43.9275 51.3456 45.8128L53.3966 42.3786ZM47.5659 36.0191C46.1575 33.2198 45.3912 29.9572 45.318 26.1858L41.3187 26.2634C41.4018 30.5389 42.2761 34.4052 43.9927 37.8169L47.5659 36.0191ZM45.3184 26.2246V23.8223H41.3184V26.2246H45.3184ZM45.3184 23.8223C45.3184 19.8868 46.0348 16.5095 47.4076 13.6406L43.7994 11.914C42.1254 15.4124 41.3184 19.3983 41.3184 23.8223H45.3184ZM47.4054 13.6453C48.7923 10.7661 50.7356 8.59735 53.2363 7.07295L51.1543 3.65752C47.9519 5.60968 45.5007 8.38236 43.8017 11.9094L47.4054 13.6453ZM53.2311 7.0761C55.7625 5.54351 58.66 4.75781 61.9805 4.75781V0.757812C57.9963 0.757812 54.3703 1.7104 51.1595 3.65437L53.2311 7.0761ZM61.9805 4.75781C65.2622 4.75781 68.1197 5.53385 70.6108 7.0457L72.6861 3.62618C69.5131 1.70052 65.9253 0.757812 61.9805 0.757812V4.75781ZM70.6108 7.0457C73.093 8.55217 75.0382 10.7047 76.4448 13.5706L80.0357 11.8083C78.3173 8.30705 75.8679 5.55721 72.6861 3.62618L70.6108 7.0457ZM76.4514 13.5839C77.8757 16.4324 78.6243 19.7542 78.6426 23.5974L82.6426 23.5784C82.6218 19.2185 81.7689 15.2746 80.0291 11.795L76.4514 13.5839ZM78.6426 23.5879V25.5508H82.6426V23.5879H78.6426ZM72.1836 23.7637C72.1836 19.3567 71.4522 15.6899 69.7204 13.0329L66.3694 15.2171C67.4892 16.9351 68.1836 19.6941 68.1836 23.7637H72.1836ZM69.7316 13.0503C67.9548 10.2616 65.2943 8.81445 61.9805 8.81445V12.8145C63.9401 12.8145 65.3226 13.5743 66.3582 15.1997L69.7316 13.0503ZM61.9805 8.81445C58.8204 8.81445 56.2096 10.0439 54.4349 12.5629C52.7494 14.9551 51.9608 18.3088 51.8081 22.3403L55.8052 22.4917C55.9455 18.7889 56.6656 16.3417 57.7048 14.8668C58.6547 13.5186 59.9843 12.8145 61.9805 12.8145V8.81445ZM51.8067 22.3973L51.7774 25.5321L55.7773 25.5695L55.8066 22.4347L51.8067 22.3973ZM51.7773 25.5508C51.7773 29.9043 52.4913 33.5444 54.1556 36.2401L57.5592 34.1388C56.4501 32.3423 55.7773 29.5567 55.7773 25.5508H51.7773ZM54.1556 36.2401C55.9223 39.1016 58.6415 40.5586 62.0391 40.5586V36.5586C59.9679 36.5586 58.566 35.7695 57.5592 34.1388L54.1556 36.2401ZM62.0391 40.5586C65.3263 40.5586 67.9615 39.1009 69.7316 36.3228L66.3582 34.1733C65.3159 35.8092 63.9472 36.5586 62.0391 36.5586V40.5586ZM69.7316 36.3228C71.4268 33.6623 72.1632 30.0534 72.1836 25.736L68.1836 25.7171C68.1649 29.681 67.4755 32.4198 66.3582 34.1733L69.7316 36.3228ZM72.1836 25.7266V23.7637H68.1836V25.7266H72.1836ZM118.992 30.0918L117.04 30.5259L120.96 30.4517L118.992 30.0918ZM123.885 3.34375V1.34375H122.217L121.917 2.98389L123.885 3.34375ZM134.08 3.34375L136.036 3.75895L136.549 1.34375H134.08V3.34375ZM125.027 46V48H126.647L126.984 46.4152L125.027 46ZM114.363 46L112.416 46.4574L112.779 48H114.363V46ZM108.65 21.6836L110.597 21.2262L106.701 21.2351L108.65 21.6836ZM103.055 46V48H104.647L105.004 46.4485L103.055 46ZM92.4199 46L90.4638 46.4165L90.8009 48H92.4199V46ZM83.3379 3.34375V1.34375H80.8672L81.3817 3.76024L83.3379 3.34375ZM93.5625 3.34375L95.5299 2.98389L95.2299 1.34375H93.5625V3.34375ZM98.4551 30.0918L96.4877 30.4517L100.409 30.5198L98.4551 30.0918ZM104.314 3.34375V1.34375H102.705L102.361 2.91578L104.314 3.34375ZM113.045 3.34375L114.997 2.90966L114.649 1.34375H113.045V3.34375ZM120.96 30.4517L125.852 3.70361L121.917 2.98389L117.025 29.7319L120.96 30.4517ZM123.885 5.34375H134.08V1.34375H123.885V5.34375ZM132.124 2.92855L123.071 45.5848L126.984 46.4152L136.036 3.75895L132.124 2.92855ZM125.027 44H114.363V48H125.027V44ZM116.31 45.5426L110.597 21.2262L106.703 22.141L112.416 46.4574L116.31 45.5426ZM106.701 21.2351L101.106 45.5515L105.004 46.4485L110.599 22.1321L106.701 21.2351ZM103.055 44H92.4199V48H103.055V44ZM94.3761 45.5835L85.294 2.92726L81.3817 3.76024L90.4638 46.4165L94.3761 45.5835ZM83.3379 5.34375H93.5625V1.34375H83.3379V5.34375ZM91.5951 3.70361L96.4877 30.4517L100.422 29.7319L95.5299 2.98389L91.5951 3.70361ZM100.409 30.5198L106.268 3.77172L102.361 2.91578L96.5014 29.6638L100.409 30.5198ZM104.314 5.34375H113.045V1.34375H104.314V5.34375ZM111.093 3.77784L117.04 30.5259L120.945 29.6577L114.997 2.90966L111.093 3.77784ZM163.992 46V48H165.992V46H163.992ZM153.738 46H151.738V48H153.738V46ZM153.738 3.34375V1.34375H151.738V3.34375H153.738ZM163.992 3.34375H165.992V1.34375H163.992V3.34375ZM163.992 44H153.738V48H163.992V44ZM155.738 46V3.34375H151.738V46H155.738ZM153.738 5.34375H163.992V1.34375H153.738V5.34375ZM161.992 3.34375V46H165.992V3.34375H161.992ZM203.748 11.2832V13.2832H205.748V11.2832H203.748ZM190.945 11.2832V9.2832H188.945V11.2832H190.945ZM190.945 46V48H192.945V46H190.945ZM180.662 46H178.662V48H180.662V46ZM180.662 11.2832H182.662V9.2832H180.662V11.2832ZM168.094 11.2832H166.094V13.2832H168.094V11.2832ZM168.094 3.34375V1.34375H166.094V3.34375H168.094ZM203.748 3.34375H205.748V1.34375H203.748V3.34375ZM203.748 9.2832H190.945V13.2832H203.748V9.2832ZM188.945 11.2832V46H192.945V11.2832H188.945ZM190.945 44H180.662V48H190.945V44ZM182.662 46V11.2832H178.662V46H182.662ZM180.662 9.2832H168.094V13.2832H180.662V9.2832ZM170.094 11.2832V3.34375H166.094V11.2832H170.094ZM168.094 5.34375H203.748V1.34375H168.094V5.34375ZM201.748 3.34375V11.2832H205.748V3.34375H201.748Z" fill="white"/>
</svg>
