<svg width="157" height="32" viewBox="0 0 157 32" fill="none" xmlns="http://www.w3.org/2000/svg">
<path d="M13.9805 1.5625V0.5625L12.9805 0.5625V1.5625L13.9805 1.5625ZM20.8164 1.5625H21.8164V0.5625H20.8164V1.5625ZM19.5469 25.918L18.688 25.4058L18.6845 25.4116L19.5469 25.918ZM16.0312 29.2187L15.5718 28.3305L15.5687 28.3322L16.0312 29.2187ZM1.20703 21.4062V20.4062H0.207031V21.4062H1.20703ZM8.08203 21.4062H9.08203V20.4062H8.08203V21.4062ZM8.74609 24.2383L7.94815 24.8412L7.95674 24.8522L8.74609 24.2383ZM13.1992 24.0625L12.3905 23.4743L12.3885 23.477L13.1992 24.0625ZM13.9805 2.5625H20.8164V0.5625L13.9805 0.5625V2.5625ZM19.8164 1.5625V21.0742H21.8164V1.5625L19.8164 1.5625ZM19.8164 21.0742C19.8164 22.7215 19.4333 24.1559 18.688 25.4058L20.4058 26.4301C21.3531 24.8415 21.8164 23.0467 21.8164 21.0742H19.8164ZM18.6845 25.4116C17.9501 26.6625 16.9205 27.633 15.5718 28.3305L16.4907 30.107C18.1629 29.242 19.477 28.0119 20.4092 26.4243L18.6845 25.4116ZM15.5687 28.3322C14.2273 29.032 12.7152 29.3906 11.0117 29.3906V31.3906C13.0062 31.3906 14.8404 30.968 16.4938 30.1053L15.5687 28.3322ZM11.0117 29.3906C8.07688 29.3906 5.93824 28.6528 4.45783 27.3069L3.11248 28.7868C5.06957 30.566 7.74863 31.3906 11.0117 31.3906V29.3906ZM4.45783 27.3069C2.99474 25.9769 2.20703 24.0599 2.20703 21.4062H0.207031C0.207031 24.4818 1.13807 26.9919 3.11248 28.7868L4.45783 27.3069ZM1.20703 22.4062H8.08203V20.4062H1.20703V22.4062ZM7.08203 21.4062C7.08203 22.7768 7.30643 23.9917 7.94823 24.8411L9.54396 23.6354C9.30035 23.313 9.08203 22.6398 9.08203 21.4062H7.08203ZM7.95674 24.8522C8.67242 25.7724 9.78509 26.1172 11.0117 26.1172V24.1172C10.129 24.1172 9.73122 23.876 9.53545 23.6243L7.95674 24.8522ZM11.0117 26.1172C12.2475 26.1172 13.294 25.6392 14.0099 24.648L12.3885 23.477C12.0888 23.8921 11.677 24.1172 11.0117 24.1172V26.1172ZM14.008 24.6507C14.6971 23.7031 14.9805 22.472 14.9805 21.0742H12.9805C12.9805 22.2286 12.743 22.9896 12.3905 23.4743L14.008 24.6507ZM14.9805 21.0742V1.5625L12.9805 1.5625V21.0742H14.9805ZM47.6914 23.7305L46.7905 23.2965L47.6914 23.7305ZM43.2969 28.6719L43.8157 29.5268L43.8174 29.5257L43.2969 28.6719ZM30.3867 28.7305L29.874 29.589L29.8784 29.5916L30.3867 28.7305ZM25.9922 23.9453L25.0989 24.3948L25.1012 24.3992L25.9922 23.9453ZM24.3516 16.8164H23.3516V16.8261L23.3518 16.8358L24.3516 16.8164ZM25.875 7.85156L24.9741 7.41758L24.973 7.41991L25.875 7.85156ZM30.2695 2.91016L29.7516 2.05472L29.749 2.0563L30.2695 2.91016ZM43.2383 2.89062L42.7195 3.74551L43.2383 2.89062ZM47.6328 7.79297L46.7351 8.23357L46.7384 8.24018L47.6328 7.79297ZM49.2344 15.0586H50.2344L50.2344 15.0538L49.2344 15.0586ZM40.8359 8.75L39.9925 9.28739L39.9982 9.29604L40.8359 8.75ZM31.3438 14.2773L30.3445 14.2395L30.3439 14.2537L30.3438 14.268L31.3438 14.2773ZM31.3242 16.3672L30.3242 16.3578V16.3672H31.3242ZM32.7109 22.793L31.86 23.3183L32.7109 22.793ZM42.2617 16.4844L43.2617 16.4891V16.4844H42.2617ZM48.2344 16.3672C48.2344 19.0158 47.7437 21.3176 46.7905 23.2965L48.5923 24.1644C49.6964 21.8725 50.2344 19.2655 50.2344 16.3672H48.2344ZM46.7905 23.2965C45.8399 25.27 44.502 26.7661 42.7764 27.818L43.8174 29.5257C45.8939 28.2599 47.4857 26.4618 48.5923 24.1644L46.7905 23.2965ZM42.7781 27.817C41.0613 28.8589 39.0892 29.3906 36.832 29.3906V31.3906C39.4186 31.3906 41.7564 30.7766 43.8157 29.5268L42.7781 27.817ZM36.832 29.3906C34.5684 29.3906 32.5992 28.8752 30.895 27.8693L29.8784 29.5916C31.9242 30.7992 34.252 31.3906 36.832 31.3906V29.3906ZM30.8995 27.8719C29.1966 26.8549 27.8581 25.4051 26.8832 23.4914L25.1012 24.3992C26.2356 26.6262 27.8268 28.3664 29.874 29.589L30.8995 27.8719ZM26.8855 23.4959C25.9209 21.5786 25.401 19.3533 25.3514 16.797L23.3518 16.8358C23.4063 19.6441 23.9802 22.1714 25.0989 24.3948L26.8855 23.4959ZM25.3516 16.8164V15.2148H23.3516V16.8164H25.3516ZM25.3516 15.2148C25.3516 12.5505 25.8367 10.2482 26.777 8.28321L24.973 7.41991C23.882 9.69968 23.3516 12.3063 23.3516 15.2148H25.3516ZM26.7759 8.28554C27.7266 6.31207 29.0644 4.81593 30.79 3.76402L29.749 2.0563C27.6726 3.32209 26.0807 5.12022 24.9741 7.41758L26.7759 8.28554ZM30.7874 3.76559C32.5316 2.70958 34.524 2.17187 36.793 2.17187V0.171875C34.1921 0.171875 31.8355 0.793025 29.7516 2.05472L30.7874 3.76559ZM36.793 2.17187C39.036 2.17187 41.0019 2.70312 42.7195 3.74551L43.7571 2.03574C41.6986 0.786459 39.3676 0.171875 36.793 0.171875V2.17187ZM42.7195 3.74551C44.4326 4.7852 45.7714 6.26998 46.7351 8.23356L48.5305 7.35238C47.4109 5.07117 45.82 3.28772 43.7571 2.03574L42.7195 3.74551ZM46.7384 8.24018C47.7142 10.1918 48.222 12.4581 48.2344 15.0634L50.2344 15.0538C50.2207 12.1903 49.6608 9.61288 48.5272 7.34576L46.7384 8.24018ZM48.2344 15.0586V16.3672H50.2344V15.0586H48.2344ZM43.2617 15.1758C43.2617 12.2659 42.7772 9.89704 41.6737 8.20396L39.9982 9.29604C40.7957 10.5196 41.2617 12.4346 41.2617 15.1758H43.2617ZM41.6793 8.21264C40.5565 6.45048 38.8893 5.54297 36.793 5.54297V7.54297C38.2122 7.54297 39.2404 8.10682 39.9926 9.28736L41.6793 8.21264ZM36.793 5.54297C34.7832 5.54297 33.1495 6.31885 32.0351 7.90061C30.9653 9.41897 30.4452 11.5792 30.3445 14.2395L32.343 14.3152C32.4376 11.8192 32.9234 10.1123 33.67 9.05252C34.372 8.05615 35.3652 7.54297 36.793 7.54297V5.54297ZM30.3438 14.268L30.3243 16.3578L32.3242 16.3765L32.3437 14.2867L30.3438 14.268ZM30.3242 16.3672C30.3242 19.2405 30.7968 21.5961 31.86 23.3183L33.5618 22.2676C32.7762 20.9951 32.3242 19.0667 32.3242 16.3672H30.3242ZM31.86 23.3183C32.9745 25.1234 34.6775 26.0391 36.832 26.0391V24.0391C35.3407 24.0391 34.2963 23.4573 33.5618 22.2676L31.86 23.3183ZM36.832 26.0391C38.9086 26.0391 40.5598 25.1263 41.6793 23.3694L39.9926 22.2947C39.237 23.4805 38.219 24.0391 36.832 24.0391V26.0391ZM41.6793 23.3694C42.7613 21.6713 43.2483 19.3379 43.2617 16.4891L41.2617 16.4797C41.2491 19.1517 40.7856 21.0501 39.9926 22.2947L41.6793 23.3694ZM43.2617 16.4844V15.1758H41.2617V16.4844H43.2617ZM63.3359 19.9609L64.2304 19.5137L63.954 18.9609H63.3359V19.9609ZM59.625 19.9609V18.9609H58.625V19.9609H59.625ZM59.625 30V31H60.625V30H59.625ZM52.7695 30H51.7695V31H52.7695V30ZM52.7695 1.5625V0.5625H51.7695V1.5625H52.7695ZM71.8711 3.80859L72.4899 3.02302L71.8711 3.80859ZM73.5117 15.0781L72.6618 14.5512L72.658 14.5574L73.5117 15.0781ZM69.7617 18.2422L69.3339 17.3383L68.3971 17.7817L68.8737 18.7021L69.7617 18.2422ZM75.6992 29.707H76.6992V29.4635L76.5872 29.2472L75.6992 29.707ZM75.6992 30V31H76.6992V30H75.6992ZM68.3555 30L67.461 30.4472L67.7374 31H68.3555V30ZM59.625 14.668H58.625V15.668H59.625V14.668ZM66.8906 13.6523L66.1701 12.959L66.1698 12.9592L66.8906 13.6523ZM66.8906 7.91016L66.1636 8.59681L66.1701 8.60354L66.8906 7.91016ZM59.625 6.85547V5.85547H58.625V6.85547H59.625ZM63.3359 18.9609H59.625V20.9609H63.3359V18.9609ZM58.625 19.9609V30H60.625V19.9609H58.625ZM59.625 29H52.7695V31H59.625V29ZM53.7695 30V1.5625H51.7695V30H53.7695ZM52.7695 2.5625L63.9609 2.5625V0.5625L52.7695 0.5625V2.5625ZM63.9609 2.5625C67.1957 2.5625 69.5855 3.28126 71.2523 4.59416L72.4899 3.02302C70.3546 1.34113 67.4709 0.5625 63.9609 0.5625V2.5625ZM71.2523 4.59416C72.8792 5.87564 73.7227 7.68312 73.7227 10.1562H75.7227C75.7227 7.16063 74.665 4.73634 72.4899 3.02302L71.2523 4.59416ZM73.7227 10.1562C73.7227 12.0027 73.3462 13.4473 72.6618 14.5512L74.3616 15.6051C75.2918 14.1047 75.7227 12.2682 75.7227 10.1562H73.7227ZM72.658 14.5574C71.9871 15.6573 70.9053 16.5946 69.3339 17.3383L70.1895 19.1461C72.0296 18.2752 73.4478 17.1031 74.3654 15.5989L72.658 14.5574ZM68.8737 18.7021L74.8112 30.1669L76.5872 29.2472L70.6497 17.7823L68.8737 18.7021ZM74.6992 29.707V30L76.6992 30V29.707L74.6992 29.707ZM75.6992 29L68.3555 29V31L75.6992 31V29ZM69.2499 29.5528L64.2304 19.5137L62.4415 20.4082L67.461 30.4472L69.2499 29.5528ZM59.625 15.668L63.9609 15.668V13.668L59.625 13.668V15.668ZM63.9609 15.668C65.4274 15.668 66.7084 15.2846 67.6115 14.3455L66.1698 12.9592C65.7708 13.3742 65.0987 13.668 63.9609 13.668V15.668ZM67.6112 14.3457C68.5005 13.4215 68.8867 12.1889 68.8867 10.7812L66.8867 10.7812C66.8867 11.8216 66.6089 12.5029 66.1701 12.959L67.6112 14.3457ZM68.8867 10.7812C68.8867 9.37365 68.5005 8.14097 67.6112 7.21678L66.1701 8.60354C66.6089 9.05955 66.8867 9.74093 66.8867 10.7812L68.8867 10.7812ZM67.6176 7.22353C66.7078 6.26021 65.4296 5.85547 63.9609 5.85547V7.85547C65.0704 7.85547 65.7453 8.15386 66.1636 8.59678L67.6176 7.22353ZM63.9609 5.85547H59.625V7.85547H63.9609V5.85547ZM58.625 6.85547V14.668L60.625 14.668V6.85547H58.625ZM78.8633 30H77.8633V31H78.8633V30ZM78.8633 1.5625V0.5625L77.8633 0.5625V1.5625L78.8633 1.5625ZM94.8008 3.28125L94.3046 4.1495L94.3089 4.15192L94.8008 3.28125ZM99.4883 8.10547L98.6074 8.57893L98.611 8.58548L99.4883 8.10547ZM101.207 15.0781H102.207L102.207 15.0731L101.207 15.0781ZM99.5469 23.3984L98.665 22.927L98.6639 22.929L99.5469 23.3984ZM94.8984 28.2422L95.4013 29.1066L95.403 29.1056L94.8984 28.2422ZM88.2188 30V31L88.224 31L88.2188 30ZM85.7188 6.85547V5.85547H84.7188V6.85547H85.7188ZM85.7188 24.7266H84.7188V25.7266H85.7188V24.7266ZM92.6328 22.6367L93.4301 23.2403L93.4328 23.2367L92.6328 22.6367ZM92.6328 8.94531L93.4301 8.34174L92.6328 8.94531ZM79.8633 30V1.5625L77.8633 1.5625V30H79.8633ZM78.8633 2.5625L88.0234 2.5625V0.5625L78.8633 0.5625V2.5625ZM88.0234 2.5625C90.3782 2.5625 92.4637 3.09751 94.3046 4.14949L95.2969 2.41301C93.1275 1.17332 90.6947 0.5625 88.0234 0.5625V2.5625ZM94.3089 4.15192C96.1449 5.18914 97.5746 6.65735 98.6075 8.57891L100.369 7.63203C99.1624 5.38692 97.4671 3.63899 95.2926 2.41058L94.3089 4.15192ZM98.611 8.58548C99.6569 10.4969 100.195 12.6554 100.207 15.0832L102.207 15.0731C102.193 12.3446 101.585 9.85463 100.366 7.62546L98.611 8.58548ZM100.207 15.0781V16.3867H102.207V15.0781H100.207ZM100.207 16.3867C100.207 18.8447 99.686 21.017 98.665 22.927L100.429 23.8699C101.621 21.6392 102.207 19.1371 102.207 16.3867H100.207ZM98.6639 22.929C97.657 24.823 96.2383 26.3009 94.3939 27.3788L95.403 29.1056C97.569 27.8397 99.2493 26.0885 100.43 23.8679L98.6639 22.929ZM94.3956 27.3778C92.5648 28.4428 90.5118 28.9879 88.2135 29L88.224 31C90.8475 30.9861 93.2477 30.3593 95.4013 29.1066L94.3956 27.3778ZM88.2188 29H78.8633V31H88.2188V29ZM84.7188 6.85547V24.7266H86.7188V6.85547L84.7188 6.85547ZM85.7188 25.7266H88.1016V23.7266H85.7188V25.7266ZM88.1016 25.7266C90.336 25.7266 92.1609 24.917 93.4301 23.2403L91.8355 22.0331C90.9954 23.1429 89.7994 23.7266 88.1016 23.7266V25.7266ZM93.4328 23.2367C94.6726 21.5836 95.2148 19.2483 95.2148 16.3867H93.2148C93.2148 19.0459 92.7024 20.8773 91.8328 22.0367L93.4328 23.2367ZM95.2148 16.3867V15.1562H93.2148V16.3867H95.2148ZM95.2148 15.1562C95.2148 12.3074 94.6725 9.98297 93.4301 8.34174L91.8355 9.54888C92.7025 10.6941 93.2148 12.5103 93.2148 15.1562H95.2148ZM93.4301 8.34174C92.1554 6.65791 90.2997 5.85547 88.0234 5.85547V7.85547C89.7836 7.85547 91.0008 8.44626 91.8355 9.54888L93.4301 8.34174ZM88.0234 5.85547H85.7188V7.85547L88.0234 7.85547V5.85547ZM120.445 24.6875L121.4 24.3892L121.18 23.6875H120.445V24.6875ZM111.051 24.6875V23.6875H110.313L110.095 24.3924L111.051 24.6875ZM109.41 30V31H110.148L110.366 30.2951L109.41 30ZM102.086 30L101.147 29.6557L100.654 31H102.086V30ZM112.516 1.5625V0.5625H111.817L111.577 1.21817L112.516 1.5625ZM118.961 1.5625L119.899 1.2159L119.658 0.5625H118.961V1.5625ZM129.469 30V31H130.904L130.407 29.6534L129.469 30ZM122.105 30L121.151 30.2983L121.37 31H122.105V30ZM112.691 19.3945L111.736 19.0994L111.336 20.3945H112.691V19.3945ZM118.805 19.3945V20.3945H120.163L119.76 19.0977L118.805 19.3945ZM115.738 9.53125L116.693 9.23437L115.735 6.15301L114.783 9.2361L115.738 9.53125ZM120.445 23.6875H111.051V25.6875H120.445V23.6875ZM110.095 24.3924L108.455 29.7049L110.366 30.2951L112.006 24.9826L110.095 24.3924ZM109.41 29H102.086V31H109.41V29ZM103.025 30.3443L113.454 1.90683L111.577 1.21817L101.147 29.6557L103.025 30.3443ZM112.516 2.5625L118.961 2.5625V0.5625L112.516 0.5625V2.5625ZM118.023 1.9091L128.531 30.3466L130.407 29.6534L119.899 1.2159L118.023 1.9091ZM129.469 29H122.105V31H129.469V29ZM123.06 29.7017L121.4 24.3892L119.491 24.9858L121.151 30.2983L123.06 29.7017ZM112.691 20.3945H118.805V18.3945L112.691 18.3945V20.3945ZM119.76 19.0977L116.693 9.23437L114.783 9.82812L117.85 19.6914L119.76 19.0977ZM114.783 9.2361L111.736 19.0994L113.647 19.6897L116.694 9.8264L114.783 9.2361ZM155.309 30V31H156.309V30H155.309ZM148.492 30L147.623 30.4949L147.911 31H148.492V30ZM138.414 12.3047L139.283 11.8098L137.414 8.52826V12.3047H138.414ZM138.414 30V31H139.414V30H138.414ZM131.559 30H130.559V31H131.559V30ZM131.559 1.5625V0.5625H130.559V1.5625H131.559ZM138.414 1.5625L139.283 1.06833L138.996 0.5625H138.414V1.5625ZM148.473 19.2578L147.603 19.752L149.473 23.0406V19.2578H148.473ZM148.473 1.5625V0.5625H147.473V1.5625H148.473ZM155.309 1.5625H156.309V0.5625H155.309V1.5625ZM155.309 29H148.492V31H155.309V29ZM149.361 29.5051L139.283 11.8098L137.545 12.7996L147.623 30.4949L149.361 29.5051ZM137.414 12.3047V30H139.414V12.3047H137.414ZM138.414 29L131.559 29V31L138.414 31V29ZM132.559 30V1.5625H130.559V30H132.559ZM131.559 2.5625H138.414V0.5625L131.559 0.5625V2.5625ZM137.545 2.05667L147.603 19.752L149.342 18.7636L139.283 1.06833L137.545 2.05667ZM149.473 19.2578V1.5625H147.473V19.2578H149.473ZM148.473 2.5625L155.309 2.5625V0.5625L148.473 0.5625V2.5625ZM154.309 1.5625V30H156.309V1.5625H154.309Z" fill="white"/>
</svg>
