<svg width="218" height="49" viewBox="0 0 218 49" fill="none" xmlns="http://www.w3.org/2000/svg">
<path d="M12.8438 38.0898H10.8438V40.0898H12.8438V38.0898ZM30.7441 38.0898H32.7441V36.0898H30.7441V38.0898ZM30.7441 46V48H32.7441V46H30.7441ZM2.56055 46H0.560547V48H2.56055V46ZM2.56055 3.34375V1.34375H0.560547V3.34375H2.56055ZM12.8438 3.34375H14.8438V1.34375H12.8438V3.34375ZM12.8438 40.0898H30.7441V36.0898H12.8438V40.0898ZM28.7441 38.0898V46H32.7441V38.0898H28.7441ZM30.7441 44H2.56055V48H30.7441V44ZM4.56055 46V3.34375H0.560547V46H4.56055ZM2.56055 5.34375H12.8438V1.34375H2.56055V5.34375ZM10.8438 3.34375V38.0898H14.8438V3.34375H10.8438ZM59.8945 38.0312L61.8035 37.4347L61.3649 36.0312H59.8945V38.0312ZM45.8027 38.0312V36.0312H44.3272L43.8918 37.4411L45.8027 38.0312ZM43.3418 46V48H44.8173L45.2527 46.5901L43.3418 46ZM32.3555 46L30.4778 45.3113L29.4917 48H32.3555V46ZM48 3.34375V1.34375H46.6032L46.1223 2.65509L48 3.34375ZM57.668 3.34375L59.544 2.65055L59.0611 1.34375H57.668V3.34375ZM73.4297 46V48H76.3009L75.3057 45.3068L73.4297 46ZM62.3848 46L60.4758 46.5965L60.9144 48H62.3848V46ZM48.2637 30.0918L46.3528 29.5015L45.5526 32.0918H48.2637V30.0918ZM57.4336 30.0918V32.0918H60.1498L59.3434 29.498L57.4336 30.0918ZM52.834 15.2969L54.7438 14.7031L52.8279 8.5404L50.9231 14.7066L52.834 15.2969ZM59.8945 36.0312H45.8027V40.0312H59.8945V36.0312ZM43.8918 37.4411L41.4308 45.4099L45.2527 46.5901L47.7137 38.6214L43.8918 37.4411ZM43.3418 44H32.3555V48H43.3418V44ZM34.2332 46.6887L49.8777 4.03241L46.1223 2.65509L30.4778 45.3113L34.2332 46.6887ZM48 5.34375H57.668V1.34375H48V5.34375ZM55.7919 4.03695L71.5537 46.6932L75.3057 45.3068L59.544 2.65055L55.7919 4.03695ZM73.4297 44H62.3848V48H73.4297V44ZM64.2937 45.4035L61.8035 37.4347L57.9856 38.6278L60.4758 46.5965L64.2937 45.4035ZM48.2637 32.0918H57.4336V28.0918H48.2637V32.0918ZM59.3434 29.498L54.7438 14.7031L50.9242 15.8906L55.5238 30.6855L59.3434 29.498ZM50.9231 14.7066L46.3528 29.5015L50.1746 30.6821L54.7449 15.8872L50.9231 14.7066ZM106.535 11.2832V13.2832H108.535V11.2832H106.535ZM93.7324 11.2832V9.2832H91.7324V11.2832H93.7324ZM93.7324 46V48H95.7324V46H93.7324ZM83.4492 46H81.4492V48H83.4492V46ZM83.4492 11.2832H85.4492V9.2832H83.4492V11.2832ZM70.8809 11.2832H68.8809V13.2832H70.8809V11.2832ZM70.8809 3.34375V1.34375H68.8809V3.34375H70.8809ZM106.535 3.34375H108.535V1.34375H106.535V3.34375ZM106.535 9.2832H93.7324V13.2832H106.535V9.2832ZM91.7324 11.2832V46H95.7324V11.2832H91.7324ZM93.7324 44H83.4492V48H93.7324V44ZM85.4492 46V11.2832H81.4492V46H85.4492ZM83.4492 9.2832H70.8809V13.2832H83.4492V9.2832ZM72.8809 11.2832V3.34375H68.8809V11.2832H72.8809ZM70.8809 5.34375H106.535V1.34375H70.8809V5.34375ZM104.535 3.34375V11.2832H108.535V3.34375H104.535ZM137.355 27.9238V29.9238H139.355V27.9238H137.355ZM121.184 27.9238V25.9238H119.184V27.9238H121.184ZM121.184 38.0898H119.184V40.0898H121.184V38.0898ZM140.285 38.0898H142.285V36.0898H140.285V38.0898ZM140.285 46V48H142.285V46H140.285ZM110.9 46H108.9V48H110.9V46ZM110.9 3.34375V1.34375H108.9V3.34375H110.9ZM140.344 3.34375H142.344V1.34375H140.344V3.34375ZM140.344 11.2832V13.2832H142.344V11.2832H140.344ZM121.184 11.2832V9.2832H119.184V11.2832H121.184ZM121.184 20.2773H119.184V22.2773H121.184V20.2773ZM137.355 20.2773H139.355V18.2773H137.355V20.2773ZM137.355 25.9238H121.184V29.9238H137.355V25.9238ZM119.184 27.9238V38.0898H123.184V27.9238H119.184ZM121.184 40.0898H140.285V36.0898H121.184V40.0898ZM138.285 38.0898V46H142.285V38.0898H138.285ZM140.285 44H110.9V48H140.285V44ZM112.9 46V3.34375H108.9V46H112.9ZM110.9 5.34375H140.344V1.34375H110.9V5.34375ZM138.344 3.34375V11.2832H142.344V3.34375H138.344ZM140.344 9.2832H121.184V13.2832H140.344V9.2832ZM119.184 11.2832V20.2773H123.184V11.2832H119.184ZM121.184 22.2773H137.355V18.2773H121.184V22.2773ZM135.355 20.2773V27.9238H139.355V20.2773H135.355ZM164.865 31.1465L163.619 32.711L163.626 32.7166L163.633 32.7221L164.865 31.1465ZM152.707 25.9316L153.593 24.1387L153.589 24.1365L152.707 25.9316ZM146.467 8.5L144.877 7.28637L144.875 7.28896L146.467 8.5ZM152.326 4.28125L153.062 6.14121L153.074 6.13621L152.326 4.28125ZM169.055 4.39844L168.232 6.22119L168.237 6.22364L169.055 4.39844ZM174.738 9.08594L173.072 10.1916L173.077 10.1991L174.738 9.08594ZM176.76 16V18H178.76V16H176.76ZM166.506 16H164.506V18H166.506V16ZM164.895 11.957L163.551 13.4382L163.557 13.4443L163.564 13.4504L164.895 11.957ZM156.223 11.752L157.432 13.3449L157.436 13.3415L156.223 11.752ZM156.398 17.8164L155.182 19.4036L155.19 19.4101L155.198 19.4164L156.398 17.8164ZM162.58 20.5703L161.963 22.4727L161.974 22.4763L162.58 20.5703ZM169.846 23.6172L168.846 25.3493L168.847 25.35L169.846 23.6172ZM151.564 44.7402L150.747 46.5657L150.755 46.5692L150.763 46.5725L151.564 44.7402ZM145.236 39.6426L143.558 40.731L143.564 40.7397L143.57 40.7485L145.236 39.6426ZM143.127 32.1719V30.1719H141.127V32.1719H143.127ZM153.439 32.1719H155.439V30.1719H153.439V32.1719ZM155.197 37.2402L153.833 38.7023L153.845 38.7141L153.858 38.7256L155.197 37.2402ZM164.982 37.7676L166.172 39.3753L166.177 39.3713L164.982 37.7676ZM168.477 34.6621C168.477 32.6153 167.711 30.8323 166.097 29.5709L163.633 32.7221C164.168 33.1404 164.477 33.7011 164.477 34.6621H168.477ZM166.111 29.5819C164.766 28.5107 162.615 27.5527 159.906 26.6431L158.633 30.435C161.275 31.3223 162.855 32.1026 163.619 32.711L166.111 29.5819ZM159.906 26.6431C157.279 25.7609 155.183 24.9244 153.593 24.1387L151.821 27.7246C153.63 28.6186 155.909 29.5203 158.633 30.435L159.906 26.6431ZM153.589 24.1365C148.505 21.6393 146.416 18.4874 146.416 14.7402H142.416C142.416 20.4853 145.855 24.7943 151.825 27.7268L153.589 24.1365ZM146.416 14.7402C146.416 12.7925 146.969 11.1427 148.058 9.71104L144.875 7.28896C143.23 9.45102 142.416 11.9614 142.416 14.7402H146.416ZM148.056 9.71363C149.185 8.23604 150.817 7.02856 153.061 6.14117L151.591 2.42133C148.796 3.52612 146.522 5.13115 144.877 7.28637L148.056 9.71363ZM153.074 6.13621C155.321 5.23025 157.894 4.75781 160.822 4.75781V0.757812C157.461 0.757812 154.37 1.30101 151.578 2.42629L153.074 6.13621ZM160.822 4.75781C163.648 4.75781 166.105 5.26092 168.232 6.22118L169.878 2.5757C167.16 1.34846 164.129 0.757812 160.822 0.757812V4.75781ZM168.237 6.22364C170.368 7.17832 171.953 8.5061 173.072 10.1916L176.405 7.98024C174.828 5.60327 172.624 3.80606 169.872 2.57323L168.237 6.22364ZM173.077 10.1991C174.187 11.8572 174.76 13.7684 174.76 16H178.76C178.76 13.0362 177.984 10.3381 176.4 7.97282L173.077 10.1991ZM176.76 14H166.506V18H176.76V14ZM168.506 16C168.506 13.8205 167.813 11.8785 166.225 10.4637L163.564 13.4504C164.125 13.9496 164.506 14.7029 164.506 16H168.506ZM166.239 10.4759C164.723 9.10073 162.76 8.52148 160.588 8.52148V12.5215C162.049 12.5215 162.957 12.8993 163.551 13.4382L166.239 10.4759ZM160.588 8.52148C158.469 8.52148 156.538 8.99486 155.009 10.1624L157.436 13.3415C158.056 12.8684 159.035 12.5215 160.588 12.5215V8.52148ZM155.013 10.1591C153.495 11.3119 152.641 12.9108 152.641 14.8281H156.641C156.641 14.2455 156.841 13.7936 157.432 13.3448L155.013 10.1591ZM152.641 14.8281C152.641 16.7457 153.702 18.2692 155.182 19.4036L157.615 16.2292C156.751 15.5668 156.641 15.098 156.641 14.8281H152.641ZM155.198 19.4164C156.652 20.5067 158.984 21.5062 161.963 22.4727L163.197 18.668C160.277 17.7204 158.488 16.8839 157.598 16.2164L155.198 19.4164ZM161.974 22.4763C164.838 23.3866 167.115 24.3503 168.846 25.3493L170.846 21.8851C168.787 20.6966 166.221 19.629 163.186 18.6643L161.974 22.4763ZM168.847 25.35C172.941 27.7091 174.76 30.763 174.76 34.6035H178.76C178.76 29.1081 175.969 24.8378 170.844 21.8843L168.847 25.35ZM174.76 34.6035C174.76 37.7496 173.614 40.0717 171.334 41.7979L173.748 44.9872C177.093 42.4556 178.76 38.9184 178.76 34.6035H174.76ZM171.334 41.7979C168.982 43.5785 165.602 44.5859 160.969 44.5859V48.5859C166.14 48.5859 170.475 47.4644 173.748 44.9872L171.334 41.7979ZM160.969 44.5859C157.753 44.5859 154.896 44.0146 152.366 42.9079L150.763 46.5725C153.858 47.9268 157.271 48.5859 160.969 48.5859V44.5859ZM152.381 42.9147C149.869 41.7901 148.083 40.3149 146.903 38.5367L143.57 40.7485C145.241 43.2671 147.674 45.1903 150.747 46.5657L152.381 42.9147ZM146.914 38.5542C145.737 36.7389 145.127 34.6337 145.127 32.1719H141.127C141.127 35.3351 141.923 38.2103 143.558 40.731L146.914 38.5542ZM143.127 34.1719H153.439V30.1719H143.127V34.1719ZM151.439 32.1719C151.439 34.771 152.108 37.0927 153.833 38.7023L156.562 35.7781C155.943 35.2002 155.439 34.1431 155.439 32.1719H151.439ZM153.858 38.7256C155.593 40.2896 158.121 40.8516 160.969 40.8516V36.8516C158.504 36.8516 157.185 36.3394 156.537 35.7549L153.858 38.7256ZM160.969 40.8516C162.93 40.8516 164.738 40.4365 166.172 39.3753L163.793 36.1599C163.274 36.5439 162.406 36.8516 160.969 36.8516V40.8516ZM166.177 39.3713C167.72 38.2223 168.477 36.5711 168.477 34.6621H164.477C164.477 35.4094 164.238 35.8285 163.787 36.1638L166.177 39.3713ZM215.52 11.2832V13.2832H217.52V11.2832H215.52ZM202.717 11.2832V9.2832H200.717V11.2832H202.717ZM202.717 46V48H204.717V46H202.717ZM192.434 46H190.434V48H192.434V46ZM192.434 11.2832H194.434V9.2832H192.434V11.2832ZM179.865 11.2832H177.865V13.2832H179.865V11.2832ZM179.865 3.34375V1.34375H177.865V3.34375H179.865ZM215.52 3.34375H217.52V1.34375H215.52V3.34375ZM215.52 9.2832H202.717V13.2832H215.52V9.2832ZM200.717 11.2832V46H204.717V11.2832H200.717ZM202.717 44H192.434V48H202.717V44ZM194.434 46V11.2832H190.434V46H194.434ZM192.434 9.2832H179.865V13.2832H192.434V9.2832ZM181.865 11.2832V3.34375H177.865V11.2832H181.865ZM179.865 5.34375H215.52V1.34375H179.865V5.34375ZM213.52 3.34375V11.2832H217.52V3.34375H213.52Z" fill="white"/>
</svg>
