<svg width="122" height="49" viewBox="0 0 122 49" fill="none" xmlns="http://www.w3.org/2000/svg">
<path d="M30.7051 44.0078L31.7427 45.7176L31.7461 45.7155L30.7051 44.0078ZM11.3398 44.0957L10.3143 45.8128L10.3232 45.818L11.3398 44.0957ZM4.74805 36.918L2.96142 37.8169L2.96597 37.8258L4.74805 36.918ZM2.28711 26.2246H0.287109V26.244L0.287486 26.2634L2.28711 26.2246ZM4.57227 12.7773L2.77042 11.9094L2.76818 11.914L4.57227 12.7773ZM11.1641 5.36523L10.1282 3.65436L10.1231 3.65752L11.1641 5.36523ZM37.209 12.6895L35.4136 13.5706L35.4168 13.5773L35.4201 13.5839L37.209 12.6895ZM39.6113 23.5879H41.6114L41.6113 23.5784L39.6113 23.5879ZM27.0137 14.125L25.327 15.1997L25.3325 15.2084L25.3382 15.2171L27.0137 14.125ZM12.7754 22.416L10.7768 22.3403L10.7757 22.3688L10.7755 22.3973L12.7754 22.416ZM12.7461 25.5508L10.7462 25.5321L10.7461 25.5414V25.5508H12.7461ZM14.8262 35.1895L13.1244 36.2401L14.8262 35.1895ZM29.1523 25.7266L31.1523 25.736V25.7266H29.1523ZM37.6113 25.5508C37.6113 29.4613 36.8872 32.8377 35.495 35.7277L39.0987 37.4637C40.7925 33.9474 41.6113 29.9606 41.6113 25.5508H37.6113ZM35.495 35.7277C34.1081 38.607 32.1648 40.7757 29.6641 42.3001L31.7461 45.7155C34.9485 43.7634 37.3997 40.9907 39.0987 37.4637L35.495 35.7277ZM29.6674 42.298C27.178 43.8089 24.3112 44.5859 21.0078 44.5859V48.5859C24.97 48.5859 28.5681 47.6443 31.7427 45.7176L29.6674 42.298ZM21.0078 44.5859C17.6914 44.5859 14.8274 43.8319 12.3565 42.3734L10.3232 45.818C13.4773 47.6798 17.0586 48.5859 21.0078 48.5859V44.5859ZM12.3653 42.3786C9.89712 40.9046 7.9526 38.8024 6.53013 36.0101L2.96597 37.8258C4.70755 41.2445 7.15756 43.9275 10.3144 45.8128L12.3653 42.3786ZM6.53465 36.0191C5.12621 33.2198 4.35996 29.9572 4.28673 26.1858L0.287486 26.2634C0.370505 30.5389 1.24488 34.4052 2.96145 37.8169L6.53465 36.0191ZM4.28711 26.2246V23.8223H0.287109V26.2246H4.28711ZM4.28711 23.8223C4.28711 19.8868 5.00352 16.5095 6.37635 13.6406L2.76818 11.914C1.09413 15.4124 0.287109 19.3983 0.287109 23.8223H4.28711ZM6.37411 13.6453C7.76106 10.7661 9.70438 8.59735 12.2051 7.07295L10.1231 3.65752C6.92062 5.60968 4.46941 8.38236 2.77042 11.9094L6.37411 13.6453ZM12.1999 7.0761C14.7313 5.54351 17.6287 4.75781 20.9492 4.75781V0.757812C16.965 0.757812 13.3391 1.7104 10.1282 3.65437L12.1999 7.0761ZM20.9492 4.75781C24.2309 4.75781 27.0884 5.53385 29.5795 7.0457L31.6548 3.62618C28.4819 1.70052 24.8941 0.757812 20.9492 0.757812V4.75781ZM29.5795 7.0457C32.0618 8.55217 34.007 10.7047 35.4136 13.5706L39.0044 11.8083C37.286 8.30705 34.8366 5.55721 31.6548 3.62618L29.5795 7.0457ZM35.4201 13.5839C36.8444 16.4324 37.593 19.7542 37.6114 23.5974L41.6113 23.5784C41.5905 19.2185 40.7376 15.2746 38.9978 11.795L35.4201 13.5839ZM37.6113 23.5879V25.5508H41.6113V23.5879H37.6113ZM31.1523 23.7637C31.1523 19.3567 30.421 15.6899 28.6892 13.0329L25.3382 15.2171C26.4579 16.9351 27.1523 19.6941 27.1523 23.7637H31.1523ZM28.7004 13.0503C26.9235 10.2616 24.263 8.81445 20.9492 8.81445V12.8145C22.9088 12.8145 24.2913 13.5743 25.327 15.1997L28.7004 13.0503ZM20.9492 8.81445C17.7891 8.81445 15.1784 10.0439 13.4036 12.5629C11.7182 14.9551 10.9295 18.3088 10.7768 22.3403L14.774 22.4917C14.9142 18.7889 15.6343 16.3417 16.6735 14.8668C17.6234 13.5186 18.9531 12.8145 20.9492 12.8145V8.81445ZM10.7755 22.3973L10.7462 25.5321L14.746 25.5695L14.7753 22.4347L10.7755 22.3973ZM10.7461 25.5508C10.7461 29.9043 11.4601 33.5444 13.1244 36.2401L16.528 34.1388C15.4188 32.3423 14.7461 29.5567 14.7461 25.5508H10.7461ZM13.1244 36.2401C14.891 39.1016 17.6102 40.5586 21.0078 40.5586V36.5586C18.9366 36.5586 17.5347 35.7695 16.528 34.1388L13.1244 36.2401ZM21.0078 40.5586C24.295 40.5586 26.9302 39.1009 28.7004 36.3228L25.327 34.1733C24.2846 35.8092 22.9159 36.5586 21.0078 36.5586V40.5586ZM28.7004 36.3228C30.3956 33.6623 31.132 30.0534 31.1523 25.736L27.1524 25.7171C27.1337 29.681 26.4443 32.4198 25.327 34.1733L28.7004 36.3228ZM31.1523 25.7266V23.7637H27.1523V25.7266H31.1523ZM78.3711 3.34375H80.3711V1.34375H78.3711V3.34375ZM76.3496 39.4961L78.0761 40.5057L78.0798 40.4993L76.3496 39.4961ZM44.7676 31.4688H42.7676V31.4812L42.7677 31.4937L44.7676 31.4688ZM44.7676 3.34375V1.34375H42.7676V3.34375H44.7676ZM55.1094 3.34375H57.1094V1.34375H55.1094V3.34375ZM55.1094 31.6738H53.1094V31.6989L53.11 31.724L55.1094 31.6738ZM68.0879 3.34375V1.34375H66.0879V3.34375H68.0879ZM76.3711 3.34375V31.2637H80.3711V3.34375H76.3711ZM76.3711 31.2637C76.3711 34.1385 75.7612 36.5237 74.6194 38.4929L78.0798 40.4993C79.6333 37.82 80.3711 34.717 80.3711 31.2637H76.3711ZM74.6231 38.4865C73.4865 40.4303 71.8605 41.9201 69.6825 42.9669L71.4152 46.5721C74.2762 45.1971 76.5174 43.1712 78.0761 40.5057L74.6231 38.4865ZM69.6825 42.9669C67.4881 44.0216 64.8183 44.5859 61.6133 44.5859V48.5859C65.2832 48.5859 68.5705 47.9394 71.4152 46.5721L69.6825 42.9669ZM61.6133 44.5859C56.7646 44.5859 53.2014 43.3343 50.6774 41.0578L47.9984 44.0281C51.451 47.1422 56.0713 48.5859 61.6133 48.5859V44.5859ZM50.6774 41.0578C48.1723 38.7983 46.8203 35.6743 46.7674 31.4438L42.7677 31.4937C42.832 36.6382 44.5269 40.897 47.9984 44.0281L50.6774 41.0578ZM46.7676 31.4688V3.34375H42.7676V31.4688H46.7676ZM44.7676 5.34375H55.1094V1.34375H44.7676V5.34375ZM53.1094 3.34375V31.6738H57.1094V3.34375H53.1094ZM53.11 31.724C53.1753 34.3231 53.8167 36.6273 55.3579 38.2864C56.9321 39.9812 59.1368 40.6758 61.6133 40.6758V36.6758C59.871 36.6758 58.8823 36.2033 58.2886 35.5642C57.6618 34.8893 57.1607 33.6925 57.1087 31.6236L53.11 31.724ZM61.6133 40.6758C64.1063 40.6758 66.3246 39.9805 67.9094 38.2826L64.9852 35.5533C64.3824 36.1992 63.3781 36.6758 61.6133 36.6758V40.6758ZM67.9094 38.2826C69.5131 36.5643 70.0879 34.0408 70.0879 31.2051H66.0879C66.0879 33.6428 65.5689 34.9279 64.9852 35.5533L67.9094 38.2826ZM70.0879 31.2051V3.34375H66.0879V31.2051H70.0879ZM68.0879 5.34375H78.3711V1.34375H68.0879V5.34375ZM100.666 30.9414L102.455 30.047L101.902 28.9414H100.666V30.9414ZM95.0996 30.9414V28.9414H93.0996V30.9414H95.0996ZM95.0996 46V48H97.0996V46H95.0996ZM84.8164 46H82.8164V48H84.8164V46ZM84.8164 3.34375V1.34375H82.8164V3.34375H84.8164ZM115.93 23.6172L114.23 22.5633L114.226 22.5695L114.222 22.5757L115.93 23.6172ZM110.305 28.3633L109.449 26.5555L107.575 27.4423L108.529 29.283L110.305 28.3633ZM119.211 45.5605H121.211V45.0734L120.987 44.6408L119.211 45.5605ZM119.211 46V48H121.211V46H119.211ZM108.195 46L106.406 46.8944L106.959 48H108.195V46ZM95.0996 23.002H93.0996V25.002H95.0996V23.002ZM105.998 21.4785L104.557 20.0918L104.556 20.0923L105.998 21.4785ZM105.998 12.8652L104.544 14.2385L104.55 14.2453L104.557 14.252L105.998 12.8652ZM95.0996 11.2832V9.2832H93.0996V11.2832H95.0996ZM100.666 28.9414H95.0996V32.9414H100.666V28.9414ZM93.0996 30.9414V46H97.0996V30.9414H93.0996ZM95.0996 44H84.8164V48H95.0996V44ZM86.8164 46V3.34375H82.8164V46H86.8164ZM84.8164 5.34375H101.604V1.34375H84.8164V5.34375ZM101.604 5.34375C106.387 5.34375 109.848 6.40693 112.231 8.28403L114.706 5.14175C111.386 2.52667 106.937 1.34375 101.604 1.34375V5.34375ZM112.231 8.28403C114.535 10.0983 115.746 12.6553 115.746 16.2344H119.746C119.746 11.6103 118.106 7.81969 114.706 5.14175L112.231 8.28403ZM115.746 16.2344C115.746 18.9376 115.195 21.0067 114.23 22.5633L117.629 24.6711C119.086 22.3215 119.746 19.4686 119.746 16.2344H115.746ZM114.222 22.5757C113.278 24.1245 111.739 25.4717 109.449 26.5555L111.16 30.171C113.987 28.833 116.199 27.0162 117.637 24.6587L114.222 22.5757ZM108.529 29.283L117.435 46.4803L120.987 44.6408L112.081 27.4435L108.529 29.283ZM117.211 45.5605V46H121.211V45.5605H117.211ZM119.211 44H108.195V48H119.211V44ZM109.984 45.1056L102.455 30.047L98.8772 31.8358L106.406 46.8944L109.984 45.1056ZM95.0996 25.002H101.604V21.002H95.0996V25.002ZM101.604 25.002C103.885 25.002 105.959 24.4045 107.44 22.8647L104.556 20.0923C104.084 20.5838 103.228 21.002 101.604 21.002V25.002ZM107.439 22.8653C108.886 21.3619 109.492 19.3751 109.492 17.1719H105.492C105.492 18.6405 105.102 19.5248 104.557 20.0918L107.439 22.8653ZM109.492 17.1719C109.492 14.9687 108.886 12.9818 107.439 11.4785L104.557 14.252C105.102 14.819 105.492 15.7032 105.492 17.1719H109.492ZM107.452 11.492C105.964 9.9169 103.896 9.2832 101.604 9.2832V13.2832C103.178 13.2832 104.039 13.7042 104.544 14.2385L107.452 11.492ZM101.604 9.2832H95.0996V13.2832H101.604V9.2832ZM93.0996 11.2832V23.002H97.0996V11.2832H93.0996Z" fill="white"/>
</svg>
