<svg width="32" height="338" viewBox="0 0 32 338" fill="none" xmlns="http://www.w3.org/2000/svg">
<path d="M20.0977 322.258L20.88 322.881L20.8855 322.874L20.0977 322.258ZM16.6211 330.363L15.7246 329.92L15.7235 329.922L16.6211 330.363ZM5 334.523L4.39318 335.318L4.39448 335.319L5 334.523ZM2.1875 330.617L3.11748 330.25L3.11498 330.243L2.1875 330.617ZM2.26563 319.465L3.177 319.876L3.17823 319.874L2.26563 319.465ZM5.39063 315.676L5.94348 316.509L5.94719 316.507L5.39063 315.676ZM10 314.328L11 314.328L11 313.328L10 313.328L10 314.328ZM10 321.164L10 322.164L11 322.164L11 321.164L10 321.164ZM7.30469 322.238L8.04528 322.91L8.05135 322.903L7.30469 322.238ZM7.16797 328.02L7.96442 327.415L7.96274 327.413L7.16797 328.02ZM11.2109 327.902L12.0046 328.511L12.0109 328.502L11.2109 327.902ZM13.0469 323.781L13.9981 324.09L13.9999 324.084L13.0469 323.781ZM15.0781 318.938L15.9442 319.437L15.9446 319.437L15.0781 318.938ZM29.1602 331.125L30.0729 331.534L30.0763 331.526L29.1602 331.125ZM25.7617 335.344L26.3059 336.183L26.3147 336.177L25.7617 335.344ZM20.7813 336.75L19.7813 336.75L19.7813 337.75L20.7813 337.75L20.7813 336.75ZM20.7813 329.875L20.7813 328.875L19.7813 328.875L19.7813 329.875L20.7813 329.875ZM24.1602 328.703L24.8912 329.385L24.8971 329.379L24.9028 329.373L24.1602 328.703ZM24.5117 322.18L25.3156 321.585L25.3136 321.582L24.5117 322.18ZM22.4414 320.184C21.1673 320.184 20.0805 320.656 19.3098 321.642L20.8855 322.874C21.2346 322.427 21.7103 322.184 22.4414 322.184L22.4414 320.184ZM19.3154 321.635C18.6398 322.483 18.0159 323.87 17.4114 325.67L19.3074 326.307C19.9007 324.539 20.4357 323.439 20.8799 322.881L19.3154 321.635ZM17.4114 325.67C16.8206 327.43 16.2575 328.842 15.7246 329.92L17.5176 330.806C18.1045 329.619 18.7003 328.115 19.3074 326.307L17.4114 325.67ZM15.7235 329.922C14.0225 333.386 11.8247 334.891 9.16016 334.891L9.16016 336.891C12.8237 336.891 15.5999 334.711 17.5187 330.804L15.7235 329.922ZM9.16016 334.891C7.79243 334.891 6.62085 334.5 5.60552 333.728L4.39448 335.319C5.77499 336.37 7.37684 336.891 9.16016 336.891L9.16016 334.891ZM5.60682 333.729C4.56529 332.933 3.72717 331.792 3.11746 330.25L1.25754 330.985C1.97595 332.802 3.01284 334.264 4.39318 335.318L5.60682 333.729ZM3.11498 330.243C2.49273 328.7 2.17188 326.941 2.17188 324.953L0.171875 324.953C0.171875 327.158 0.528107 329.175 1.26002 330.991L3.11498 330.243ZM2.17188 324.953C2.17188 323.029 2.51457 321.343 3.177 319.876L1.35425 319.053C0.558343 320.816 0.171875 322.789 0.171875 324.953L2.17188 324.953ZM3.17823 319.874C3.83786 318.401 4.76217 317.293 5.94348 316.509L4.83778 314.843C3.31075 315.856 2.15173 317.273 1.35302 319.056L3.17823 319.874ZM5.94719 316.507C7.11153 315.727 8.45128 315.328 10 315.328L10 313.328C8.08518 313.328 6.35201 313.828 4.83407 314.845L5.94719 316.507ZM9 314.328L9 321.164L11 321.164L11 314.328L9 314.328ZM10 320.164C8.62054 320.164 7.42492 320.6 6.55803 321.573L8.05135 322.903C8.46049 322.444 9.06175 322.164 10 322.164L10 320.164ZM6.56413 321.566C5.71703 322.5 5.34766 323.721 5.34766 325.109L7.34766 325.109C7.34766 324.076 7.6163 323.383 8.04525 322.91L6.56413 321.566ZM5.34766 325.109C5.34766 326.475 5.6527 327.683 6.3732 328.626L7.96274 327.413C7.58949 326.924 7.34766 326.192 7.34766 325.109L5.34766 325.109ZM6.37152 328.624C7.08139 329.559 8.05174 330.074 9.21875 330.074L9.21875 328.074C8.7191 328.074 8.32226 327.886 7.96442 327.415L6.37152 328.624ZM9.21875 330.074C10.3598 330.074 11.2876 329.446 12.0045 328.511L10.4173 327.294C9.93638 327.921 9.536 328.074 9.21875 328.074L9.21875 330.074ZM12.0109 328.502C12.7026 327.58 13.3553 326.071 13.998 324.09L12.0957 323.473C11.4624 325.424 10.8912 326.662 10.4109 327.302L12.0109 328.502ZM13.9999 324.084C14.6113 322.161 15.2624 320.618 15.9442 319.437L14.2121 318.438C13.4355 319.783 12.7325 321.469 12.0939 323.478L13.9999 324.084ZM15.9446 319.437C17.5668 316.622 19.7041 315.328 22.4023 315.328L22.4023 313.328C18.8767 313.328 16.1311 315.107 14.2117 318.438L15.9446 319.437ZM22.4023 315.328C24.5971 315.328 26.2465 316.135 27.4644 317.744L29.0591 316.537C27.4384 314.396 25.1815 313.328 22.4023 313.328L22.4023 315.328ZM27.4644 317.744C28.7095 319.389 29.3906 321.722 29.3906 324.855L31.3906 324.855C31.3906 321.453 30.6525 318.642 29.0591 316.537L27.4644 317.744ZM29.3906 324.855C29.3906 327.04 29.0024 328.991 28.244 330.724L30.0763 331.526C30.9585 329.509 31.3906 327.281 31.3906 324.855L29.3906 324.855ZM28.2474 330.716C27.4768 332.438 26.456 333.683 25.2088 334.511L26.3147 336.177C27.9321 335.104 29.1769 333.536 30.0729 331.534L28.2474 330.716ZM25.2175 334.505C23.9486 335.328 22.4809 335.75 20.7813 335.75L20.7813 337.75C22.8316 337.75 24.6843 337.235 26.3059 336.183L25.2175 334.505ZM21.7813 336.75L21.7813 329.875L19.7813 329.875L19.7813 336.75L21.7813 336.75ZM20.7813 330.875C22.4617 330.875 23.9041 330.443 24.8912 329.385L23.4291 328.021C22.9579 328.526 22.1477 328.875 20.7813 328.875L20.7813 330.875ZM24.9028 329.373C25.8639 328.307 26.2344 326.722 26.2344 324.855L24.2344 324.855C24.2344 326.531 23.8888 327.511 23.4175 328.033L24.9028 329.373ZM26.2344 324.855C26.2344 323.592 25.9666 322.465 25.3156 321.585L23.7079 322.775C24.0203 323.197 24.2344 323.854 24.2344 324.855L26.2344 324.855ZM25.3136 321.582C24.6154 320.645 23.6172 320.184 22.4414 320.184L22.4414 322.184C23.0364 322.184 23.4185 322.386 23.7098 322.777L25.3136 321.582ZM6.85547 288.488L7.85547 288.488L7.85547 287.488L6.85547 287.488L6.85547 288.488ZM6.85547 297.023L5.85547 297.023L5.85547 298.023L6.85547 298.023L6.85547 297.023ZM30 297.023L31 297.023L31 296.023L30 296.023L30 297.023ZM30 303.879L30 304.879L31 304.879L31 303.879L30 303.879ZM6.85547 303.879L6.85547 302.879L5.85547 302.879L5.85547 303.879L6.85547 303.879ZM6.85547 312.258L6.85547 313.258L7.85547 313.258L7.85547 312.258L6.85547 312.258ZM1.5625 312.258L0.5625 312.258L0.5625 313.258L1.5625 313.258L1.5625 312.258ZM1.5625 288.488L1.5625 287.488L0.562501 287.488L0.562501 288.488L1.5625 288.488ZM5.85547 288.488L5.85547 297.023L7.85547 297.023L7.85547 288.488L5.85547 288.488ZM6.85547 298.023L30 298.023L30 296.023L6.85547 296.023L6.85547 298.023ZM29 297.023L29 303.879L31 303.879L31 297.023L29 297.023ZM30 302.879L6.85547 302.879L6.85547 304.879L30 304.879L30 302.879ZM5.85547 303.879L5.85547 312.258L7.85547 312.258L7.85547 303.879L5.85547 303.879ZM6.85547 311.258L1.5625 311.258L1.5625 313.258L6.85547 313.258L6.85547 311.258ZM2.5625 312.258L2.5625 288.488L0.562501 288.488L0.5625 312.258L2.5625 312.258ZM1.5625 289.488L6.85547 289.488L6.85547 287.488L1.5625 287.488L1.5625 289.488ZM17.9492 267.941L18.9492 267.941L18.9492 266.941L17.9492 266.941L17.9492 267.941ZM17.9492 278.723L16.9492 278.723L16.9492 279.723L17.9492 279.723L17.9492 278.723ZM24.7266 278.723L24.7266 279.723L25.7266 279.723L25.7266 278.723L24.7266 278.723ZM24.7266 265.988L24.7266 264.988L23.7266 264.988L23.7266 265.988L24.7266 265.988ZM30 265.988L31 265.988L31 264.988L30 264.988L30 265.988ZM30 285.578L30 286.578L31 286.578L31 285.578L30 285.578ZM1.5625 285.578L0.562501 285.578L0.562501 286.578L1.5625 286.578L1.5625 285.578ZM1.5625 265.949L1.5625 264.949L0.562501 264.949L0.562501 265.949L1.5625 265.949ZM6.85547 265.949L7.85547 265.949L7.85547 264.949L6.85547 264.949L6.85547 265.949ZM6.85547 278.723L5.85547 278.723L5.85547 279.723L6.85547 279.723L6.85547 278.723ZM12.8516 278.723L12.8516 279.723L13.8516 279.723L13.8516 278.723L12.8516 278.723ZM12.8516 267.941L12.8516 266.941L11.8516 266.941L11.8516 267.941L12.8516 267.941ZM16.9492 267.941L16.9492 278.723L18.9492 278.723L18.9492 267.941L16.9492 267.941ZM17.9492 279.723L24.7266 279.723L24.7266 277.723L17.9492 277.723L17.9492 279.723ZM25.7266 278.723L25.7266 265.988L23.7266 265.988L23.7266 278.723L25.7266 278.723ZM24.7266 266.988L30 266.988L30 264.988L24.7266 264.988L24.7266 266.988ZM29 265.988L29 285.578L31 285.578L31 265.988L29 265.988ZM30 284.578L1.5625 284.578L1.5625 286.578L30 286.578L30 284.578ZM2.5625 285.578L2.5625 265.949L0.562501 265.949L0.562501 285.578L2.5625 285.578ZM1.5625 266.949L6.85547 266.949L6.85547 264.949L1.5625 264.949L1.5625 266.949ZM5.85547 265.949L5.85547 278.723L7.85547 278.723L7.85547 265.949L5.85547 265.949ZM6.85547 279.723L12.8516 279.723L12.8516 277.723L6.85547 277.723L6.85547 279.723ZM13.8516 278.723L13.8516 267.941L11.8516 267.941L11.8516 278.723L13.8516 278.723ZM12.8516 268.941L17.9492 268.941L17.9492 266.941L12.8516 266.941L12.8516 268.941ZM20.3516 256.34L19.3516 256.34L19.3516 257.34L20.3516 257.34L20.3516 256.34ZM30 256.34L31 256.34L31 255.34L30 255.34L30 256.34ZM30 263.195L30 264.195L31 264.195L31 263.195L30 263.195ZM1.5625 263.195L0.562501 263.195L0.562501 264.195L1.5625 264.195L1.5625 263.195ZM2.77344 246.086L3.67346 246.522L3.67746 246.513L2.77344 246.086ZM6.19141 242.199L6.7147 243.051L6.72343 243.046L6.19141 242.199ZM17.8711 243.801L18.6385 243.16L18.6381 243.159L17.8711 243.801ZM15.0586 256.34L15.0586 257.34L16.0586 257.34L16.0586 256.34L15.0586 256.34ZM14.0625 248.82L13.3355 249.507L13.3419 249.514L14.0625 248.82ZM6.85547 251.77L5.85547 251.759L5.85547 251.77L6.85547 251.77ZM6.85547 256.34L5.85547 256.34L5.85547 257.34L6.85547 257.34L6.85547 256.34ZM20.3516 257.34L30 257.34L30 255.34L20.3516 255.34L20.3516 257.34ZM29 256.34L29 263.195L31 263.195L31 256.34L29 256.34ZM30 262.195L1.5625 262.195L1.5625 264.195L30 264.195L30 262.195ZM2.5625 263.195L2.5625 251.848L0.562501 251.848L0.562501 263.195L2.5625 263.195ZM2.5625 251.848C2.5625 249.798 2.94247 248.031 3.67342 246.522L1.87346 245.65C0.98982 247.474 0.562501 249.548 0.562501 251.848L2.5625 251.848ZM3.67746 246.513C4.39453 244.997 5.40695 243.854 6.71467 243.051L5.66814 241.347C4.00712 242.367 2.74089 243.816 1.86942 245.658L3.67746 246.513ZM6.72343 243.046C8.02278 242.23 9.50869 241.813 11.2109 241.813L11.2109 239.813C9.16319 239.813 7.30274 240.32 5.65939 241.352L6.72343 243.046ZM11.2109 241.813C13.7112 241.813 15.6417 242.694 17.1041 244.442L18.6381 243.159C16.7672 240.923 14.2576 239.813 11.2109 239.813L11.2109 241.813ZM17.1037 244.442C18.5624 246.188 19.3516 248.655 19.3516 251.965L21.3516 251.965C21.3516 248.348 20.4871 245.372 18.6385 243.16L17.1037 244.442ZM19.3516 251.965L19.3516 256.34L21.3516 256.34L21.3516 251.965L19.3516 251.965ZM16.0586 256.34L16.0586 251.848L14.0586 251.848L14.0586 256.34L16.0586 256.34ZM16.0586 251.848C16.0586 250.362 15.6861 249.065 14.7831 248.127L13.3419 249.514C13.767 249.955 14.0586 250.677 14.0586 251.848L16.0586 251.848ZM14.7895 248.134C13.8912 247.183 12.6622 246.766 11.25 246.766L11.25 248.766C12.2597 248.766 12.9057 249.052 13.3355 249.507L14.7895 248.134ZM11.25 246.766C9.73688 246.766 8.41632 247.178 7.39677 248.097L8.73604 249.583C9.30504 249.07 10.1069 248.766 11.25 248.766L11.25 246.766ZM7.39677 248.097C6.36173 249.03 5.87098 250.291 5.85553 251.759L7.85541 251.78C7.866 250.775 8.18255 250.082 8.73604 249.583L7.39677 248.097ZM5.85547 251.77L5.85547 256.34L7.85547 256.34L7.85547 251.77L5.85547 251.77ZM6.85547 257.34L15.0586 257.34L15.0586 255.34L6.85547 255.34L6.85547 257.34ZM13.0273 221.574L12.0273 221.574L12.0273 222.574L13.0273 222.574L13.0273 221.574ZM7.12891 215.656L7.82824 216.371L7.83601 216.363L7.12891 215.656ZM6.99219 220.422L6.20365 221.037L6.20976 221.045L6.99219 220.422ZM8.88672 221.379L9.88672 221.379L9.88672 220.379L8.88672 220.379L8.88672 221.379ZM8.88672 227.961L8.88672 228.961L9.88672 228.961L9.88672 227.961L8.88672 227.961ZM2.14844 223.254L3.06292 222.849L3.06126 222.846L2.14844 223.254ZM3.32031 210.91L4.10173 211.534L3.32031 210.91ZM12.7539 209.328L12.1857 210.151L12.1878 210.152L12.7539 209.328ZM15.3906 212.59L14.4866 213.017L15.5131 215.189L16.3309 212.93L15.3906 212.59ZM17.8906 209.035L18.4995 209.828L18.5039 209.825L17.8906 209.035ZM29.3359 223.566L30.2476 223.977L30.2516 223.968L29.3359 223.566ZM26.3867 227.18L26.9314 228.018L26.9354 228.016L26.3867 227.18ZM22.0898 228.41L21.0898 228.41L21.0898 229.41L22.0898 229.41L22.0898 228.41ZM22.0898 221.789L22.0898 220.789L21.0898 220.789L21.0898 221.789L22.0898 221.789ZM24.3555 215.363L25.0898 214.684L25.0829 214.677L24.3555 215.363ZM17.9297 221.574L17.9297 222.574L18.9297 222.574L18.9297 221.574L17.9297 221.574ZM14.0273 221.574L14.0273 218.469L12.0273 218.469L12.0273 221.574L14.0273 221.574ZM14.0273 218.469C14.0273 217.089 13.6898 215.87 12.8387 215.001C11.9836 214.127 10.7781 213.777 9.41406 213.777L9.41406 215.777C10.4589 215.777 11.06 216.043 11.4094 216.4C11.7626 216.761 12.0273 217.387 12.0273 218.469L14.0273 218.469ZM9.41406 213.777C8.24932 213.777 7.22052 214.15 6.4218 214.949L7.83601 216.363C8.20917 215.99 8.70381 215.777 9.41406 215.777L9.41406 213.777ZM6.42961 214.941C5.58911 215.764 5.23047 216.878 5.23047 218.137L7.23047 218.137C7.23047 217.26 7.47078 216.721 7.8282 216.371L6.42961 214.941ZM5.23047 218.137C5.23047 219.218 5.55072 220.2 6.20369 221.037L7.78069 219.807C7.41803 219.342 7.23047 218.8 7.23047 218.137L5.23047 218.137ZM6.20976 221.045C6.88993 221.899 7.80001 222.379 8.88672 222.379L8.88672 220.379C8.46301 220.379 8.11007 220.221 7.77461 219.799L6.20976 221.045ZM7.88672 221.379L7.88672 227.961L9.88672 227.961L9.88672 221.379L7.88672 221.379ZM8.88672 226.961C7.58789 226.961 6.45764 226.604 5.46234 225.896L4.30329 227.526C5.65173 228.485 7.19076 228.961 8.88672 228.961L8.88672 226.961ZM5.46234 225.896C4.45384 225.179 3.65008 224.176 3.06292 222.849L1.23396 223.659C1.94888 225.274 2.96803 226.576 4.30329 227.526L5.46234 225.896ZM3.06126 222.846C2.45962 221.501 2.15235 220.014 2.15235 218.371L0.152345 218.371C0.152345 220.27 0.50913 222.038 1.23562 223.662L3.06126 222.846ZM2.15235 218.371C2.15235 215.351 2.84195 213.112 4.10173 211.534L2.5389 210.286C0.908058 212.328 0.152345 215.063 0.152345 218.371L2.15235 218.371ZM4.10173 211.534C5.33845 209.985 7.02388 209.195 9.27735 209.195L9.27735 207.195C6.47873 207.195 4.1928 208.215 2.5389 210.286L4.10173 211.534ZM9.27735 209.195C10.2808 209.195 11.2439 209.501 12.1857 210.151L13.3221 208.505C12.0764 207.645 10.7218 207.195 9.27735 207.195L9.27735 209.195ZM12.1878 210.152C13.0951 210.776 13.8693 211.712 14.4866 213.017L16.2947 212.162C15.5578 210.604 14.5741 209.365 13.32 208.504L12.1878 210.152ZM16.3309 212.93C16.822 211.574 17.5512 210.556 18.4994 209.828L17.2818 208.242C15.9904 209.233 15.053 210.585 14.4504 212.249L16.3309 212.93ZM18.5039 209.825C19.4064 209.124 20.5537 208.746 22.0117 208.746L22.0117 206.746C20.1885 206.746 18.5884 207.227 17.2773 208.245L18.5039 209.825ZM22.0117 208.746C24.2517 208.746 25.9885 209.588 27.317 211.291L28.894 210.061C27.1756 207.858 24.8499 206.746 22.0117 206.746L22.0117 208.746ZM27.317 211.291C28.6687 213.024 29.3906 215.353 29.3906 218.371L31.3906 218.371C31.3906 215.035 30.5891 212.234 28.894 210.061L27.317 211.291ZM29.3906 218.371C29.3906 220.104 29.0643 221.698 28.4203 223.164L30.2516 223.968C31.0139 222.232 31.3906 220.362 31.3906 218.371L29.3906 218.371ZM28.4243 223.155C27.7731 224.6 26.9043 225.644 25.8381 226.344L26.9354 228.016C28.3691 227.075 29.4665 225.71 30.2476 223.977L28.4243 223.155ZM25.842 226.341C24.7516 227.049 23.5109 227.41 22.0898 227.41L22.0898 229.41C23.8719 229.41 25.4958 228.951 26.9314 228.018L25.842 226.341ZM23.0898 228.41L23.0898 221.789L21.0898 221.789L21.0898 228.41L23.0898 228.41ZM22.0898 222.789C23.271 222.789 24.2872 222.298 25.096 221.406L23.6149 220.062C23.1477 220.577 22.6534 220.789 22.0898 220.789L22.0898 222.789ZM25.096 221.406C25.9156 220.503 26.3125 219.391 26.3125 218.137L24.3125 218.137C24.3125 218.939 24.0714 219.559 23.6149 220.062L25.096 221.406ZM26.3125 218.137C26.3125 216.788 25.9362 215.6 25.0897 214.684L23.6212 216.042C24.0508 216.507 24.3125 217.168 24.3125 218.137L26.3125 218.137ZM25.0829 214.677C24.2312 213.774 23.1354 213.328 21.875 213.328L21.875 215.328C22.6198 215.328 23.1777 215.572 23.6281 216.049L25.0829 214.677ZM21.875 213.328C20.306 213.328 18.9328 213.718 18.061 214.761L19.5952 216.044C19.9213 215.654 20.5794 215.328 21.875 215.328L21.875 213.328ZM18.061 214.761C17.2658 215.712 16.9297 216.956 16.9297 218.371L18.9297 218.371C18.9297 217.26 19.1925 216.525 19.5952 216.044L18.061 214.761ZM16.9297 218.371L16.9297 221.574L18.9297 221.574L18.9297 218.371L16.9297 218.371ZM17.9297 220.574L13.0273 220.574L13.0273 222.574L17.9297 222.574L17.9297 220.574ZM24.5508 197.629L25.292 198.3L25.299 198.292L24.5508 197.629ZM29.2969 197.629L30.0451 196.965L30.0381 196.958L29.2969 197.629ZM29.2773 202.844L30.0122 203.522L30.0186 203.515L29.2773 202.844ZM24.5508 202.844L23.8095 203.515L23.816 203.522L24.5508 202.844ZM8.96485 197.629L9.70609 198.3L9.71303 198.292L8.96485 197.629ZM13.7109 197.629L14.4592 196.965L14.4521 196.958L13.7109 197.629ZM13.6914 202.844L14.4262 203.522L14.4326 203.515L13.6914 202.844ZM8.96485 202.844L8.22361 203.515L8.23004 203.522L8.96485 202.844ZM24.6133 200.227C24.6133 199.401 24.8537 198.784 25.292 198.3L23.8096 196.958C22.9979 197.854 22.6133 198.969 22.6133 200.227L24.6133 200.227ZM25.299 198.292C25.7117 197.827 26.2221 197.594 26.9141 197.594L26.9141 195.594C25.679 195.594 24.6138 196.051 23.8026 196.965L25.299 198.292ZM26.9141 197.594C27.6064 197.594 28.1276 197.828 28.5557 198.3L30.0381 196.958C29.2161 196.05 28.1488 195.594 26.9141 195.594L26.9141 197.594ZM28.5487 198.292C28.9773 198.776 29.2148 199.396 29.2148 200.227L31.2148 200.227C31.2148 198.974 30.8404 197.862 30.0451 196.965L28.5487 198.292ZM29.2148 200.227C29.2148 201.068 28.9723 201.691 28.5361 202.172L30.0186 203.515C30.8324 202.616 31.2148 201.494 31.2148 200.227L29.2148 200.227ZM28.5425 202.165C28.1135 202.63 27.5955 202.859 26.9141 202.859L26.9141 204.859C28.1337 204.859 29.1912 204.411 30.0121 203.522L28.5425 202.165ZM26.9141 202.859C26.2327 202.859 25.7146 202.63 25.2856 202.165L23.816 203.522C24.6369 204.411 25.6944 204.859 26.9141 204.859L26.9141 202.859ZM25.292 202.172C24.8558 201.691 24.6133 201.068 24.6133 200.227L22.6133 200.227C22.6133 201.494 22.9957 202.616 23.8096 203.515L25.292 202.172ZM9.02735 200.227C9.02735 199.401 9.26775 198.784 9.70605 198.3L8.22364 196.958C7.41194 197.854 7.02735 198.969 7.02735 200.227L9.02735 200.227ZM9.71303 198.292C10.1258 197.827 10.6361 197.594 11.3281 197.594L11.3281 195.594C10.0931 195.594 9.02785 196.051 8.21666 196.965L9.71303 198.292ZM11.3281 197.594C12.0205 197.594 12.5417 197.828 12.9697 198.3L14.4521 196.958C13.6302 196.05 12.5629 195.594 11.3281 195.594L11.3281 197.594ZM12.9628 198.292C13.3914 198.776 13.6289 199.396 13.6289 200.227L15.6289 200.227C15.6289 198.974 15.2545 197.862 14.4591 196.965L12.9628 198.292ZM13.6289 200.227C13.6289 201.068 13.3863 201.691 12.9502 202.172L14.4326 203.515C15.2465 202.616 15.6289 201.494 15.6289 200.227L13.6289 200.227ZM12.9566 202.165C12.5276 202.63 12.0095 202.859 11.3281 202.859L11.3281 204.859C12.5478 204.859 13.6052 204.411 14.4262 203.522L12.9566 202.165ZM11.3281 202.859C10.6467 202.859 10.1287 202.63 9.69965 202.165L8.23004 203.522C9.05101 204.411 10.1085 204.859 11.3281 204.859L11.3281 202.859ZM9.70605 202.172C9.26991 201.691 9.02735 201.068 9.02735 200.227L7.02735 200.227C7.02735 201.494 7.40978 202.616 8.22364 203.515L9.70605 202.172ZM20.3711 159.016L20.4171 158.017L19.3711 157.969L19.3711 159.016L20.3711 159.016ZM25.625 160.617L26.168 159.777L26.1647 159.775L25.625 160.617ZM29.1406 164.738L28.2358 165.164L28.237 165.167L29.1406 164.738ZM7.71485 181.379L7.29258 182.285L7.29507 182.287L7.71485 181.379ZM2.8711 177.18L3.72047 176.652L3.71773 176.648L2.8711 177.18ZM3.88672 162.531L4.64133 163.187L4.64365 163.185L3.88672 162.531ZM11.3867 158.957L12.3867 158.957L12.3867 157.863L11.2973 157.961L11.3867 158.957ZM11.3867 165.793L11.4168 166.793L12.3867 166.763L12.3867 165.793L11.3867 165.793ZM8.4375 174.602L8.96594 173.753L8.4375 174.602ZM14.5508 175.852L14.5368 176.852L14.5508 176.852L14.5508 175.852ZM23.0664 174.719L23.5681 175.584L23.5746 175.58L23.0664 174.719ZM20.3711 165.832L19.3711 165.832L19.3711 166.8L20.3389 166.832L20.3711 165.832ZM20.3251 160.015C22.1459 160.098 23.7236 160.586 25.0853 161.459L26.1647 159.775C24.4795 158.695 22.5546 158.115 20.4171 158.017L20.3251 160.015ZM25.0821 161.457C26.4218 162.323 27.4748 163.547 28.2358 165.164L30.0454 164.312C29.1398 162.388 27.8491 160.864 26.168 159.777L25.0821 161.457ZM28.237 165.167C28.9972 166.77 29.3906 168.632 29.3906 170.773L31.3906 170.773C31.3906 168.384 30.9507 166.222 30.0442 164.31L28.237 165.167ZM29.3906 170.773C29.3906 174.271 28.2629 176.923 26.0767 178.852L27.3999 180.351C30.0834 177.984 31.3906 174.749 31.3906 170.773L29.3906 170.773ZM26.0767 178.852C23.8822 180.788 20.7122 181.824 16.4258 181.824L16.4258 183.824C21.0196 183.824 24.7246 182.712 27.3999 180.351L26.0767 178.852ZM16.4258 181.824L15.0195 181.824L15.0195 183.824L16.4258 183.824L16.4258 181.824ZM15.0195 181.824C12.3476 181.824 10.0613 181.362 8.13462 180.471L7.29507 182.287C9.53505 183.323 12.1185 183.824 15.0195 183.824L15.0195 181.824ZM8.13711 180.472C6.20261 179.571 4.7427 178.297 3.72045 176.652L2.02174 177.708C3.26511 179.708 5.03437 181.233 7.29258 182.285L8.13711 180.472ZM3.71773 176.648C2.68315 175.002 2.15235 173.081 2.15235 170.852L0.152346 170.852C0.152346 173.414 0.767373 175.712 2.02446 177.712L3.71773 176.648ZM2.15235 170.852C2.15235 167.582 3.0123 165.061 4.64133 163.187L3.13212 161.875C1.11531 164.194 0.152346 167.22 0.152346 170.852L2.15235 170.852ZM4.64365 163.185C6.25734 161.316 8.50099 160.22 11.4762 159.953L11.2973 157.961C7.89224 158.267 5.13589 159.554 3.12979 161.878L4.64365 163.185ZM10.3867 158.957L10.3867 165.793L12.3867 165.793L12.3867 158.957L10.3867 158.957ZM11.3567 164.793C9.50153 164.849 7.93744 165.32 6.92055 166.424L8.39195 167.779C8.88548 167.243 9.80837 166.841 11.4168 166.793L11.3567 164.793ZM6.92055 166.424C5.92687 167.504 5.52344 169.045 5.52344 170.852L7.52344 170.852C7.52344 169.299 7.87521 168.34 8.39195 167.779L6.92055 166.424ZM5.52344 170.852C5.52344 172.848 6.29578 174.446 7.90906 175.451L8.96594 173.753C8.02714 173.168 7.52344 172.267 7.52344 170.852L5.52344 170.852ZM7.90906 175.451C9.42308 176.393 11.6884 176.812 14.5368 176.851L14.5647 174.852C11.8143 174.813 10.004 174.399 8.96594 173.753L7.90906 175.451ZM14.5508 176.852L16.5625 176.852L16.5625 174.852L14.5508 174.852L14.5508 176.852ZM16.5625 176.852C19.6271 176.852 22.024 176.479 23.5681 175.584L22.5647 173.854C21.5047 174.469 19.5657 174.852 16.5625 174.852L16.5625 176.852ZM23.5746 175.58C25.2556 174.588 26.0195 172.894 26.0195 170.773L24.0195 170.773C24.0195 172.377 23.4814 173.313 22.5583 173.857L23.5746 175.58ZM26.0195 170.773C26.0195 169.053 25.6146 167.575 24.653 166.495L23.1595 167.825C23.6822 168.412 24.0195 169.343 24.0195 170.773L26.0195 170.773ZM24.653 166.495C23.6599 165.38 22.168 164.889 20.4033 164.833L20.3389 166.832C21.8034 166.879 22.6682 167.274 23.1595 167.825L24.653 166.495ZM21.3711 165.832L21.3711 159.016L19.3711 159.016L19.3711 165.832L21.3711 165.832ZM23.7305 133.234L23.2965 134.135L23.7305 133.234ZM28.6719 137.629L29.5268 137.11L29.5257 137.108L28.6719 137.629ZM28.7305 150.539L29.589 151.052L29.5916 151.047L28.7305 150.539ZM23.9453 154.934L24.3948 155.827L24.3992 155.825L23.9453 154.934ZM16.8164 156.574L16.8164 157.574L16.8261 157.574L16.8358 157.574L16.8164 156.574ZM7.85156 155.051L7.41758 155.952L7.41991 155.953L7.85156 155.051ZM2.91016 150.656L2.05472 151.174L2.0563 151.177L2.91016 150.656ZM2.89063 137.687L3.74551 138.206L2.89063 137.687ZM7.79297 133.293L8.23358 134.191L8.24018 134.187L7.79297 133.293ZM15.0586 131.691L15.0586 130.691L15.0538 130.691L15.0586 131.691ZM8.75 140.09L9.28739 140.933L9.29604 140.928L8.75 140.09ZM14.2773 149.582L14.2395 150.581L14.2537 150.582L14.268 150.582L14.2773 149.582ZM16.3672 149.602L16.3578 150.602L16.3672 150.602L16.3672 149.602ZM22.793 148.215L23.3183 149.066L22.793 148.215ZM16.4844 138.664L16.4891 137.664L16.4844 137.664L16.4844 138.664ZM16.3672 132.691C19.0158 132.691 21.3176 133.182 23.2965 134.135L24.1645 132.333C21.8725 131.229 19.2655 130.691 16.3672 130.691L16.3672 132.691ZM23.2965 134.135C25.27 135.086 26.7661 136.424 27.818 138.149L29.5257 137.108C28.2599 135.032 26.4618 133.44 24.1645 132.333L23.2965 134.135ZM27.817 138.148C28.8589 139.864 29.3906 141.837 29.3906 144.094L31.3906 144.094C31.3906 141.507 30.7766 139.169 29.5268 137.11L27.817 138.148ZM29.3906 144.094C29.3906 146.357 28.8753 148.327 27.8693 150.031L29.5916 151.047C30.7992 149.002 31.3906 146.674 31.3906 144.094L29.3906 144.094ZM27.8719 150.026C26.8549 151.729 25.4051 153.068 23.4914 154.043L24.3992 155.825C26.6262 154.69 28.3664 153.099 29.589 151.052L27.8719 150.026ZM23.4959 154.04C21.5786 155.005 19.3533 155.525 16.797 155.574L16.8358 157.574C19.6441 157.52 22.1714 156.946 24.3948 155.827L23.4959 154.04ZM16.8164 155.574L15.2148 155.574L15.2148 157.574L16.8164 157.574L16.8164 155.574ZM15.2148 155.574C12.5505 155.574 10.2482 155.089 8.28322 154.149L7.41991 155.953C9.69968 157.044 12.3063 157.574 15.2148 157.574L15.2148 155.574ZM8.28555 154.15C6.31208 153.199 4.81593 151.861 3.76402 150.136L2.0563 151.177C3.3221 153.253 5.12022 154.845 7.41758 155.952L8.28555 154.15ZM3.76559 150.138C2.70958 148.394 2.17188 146.402 2.17188 144.133L0.171877 144.133C0.171877 146.734 0.793027 149.09 2.05473 151.174L3.76559 150.138ZM2.17188 144.133C2.17188 141.89 2.70313 139.924 3.74551 138.206L2.03575 137.169C0.786461 139.227 0.171877 141.558 0.171877 144.133L2.17188 144.133ZM3.74551 138.206C4.7852 136.493 6.26998 135.154 8.23356 134.191L7.35238 132.395C5.07117 133.515 3.28772 135.106 2.03575 137.169L3.74551 138.206ZM8.24018 134.187C10.1918 133.212 12.4581 132.704 15.0634 132.691L15.0538 130.691C12.1903 130.705 9.61289 131.265 7.34576 132.399L8.24018 134.187ZM15.0586 132.691L16.3672 132.691L16.3672 130.691L15.0586 130.691L15.0586 132.691ZM15.1758 137.664C12.2659 137.664 9.89704 138.149 8.20396 139.252L9.29604 140.928C10.5196 140.13 12.4346 139.664 15.1758 139.664L15.1758 137.664ZM8.21264 139.246C6.45048 140.369 5.54297 142.036 5.54297 144.133L7.54297 144.133C7.54297 142.714 8.10682 141.685 9.28736 140.933L8.21264 139.246ZM5.54297 144.133C5.54297 146.143 6.31885 147.776 7.90061 148.891C9.41898 149.96 11.5792 150.481 14.2395 150.581L14.3152 148.583C11.8192 148.488 10.1123 148.002 9.05252 147.256C8.05616 146.554 7.54297 145.561 7.54297 144.133L5.54297 144.133ZM14.268 150.582L16.3578 150.602L16.3765 148.602L14.2867 148.582L14.268 150.582ZM16.3672 150.602C19.2405 150.602 21.5961 150.129 23.3183 149.066L22.2676 147.364C20.9951 148.15 19.0667 148.602 16.3672 148.602L16.3672 150.602ZM23.3183 149.066C25.1234 147.951 26.0391 146.248 26.0391 144.094L24.0391 144.094C24.0391 145.585 23.4573 146.629 22.2676 147.364L23.3183 149.066ZM26.0391 144.094C26.0391 142.017 25.1263 140.366 23.3694 139.246L22.2947 140.933C23.4805 141.689 24.0391 142.707 24.0391 144.094L26.0391 144.094ZM23.3694 139.246C21.6713 138.165 19.3379 137.678 16.4891 137.664L16.4797 139.664C19.1517 139.677 21.0501 140.14 22.2947 140.933L23.3694 139.246ZM16.4844 137.664L15.1758 137.664L15.1758 139.664L16.4844 139.664L16.4844 137.664ZM30 104.406L31 104.406L31 103.406L30 103.406L30 104.406ZM30 111.223L30.4949 112.092L31 111.804L31 111.223L30 111.223ZM12.3047 121.301L11.8098 120.432L8.52826 122.301L12.3047 122.301L12.3047 121.301ZM30 121.301L31 121.301L31 120.301L30 120.301L30 121.301ZM30 128.156L30 129.156L31 129.156L31 128.156L30 128.156ZM1.5625 128.156L0.562503 128.156L0.562502 129.156L1.5625 129.156L1.5625 128.156ZM1.5625 121.301L1.06833 120.431L0.562503 120.719L0.562503 121.301L1.5625 121.301ZM19.2578 111.242L19.752 112.112L23.0406 110.242L19.2578 110.242L19.2578 111.242ZM1.5625 111.242L0.562503 111.242L0.562503 112.242L1.5625 112.242L1.5625 111.242ZM1.5625 104.406L1.5625 103.406L0.562503 103.406L0.562503 104.406L1.5625 104.406ZM29 104.406L29 111.223L31 111.223L31 104.406L29 104.406ZM29.5051 110.354L11.8098 120.432L12.7996 122.17L30.4949 112.092L29.5051 110.354ZM12.3047 122.301L30 122.301L30 120.301L12.3047 120.301L12.3047 122.301ZM29 121.301L29 128.156L31 128.156L31 121.301L29 121.301ZM30 127.156L1.5625 127.156L1.5625 129.156L30 129.156L30 127.156ZM2.5625 128.156L2.5625 121.301L0.562503 121.301L0.562503 128.156L2.5625 128.156ZM2.05668 122.17L19.752 112.112L18.7636 110.373L1.06833 120.431L2.05668 122.17ZM19.2578 110.242L1.5625 110.242L1.5625 112.242L19.2578 112.242L19.2578 110.242ZM2.5625 111.242L2.5625 104.406L0.562503 104.406L0.562503 111.242L2.5625 111.242ZM1.5625 105.406L30 105.406L30 103.406L1.5625 103.406L1.5625 105.406ZM30 76.3203L31 76.3203L31 75.3203L30 75.3203L30 76.3203ZM30 83.1367L30.4949 84.0057L31 83.718L31 83.1367L30 83.1367ZM12.3047 93.2148L11.8098 92.3459L8.52826 94.2148L12.3047 94.2148L12.3047 93.2148ZM30 93.2148L31 93.2148L31 92.2148L30 92.2148L30 93.2148ZM30 100.07L30 101.07L31 101.07L31 100.07L30 100.07ZM1.5625 100.07L0.562503 100.07L0.562503 101.07L1.5625 101.07L1.5625 100.07ZM1.5625 93.2148L1.06833 92.3455L0.562503 92.633L0.562503 93.2148L1.5625 93.2148ZM19.2578 83.1563L19.752 84.0256L23.0406 82.1563L19.2578 82.1563L19.2578 83.1563ZM1.5625 83.1562L0.562503 83.1562L0.562503 84.1562L1.5625 84.1562L1.5625 83.1562ZM1.5625 76.3203L1.5625 75.3203L0.562503 75.3203L0.562503 76.3203L1.5625 76.3203ZM29 76.3203L29 83.1367L31 83.1367L31 76.3203L29 76.3203ZM29.5051 82.2678L11.8098 92.3459L12.7996 94.0838L30.4949 84.0057L29.5051 82.2678ZM12.3047 94.2148L30 94.2148L30 92.2148L12.3047 92.2148L12.3047 94.2148ZM29 93.2148L29 100.07L31 100.07L31 93.2148L29 93.2148ZM30 99.0703L1.5625 99.0703L1.5625 101.07L30 101.07L30 99.0703ZM2.5625 100.07L2.5625 93.2148L0.562503 93.2148L0.562503 100.07L2.5625 100.07ZM2.05668 94.0842L19.752 84.0256L18.7636 82.2869L1.06833 92.3455L2.05668 94.0842ZM19.2578 82.1563L1.5625 82.1562L1.5625 84.1562L19.2578 84.1563L19.2578 82.1563ZM2.5625 83.1562L2.5625 76.3203L0.562503 76.3203L0.562503 83.1562L2.5625 83.1562ZM1.5625 77.3203L30 77.3203L30 75.3203L1.5625 75.3203L1.5625 77.3203ZM17.9492 54.3477L18.9492 54.3477L18.9492 53.3477L17.9492 53.3477L17.9492 54.3477ZM17.9492 65.1289L16.9492 65.1289L16.9492 66.1289L17.9492 66.1289L17.9492 65.1289ZM24.7266 65.1289L24.7266 66.1289L25.7266 66.1289L25.7266 65.1289L24.7266 65.1289ZM24.7266 52.3945L24.7266 51.3945L23.7266 51.3945L23.7266 52.3945L24.7266 52.3945ZM30 52.3945L31 52.3945L31 51.3945L30 51.3945L30 52.3945ZM30 71.9844L30 72.9844L31 72.9844L31 71.9844L30 71.9844ZM1.5625 71.9844L0.562503 71.9844L0.562503 72.9844L1.5625 72.9844L1.5625 71.9844ZM1.5625 52.3555L1.5625 51.3555L0.562503 51.3555L0.562503 52.3555L1.5625 52.3555ZM6.85547 52.3555L7.85547 52.3555L7.85547 51.3555L6.85547 51.3555L6.85547 52.3555ZM6.85547 65.1289L5.85547 65.1289L5.85547 66.1289L6.85547 66.1289L6.85547 65.1289ZM12.8516 65.1289L12.8516 66.1289L13.8516 66.1289L13.8516 65.1289L12.8516 65.1289ZM12.8516 54.3477L12.8516 53.3477L11.8516 53.3477L11.8516 54.3477L12.8516 54.3477ZM16.9492 54.3477L16.9492 65.1289L18.9492 65.1289L18.9492 54.3477L16.9492 54.3477ZM17.9492 66.1289L24.7266 66.1289L24.7266 64.1289L17.9492 64.1289L17.9492 66.1289ZM25.7266 65.1289L25.7266 52.3945L23.7266 52.3945L23.7266 65.1289L25.7266 65.1289ZM24.7266 53.3945L30 53.3945L30 51.3945L24.7266 51.3945L24.7266 53.3945ZM29 52.3945L29 71.9844L31 71.9844L31 52.3945L29 52.3945ZM30 70.9844L1.5625 70.9844L1.5625 72.9844L30 72.9844L30 70.9844ZM2.5625 71.9844L2.5625 52.3555L0.562503 52.3555L0.562503 71.9844L2.5625 71.9844ZM1.5625 53.3555L6.85547 53.3555L6.85547 51.3555L1.5625 51.3555L1.5625 53.3555ZM5.85547 52.3555L5.85547 65.1289L7.85547 65.1289L7.85547 52.3555L5.85547 52.3555ZM6.85547 66.1289L12.8516 66.1289L12.8516 64.1289L6.85547 64.1289L6.85547 66.1289ZM13.8516 65.1289L13.8516 54.3477L11.8516 54.3477L11.8516 65.1289L13.8516 65.1289ZM12.8516 55.3477L17.9492 55.3477L17.9492 53.3477L12.8516 53.3477L12.8516 55.3477ZM20.3711 26.5938L20.4171 25.5948L19.3711 25.5466L19.3711 26.5938L20.3711 26.5938ZM25.625 28.1953L26.168 27.3555L26.1647 27.3534L25.625 28.1953ZM29.1406 32.3164L28.2358 32.7422L28.237 32.7448L29.1406 32.3164ZM7.71485 48.957L7.29258 49.8635L7.29507 49.8647L7.71485 48.957ZM2.8711 44.7578L3.72047 44.23L3.71773 44.2256L2.8711 44.7578ZM3.88672 30.1094L4.64133 30.7656L4.64365 30.7629L3.88672 30.1094ZM11.3867 26.5352L12.3867 26.5352L12.3867 25.4413L11.2973 25.5392L11.3867 26.5352ZM11.3867 33.3711L11.4168 34.3706L12.3867 34.3415L12.3867 33.3711L11.3867 33.3711ZM8.4375 42.1797L8.96594 41.3307L8.4375 42.1797ZM14.5508 43.4297L14.5368 44.4297L14.5508 44.4297L14.5508 43.4297ZM23.0664 42.2969L23.5681 43.1619L23.5746 43.1581L23.0664 42.2969ZM20.3711 33.4102L19.3711 33.4102L19.3711 34.3784L20.3389 34.4096L20.3711 33.4102ZM20.3251 27.5927C22.1459 27.6765 23.7236 28.1643 25.0853 29.0372L26.1647 27.3534C24.4795 26.2732 22.5546 25.6932 20.4171 25.5948L20.3251 27.5927ZM25.0821 29.0351C26.4218 29.9013 27.4748 31.125 28.2358 32.7422L30.0454 31.8906C29.1398 29.9662 27.8491 28.4425 26.168 27.3556L25.0821 29.0351ZM28.237 32.7448C28.9972 34.3484 29.3906 36.2098 29.3906 38.3516L31.3906 38.3516C31.3906 35.962 30.9507 33.8 30.0442 31.888L28.237 32.7448ZM29.3906 38.3516C29.3906 41.8495 28.2629 44.5008 26.0767 46.4298L27.3999 47.9295C30.0834 45.5617 31.3906 42.3276 31.3906 38.3516L29.3906 38.3516ZM26.0767 46.4298C23.8822 48.3661 20.7122 49.4023 16.4258 49.4023L16.4258 51.4023C21.0196 51.4023 24.7246 50.2901 27.3999 47.9295L26.0767 46.4298ZM16.4258 49.4023L15.0195 49.4023L15.0195 51.4023L16.4258 51.4023L16.4258 49.4023ZM15.0195 49.4023C12.3476 49.4023 10.0613 48.9405 8.13462 48.0494L7.29507 49.8647C9.53505 50.9006 12.1185 51.4023 15.0195 51.4023L15.0195 49.4023ZM8.13712 48.0506C6.20261 47.1494 4.74271 45.875 3.72046 44.23L2.02174 45.2856C3.26511 47.2865 5.03437 48.8116 7.29258 49.8635L8.13712 48.0506ZM3.71773 44.2256C2.68315 42.5797 2.15235 40.6591 2.15235 38.4297L0.152347 38.4297C0.152347 40.9919 0.767374 43.2901 2.02446 45.29L3.71773 44.2256ZM2.15235 38.4297C2.15235 35.1598 3.0123 32.6389 4.64133 30.7656L3.13212 29.4532C1.11531 31.7725 0.152347 34.7985 0.152347 38.4297L2.15235 38.4297ZM4.64365 30.7629C6.25734 28.8938 8.50099 27.7983 11.4762 27.5312L11.2973 25.5392C7.89224 25.8449 5.1359 27.1323 3.12979 29.4559L4.64365 30.7629ZM10.3867 26.5352L10.3867 33.3711L12.3867 33.3711L12.3867 26.5352L10.3867 26.5352ZM11.3567 32.3716C9.50153 32.4273 7.93744 32.8978 6.92056 34.0024L8.39195 35.357C8.88548 34.8209 9.80838 34.419 11.4168 34.3706L11.3567 32.3716ZM6.92056 34.0024C5.92688 35.0817 5.52344 36.6229 5.52344 38.4297L7.52344 38.4297C7.52344 36.8771 7.87521 35.9183 8.39195 35.357L6.92056 34.0024ZM5.52344 38.4297C5.52344 40.4257 6.29578 42.0245 7.90906 43.0287L8.96594 41.3307C8.02714 40.7464 7.52344 39.8452 7.52344 38.4297L5.52344 38.4297ZM7.90906 43.0287C9.42308 43.9711 11.6884 44.3898 14.5368 44.4296L14.5647 42.4298C11.8143 42.3914 10.004 41.9769 8.96594 41.3307L7.90906 43.0287ZM14.5508 44.4297L16.5625 44.4297L16.5625 42.4297L14.5508 42.4297L14.5508 44.4297ZM16.5625 44.4297C19.6271 44.4297 22.024 44.0575 23.5681 43.1619L22.5647 41.4319C21.5047 42.0466 19.5657 42.4297 16.5625 42.4297L16.5625 44.4297ZM23.5746 43.1581C25.2556 42.1663 26.0195 40.4719 26.0195 38.3516L24.0195 38.3516C24.0195 39.9552 23.4814 40.891 22.5583 41.4356L23.5746 43.1581ZM26.0195 38.3516C26.0195 36.6313 25.6146 35.1529 24.653 34.0732L23.1595 35.4034C23.6823 35.9903 24.0195 36.9208 24.0195 38.3516L26.0195 38.3516ZM24.653 34.0732C23.6599 32.9581 22.168 32.4676 20.4033 32.4107L20.3389 34.4096C21.8034 34.4569 22.6682 34.8518 23.1595 35.4034L24.653 34.0732ZM21.3711 33.4102L21.3711 26.5938L19.3711 26.5938L19.3711 33.4102L21.3711 33.4102ZM6.85547 1.61328L7.85547 1.61328L7.85547 0.613281L6.85547 0.613281L6.85547 1.61328ZM6.85547 10.1484L5.85547 10.1484L5.85547 11.1484L6.85547 11.1484L6.85547 10.1484ZM30 10.1484L31 10.1484L31 9.14844L30 9.14844L30 10.1484ZM30 17.0039L30 18.0039L31 18.0039L31 17.0039L30 17.0039ZM6.85547 17.0039L6.85547 16.0039L5.85547 16.0039L5.85547 17.0039L6.85547 17.0039ZM6.85547 25.3828L6.85547 26.3828L7.85547 26.3828L7.85547 25.3828L6.85547 25.3828ZM1.5625 25.3828L0.562504 25.3828L0.562504 26.3828L1.5625 26.3828L1.5625 25.3828ZM1.5625 1.61328L1.5625 0.613281L0.562504 0.613281L0.562504 1.61328L1.5625 1.61328ZM5.85547 1.61328L5.85547 10.1484L7.85547 10.1484L7.85547 1.61328L5.85547 1.61328ZM6.85547 11.1484L30 11.1484L30 9.14844L6.85547 9.14844L6.85547 11.1484ZM29 10.1484L29 17.0039L31 17.0039L31 10.1484L29 10.1484ZM30 16.0039L6.85547 16.0039L6.85547 18.0039L30 18.0039L30 16.0039ZM5.85547 17.0039L5.85547 25.3828L7.85547 25.3828L7.85547 17.0039L5.85547 17.0039ZM6.85547 24.3828L1.5625 24.3828L1.5625 26.3828L6.85547 26.3828L6.85547 24.3828ZM2.5625 25.3828L2.5625 1.61328L0.562504 1.61328L0.562504 25.3828L2.5625 25.3828ZM1.5625 2.61328L6.85547 2.61328L6.85547 0.613281L1.5625 0.613281L1.5625 2.61328Z" fill="white"/>
</svg>
