<svg width="32" height="293" viewBox="0 0 32 293" fill="none" xmlns="http://www.w3.org/2000/svg">
<path d="M20.0977 277.258L20.88 277.881L20.8855 277.874L20.0977 277.258ZM16.6211 285.363L15.7246 284.92L15.7235 284.922L16.6211 285.363ZM5 289.523L4.39318 290.318L4.39448 290.319L5 289.523ZM2.1875 285.617L3.11748 285.25L3.11498 285.243L2.1875 285.617ZM2.26563 274.465L3.177 274.876L3.17823 274.874L2.26563 274.465ZM5.39063 270.676L5.94348 271.509L5.94719 271.507L5.39063 270.676ZM10 269.328L11 269.328L11 268.328L10 268.328L10 269.328ZM10 276.164L10 277.164L11 277.164L11 276.164L10 276.164ZM7.30469 277.238L8.04528 277.91L8.05135 277.903L7.30469 277.238ZM7.16797 283.02L7.96442 282.415L7.96274 282.413L7.16797 283.02ZM11.2109 282.902L12.0046 283.511L12.0109 283.502L11.2109 282.902ZM13.0469 278.781L13.9981 279.09L13.9999 279.084L13.0469 278.781ZM15.0781 273.938L15.9442 274.437L15.9446 274.437L15.0781 273.938ZM29.1602 286.125L30.0729 286.534L30.0763 286.526L29.1602 286.125ZM25.7617 290.344L26.3059 291.183L26.3147 291.177L25.7617 290.344ZM20.7813 291.75L19.7813 291.75L19.7813 292.75L20.7813 292.75L20.7813 291.75ZM20.7813 284.875L20.7813 283.875L19.7813 283.875L19.7813 284.875L20.7813 284.875ZM24.1602 283.703L24.8912 284.385L24.8971 284.379L24.9028 284.373L24.1602 283.703ZM24.5117 277.18L25.3156 276.585L25.3136 276.582L24.5117 277.18ZM22.4414 275.184C21.1673 275.184 20.0805 275.656 19.3098 276.642L20.8855 277.874C21.2346 277.427 21.7103 277.184 22.4414 277.184L22.4414 275.184ZM19.3154 276.635C18.6398 277.483 18.0159 278.87 17.4114 280.67L19.3074 281.307C19.9007 279.539 20.4357 278.439 20.8799 277.881L19.3154 276.635ZM17.4114 280.67C16.8206 282.43 16.2575 283.842 15.7246 284.92L17.5176 285.806C18.1045 284.619 18.7003 283.115 19.3074 281.307L17.4114 280.67ZM15.7235 284.922C14.0225 288.386 11.8247 289.891 9.16016 289.891L9.16016 291.891C12.8237 291.891 15.5999 289.711 17.5187 285.804L15.7235 284.922ZM9.16016 289.891C7.79243 289.891 6.62085 289.5 5.60552 288.728L4.39448 290.319C5.77499 291.37 7.37684 291.891 9.16016 291.891L9.16016 289.891ZM5.60682 288.729C4.56529 287.933 3.72717 286.792 3.11746 285.25L1.25754 285.985C1.97595 287.802 3.01284 289.264 4.39318 290.318L5.60682 288.729ZM3.11498 285.243C2.49273 283.7 2.17188 281.941 2.17188 279.953L0.171875 279.953C0.171875 282.158 0.528107 284.175 1.26002 285.991L3.11498 285.243ZM2.17188 279.953C2.17188 278.029 2.51457 276.343 3.177 274.876L1.35425 274.053C0.558343 275.816 0.171875 277.789 0.171875 279.953L2.17188 279.953ZM3.17823 274.874C3.83786 273.401 4.76217 272.293 5.94348 271.509L4.83778 269.843C3.31075 270.856 2.15173 272.273 1.35302 274.056L3.17823 274.874ZM5.94719 271.507C7.11153 270.727 8.45128 270.328 10 270.328L10 268.328C8.08518 268.328 6.35201 268.828 4.83407 269.845L5.94719 271.507ZM9 269.328L9 276.164L11 276.164L11 269.328L9 269.328ZM10 275.164C8.62054 275.164 7.42492 275.6 6.55803 276.573L8.05135 277.903C8.46049 277.444 9.06175 277.164 10 277.164L10 275.164ZM6.56413 276.566C5.71703 277.5 5.34766 278.721 5.34766 280.109L7.34766 280.109C7.34766 279.076 7.6163 278.383 8.04525 277.91L6.56413 276.566ZM5.34766 280.109C5.34766 281.475 5.6527 282.683 6.3732 283.626L7.96274 282.413C7.58949 281.924 7.34766 281.192 7.34766 280.109L5.34766 280.109ZM6.37152 283.624C7.08139 284.559 8.05174 285.074 9.21875 285.074L9.21875 283.074C8.7191 283.074 8.32226 282.886 7.96442 282.415L6.37152 283.624ZM9.21875 285.074C10.3598 285.074 11.2876 284.446 12.0045 283.511L10.4173 282.294C9.93638 282.921 9.536 283.074 9.21875 283.074L9.21875 285.074ZM12.0109 283.502C12.7026 282.58 13.3553 281.071 13.998 279.09L12.0957 278.473C11.4624 280.424 10.8912 281.662 10.4109 282.302L12.0109 283.502ZM13.9999 279.084C14.6113 277.161 15.2624 275.618 15.9442 274.437L14.2121 273.438C13.4355 274.783 12.7325 276.469 12.0939 278.478L13.9999 279.084ZM15.9446 274.437C17.5668 271.622 19.7041 270.328 22.4023 270.328L22.4023 268.328C18.8767 268.328 16.1311 270.107 14.2117 273.438L15.9446 274.437ZM22.4023 270.328C24.5971 270.328 26.2465 271.135 27.4644 272.744L29.0591 271.537C27.4384 269.396 25.1815 268.328 22.4023 268.328L22.4023 270.328ZM27.4644 272.744C28.7095 274.389 29.3906 276.722 29.3906 279.855L31.3906 279.855C31.3906 276.453 30.6525 273.642 29.0591 271.537L27.4644 272.744ZM29.3906 279.855C29.3906 282.04 29.0024 283.991 28.244 285.724L30.0763 286.526C30.9585 284.509 31.3906 282.281 31.3906 279.855L29.3906 279.855ZM28.2474 285.716C27.4768 287.438 26.456 288.683 25.2088 289.511L26.3147 291.177C27.9321 290.104 29.1769 288.536 30.0729 286.534L28.2474 285.716ZM25.2175 289.505C23.9486 290.328 22.4809 290.75 20.7813 290.75L20.7813 292.75C22.8316 292.75 24.6843 292.235 26.3059 291.183L25.2175 289.505ZM21.7813 291.75L21.7813 284.875L19.7813 284.875L19.7813 291.75L21.7813 291.75ZM20.7813 285.875C22.4617 285.875 23.9041 285.443 24.8912 284.385L23.4291 283.021C22.9579 283.526 22.1477 283.875 20.7813 283.875L20.7813 285.875ZM24.9028 284.373C25.8639 283.307 26.2344 281.722 26.2344 279.855L24.2344 279.855C24.2344 281.531 23.8888 282.511 23.4175 283.033L24.9028 284.373ZM26.2344 279.855C26.2344 278.592 25.9666 277.465 25.3156 276.585L23.7079 277.775C24.0203 278.197 24.2344 278.854 24.2344 279.855L26.2344 279.855ZM25.3136 276.582C24.6154 275.645 23.6172 275.184 22.4414 275.184L22.4414 277.184C23.0364 277.184 23.4185 277.386 23.7098 277.777L25.3136 276.582ZM6.85547 243.488L7.85547 243.488L7.85547 242.488L6.85547 242.488L6.85547 243.488ZM6.85547 252.023L5.85547 252.023L5.85547 253.023L6.85547 253.023L6.85547 252.023ZM30 252.023L31 252.023L31 251.023L30 251.023L30 252.023ZM30 258.879L30 259.879L31 259.879L31 258.879L30 258.879ZM6.85547 258.879L6.85547 257.879L5.85547 257.879L5.85547 258.879L6.85547 258.879ZM6.85547 267.258L6.85547 268.258L7.85547 268.258L7.85547 267.258L6.85547 267.258ZM1.5625 267.258L0.5625 267.258L0.5625 268.258L1.5625 268.258L1.5625 267.258ZM1.5625 243.488L1.5625 242.488L0.562501 242.488L0.562501 243.488L1.5625 243.488ZM5.85547 243.488L5.85547 252.023L7.85547 252.023L7.85547 243.488L5.85547 243.488ZM6.85547 253.023L30 253.023L30 251.023L6.85547 251.023L6.85547 253.023ZM29 252.023L29 258.879L31 258.879L31 252.023L29 252.023ZM30 257.879L6.85547 257.879L6.85547 259.879L30 259.879L30 257.879ZM5.85547 258.879L5.85547 267.258L7.85547 267.258L7.85547 258.879L5.85547 258.879ZM6.85547 266.258L1.5625 266.258L1.5625 268.258L6.85547 268.258L6.85547 266.258ZM2.5625 267.258L2.5625 243.488L0.562501 243.488L0.5625 267.258L2.5625 267.258ZM1.5625 244.488L6.85547 244.488L6.85547 242.488L1.5625 242.488L1.5625 244.488ZM17.9492 222.941L18.9492 222.941L18.9492 221.941L17.9492 221.941L17.9492 222.941ZM17.9492 233.723L16.9492 233.723L16.9492 234.723L17.9492 234.723L17.9492 233.723ZM24.7266 233.723L24.7266 234.723L25.7266 234.723L25.7266 233.723L24.7266 233.723ZM24.7266 220.988L24.7266 219.988L23.7266 219.988L23.7266 220.988L24.7266 220.988ZM30 220.988L31 220.988L31 219.988L30 219.988L30 220.988ZM30 240.578L30 241.578L31 241.578L31 240.578L30 240.578ZM1.5625 240.578L0.562501 240.578L0.562501 241.578L1.5625 241.578L1.5625 240.578ZM1.5625 220.949L1.5625 219.949L0.562501 219.949L0.562501 220.949L1.5625 220.949ZM6.85547 220.949L7.85547 220.949L7.85547 219.949L6.85547 219.949L6.85547 220.949ZM6.85547 233.723L5.85547 233.723L5.85547 234.723L6.85547 234.723L6.85547 233.723ZM12.8516 233.723L12.8516 234.723L13.8516 234.723L13.8516 233.723L12.8516 233.723ZM12.8516 222.941L12.8516 221.941L11.8516 221.941L11.8516 222.941L12.8516 222.941ZM16.9492 222.941L16.9492 233.723L18.9492 233.723L18.9492 222.941L16.9492 222.941ZM17.9492 234.723L24.7266 234.723L24.7266 232.723L17.9492 232.723L17.9492 234.723ZM25.7266 233.723L25.7266 220.988L23.7266 220.988L23.7266 233.723L25.7266 233.723ZM24.7266 221.988L30 221.988L30 219.988L24.7266 219.988L24.7266 221.988ZM29 220.988L29 240.578L31 240.578L31 220.988L29 220.988ZM30 239.578L1.5625 239.578L1.5625 241.578L30 241.578L30 239.578ZM2.5625 240.578L2.5625 220.949L0.562501 220.949L0.562501 240.578L2.5625 240.578ZM1.5625 221.949L6.85547 221.949L6.85547 219.949L1.5625 219.949L1.5625 221.949ZM5.85547 220.949L5.85547 233.723L7.85547 233.723L7.85547 220.949L5.85547 220.949ZM6.85547 234.723L12.8516 234.723L12.8516 232.723L6.85547 232.723L6.85547 234.723ZM13.8516 233.723L13.8516 222.941L11.8516 222.941L11.8516 233.723L13.8516 233.723ZM12.8516 223.941L17.9492 223.941L17.9492 221.941L12.8516 221.941L12.8516 223.941ZM20.3516 211.34L19.3516 211.34L19.3516 212.34L20.3516 212.34L20.3516 211.34ZM30 211.34L31 211.34L31 210.34L30 210.34L30 211.34ZM30 218.195L30 219.195L31 219.195L31 218.195L30 218.195ZM1.5625 218.195L0.562501 218.195L0.562501 219.195L1.5625 219.195L1.5625 218.195ZM2.77344 201.086L3.67346 201.522L3.67746 201.513L2.77344 201.086ZM6.19141 197.199L6.7147 198.051L6.72343 198.046L6.19141 197.199ZM17.8711 198.801L18.6385 198.16L18.6381 198.159L17.8711 198.801ZM15.0586 211.34L15.0586 212.34L16.0586 212.34L16.0586 211.34L15.0586 211.34ZM14.0625 203.82L13.3355 204.507L13.3419 204.514L14.0625 203.82ZM6.85547 206.77L5.85547 206.759L5.85547 206.77L6.85547 206.77ZM6.85547 211.34L5.85547 211.34L5.85547 212.34L6.85547 212.34L6.85547 211.34ZM20.3516 212.34L30 212.34L30 210.34L20.3516 210.34L20.3516 212.34ZM29 211.34L29 218.195L31 218.195L31 211.34L29 211.34ZM30 217.195L1.5625 217.195L1.5625 219.195L30 219.195L30 217.195ZM2.5625 218.195L2.5625 206.848L0.562501 206.848L0.562501 218.195L2.5625 218.195ZM2.5625 206.848C2.5625 204.798 2.94247 203.031 3.67342 201.522L1.87346 200.65C0.98982 202.474 0.562501 204.548 0.562501 206.848L2.5625 206.848ZM3.67746 201.513C4.39453 199.997 5.40695 198.854 6.71467 198.051L5.66814 196.347C4.00712 197.367 2.74089 198.816 1.86942 200.658L3.67746 201.513ZM6.72343 198.046C8.02278 197.23 9.50869 196.813 11.2109 196.813L11.2109 194.813C9.16319 194.813 7.30274 195.32 5.65939 196.352L6.72343 198.046ZM11.2109 196.813C13.7112 196.813 15.6417 197.694 17.1041 199.442L18.6381 198.159C16.7672 195.923 14.2576 194.813 11.2109 194.813L11.2109 196.813ZM17.1037 199.442C18.5624 201.188 19.3516 203.655 19.3516 206.965L21.3516 206.965C21.3516 203.348 20.4871 200.372 18.6385 198.16L17.1037 199.442ZM19.3516 206.965L19.3516 211.34L21.3516 211.34L21.3516 206.965L19.3516 206.965ZM16.0586 211.34L16.0586 206.848L14.0586 206.848L14.0586 211.34L16.0586 211.34ZM16.0586 206.848C16.0586 205.362 15.6861 204.065 14.7831 203.127L13.3419 204.514C13.767 204.955 14.0586 205.677 14.0586 206.848L16.0586 206.848ZM14.7895 203.134C13.8912 202.183 12.6622 201.766 11.25 201.766L11.25 203.766C12.2597 203.766 12.9057 204.052 13.3355 204.507L14.7895 203.134ZM11.25 201.766C9.73688 201.766 8.41632 202.178 7.39677 203.097L8.73604 204.583C9.30504 204.07 10.1069 203.766 11.25 203.766L11.25 201.766ZM7.39677 203.097C6.36173 204.03 5.87098 205.291 5.85553 206.759L7.85541 206.78C7.866 205.775 8.18255 205.082 8.73604 204.583L7.39677 203.097ZM5.85547 206.77L5.85547 211.34L7.85547 211.34L7.85547 206.77L5.85547 206.77ZM6.85547 212.34L15.0586 212.34L15.0586 210.34L6.85547 210.34L6.85547 212.34ZM30 162.746L31 162.746L31 161.746L30 161.746L30 162.746ZM30 182.59L30 183.59L31 183.59L31 182.59L30 182.59ZM25.7031 182.59L25.0139 183.314L25.3035 183.59L25.7031 183.59L25.7031 182.59ZM16.0938 173.449L16.783 172.725L16.7686 172.711L16.7536 172.698L16.0938 173.449ZM7.51953 175.637L8.11359 174.832L8.1077 174.828L7.51953 175.637ZM10.7031 176.574L11.7031 176.574L11.7031 175.574L10.7031 175.574L10.7031 176.574ZM10.7031 183.176L10.7031 184.176L11.7031 184.176L11.7031 183.176L10.7031 183.176ZM5.87891 181.867L6.38892 181.007L6.3856 181.005L5.87891 181.867ZM3.28125 165.949L4.04009 166.601L4.0426 166.598L3.28125 165.949ZM12.6758 164.074L13.0432 163.144L13.0393 163.143L12.6758 164.074ZM16.0156 166.027L15.4128 166.825L15.4142 166.826L16.0156 166.027ZM20.6836 170.266L19.9765 170.973L20.0018 170.998L20.0288 171.021L20.6836 170.266ZM24.9219 173.938L24.2671 174.693L25.9219 176.127L25.9219 173.938L24.9219 173.938ZM24.9219 162.746L24.9219 161.746L23.9219 161.746L23.9219 162.746L24.9219 162.746ZM29 162.746L29 182.59L31 182.59L31 162.746L29 162.746ZM30 181.59L25.7031 181.59L25.7031 183.59L30 183.59L30 181.59ZM26.3923 181.865L16.783 172.725L15.4045 174.174L25.0139 183.314L26.3923 181.865ZM16.7536 172.698C15.4395 171.544 14.229 170.65 13.1253 170.04C12.0316 169.435 10.9724 169.07 9.98047 169.07L9.98047 171.07C10.4989 171.07 11.2139 171.269 12.1579 171.79C13.092 172.307 14.1829 173.102 15.4339 174.201L16.7536 172.698ZM9.98047 169.07C8.62923 169.07 7.43175 169.363 6.54578 170.104L7.82922 171.638C8.21929 171.312 8.88379 171.07 9.98047 171.07L9.98047 169.07ZM6.54578 170.104C5.63091 170.87 5.23047 171.955 5.23047 173.195L7.23047 173.195C7.23047 172.404 7.46805 171.94 7.82922 171.638L6.54578 170.104ZM5.23047 173.195C5.23047 174.54 5.83141 175.645 6.93136 176.445L8.1077 174.828C7.48891 174.378 7.23047 173.856 7.23047 173.195L5.23047 173.195ZM6.92549 176.441C7.97788 177.218 9.25982 177.574 10.7031 177.574L10.7031 175.574C9.59435 175.574 8.7539 175.305 8.11358 174.832L6.92549 176.441ZM9.70313 176.574L9.70313 183.176L11.7031 183.176L11.7031 176.574L9.70313 176.574ZM10.7031 182.176C9.13403 182.176 7.70268 181.786 6.38892 181.007L5.3689 182.727C6.99784 183.693 8.78264 184.176 10.7031 184.176L10.7031 182.176ZM6.3856 181.005C5.06271 180.228 4.03163 179.153 3.28305 177.761L1.52164 178.708C2.43972 180.415 3.72636 181.762 5.37222 182.729L6.3856 181.005ZM3.28305 177.761C2.53479 176.369 2.15235 174.803 2.15235 173.039L0.152345 173.039C0.152345 175.104 0.603236 177 1.52164 178.708L3.28305 177.761ZM2.15235 173.039C2.15235 170.108 2.82971 168.011 4.04009 166.601L2.52242 165.298C0.894249 167.195 0.152345 169.824 0.152345 173.039L2.15235 173.039ZM4.0426 166.598C5.23156 165.201 6.96285 164.449 9.39453 164.449L9.39453 162.449C6.51372 162.449 4.16949 163.364 2.5199 165.301L4.0426 166.598ZM9.39453 164.449C10.387 164.449 11.3576 164.633 12.3122 165.006L13.0393 163.143C11.8585 162.682 10.6417 162.449 9.39453 162.449L9.39453 164.449ZM12.3084 165.004C13.2584 165.38 14.293 165.979 15.4128 166.825L16.6185 165.229C15.3945 164.305 14.2025 163.602 13.0432 163.144L12.3084 165.004ZM15.4142 166.826C16.516 167.656 18.0325 169.029 19.9765 170.973L21.3907 169.559C19.4284 167.596 17.8329 166.144 16.6171 165.228L15.4142 166.826ZM20.0288 171.021L24.2671 174.693L25.5767 173.182L21.3384 169.51L20.0288 171.021ZM25.9219 173.938L25.9219 162.746L23.9219 162.746L23.9219 173.938L25.9219 173.938ZM24.9219 163.746L30 163.746L30 161.746L24.9219 161.746L24.9219 163.746ZM24.5508 152.629L25.292 153.3L25.299 153.292L24.5508 152.629ZM29.2969 152.629L30.0451 151.965L30.0381 151.958L29.2969 152.629ZM29.2773 157.844L30.0122 158.522L30.0186 158.515L29.2773 157.844ZM24.5508 157.844L23.8095 158.515L23.816 158.522L24.5508 157.844ZM8.96485 152.629L9.70609 153.3L9.71303 153.292L8.96485 152.629ZM13.7109 152.629L14.4592 151.965L14.4521 151.958L13.7109 152.629ZM13.6914 157.844L14.4262 158.522L14.4326 158.515L13.6914 157.844ZM8.96485 157.844L8.22361 158.515L8.23004 158.522L8.96485 157.844ZM24.6133 155.227C24.6133 154.401 24.8537 153.784 25.292 153.3L23.8096 151.958C22.9979 152.854 22.6133 153.969 22.6133 155.227L24.6133 155.227ZM25.299 153.292C25.7117 152.827 26.2221 152.594 26.9141 152.594L26.9141 150.594C25.679 150.594 24.6138 151.051 23.8026 151.965L25.299 153.292ZM26.9141 152.594C27.6064 152.594 28.1276 152.828 28.5557 153.3L30.0381 151.958C29.2161 151.05 28.1488 150.594 26.9141 150.594L26.9141 152.594ZM28.5487 153.292C28.9773 153.776 29.2148 154.396 29.2148 155.227L31.2148 155.227C31.2148 153.974 30.8404 152.862 30.0451 151.965L28.5487 153.292ZM29.2148 155.227C29.2148 156.068 28.9723 156.691 28.5361 157.172L30.0186 158.515C30.8324 157.616 31.2148 156.494 31.2148 155.227L29.2148 155.227ZM28.5425 157.165C28.1135 157.63 27.5955 157.859 26.9141 157.859L26.9141 159.859C28.1337 159.859 29.1912 159.411 30.0121 158.522L28.5425 157.165ZM26.9141 157.859C26.2327 157.859 25.7146 157.63 25.2856 157.165L23.816 158.522C24.6369 159.411 25.6944 159.859 26.9141 159.859L26.9141 157.859ZM25.292 157.172C24.8558 156.691 24.6133 156.068 24.6133 155.227L22.6133 155.227C22.6133 156.494 22.9957 157.616 23.8096 158.515L25.292 157.172ZM9.02735 155.227C9.02735 154.401 9.26775 153.784 9.70605 153.3L8.22364 151.958C7.41194 152.854 7.02735 153.969 7.02735 155.227L9.02735 155.227ZM9.71303 153.292C10.1258 152.827 10.6361 152.594 11.3281 152.594L11.3281 150.594C10.0931 150.594 9.02785 151.051 8.21666 151.965L9.71303 153.292ZM11.3281 152.594C12.0205 152.594 12.5417 152.828 12.9697 153.3L14.4521 151.958C13.6302 151.05 12.5629 150.594 11.3281 150.594L11.3281 152.594ZM12.9628 153.292C13.3914 153.776 13.6289 154.396 13.6289 155.227L15.6289 155.227C15.6289 153.974 15.2545 152.862 14.4591 151.965L12.9628 153.292ZM13.6289 155.227C13.6289 156.068 13.3863 156.691 12.9502 157.172L14.4326 158.515C15.2465 157.616 15.6289 156.494 15.6289 155.227L13.6289 155.227ZM12.9566 157.165C12.5276 157.63 12.0095 157.859 11.3281 157.859L11.3281 159.859C12.5478 159.859 13.6052 159.411 14.4262 158.522L12.9566 157.165ZM11.3281 157.859C10.6467 157.859 10.1287 157.63 9.69965 157.165L8.23004 158.522C9.05101 159.411 10.1085 159.859 11.3281 159.859L11.3281 157.859ZM9.70605 157.172C9.26991 156.691 9.02735 156.068 9.02735 155.227L7.02735 155.227C7.02735 156.494 7.40978 157.616 8.22364 158.515L9.70605 157.172ZM1.5625 128.02L1.25701 127.067L0.562502 127.29L0.562502 128.02L1.5625 128.02ZM21.3477 121.672L21.6532 122.624L24.6256 121.67L21.6523 120.719L21.3477 121.672ZM1.5625 115.344L0.562502 115.344L0.562502 116.074L1.25786 116.296L1.5625 115.344ZM1.5625 106.32L1.5625 105.32L0.562502 105.32L0.562502 106.32L1.5625 106.32ZM30 106.32L31 106.32L31 105.32L30 105.32L30 106.32ZM30 113.195L30 114.195L31 114.195L31 113.195L30 113.195ZM23.3594 113.195L23.3106 114.194L23.335 114.195L23.3594 114.195L23.3594 113.195ZM9.76563 112.531L9.81442 111.532L9.44392 113.478L9.76563 112.531ZM30 119.406L31 119.406L31 118.69L30.3217 118.459L30 119.406ZM30 123.938L30.3222 124.884L31 124.653L31 123.938L30 123.938ZM9.7461 130.832L9.42385 129.885L9.79482 131.831L9.7461 130.832ZM23.3594 130.168L23.3594 129.168L23.335 129.168L23.3107 129.169L23.3594 130.168ZM30 130.168L31 130.168L31 129.168L30 129.168L30 130.168ZM30 137.023L30 138.023L31 138.023L31 137.023L30 137.023ZM1.5625 137.023L0.562502 137.023L0.562502 138.023L1.5625 138.023L1.5625 137.023ZM1.86799 128.972L21.6532 122.624L21.0422 120.72L1.25701 127.067L1.86799 128.972ZM21.6523 120.719L1.86714 114.391L1.25786 116.296L21.043 122.624L21.6523 120.719ZM2.5625 115.344L2.5625 106.32L0.562502 106.32L0.562502 115.344L2.5625 115.344ZM1.5625 107.32L30 107.32L30 105.32L1.5625 105.32L1.5625 107.32ZM29 106.32L29 113.195L31 113.195L31 106.32L29 106.32ZM30 112.195L23.3594 112.195L23.3594 114.195L30 114.195L30 112.195ZM23.4082 112.197L9.81442 111.532L9.71683 113.53L23.3106 114.194L23.4082 112.197ZM9.44392 113.478L29.6783 120.353L30.3217 118.459L10.0873 111.584L9.44392 113.478ZM29 119.406L29 123.938L31 123.938L31 119.406L29 119.406ZM29.6778 122.991L9.42385 129.885L10.0683 131.779L30.3222 124.884L29.6778 122.991ZM9.79482 131.831L23.4081 131.167L23.3107 129.169L9.69737 129.833L9.79482 131.831ZM23.3594 131.168L30 131.168L30 129.168L23.3594 129.168L23.3594 131.168ZM29 130.168L29 137.023L31 137.023L31 130.168L29 130.168ZM30 136.023L1.5625 136.023L1.5625 138.023L30 138.023L30 136.023ZM2.5625 137.023L2.5625 128.02L0.562502 128.02L0.562502 137.023L2.5625 137.023ZM24.6875 85.4414L24.3892 84.4869L23.6875 84.7062L23.6875 85.4414L24.6875 85.4414ZM24.6875 94.8359L23.6875 94.8359L23.6875 95.5737L24.3924 95.7914L24.6875 94.8359ZM30 96.4766L31 96.4766L31 95.7388L30.2951 95.5211L30 96.4766ZM30 103.801L29.6557 104.74L31 105.233L31 103.801L30 103.801ZM1.5625 93.3711L0.562502 93.3711L0.562502 94.0695L1.21817 94.3099L1.5625 93.3711ZM1.5625 86.9258L1.2159 85.9878L0.562502 86.2292L0.562502 86.9258L1.5625 86.9258ZM30 76.418L31 76.418L31 74.9824L29.6534 75.48L30 76.418ZM30 83.7813L30.2983 84.7357L31 84.5164L31 83.7813L30 83.7813ZM19.3945 93.1953L19.0994 94.1508L20.3945 94.5508L20.3945 93.1953L19.3945 93.1953ZM19.3945 87.082L20.3945 87.082L20.3945 85.7239L19.0977 86.1271L19.3945 87.082ZM9.53125 90.1484L9.23438 89.1935L6.15302 90.1515L9.2361 91.1039L9.53125 90.1484ZM23.6875 85.4414L23.6875 94.8359L25.6875 94.8359L25.6875 85.4414L23.6875 85.4414ZM24.3924 95.7914L29.7049 97.432L30.2951 95.5211L24.9826 93.8805L24.3924 95.7914ZM29 96.4766L29 103.801L31 103.801L31 96.4766L29 96.4766ZM30.3443 102.862L1.90683 92.4323L1.21817 94.3099L29.6557 104.74L30.3443 102.862ZM2.5625 93.3711L2.5625 86.9258L0.562502 86.9258L0.562502 93.3711L2.5625 93.3711ZM1.9091 87.8638L30.3466 77.356L29.6534 75.48L1.2159 85.9878L1.9091 87.8638ZM29 76.418L29 83.7813L31 83.7813L31 76.418L29 76.418ZM29.7017 82.8268L24.3892 84.4869L24.9858 86.3959L30.2983 84.7357L29.7017 82.8268ZM20.3945 93.1953L20.3945 87.082L18.3945 87.082L18.3945 93.1953L20.3945 93.1953ZM19.0977 86.1271L9.23438 89.1935L9.82813 91.1033L19.6914 88.0369L19.0977 86.1271ZM9.2361 91.1039L19.0994 94.1508L19.6897 92.2399L9.8264 89.193L9.2361 91.1039ZM6.85547 54.3477L7.85547 54.3477L7.85547 53.3477L6.85547 53.3477L6.85547 54.3477ZM6.85547 62.8828L5.85547 62.8828L5.85547 63.8828L6.85547 63.8828L6.85547 62.8828ZM30 62.8828L31 62.8828L31 61.8828L30 61.8828L30 62.8828ZM30 69.7383L30 70.7383L31 70.7383L31 69.7383L30 69.7383ZM6.85547 69.7383L6.85547 68.7383L5.85547 68.7383L5.85547 69.7383L6.85547 69.7383ZM6.85547 78.1172L6.85547 79.1172L7.85547 79.1172L7.85547 78.1172L6.85547 78.1172ZM1.5625 78.1172L0.562503 78.1172L0.562503 79.1172L1.5625 79.1172L1.5625 78.1172ZM1.5625 54.3477L1.5625 53.3477L0.562503 53.3477L0.562503 54.3477L1.5625 54.3477ZM5.85547 54.3477L5.85547 62.8828L7.85547 62.8828L7.85547 54.3477L5.85547 54.3477ZM6.85547 63.8828L30 63.8828L30 61.8828L6.85547 61.8828L6.85547 63.8828ZM29 62.8828L29 69.7383L31 69.7383L31 62.8828L29 62.8828ZM30 68.7383L6.85547 68.7383L6.85547 70.7383L30 70.7383L30 68.7383ZM5.85547 69.7383L5.85547 78.1172L7.85547 78.1172L7.85547 69.7383L5.85547 69.7383ZM6.85547 77.1172L1.5625 77.1172L1.5625 79.1172L6.85547 79.1172L6.85547 77.1172ZM2.5625 78.1172L2.5625 54.3477L0.562503 54.3477L0.562503 78.1172L2.5625 78.1172ZM1.5625 55.3477L6.85547 55.3477L6.85547 53.3477L1.5625 53.3477L1.5625 55.3477ZM20.3711 28.9766L20.4171 27.9776L19.3711 27.9294L19.3711 28.9766L20.3711 28.9766ZM25.625 30.5781L26.168 29.7383L26.1647 29.7362L25.625 30.5781ZM29.1406 34.6992L28.2358 35.125L28.237 35.1276L29.1406 34.6992ZM7.71485 51.3398L7.29258 52.2463L7.29507 52.2475L7.71485 51.3398ZM2.8711 47.1406L3.72047 46.6128L3.71773 46.6085L2.8711 47.1406ZM3.88672 32.4922L4.64133 33.1484L4.64365 33.1457L3.88672 32.4922ZM11.3867 28.918L12.3867 28.918L12.3867 27.8242L11.2973 27.922L11.3867 28.918ZM11.3867 35.7539L11.4168 36.7534L12.3867 36.7243L12.3867 35.7539L11.3867 35.7539ZM8.4375 44.5625L8.96594 43.7135L8.4375 44.5625ZM14.5508 45.8125L14.5368 46.8125L14.5508 46.8125L14.5508 45.8125ZM23.0664 44.6797L23.5681 45.5447L23.5746 45.541L23.0664 44.6797ZM20.3711 35.793L19.3711 35.793L19.3711 36.7612L20.3389 36.7925L20.3711 35.793ZM20.3251 29.9755C22.1459 30.0594 23.7236 30.5471 25.0853 31.42L26.1647 29.7362C24.4795 28.656 22.5546 28.0761 20.4171 27.9776L20.3251 29.9755ZM25.0821 31.4179C26.4218 32.2841 27.4748 33.5078 28.2358 35.125L30.0454 34.2734C29.1398 32.349 27.8491 30.8253 26.168 29.7384L25.0821 31.4179ZM28.237 35.1276C28.9972 36.7312 29.3906 38.5926 29.3906 40.7344L31.3906 40.7344C31.3906 38.3449 30.9507 36.1829 30.0442 34.2708L28.237 35.1276ZM29.3906 40.7344C29.3906 44.2323 28.2629 46.8836 26.0767 48.8127L27.3999 50.3123C30.0834 47.9445 31.3906 44.7104 31.3906 40.7344L29.3906 40.7344ZM26.0767 48.8127C23.8822 50.7489 20.7122 51.7852 16.4258 51.7852L16.4258 53.7852C21.0196 53.7852 24.7246 52.6729 27.3999 50.3123L26.0767 48.8127ZM16.4258 51.7852L15.0195 51.7852L15.0195 53.7852L16.4258 53.7852L16.4258 51.7852ZM15.0195 51.7852C12.3476 51.7852 10.0613 51.3233 8.13462 50.4322L7.29507 52.2475C9.53505 53.2835 12.1185 53.7852 15.0195 53.7852L15.0195 51.7852ZM8.13712 50.4334C6.20261 49.5322 4.74271 48.2578 3.72046 46.6128L2.02174 47.6684C3.26511 49.6693 5.03437 51.1944 7.29258 52.2463L8.13712 50.4334ZM3.71773 46.6085C2.68315 44.9625 2.15235 43.0419 2.15235 40.8125L0.152347 40.8125C0.152347 43.3747 0.767374 45.6729 2.02446 47.6728L3.71773 46.6085ZM2.15235 40.8125C2.15235 37.5426 3.0123 35.0217 4.64133 33.1484L3.13212 31.836C1.11531 34.1553 0.152347 37.1814 0.152347 40.8125L2.15235 40.8125ZM4.64365 33.1457C6.25734 31.2766 8.50099 30.1811 11.4762 29.914L11.2973 27.922C7.89224 28.2277 5.1359 29.5151 3.12979 31.8387L4.64365 33.1457ZM10.3867 28.918L10.3867 35.7539L12.3867 35.7539L12.3867 28.918L10.3867 28.918ZM11.3567 34.7544C9.50153 34.8102 7.93744 35.2806 6.92055 36.3852L8.39195 37.7398C8.88548 37.2037 9.80837 36.8018 11.4168 36.7534L11.3567 34.7544ZM6.92055 36.3852C5.92688 37.4645 5.52344 39.0057 5.52344 40.8125L7.52344 40.8125C7.52344 39.2599 7.87521 38.3011 8.39195 37.7398L6.92055 36.3852ZM5.52344 40.8125C5.52344 42.8085 6.29578 44.4073 7.90906 45.4115L8.96594 43.7135C8.02714 43.1292 7.52344 42.228 7.52344 40.8125L5.52344 40.8125ZM7.90906 45.4115C9.42308 46.3539 11.6884 46.7727 14.5368 46.8124L14.5647 44.8126C11.8143 44.7742 10.004 44.3597 8.96594 43.7135L7.90906 45.4115ZM14.5508 46.8125L16.5625 46.8125L16.5625 44.8125L14.5508 44.8125L14.5508 46.8125ZM16.5625 46.8125C19.6271 46.8125 22.024 46.4403 23.5681 45.5447L22.5647 43.8147C21.5047 44.4295 19.5657 44.8125 16.5625 44.8125L16.5625 46.8125ZM23.5746 45.541C25.2556 44.5491 26.0195 42.8547 26.0195 40.7344L24.0195 40.7344C24.0195 42.338 23.4814 43.2738 22.5583 43.8184L23.5746 45.541ZM26.0195 40.7344C26.0195 39.0141 25.6146 37.5357 24.653 36.456L23.1595 37.7862C23.6823 38.3731 24.0195 39.3036 24.0195 40.7344L26.0195 40.7344ZM24.653 36.456C23.6599 35.3409 22.168 34.8504 20.4033 34.7935L20.3389 36.7925C21.8034 36.8397 22.6682 37.2346 23.1595 37.7862L24.653 36.456ZM21.3711 35.793L21.3711 28.9766L19.3711 28.9766L19.3711 35.793L21.3711 35.793ZM30 1.96484L31 1.96484L31 0.964844L30 0.964844L30 1.96484ZM30 8.78125L30 9.78125L31 9.78125L31 8.78125L30 8.78125ZM18.125 8.78125L18.125 7.78125L17.125 7.78125L17.125 8.78125L18.125 8.78125ZM18.125 18.8789L17.125 18.8789L17.125 19.8789L18.125 19.8789L18.125 18.8789ZM30 18.8789L31 18.8789L31 17.8789L30 17.8789L30 18.8789ZM30 25.7344L30 26.7344L31 26.7344L31 25.7344L30 25.7344ZM1.5625 25.7344L0.562503 25.7344L0.562503 26.7344L1.5625 26.7344L1.5625 25.7344ZM1.5625 18.8789L1.5625 17.8789L0.562503 17.8789L0.562503 18.8789L1.5625 18.8789ZM12.8516 18.8789L12.8516 19.8789L13.8516 19.8789L13.8516 18.8789L12.8516 18.8789ZM12.8516 8.78125L13.8516 8.78125L13.8516 7.78125L12.8516 7.78125L12.8516 8.78125ZM1.5625 8.78125L0.562503 8.78125L0.562503 9.78125L1.5625 9.78125L1.5625 8.78125ZM1.5625 1.96484L1.5625 0.964844L0.562503 0.964844L0.562503 1.96484L1.5625 1.96484ZM29 1.96484L29 8.78125L31 8.78125L31 1.96484L29 1.96484ZM30 7.78125L18.125 7.78125L18.125 9.78125L30 9.78125L30 7.78125ZM17.125 8.78125L17.125 18.8789L19.125 18.8789L19.125 8.78125L17.125 8.78125ZM18.125 19.8789L30 19.8789L30 17.8789L18.125 17.8789L18.125 19.8789ZM29 18.8789L29 25.7344L31 25.7344L31 18.8789L29 18.8789ZM30 24.7344L1.5625 24.7344L1.5625 26.7344L30 26.7344L30 24.7344ZM2.5625 25.7344L2.5625 18.8789L0.562503 18.8789L0.562503 25.7344L2.5625 25.7344ZM1.5625 19.8789L12.8516 19.8789L12.8516 17.8789L1.5625 17.8789L1.5625 19.8789ZM13.8516 18.8789L13.8516 8.78125L11.8516 8.78125L11.8516 18.8789L13.8516 18.8789ZM12.8516 7.78125L1.5625 7.78125L1.5625 9.78125L12.8516 9.78125L12.8516 7.78125ZM2.5625 8.78125L2.5625 1.96484L0.562503 1.96484L0.562503 8.78125L2.5625 8.78125ZM1.5625 2.96484L30 2.96484L30 0.964844L1.5625 0.964844L1.5625 2.96484Z" fill="white"/>
</svg>
