<svg width="307" height="49" viewBox="0 0 307 49" fill="none" xmlns="http://www.w3.org/2000/svg">
<path d="M38.3945 30.0918L36.4422 30.5259L40.3619 30.4517L38.3945 30.0918ZM43.2871 3.34375V1.34375H41.6198L41.3198 2.98389L43.2871 3.34375ZM53.4824 3.34375L55.4389 3.75895L55.9514 1.34375H53.4824V3.34375ZM44.4297 46V48H46.0498L46.3861 46.4152L44.4297 46ZM33.7656 46L31.8186 46.4574L32.181 48H33.7656V46ZM28.0527 21.6836L29.9997 21.2262L26.1037 21.2351L28.0527 21.6836ZM22.457 46V48H24.0491L24.4061 46.4485L22.457 46ZM11.8223 46L9.86611 46.4165L10.2033 48H11.8223V46ZM2.74023 3.34375V1.34375H0.269581L0.784081 3.76024L2.74023 3.34375ZM12.9648 3.34375L14.9322 2.98389L14.6322 1.34375H12.9648V3.34375ZM17.8574 30.0918L15.8901 30.4517L19.8111 30.5198L17.8574 30.0918ZM23.7168 3.34375V1.34375H22.1075L21.7631 2.91578L23.7168 3.34375ZM32.4473 3.34375L34.3996 2.90966L34.0514 1.34375H32.4473V3.34375ZM40.3619 30.4517L45.2545 3.70361L41.3198 2.98389L36.4272 29.7319L40.3619 30.4517ZM43.2871 5.34375H53.4824V1.34375H43.2871V5.34375ZM51.526 2.92855L42.4733 45.5848L46.3861 46.4152L55.4389 3.75895L51.526 2.92855ZM44.4297 44H33.7656V48H44.4297V44ZM35.7126 45.5426L29.9997 21.2262L26.1057 22.141L31.8186 46.4574L35.7126 45.5426ZM26.1037 21.2351L20.508 45.5515L24.4061 46.4485L30.0018 22.1321L26.1037 21.2351ZM22.457 44H11.8223V48H22.457V44ZM13.7784 45.5835L4.69639 2.92726L0.784081 3.76024L9.86611 46.4165L13.7784 45.5835ZM2.74023 5.34375H12.9648V1.34375H2.74023V5.34375ZM10.9975 3.70361L15.8901 30.4517L19.8248 29.7319L14.9322 2.98389L10.9975 3.70361ZM19.8111 30.5198L25.6705 3.77172L21.7631 2.91578L15.9037 29.6638L19.8111 30.5198ZM23.7168 5.34375H32.4473V1.34375H23.7168V5.34375ZM30.4949 3.77784L36.4422 30.5259L40.3469 29.6577L34.3996 2.90966L30.4949 3.77784ZM93.1504 46V48H95.1504V46H93.1504ZM82.9258 46H80.9258V48H82.9258V46ZM82.9258 28.1875H84.9258V26.1875H82.9258V28.1875ZM67.7793 28.1875V26.1875H65.7793V28.1875H67.7793ZM67.7793 46V48H69.7793V46H67.7793ZM57.4961 46H55.4961V48H57.4961V46ZM57.4961 3.34375V1.34375H55.4961V3.34375H57.4961ZM67.7793 3.34375H69.7793V1.34375H67.7793V3.34375ZM67.7793 20.2773H65.7793V22.2773H67.7793V20.2773ZM82.9258 20.2773V22.2773H84.9258V20.2773H82.9258ZM82.9258 3.34375V1.34375H80.9258V3.34375H82.9258ZM93.1504 3.34375H95.1504V1.34375H93.1504V3.34375ZM93.1504 44H82.9258V48H93.1504V44ZM84.9258 46V28.1875H80.9258V46H84.9258ZM82.9258 26.1875H67.7793V30.1875H82.9258V26.1875ZM65.7793 28.1875V46H69.7793V28.1875H65.7793ZM67.7793 44H57.4961V48H67.7793V44ZM59.4961 46V3.34375H55.4961V46H59.4961ZM57.4961 5.34375H67.7793V1.34375H57.4961V5.34375ZM65.7793 3.34375V20.2773H69.7793V3.34375H65.7793ZM67.7793 22.2773H82.9258V18.2773H67.7793V22.2773ZM84.9258 20.2773V3.34375H80.9258V20.2773H84.9258ZM82.9258 5.34375H93.1504V1.34375H82.9258V5.34375ZM91.1504 3.34375V46H95.1504V3.34375H91.1504ZM124.439 38.0312L126.348 37.4347L125.91 36.0312H124.439V38.0312ZM110.348 38.0312V36.0312H108.872L108.437 37.4411L110.348 38.0312ZM107.887 46V48H109.362L109.798 46.5901L107.887 46ZM96.9004 46L95.0227 45.3113L94.0366 48H96.9004V46ZM112.545 3.34375V1.34375H111.148L110.667 2.65509L112.545 3.34375ZM122.213 3.34375L124.089 2.65055L123.606 1.34375H122.213V3.34375ZM137.975 46V48H140.846L139.851 45.3068L137.975 46ZM126.93 46L125.021 46.5965L125.459 48H126.93V46ZM112.809 30.0918L110.898 29.5015L110.098 32.0918H112.809V30.0918ZM121.979 30.0918V32.0918H124.695L123.888 29.498L121.979 30.0918ZM117.379 15.2969L119.289 14.7031L117.373 8.5404L115.468 14.7066L117.379 15.2969ZM124.439 36.0312H110.348V40.0312H124.439V36.0312ZM108.437 37.4411L105.976 45.4099L109.798 46.5901L112.259 38.6214L108.437 37.4411ZM107.887 44H96.9004V48H107.887V44ZM98.7781 46.6887L114.423 4.03241L110.667 2.65509L95.0227 45.3113L98.7781 46.6887ZM112.545 5.34375H122.213V1.34375H112.545V5.34375ZM120.337 4.03695L136.099 46.6932L139.851 45.3068L124.089 2.65055L120.337 4.03695ZM137.975 44H126.93V48H137.975V44ZM128.839 45.4035L126.348 37.4347L122.53 38.6278L125.021 46.5965L128.839 45.4035ZM112.809 32.0918H121.979V28.0918H112.809V32.0918ZM123.888 29.498L119.289 14.7031L115.469 15.8906L120.069 30.6855L123.888 29.498ZM115.468 14.7066L110.898 29.5015L114.719 30.6821L119.29 15.8872L115.468 14.7066ZM171.08 11.2832V13.2832H173.08V11.2832H171.08ZM158.277 11.2832V9.2832H156.277V11.2832H158.277ZM158.277 46V48H160.277V46H158.277ZM147.994 46H145.994V48H147.994V46ZM147.994 11.2832H149.994V9.2832H147.994V11.2832ZM135.426 11.2832H133.426V13.2832H135.426V11.2832ZM135.426 3.34375V1.34375H133.426V3.34375H135.426ZM171.08 3.34375H173.08V1.34375H171.08V3.34375ZM171.08 9.2832H158.277V13.2832H171.08V9.2832ZM156.277 11.2832V46H160.277V11.2832H156.277ZM158.277 44H147.994V48H158.277V44ZM149.994 46V11.2832H145.994V46H149.994ZM147.994 9.2832H135.426V13.2832H147.994V9.2832ZM137.426 11.2832V3.34375H133.426V11.2832H137.426ZM135.426 5.34375H171.08V1.34375H135.426V5.34375ZM169.08 3.34375V11.2832H173.08V3.34375H169.08ZM215.846 44.0078L216.883 45.7176L216.887 45.7155L215.846 44.0078ZM196.48 44.0957L195.455 45.8128L195.464 45.818L196.48 44.0957ZM189.889 36.918L188.102 37.8169L188.107 37.8258L189.889 36.918ZM187.428 26.2246H185.428V26.244L185.428 26.2634L187.428 26.2246ZM189.713 12.7773L187.911 11.9094L187.909 11.914L189.713 12.7773ZM196.305 5.36523L195.269 3.65436L195.264 3.65752L196.305 5.36523ZM222.35 12.6895L220.554 13.5706L220.557 13.5773L220.561 13.5839L222.35 12.6895ZM224.752 23.5879H226.752L226.752 23.5784L224.752 23.5879ZM212.154 14.125L210.468 15.1997L210.473 15.2084L210.479 15.2171L212.154 14.125ZM197.916 22.416L195.917 22.3403L195.916 22.3688L195.916 22.3973L197.916 22.416ZM197.887 25.5508L195.887 25.5321L195.887 25.5414V25.5508H197.887ZM199.967 35.1895L198.265 36.2401L199.967 35.1895ZM214.293 25.7266L216.293 25.736V25.7266H214.293ZM222.752 25.5508C222.752 29.4613 222.028 32.8377 220.636 35.7277L224.239 37.4637C225.933 33.9474 226.752 29.9606 226.752 25.5508H222.752ZM220.636 35.7277C219.249 38.607 217.305 40.7757 214.805 42.3001L216.887 45.7155C220.089 43.7634 222.54 40.9907 224.239 37.4637L220.636 35.7277ZM214.808 42.298C212.319 43.8089 209.452 44.5859 206.148 44.5859V48.5859C210.111 48.5859 213.709 47.6443 216.883 45.7176L214.808 42.298ZM206.148 44.5859C202.832 44.5859 199.968 43.8319 197.497 42.3734L195.464 45.818C198.618 47.6798 202.199 48.5859 206.148 48.5859V44.5859ZM197.506 42.3786C195.038 40.9046 193.093 38.8024 191.671 36.0101L188.107 37.8258C189.848 41.2445 192.298 43.9275 195.455 45.8128L197.506 42.3786ZM191.675 36.0191C190.267 33.2198 189.501 29.9572 189.427 26.1858L185.428 26.2634C185.511 30.5389 186.385 34.4052 188.102 37.8169L191.675 36.0191ZM189.428 26.2246V23.8223H185.428V26.2246H189.428ZM189.428 23.8223C189.428 19.8868 190.144 16.5095 191.517 13.6406L187.909 11.914C186.235 15.4124 185.428 19.3983 185.428 23.8223H189.428ZM191.515 13.6453C192.902 10.7661 194.845 8.59735 197.346 7.07295L195.264 3.65752C192.061 5.60968 189.61 8.38236 187.911 11.9094L191.515 13.6453ZM197.341 7.0761C199.872 5.54351 202.769 4.75781 206.09 4.75781V0.757812C202.106 0.757812 198.48 1.7104 195.269 3.65437L197.341 7.0761ZM206.09 4.75781C209.372 4.75781 212.229 5.53385 214.72 7.0457L216.795 3.62618C213.623 1.70052 210.035 0.757812 206.09 0.757812V4.75781ZM214.72 7.0457C217.202 8.55217 219.148 10.7047 220.554 13.5706L224.145 11.8083C222.427 8.30705 219.977 5.55721 216.795 3.62618L214.72 7.0457ZM220.561 13.5839C221.985 16.4324 222.734 19.7542 222.752 23.5974L226.752 23.5784C226.731 19.2185 225.878 15.2746 224.138 11.795L220.561 13.5839ZM222.752 23.5879V25.5508H226.752V23.5879H222.752ZM216.293 23.7637C216.293 19.3567 215.562 15.6899 213.83 13.0329L210.479 15.2171C211.599 16.9351 212.293 19.6941 212.293 23.7637H216.293ZM213.841 13.0503C212.064 10.2616 209.404 8.81445 206.09 8.81445V12.8145C208.049 12.8145 209.432 13.5743 210.468 15.1997L213.841 13.0503ZM206.09 8.81445C202.93 8.81445 200.319 10.0439 198.544 12.5629C196.859 14.9551 196.07 18.3088 195.917 22.3403L199.915 22.4917C200.055 18.7889 200.775 16.3417 201.814 14.8668C202.764 13.5186 204.094 12.8145 206.09 12.8145V8.81445ZM195.916 22.3973L195.887 25.5321L199.887 25.5695L199.916 22.4347L195.916 22.3973ZM195.887 25.5508C195.887 29.9043 196.601 33.5444 198.265 36.2401L201.669 34.1388C200.559 32.3423 199.887 29.5567 199.887 25.5508H195.887ZM198.265 36.2401C200.032 39.1016 202.751 40.5586 206.148 40.5586V36.5586C204.077 36.5586 202.675 35.7695 201.669 34.1388L198.265 36.2401ZM206.148 40.5586C209.436 40.5586 212.071 39.1009 213.841 36.3228L210.468 34.1733C209.425 35.8092 208.057 36.5586 206.148 36.5586V40.5586ZM213.841 36.3228C215.536 33.6623 216.273 30.0534 216.293 25.736L212.293 25.7171C212.274 29.681 211.585 32.4198 210.468 34.1733L213.841 36.3228ZM216.293 25.7266V23.7637H212.293V25.7266H216.293ZM263.512 3.34375H265.512V1.34375H263.512V3.34375ZM261.49 39.4961L263.217 40.5057L263.22 40.4993L261.49 39.4961ZM229.908 31.4688H227.908V31.4812L227.908 31.4937L229.908 31.4688ZM229.908 3.34375V1.34375H227.908V3.34375H229.908ZM240.25 3.34375H242.25V1.34375H240.25V3.34375ZM240.25 31.6738H238.25V31.6989L238.251 31.724L240.25 31.6738ZM253.229 3.34375V1.34375H251.229V3.34375H253.229ZM261.512 3.34375V31.2637H265.512V3.34375H261.512ZM261.512 31.2637C261.512 34.1385 260.902 36.5237 259.76 38.4929L263.22 40.4993C264.774 37.82 265.512 34.717 265.512 31.2637H261.512ZM259.764 38.4865C258.627 40.4303 257.001 41.9201 254.823 42.9669L256.556 46.5721C259.417 45.1971 261.658 43.1712 263.217 40.5057L259.764 38.4865ZM254.823 42.9669C252.629 44.0216 249.959 44.5859 246.754 44.5859V48.5859C250.424 48.5859 253.711 47.9394 256.556 46.5721L254.823 42.9669ZM246.754 44.5859C241.905 44.5859 238.342 43.3343 235.818 41.0578L233.139 44.0281C236.592 47.1422 241.212 48.5859 246.754 48.5859V44.5859ZM235.818 41.0578C233.313 38.7983 231.961 35.6743 231.908 31.4438L227.908 31.4937C227.973 36.6382 229.667 40.897 233.139 44.0281L235.818 41.0578ZM231.908 31.4688V3.34375H227.908V31.4688H231.908ZM229.908 5.34375H240.25V1.34375H229.908V5.34375ZM238.25 3.34375V31.6738H242.25V3.34375H238.25ZM238.251 31.724C238.316 34.3231 238.957 36.6273 240.499 38.2864C242.073 39.9812 244.277 40.6758 246.754 40.6758V36.6758C245.012 36.6758 244.023 36.2033 243.429 35.5642C242.802 34.8893 242.301 33.6925 242.249 31.6236L238.251 31.724ZM246.754 40.6758C249.247 40.6758 251.465 39.9805 253.05 38.2826L250.126 35.5533C249.523 36.1992 248.519 36.6758 246.754 36.6758V40.6758ZM253.05 38.2826C254.654 36.5643 255.229 34.0408 255.229 31.2051H251.229C251.229 33.6428 250.71 34.9279 250.126 35.5533L253.05 38.2826ZM255.229 31.2051V3.34375H251.229V31.2051H255.229ZM253.229 5.34375H263.512V1.34375H253.229V5.34375ZM285.807 30.9414L287.595 30.047L287.043 28.9414H285.807V30.9414ZM280.24 30.9414V28.9414H278.24V30.9414H280.24ZM280.24 46V48H282.24V46H280.24ZM269.957 46H267.957V48H269.957V46ZM269.957 3.34375V1.34375H267.957V3.34375H269.957ZM301.07 23.6172L299.371 22.5633L299.367 22.5695L299.363 22.5757L301.07 23.6172ZM295.445 28.3633L294.59 26.5555L292.716 27.4423L293.669 29.283L295.445 28.3633ZM304.352 45.5605H306.352V45.0734L306.128 44.6408L304.352 45.5605ZM304.352 46V48H306.352V46H304.352ZM293.336 46L291.547 46.8944L292.1 48H293.336V46ZM280.24 23.002H278.24V25.002H280.24V23.002ZM291.139 21.4785L289.698 20.0918L289.697 20.0923L291.139 21.4785ZM291.139 12.8652L289.685 14.2385L289.691 14.2453L289.698 14.252L291.139 12.8652ZM280.24 11.2832V9.2832H278.24V11.2832H280.24ZM285.807 28.9414H280.24V32.9414H285.807V28.9414ZM278.24 30.9414V46H282.24V30.9414H278.24ZM280.24 44H269.957V48H280.24V44ZM271.957 46V3.34375H267.957V46H271.957ZM269.957 5.34375H286.744V1.34375H269.957V5.34375ZM286.744 5.34375C291.528 5.34375 294.989 6.40693 297.372 8.28403L299.847 5.14175C296.527 2.52667 292.078 1.34375 286.744 1.34375V5.34375ZM297.372 8.28403C299.675 10.0983 300.887 12.6553 300.887 16.2344H304.887C304.887 11.6103 303.247 7.81969 299.847 5.14175L297.372 8.28403ZM300.887 16.2344C300.887 18.9376 300.336 21.0067 299.371 22.5633L302.77 24.6711C304.227 22.3215 304.887 19.4686 304.887 16.2344H300.887ZM299.363 22.5757C298.418 24.1245 296.88 25.4717 294.59 26.5555L296.301 30.171C299.128 28.833 301.34 27.0162 302.778 24.6587L299.363 22.5757ZM293.669 29.283L302.576 46.4803L306.128 44.6408L297.221 27.4435L293.669 29.283ZM302.352 45.5605V46H306.352V45.5605H302.352ZM304.352 44H293.336V48H304.352V44ZM295.125 45.1056L287.595 30.047L284.018 31.8358L291.547 46.8944L295.125 45.1056ZM280.24 25.002H286.744V21.002H280.24V25.002ZM286.744 25.002C289.026 25.002 291.1 24.4045 292.58 22.8647L289.697 20.0923C289.224 20.5838 288.369 21.002 286.744 21.002V25.002ZM292.58 22.8653C294.026 21.3619 294.633 19.3751 294.633 17.1719H290.633C290.633 18.6405 290.243 19.5248 289.698 20.0918L292.58 22.8653ZM294.633 17.1719C294.633 14.9687 294.026 12.9818 292.58 11.4785L289.698 14.252C290.243 14.819 290.633 15.7032 290.633 17.1719H294.633ZM292.593 11.492C291.105 9.9169 289.037 9.2832 286.744 9.2832V13.2832C288.318 13.2832 289.18 13.7042 289.685 14.2385L292.593 11.492ZM286.744 9.2832H280.24V13.2832H286.744V9.2832ZM278.24 11.2832V23.002H282.24V11.2832H278.24Z" fill="white"/>
</svg>
