<svg width="99" height="31" viewBox="0 0 99 31" fill="none" xmlns="http://www.w3.org/2000/svg">
<path d="M9.66406 24.7266L8.83902 24.1615L7.76712 25.7266H9.66406V24.7266ZM23.2578 24.7266H24.2578V23.7266H23.2578V24.7266ZM23.2578 30V31H24.2578V30H23.2578ZM1.10938 30H0.109375V31H1.10938V30ZM1.10938 26.3867L0.287834 25.8166L0.109375 26.0737V26.3867H1.10938ZM14.6641 6.85547L15.4856 7.42562L16.5753 5.85547H14.6641V6.85547ZM1.03125 6.85547H0.03125V7.85547H1.03125V6.85547ZM1.03125 1.5625V0.5625H0.03125V1.5625H1.03125ZM23.1211 1.5625H24.1211V0.5625H23.1211V1.5625ZM23.1211 5.07812L23.9461 5.64319L24.1211 5.38774V5.07812H23.1211ZM9.66406 25.7266H23.2578V23.7266H9.66406V25.7266ZM22.2578 24.7266V30H24.2578V24.7266H22.2578ZM23.2578 29H1.10938V31H23.2578V29ZM2.10938 30V26.3867H0.109375V30H2.10938ZM1.93092 26.9569L15.4856 7.42562L13.8425 6.28532L0.287834 25.8166L1.93092 26.9569ZM14.6641 5.85547L1.03125 5.85547V7.85547L14.6641 7.85547V5.85547ZM2.03125 6.85547V1.5625H0.03125V6.85547H2.03125ZM1.03125 2.5625L23.1211 2.5625V0.5625L1.03125 0.5625V2.5625ZM22.1211 1.5625V5.07812H24.1211V1.5625H22.1211ZM22.2961 4.51306L8.83902 24.1615L10.4891 25.2916L23.9461 5.64319L22.2961 4.51306ZM36.793 13.9062L35.8728 14.2979L36.7947 16.4637L37.7136 14.2966L36.793 13.9062ZM42.0273 1.5625V0.5625L41.3652 0.5625L41.1067 1.1721L42.0273 1.5625ZM49.4297 1.5625L50.3232 2.01163L51.0516 0.5625H49.4297V1.5625ZM40.2695 19.7852L39.3761 19.336L39.2695 19.548V19.7852H40.2695ZM40.2695 30V31H41.2695V30H40.2695ZM33.3164 30H32.3164V31H33.3164V30ZM33.3164 19.7852H34.3164V19.5484L34.2103 19.3368L33.3164 19.7852ZM24.1758 1.5625V0.5625H22.5554L23.2819 2.01086L24.1758 1.5625ZM31.5391 1.5625L32.4592 1.17087L32.2002 0.5625H31.5391V1.5625ZM37.7136 14.2966L42.948 1.9529L41.1067 1.1721L35.8723 13.5159L37.7136 14.2966ZM42.0273 2.5625H49.4297V0.5625L42.0273 0.5625V2.5625ZM48.5362 1.11337L39.3761 19.336L41.163 20.2343L50.3232 2.01163L48.5362 1.11337ZM39.2695 19.7852V30H41.2695V19.7852H39.2695ZM40.2695 29H33.3164V31H40.2695V29ZM34.3164 30V19.7852H32.3164V30H34.3164ZM34.2103 19.3368L25.0696 1.11414L23.2819 2.01086L32.4226 20.2335L34.2103 19.3368ZM24.1758 2.5625L31.5391 2.5625V0.5625L24.1758 0.5625V2.5625ZM30.6189 1.95413L35.8728 14.2979L37.7131 13.5146L32.4592 1.17087L30.6189 1.95413ZM59.1953 24.7266L58.3703 24.1615L57.2984 25.7266H59.1953V24.7266ZM72.7891 24.7266H73.7891V23.7266H72.7891V24.7266ZM72.7891 30V31H73.7891V30H72.7891ZM50.6406 30H49.6406V31H50.6406V30ZM50.6406 26.3867L49.8191 25.8166L49.6406 26.0737V26.3867H50.6406ZM64.1953 6.85547L65.0169 7.42562L66.1065 5.85547L64.1953 5.85547V6.85547ZM50.5625 6.85547H49.5625V7.85547H50.5625V6.85547ZM50.5625 1.5625V0.5625H49.5625V1.5625H50.5625ZM72.6523 1.5625H73.6523V0.5625H72.6523V1.5625ZM72.6523 5.07812L73.4774 5.64319L73.6523 5.38774V5.07812H72.6523ZM59.1953 25.7266H72.7891V23.7266H59.1953V25.7266ZM71.7891 24.7266V30H73.7891V24.7266H71.7891ZM72.7891 29H50.6406V31H72.7891V29ZM51.6406 30V26.3867H49.6406V30H51.6406ZM51.4622 26.9569L65.0169 7.42562L63.3738 6.28532L49.8191 25.8166L51.4622 26.9569ZM64.1953 5.85547L50.5625 5.85547V7.85547L64.1953 7.85547V5.85547ZM51.5625 6.85547V1.5625H49.5625V6.85547H51.5625ZM50.5625 2.5625L72.6523 2.5625V0.5625L50.5625 0.5625V2.5625ZM71.6523 1.5625V5.07812H73.6523V1.5625H71.6523ZM71.8273 4.51306L58.3703 24.1615L60.0204 25.2916L73.4774 5.64319L71.8273 4.51306ZM83.6094 24.7266L82.7843 24.1615L81.7124 25.7266H83.6094V24.7266ZM97.2031 24.7266H98.2031V23.7266H97.2031V24.7266ZM97.2031 30V31H98.2031V30H97.2031ZM75.0547 30H74.0547V31H75.0547V30ZM75.0547 26.3867L74.2331 25.8166L74.0547 26.0737V26.3867H75.0547ZM88.6094 6.85547L89.4309 7.42562L90.5206 5.85547H88.6094V6.85547ZM74.9766 6.85547H73.9766V7.85547H74.9766V6.85547ZM74.9766 1.5625V0.5625H73.9766V1.5625H74.9766ZM97.0664 1.5625H98.0664V0.5625H97.0664V1.5625ZM97.0664 5.07812L97.8914 5.64319L98.0664 5.38774V5.07812H97.0664ZM83.6094 25.7266H97.2031V23.7266H83.6094V25.7266ZM96.2031 24.7266V30H98.2031V24.7266H96.2031ZM97.2031 29H75.0547V31H97.2031V29ZM76.0547 30V26.3867H74.0547V30H76.0547ZM75.8762 26.9569L89.4309 7.42562L87.7878 6.28532L74.2331 25.8166L75.8762 26.9569ZM88.6094 5.85547L74.9766 5.85547V7.85547L88.6094 7.85547V5.85547ZM75.9766 6.85547V1.5625H73.9766V6.85547H75.9766ZM74.9766 2.5625L97.0664 2.5625V0.5625L74.9766 0.5625V2.5625ZM96.0664 1.5625V5.07812H98.0664V1.5625H96.0664ZM96.2414 4.51306L82.7843 24.1615L84.4344 25.2916L97.8914 5.64319L96.2414 4.51306Z" fill="white"/>
</svg>
