<svg width="34" height="31" viewBox="0 0 34 31" fill="none" xmlns="http://www.w3.org/2000/svg">
<path fill-rule="evenodd" clip-rule="evenodd" d="M32.0128 24.1413C33.8625 20.7717 33.8861 16.7296 32.076 13.3396C30.2658 9.94972 26.8552 7.64897 22.9619 7.19143C21.246 3.27883 17.465 0.5995 13.1165 0.214582C8.76799 -0.170337 4.55349 1.80125 2.14213 5.34851C-0.269224 8.89576 -0.48842 13.4464 1.57136 17.1982L0.653336 20.3298C0.445889 21.0369 0.648183 21.7981 1.1818 22.3182C1.71541 22.8383 2.49645 23.0355 3.22214 22.8335L6.43616 21.9387C7.73675 22.6171 9.15588 23.0529 10.6206 23.2237C11.9298 26.2082 14.4646 28.5201 17.607 29.5959C20.7495 30.6717 24.2111 30.4126 27.1481 28.8818L30.362 29.7767C31.0876 29.9787 31.8686 29.7814 32.4023 29.2614C32.9359 28.7413 33.1383 27.9803 32.9309 27.2731L32.0128 24.1413ZM29.7139 23.4024C29.5467 23.6764 29.5029 24.0054 29.5927 24.3119L30.5006 27.4083L27.3231 26.5236C27.0086 26.4361 26.6711 26.4789 26.39 26.6417C24.1946 27.9096 21.5682 28.2639 19.1018 27.625C16.6355 26.986 14.5364 25.4074 13.277 23.2445C16.5654 22.9129 19.5625 21.2589 21.5457 18.6814C23.5289 16.104 24.3183 12.8369 23.7234 9.66793C26.6659 10.3453 29.1021 12.3466 30.2848 15.0582C31.4675 17.7697 31.2555 20.8679 29.7139 23.4024Z" fill="white"/>
</svg>
