<svg width="38" height="38" viewBox="0 0 38 38" fill="none" xmlns="http://www.w3.org/2000/svg">
<path fill-rule="evenodd" clip-rule="evenodd" d="M19.0413 0.750056H19.9997L20.6171 0.788369C29.6238 1.53759 36.7461 8.8205 37.2499 18.0003L37.2499 18.9539C37.257 21.7855 36.5954 24.5788 35.3225 27.0988C32.2398 33.2668 25.9375 37.1643 19.0463 37.167C16.6867 37.1731 14.3536 36.7147 12.1787 35.823L11.6622 35.5992L8.6443 36.6987C5.76685 37.7463 2.59583 36.3534 1.39887 33.5769L1.27411 33.2628C0.805573 31.9759 0.811753 30.564 1.29154 29.2813L2.39509 26.3263L2.17704 25.8213C1.37444 23.864 0.922875 21.779 0.845069 19.6639L0.833008 18.9579C0.835676 12.0625 4.73317 5.76017 10.8939 2.68117C13.4212 1.40461 16.2145 0.742975 19.0413 0.750056ZM19.9166 4.58177L19.0365 4.58341C16.8084 4.57783 14.6107 5.09842 12.6149 6.10648C7.74542 8.54015 4.66845 13.5157 4.66633 18.9637C4.66053 21.1915 5.18104 23.3893 6.18549 25.3779C6.42674 25.8555 6.45734 26.4123 6.26988 26.9135L4.88194 30.6242C4.72202 31.0518 4.71996 31.5225 4.87613 31.9514C5.23828 32.9461 6.33819 33.4589 7.33286 33.0967L11.1023 31.7243C11.5996 31.5433 12.1497 31.5759 12.6221 31.8145C14.6107 32.819 16.8085 33.3395 19.0406 33.3337C24.4843 33.3316 29.4599 30.2546 31.8972 25.3779C32.9016 23.3894 33.4222 21.1916 33.4166 18.9587L33.4195 18.106C33.0172 10.817 27.2026 4.99532 19.9166 4.58177ZM19.9166 4.58177L19.9192 4.58176L19.894 4.5805L19.9166 4.58177ZM10.4163 15.1671C10.4163 14.6148 10.8641 14.1671 11.4163 14.1671H26.6663C27.2186 14.1671 27.6663 14.6148 27.6663 15.1671V17.0004C27.6663 17.5527 27.2186 18.0004 26.6663 18.0004H11.4163C10.8641 18.0004 10.4163 17.5527 10.4163 17.0004V15.1671ZM15.2497 21.8338C14.6974 21.8338 14.2497 22.2815 14.2497 22.8338V24.6671C14.2497 25.2194 14.6974 25.6671 15.2497 25.6671H22.833C23.3853 25.6671 23.833 25.2194 23.833 24.6671V22.8338C23.833 22.2815 23.3853 21.8338 22.833 21.8338H15.2497Z" fill="white"/>
</svg>
