<svg width="24" height="39" viewBox="0 0 24 39" fill="none" xmlns="http://www.w3.org/2000/svg">
<path fill-rule="evenodd" clip-rule="evenodd" d="M17.9161 0.833984C20.1654 0.833984 21.9889 2.65746 21.9889 4.90684C21.9889 5.63185 21.7954 6.34373 21.4283 6.96895L19.6298 10.0323C18.5249 11.9141 18.5805 14.2592 19.7734 16.0866L22.5797 20.3856C24.001 22.563 23.3882 25.4803 21.2108 26.9017C20.4454 27.4013 19.5512 27.6673 18.6372 27.6673H13.9164V36.484C13.9164 37.5425 13.0583 38.4006 11.9997 38.4006C11.0168 38.4006 10.2067 37.6607 10.096 36.7075L10.0831 36.484V27.6673H5.39281C2.80007 27.6673 0.698242 25.5655 0.698242 22.9728C0.698242 22.0529 0.968504 21.1532 1.47546 20.3856L4.38884 15.9743C5.55616 14.2068 5.65718 11.9406 4.65177 10.0762L2.97609 6.96895C1.8855 4.94662 2.64083 2.42309 4.66316 1.3325C5.26992 1.00529 5.94848 0.833984 6.63785 0.833984H17.9161ZM11.9997 23.834H18.6372C18.807 23.834 18.9732 23.7846 19.1154 23.6917C19.4694 23.4606 19.6008 23.0167 19.4512 22.6384L19.3697 22.481L16.5634 18.182C14.6618 15.2688 14.4943 11.5661 16.0948 8.50475L16.3241 8.09141L18.1226 5.02811C18.1442 4.99134 18.1556 4.94947 18.1556 4.90684C18.1556 4.80101 18.0869 4.71121 17.9918 4.67953L17.9161 4.66732H6.63785C6.58368 4.66732 6.53035 4.68078 6.48267 4.70649C6.35553 4.77506 6.29211 4.91569 6.31571 5.05057L6.35009 5.14944L8.02577 8.25673C9.62528 11.2228 9.54457 14.799 7.84182 17.6801L7.58754 18.0868L4.67416 22.4981C4.58116 22.639 4.53158 22.804 4.53158 22.9728C4.53158 23.3955 4.83624 23.7472 5.238 23.8201L5.39281 23.834H11.9997Z" fill="white"/>
</svg>
