<svg width="24" height="24" viewBox="0 0 24 24" fill="none" xmlns="http://www.w3.org/2000/svg">
<path d="M12 0C12.6627 0 13.2 0.537258 13.2 1.2V1.308C13.2051 2.58024 13.9623 3.72367 15.1273 4.22297C16.3048 4.74272 17.6938 4.49086 18.6231 3.58184L18.7045 3.50053C18.9301 3.27472 19.2355 3.14811 19.554 3.14811C19.8725 3.14811 20.1779 3.27472 20.403 3.50006C20.6293 3.72608 20.7559 4.03151 20.7559 4.35C20.7559 4.66849 20.6293 4.97392 20.4039 5.199L20.3315 5.27147L20.1764 5.44167C19.485 6.25651 19.25 7.35081 19.533 8.36153L19.584 8.4C19.584 8.56252 19.617 8.72334 19.681 8.87272C20.1803 10.0377 21.3238 10.7949 22.5912 10.8L22.8 10.8C23.4627 10.8 24 11.3373 24 12C24 12.6627 23.4627 13.2 22.8 13.2H22.692C21.4198 13.2051 20.2763 13.9623 19.777 15.1273C19.2573 16.3048 19.5091 17.6938 20.4182 18.6231L20.4995 18.7045C20.7253 18.9301 20.8519 19.2355 20.8519 19.554C20.8519 19.8725 20.7253 20.1779 20.4999 20.403C20.2739 20.6293 19.9685 20.7559 19.65 20.7559C19.3315 20.7559 19.0261 20.6293 18.801 20.4039L18.7285 20.3315C17.7898 19.4131 16.4008 19.1613 15.2115 19.6862C14.0583 20.1803 13.3011 21.3238 13.296 22.5912L13.296 22.8C13.296 23.4627 12.7587 24 12.096 24C11.4333 24 10.896 23.4627 10.896 22.8V22.692C10.867 21.437 10.1341 20.3409 9.02625 19.8405L8.81422 19.7538C7.69522 19.2573 6.30619 19.5091 5.37688 20.4182L5.29547 20.4995C5.06992 20.7253 4.76449 20.8519 4.446 20.8519C4.12751 20.8519 3.82208 20.7253 3.597 20.4999C3.37072 20.2739 3.24411 19.9685 3.24411 19.65C3.24411 19.3315 3.37072 19.0261 3.59606 18.801L3.66853 18.7285C4.58686 17.7898 4.83872 16.4008 4.31384 15.2115C3.81967 14.0583 2.67624 13.3011 1.40879 13.296L1.2 13.296C0.537258 13.296 0 12.7587 0 12.096C0 11.4333 0.537258 10.896 1.2 10.896H1.308C2.56302 10.867 3.65913 10.1341 4.15951 9.02625L4.24624 8.81422C4.74272 7.69522 4.49086 6.30619 3.58184 5.37688L3.50053 5.29547C3.27472 5.06992 3.14811 4.76449 3.14811 4.446C3.14811 4.12751 3.27472 3.82208 3.50006 3.597C3.72608 3.37072 4.03151 3.24411 4.35 3.24411C4.66849 3.24411 4.97392 3.37072 5.199 3.59606L5.27147 3.66853L5.44167 3.82365C6.25651 4.51504 7.35081 4.75002 8.36153 4.46702L8.4 4.416C8.56252 4.416 8.72334 4.38299 8.87272 4.31897C10.0377 3.81967 10.7949 2.67624 10.8 1.40879L10.8 1.2C10.8 0.537258 11.3373 0 12 0Z" fill="white"/>
<path d="M12 7C9.23858 7 7 9.23858 7 12C7 14.7614 9.23858 17 12 17C14.7614 17 17 14.7614 17 12C17 9.23858 14.7614 7 12 7Z" fill="#191919"/>
<path d="M12 10C13.1046 10 14 10.8954 14 12C14 13.1046 13.1046 14 12 14C10.8954 14 10 13.1046 10 12C10 10.8954 10.8954 10 12 10Z" fill="white"/>
</svg>
