<svg width="14" height="15" viewBox="0 0 14 15" fill="none" xmlns="http://www.w3.org/2000/svg">
<path d="M3.66545 2.93836L2.52 1.71233L1.62273 2.67808L2.76182 3.90411L3.66545 2.93836ZM1.90909 6.81507H0V8.18493H1.90909V6.81507ZM7.63636 0H6.36364V2.02055H7.63636V0ZM12.3773 2.67808L11.48 1.71233L10.3409 2.93836L11.2382 3.90411L12.3773 2.67808ZM10.3345 12.0616L11.4736 13.2945L12.3709 12.3288L11.2255 11.1027L10.3345 12.0616ZM12.0909 6.81507V8.18493H14V6.81507H12.0909ZM7 3.39041C4.89364 3.39041 3.18182 5.23288 3.18182 7.5C3.18182 9.76712 4.89364 11.6096 7 11.6096C9.10636 11.6096 10.8182 9.76712 10.8182 7.5C10.8182 5.23288 9.10636 3.39041 7 3.39041ZM6.36364 15H7.63636V12.9795H6.36364V15ZM1.62273 12.3219L2.52 13.2877L3.65909 12.0548L2.76182 11.089L1.62273 12.3219Z" fill="white"/>
</svg>
