<svg width="6" height="26" viewBox="0 0 6 26" fill="none" xmlns="http://www.w3.org/2000/svg">
<path fill-rule="evenodd" clip-rule="evenodd" d="M5.83366 3.08333C5.83366 4.64814 4.56513 5.91667 3.00033 5.91667C1.43552 5.91667 0.166992 4.64814 0.166992 3.08333C0.166992 1.51853 1.43552 0.25 3.00033 0.25C4.56513 0.25 5.83366 1.51853 5.83366 3.08333ZM5.83366 13C5.83366 14.5648 4.56513 15.8333 3.00033 15.8333C1.43552 15.8333 0.166992 14.5648 0.166992 13C0.166992 11.4352 1.43552 10.1667 3.00033 10.1667C4.56513 10.1667 5.83366 11.4352 5.83366 13ZM3.00033 25.75C4.56513 25.75 5.83366 24.4815 5.83366 22.9167C5.83366 21.3519 4.56513 20.0833 3.00033 20.0833C1.43552 20.0833 0.166992 21.3519 0.166992 22.9167C0.166992 24.4815 1.43552 25.75 3.00033 25.75Z" fill="white"/>
</svg>
