<svg id="Layer_1" data-name="Layer 1" xmlns="http://www.w3.org/2000/svg" viewBox="0 0 1024 491"><title>logo-01</title><path id="Shape_1_copy_2" data-name="Shape 1 copy 2" d="M618,189.85c-14.26,38.72-78.35,65.88-78.35,65.88a237.39,237.39,0,0,1-50.73-19.41,276.39,276.39,0,0,1-25.81,13.09S381.24,230,356.45,186.72c-18.65-32.55-9.95-72.58,19.46-89.41,24.25-13.89,55-7.63,75.51,13.28,16.73-24,46-35.36,72.25-25.72a57.59,57.59,0,0,1,31.4,28.33,57.14,57.14,0,0,0-25.69,20.61c-17-17.3-42.42-22.48-62.49-11-18,10.32-26.65,31.19-23.61,52.28-.42-18.57,8.18-36.06,24.19-45.23,20.08-11.49,45.55-6.31,62.51,11,13.84-19.9,38.08-29.26,59.78-21.28C616.07,129.24,628.69,160.7,618,189.85Z" style="fill:#e0009f"/><circle cx="404.36" cy="148.1" r="52.06" style="fill:#fff"/><path d="M359.86,137.4c-2.41-1.24-9.33,1.53-10.72,4.24a109.85,109.85,0,0,1-163.22,38.84,148.6,148.6,0,0,0,262.25-3.73C452.55,168.24,391.5,153.68,359.86,137.4Z" style="fill:#fff"/><path d="M359.86,137.4A148.18,148.18,0,0,1,283.24,39a51.19,51.19,0,0,0-17.95,19.54,51.78,51.78,0,0,0,22.35,69.74c24.59,12.66,68.12,35.4,82.82,13.91C366.9,140.7,363.35,139.19,359.86,137.4Z" style="fill:#fff"/><path d="M267.75,107.68a51.22,51.22,0,0,1-18.9-17c-.13.24-.31.43-.43.66a51.78,51.78,0,0,0,22.35,69.75c25.43,13.09,70.53,13,83.62-12.46C363.38,131.14,292.94,120.65,267.75,107.68Z" style="fill:#fff"/><path d="M278.86,156.65a50.89,50.89,0,0,1-38.17-12,51.62,51.62,0,0,0,26.95,55.67,68.44,68.44,0,0,0,81.85-26.19C360.76,152.23,295.82,155,278.86,156.65Z" style="fill:#fff"/><path d="M438.61,127.37c-15.3-7.88-28.82,9.47-9,19.66a51.62,51.62,0,0,0,59.59-9A97.57,97.57,0,0,1,438.61,127.37Z" style="fill:#fff"/><path d="M445.83,148a97.84,97.84,0,0,1-30.46-24.36c-24.52-29.39-70.31,12.75-22.09,37.57a98.08,98.08,0,0,0,94.25-2.47A97.55,97.55,0,0,1,445.83,148Z" style="fill:#fff"/><circle cx="572.31" cy="165.15" r="44.42" style="fill:#fff"/><path d="M529.46,177.73a126.78,126.78,0,0,0,213.26,67.78A93.75,93.75,0,0,1,619,173.5c-.47-2.56-5.44-6.53-7.71-6.11C581.44,172.88,528,169.7,529.46,177.73Z" style="fill:#fff"/><path d="M601.46,168.69c6.69,21.17,47.86,13.35,71.07,9.08a43.89,43.89,0,0,0,25.63-71.83,126.4,126.4,0,0,1-86.86,61.45C608,168,604.73,168.35,601.46,168.69Z" style="fill:#fff"/><path d="M613,177.9c4.42,24,41.22,35.23,65.22,30.81a44.18,44.18,0,0,0,35.47-51.44c0-.23-.14-.42-.19-.65a43.58,43.58,0,0,1-19.64,9.23C670.08,170.22,610,161.41,613,177.9Z" style="fill:#fff"/><path d="M610.7,200a58.38,58.38,0,0,0,60.38,41.58,44,44,0,0,0,35.75-38.81,43.41,43.41,0,0,1-34.13.37C659.24,197.59,606.9,179.28,610.7,200Z" style="fill:#fff"/><path d="M505.53,136A44,44,0,0,0,552,158.05c18.68-3.44,11.92-20.94-2.52-18.29A83.22,83.22,0,0,1,505.53,136Z" style="fill:#fff"/><path d="M501.76,153.32a83.65,83.65,0,0,0,76.36,25.27c45.51-8.36,18.52-54.08-8.76-36.13a83.48,83.48,0,0,1-67.6,10.86Z" style="fill:#fff"/><path d="M93.51,444.09a33.51,33.51,0,0,1-19.68-6,39.78,39.78,0,0,1-13.48-16.79q-4.82-10.72-4.81-24.76V239.66A9.92,9.92,0,0,1,66,229.21a9.92,9.92,0,0,1,10.46,10.45V396.49q0,11.83,4.81,19.26t12.25,7.43h6.87a8.25,8.25,0,0,1,6.61,2.89,11.24,11.24,0,0,1,2.47,7.57A9.38,9.38,0,0,1,106,441.2a13.44,13.44,0,0,1-9,2.89Z" style="fill:#fff"/><path d="M198.88,445.47q-22,0-39.34-9.91a71.84,71.84,0,0,1-27.24-27.24Q122.4,391,122.4,369q0-22.29,9.9-39.62a71.84,71.84,0,0,1,27.24-27.24q17.34-9.9,39.34-9.91t39.21,9.91a72.18,72.18,0,0,1,27.1,27.24q9.92,17.33,10.18,39.62,0,22-10,39.34a73.26,73.26,0,0,1-27.24,27.24Q220.9,445.48,198.88,445.47Zm0-19.26a55.51,55.51,0,0,0,28.62-7.43,52.87,52.87,0,0,0,19.81-20.36q7.16-12.93,7.15-29.44a60.59,60.59,0,0,0-7.15-29.58,52.7,52.7,0,0,0-19.81-20.5,58.82,58.82,0,0,0-57.23,0,53.61,53.61,0,0,0-20,20.5A59.69,59.69,0,0,0,143,369q0,16.5,7.29,29.44a53.8,53.8,0,0,0,20,20.36A55.47,55.47,0,0,0,198.88,426.21Z" style="fill:#fff"/><path d="M359.84,444.09q-6.6,0-9.91-7.15L288.85,307.35a8.85,8.85,0,0,1-.27-7.16,10.1,10.1,0,0,1,5.5-5.5,8.92,8.92,0,0,1,7.43-.55,10.36,10.36,0,0,1,5.5,4.95l58.61,126.84H354.34l57.77-126.84a8.71,8.71,0,0,1,5.65-5.09,11,11,0,0,1,7.84.42,10.13,10.13,0,0,1,5.22,5.64,8.46,8.46,0,0,1-.27,7L370.29,436.94Q367,444.1,359.84,444.09Z" style="fill:#fff"/><path d="M523.27,445.47q-22.27,0-39.48-9.77a70.14,70.14,0,0,1-27-27.1q-9.78-17.34-9.77-39.62,0-22.56,9.22-39.76a69.56,69.56,0,0,1,25.45-27.1q16.23-9.9,37.42-9.91,20.9,0,36.45,9.5A64.25,64.25,0,0,1,579.68,328q8.52,16.78,8.53,38.25a9.2,9.2,0,0,1-2.76,7,9.92,9.92,0,0,1-7.15,2.62H461.37V358.25H580.5l-11.83,8.53q.27-16-5.78-28.62a47.16,47.16,0,0,0-17.19-19.81q-11.15-7.14-26.55-7.15-15.69,0-27.52,7.43a49.61,49.61,0,0,0-18.3,20.5q-6.46,13.06-6.46,29.85t7.29,29.71a53.73,53.73,0,0,0,19.95,20.36q12.64,7.44,29.16,7.43a61.09,61.09,0,0,0,20-3.44q10-3.44,16.1-8.66a11.24,11.24,0,0,1,6.87-2.62,9.68,9.68,0,0,1,6.61,2.07q3.57,3.3,3.71,7.15a7.92,7.92,0,0,1-3.16,6.6q-9.09,7.71-23.11,12.8A79.11,79.11,0,0,1,523.27,445.47Z" style="fill:#fff"/><path d="M634.43,444.09c-3.3,0-5.87-.91-7.71-2.75s-2.75-4.4-2.75-7.7V304.05c0-3.31.92-5.87,2.75-7.71s4.41-2.75,7.71-2.75,5.87.92,7.7,2.75,2.75,4.4,2.75,7.71V433.64q0,5-2.75,7.7C640.3,443.18,637.73,444.09,634.43,444.09Zm-1.65-92.72a64.26,64.26,0,0,1,8.94-30.54,60.07,60.07,0,0,1,21.19-21.19,56.11,56.11,0,0,1,29-7.7q12.66,0,19.54,3.58T716.7,306c-.74,2.75-2,4.59-3.72,5.5a11.55,11.55,0,0,1-6.33,1.11c-2.47-.19-5.27-.37-8.39-.56q-15.4-1.36-27.38,3.17a41.57,41.57,0,0,0-19,13.89q-7,9.36-7,22.29Z" style="fill:#fff"/><path d="M764.84,265a14.26,14.26,0,0,1-10.45-4.41,14.57,14.57,0,0,1-4.4-10.73q0-6.87,4.54-10.86a15.52,15.52,0,0,1,10.59-4,15.21,15.21,0,0,1,10.32,4q4.53,4,4.54,10.86A15.06,15.06,0,0,1,764.84,265Zm.28,179.11a10,10,0,0,1-10.73-10.73v-129a10,10,0,0,1,10.73-10.73,10.21,10.21,0,0,1,7.56,2.89,10.59,10.59,0,0,1,2.89,7.84v129a10.57,10.57,0,0,1-2.89,7.84A10.21,10.21,0,0,1,765.12,444.09Z" style="fill:#fff"/><path d="M895.81,445.47q-21.19,0-38-10.05a73.06,73.06,0,0,1-26.55-27.37q-9.78-17.34-9.77-39.07,0-22,10-39.35a74,74,0,0,1,27.38-27.37q17.32-10,39.07-10.05t38.93,10.05a74.42,74.42,0,0,1,27.24,27.37Q974.22,347,974.5,369l-8.53,6.6a69.48,69.48,0,0,1-9.22,35.63,68.27,68.27,0,0,1-25,25Q915.89,445.48,895.81,445.47Zm2.2-19.26a54.76,54.76,0,0,0,28.47-7.43,53.77,53.77,0,0,0,19.81-20.5,59.1,59.1,0,0,0,7.29-29.3q0-16.51-7.29-29.44A55.22,55.22,0,0,0,926.48,319a57.08,57.08,0,0,0-56.81,0,56,56,0,0,0-20.09,20.5,61.76,61.76,0,0,0,0,58.74A54.45,54.45,0,0,0,898,426.21Zm65.76,17.88a10.69,10.69,0,0,1-7.71-2.89,9.94,9.94,0,0,1-3-7.56V386.59l5.22-21.74L974.5,369v64.66a10,10,0,0,1-3,7.56A10.7,10.7,0,0,1,963.77,444.09Z" style="fill:#fff"/></svg>